<svg width="234" height="234" viewBox="0 0 234 234" fill="none" xmlns="http://www.w3.org/2000/svg">
<rect x="0.5" y="0.5" width="233" height="233" rx="116.5" fill="white"/>
<g clip-path="url(#clip0_56_172)">
<path d="M54.6831 144.627L97.9082 69.803L135.364 91.4146L92.1438 166.239L54.6831 144.627Z" fill="#FBBC04"/>
<path d="M178.949 144.367L135.697 69.5159C130.114 58.9627 117.031 54.9308 106.471 60.5106C95.9104 66.0903 91.8812 79.1648 97.4593 89.7179C97.7042 90.1807 97.965 90.6328 98.2417 91.0796L141.493 165.931C147.327 176.345 160.506 180.063 170.928 174.234C181.349 168.404 185.07 155.234 179.236 144.819C179.14 144.649 179.045 144.484 178.949 144.319V144.367Z" fill="#4285F4"/>
<path d="M73.6259 176.877C85.5695 176.877 95.2517 167.201 95.2517 155.265C95.2517 143.33 85.5695 133.654 73.6259 133.654C61.6822 133.654 52 143.33 52 155.265C52 167.201 61.6822 176.877 73.6259 176.877Z" fill="#34A853"/>
</g>
<rect x="0.5" y="0.5" width="233" height="233" rx="116.5" stroke="black"/>
<defs>
<clipPath id="clip0_56_172">
<rect width="130" height="118.989" fill="white" transform="translate(52 58)"/>
</clipPath>
</defs>
</svg>
