<svg width="234" height="234" viewBox="0 0 234 234" fill="none" xmlns="http://www.w3.org/2000/svg">
<rect width="234" height="234" rx="117" fill="#FFB54A"/>
<path d="M52 52.0031H182V181.999H52V52.0031Z" fill="#FFB54A"/>
<path d="M99.4235 118.181H110.946L105.185 95.3621L99.4235 118.181ZM61.8352 62.1812V171.883H172.33V62.1812H61.8352ZM117.27 143.2L113.054 128.371H97.4557L93.2398 143.2H82.5596L97.5962 90.7698V85.0293H111.93L129.075 143.2H117.27V143.2ZM145.658 143.2H134.134V98.9504H145.658V143.2ZM139.966 93.6404C136.667 93.6404 133.993 90.9416 133.993 87.6129C133.993 84.2838 136.667 81.5851 139.966 81.5851C143.265 81.5851 145.938 84.2838 145.938 87.6129C145.938 90.9416 143.265 93.6404 139.966 93.6404Z" fill="url(#paint0_linear_56_86)"/>
<defs>
<linearGradient id="paint0_linear_56_86" x1="117.082" y1="61.997" x2="117.082" y2="171.329" gradientUnits="userSpaceOnUse">
<stop stop-color="#251200"/>
<stop offset="1"/>
</linearGradient>
</defs>
</svg>
