<svg width="234" height="234" viewBox="0 0 234 234" fill="none" xmlns="http://www.w3.org/2000/svg">
<rect width="234" height="234" rx="117" fill="#563D7C"/>
<path d="M52 165.238C52 174.496 59.505 182 68.7624 182H165.237C174.496 182 182 174.495 182 165.238V68.7629C182 59.5039 174.495 52 165.238 52H68.7629C59.5039 52 52 59.505 52 68.7624V165.237V165.238Z" fill="#563D7C"/>
<path d="M105.908 109.504V91.0939H122.113C123.657 91.0939 125.145 91.2224 126.578 91.4799C128.011 91.7368 129.279 92.1959 130.381 92.8576C131.483 93.5193 132.365 94.4379 133.027 95.6135C133.688 96.7896 134.019 98.2963 134.019 100.133C134.019 103.44 133.027 105.829 131.043 107.299C129.059 108.769 126.523 109.504 123.436 109.504H105.908V109.504ZM88.6006 77.6445V156.355H126.743C130.271 156.355 133.707 155.915 137.051 155.033C140.395 154.151 143.371 152.791 145.98 150.954C148.589 149.117 150.665 146.746 152.209 143.843C153.752 140.94 154.524 137.504 154.524 133.536C154.524 128.612 153.329 124.404 150.941 120.914C148.552 117.423 144.933 114.979 140.082 113.582C143.61 111.892 146.274 109.724 148.075 107.078C149.875 104.433 150.776 101.126 150.776 97.1567C150.776 93.4822 150.169 90.3957 148.957 87.8968C147.744 85.3983 146.035 83.3955 143.83 81.8888C141.626 80.3821 138.98 79.298 135.893 78.6368C132.807 77.9751 129.389 77.6445 125.641 77.6445H88.6006V77.6445ZM105.908 142.906V121.299H124.759C128.507 121.299 131.52 122.162 133.799 123.89C136.077 125.617 137.217 128.501 137.217 132.544C137.217 134.602 136.867 136.292 136.169 137.615C135.471 138.938 134.534 139.985 133.358 140.756C132.182 141.528 130.822 142.079 129.279 142.41C127.735 142.741 126.119 142.906 124.428 142.906H105.908V142.906Z" fill="white"/>
</svg>
