<svg width="234" height="234" viewBox="0 0 234 234" fill="none" xmlns="http://www.w3.org/2000/svg">
<rect width="234" height="234" rx="117" fill="#1B73BA"/>
<g clip-path="url(#clip0_56_106)">
<path d="M62.8854 175.459L52 42.2501L182 42.5178L170.49 175.459L117.491 190.826L62.8854 175.459Z" fill="#1B73BA"/>
<path d="M117.491 177.961V54.9367L171.026 55.1152L161.479 165.185L117.491 177.961Z" fill="#1C88C7"/>
<path d="M157.731 70.6614H75.377L77.6079 86.742H116.688L78.2328 103.271L80.4627 118.816H137.121L135.068 140.526L115.885 144.279L98.4866 139.812L97.1478 127.482H81.1766L83.3174 153.124L117.58 162.683L150.415 152.231L154.609 102.109H119.899L157.73 86.3851L157.731 70.6614Z" fill="white"/>
</g>
<defs>
<clipPath id="clip0_56_106">
<rect width="130" height="149.076" fill="white" transform="translate(52 42)"/>
</clipPath>
</defs>
</svg>
