<svg width="234" height="234" viewBox="0 0 234 234" fill="none" xmlns="http://www.w3.org/2000/svg">
<rect x="0.5" y="0.5" width="233" height="233" rx="116.5" fill="white"/>
<g clip-path="url(#clip0_56_114)">
<path d="M34.0365 135.324H26.8771V117.459H22V111.642H26.8769V107.503C26.8769 102.599 29.034 99.0813 36.174 99.0813C37.6841 99.0813 40.0549 99.386 40.0549 99.386V104.787H37.5648C35.0275 104.787 34.0369 105.56 34.0369 107.695V111.642H39.9599L39.4325 117.459H34.0367L34.0365 135.324ZM50.4639 111.178C50.3596 111.178 50.2522 111.181 50.146 111.184C43.5074 111.184 40.4701 116.183 40.4701 123.278C40.4701 132.217 44.4099 135.794 50.1979 135.794C53.5094 135.794 55.6851 134.399 57.0075 131.795V135.327H63.8171V111.645H57.0075V115.287C55.9277 112.944 53.6912 111.205 50.4639 111.178ZM52.1954 116.774C54.9836 116.774 56.6571 118.72 56.6571 122.032L56.6636 125.414C56.6636 127.646 55.2814 130.257 52.1954 130.257C47.4511 130.257 47.5778 125.129 47.5778 123.421C47.5778 117.676 50.1056 116.774 52.1954 116.774ZM66.5672 123.487C66.5672 120.609 66.4296 111.193 78.6854 111.193C83.605 111.193 85.6593 112.759 85.6593 112.759L84.0082 117.885C84.0082 117.885 81.9566 116.754 79.2833 116.754C75.8593 116.754 73.6745 118.741 73.6745 122.237L73.6783 124.744C73.6783 128.103 75.7863 130.345 79.2903 130.345C81.7257 130.345 83.9704 129.204 83.9704 129.204L85.6173 134.223C85.6173 134.223 83.739 135.798 78.7197 135.798C67.0503 135.798 66.5673 127.35 66.5673 123.487H66.5672ZM125.586 111.184C132.225 111.184 135.31 116.183 135.31 123.278C135.31 132.217 131.37 135.794 125.582 135.794C122.271 135.794 119.823 134.399 118.501 131.795V135.327L111.777 135.324V99.8014L118.916 99.1781V114.966C119.946 112.204 123.332 111.184 125.587 111.184H125.586ZM123.585 116.774C120.797 116.774 118.916 118.72 118.916 122.032L118.909 125.414C118.905 127.646 120.212 130.257 123.585 130.257C128.329 130.257 128.203 125.129 128.203 123.421C128.203 117.676 125.675 116.774 123.585 116.774ZM98.0462 111.204C90.5165 111.204 86.5413 115.313 86.5413 122.616V123.973C86.5413 133.451 92.1237 135.892 98.779 135.892C105.248 135.892 108.176 134.08 108.176 134.08L106.84 129.257C106.84 129.257 103.396 130.724 99.635 130.724C95.7362 130.724 94.0594 129.729 93.6296 125.979H108.747V122.11C108.747 114.188 104.285 111.203 98.046 111.203L98.0462 111.204ZM98.2276 116.033C100.834 116.033 102.523 117.633 102.43 121.344H93.6427C93.7951 117.438 95.6164 116.034 98.2276 116.034V116.033ZM149.545 111.171C141.813 111.171 137.742 115.533 137.742 123.35C137.742 134.074 144.759 135.801 149.558 135.801C156.584 135.801 161.258 132.015 161.258 123.447C161.258 114.529 156.002 111.171 149.545 111.171V111.171ZM149.448 116.793C152.848 116.793 154.196 119.34 154.196 122.24V124.732C154.196 128.245 152.31 130.276 149.435 130.276C146.746 130.276 144.857 128.376 144.857 124.732V122.24C144.857 118.354 147.105 116.793 149.448 116.793V116.793ZM175.48 111.171C167.748 111.171 163.677 115.533 163.677 123.35C163.677 134.074 170.694 135.801 175.493 135.801C182.518 135.801 187.192 132.015 187.192 123.447C187.192 114.529 181.937 111.171 175.48 111.171V111.171ZM175.383 116.793C178.783 116.793 180.13 119.34 180.13 122.24V124.732C180.13 128.245 178.245 130.276 175.37 130.276C172.681 130.276 170.791 128.376 170.791 124.732V122.24C170.791 118.354 173.04 116.793 175.383 116.793V116.793ZM189.89 135.324V99.8014L197.05 99.1781V122.988L204.153 111.642H211.715L204.305 123.393L212 135.324H204.417L197.05 123.739V135.324H189.89Z" fill="#1877F2"/>
</g>
<rect x="0.5" y="0.5" width="233" height="233" rx="116.5" stroke="black"/>
<defs>
<clipPath id="clip0_56_114">
<rect width="190" height="36.973" fill="white" transform="translate(22 99)"/>
</clipPath>
</defs>
</svg>
