<svg width="234" height="234" viewBox="0 0 234 234" fill="none" xmlns="http://www.w3.org/2000/svg">
<rect x="0.5" y="0.5" width="233" height="233" rx="116.5" fill="white"/>
<g clip-path="url(#clip0_56_122)">
<path d="M94.5044 185C106.922 185 117 174.92 117 162.5V140H94.5044C82.0869 140 72.0089 150.08 72.0089 162.5C72.0089 174.92 82.0869 185 94.5044 185Z" fill="#0ACF83"/>
<path d="M72.0089 117.5C72.0089 105.08 82.0869 95 94.5044 95H117V140H94.5044C82.0869 140 72.0089 129.92 72.0089 117.5Z" fill="#A259FF"/>
<path d="M72.0098 72.5C72.0098 60.08 82.0877 50 94.5053 50H117.001V95H94.5053C82.0877 95 72.0098 84.92 72.0098 72.5Z" fill="#F24E1E"/>
<path d="M117 50H139.496C151.913 50 161.991 60.08 161.991 72.5C161.991 84.92 151.913 95 139.496 95H117V50Z" fill="#FF7262"/>
<path d="M161.991 117.5C161.991 129.92 151.913 140 139.496 140C127.078 140 117 129.92 117 117.5C117 105.08 127.078 95 139.496 95C151.913 95 161.991 105.08 161.991 117.5Z" fill="#1ABCFE"/>
</g>
<rect x="0.5" y="0.5" width="233" height="233" rx="116.5" stroke="black"/>
<defs>
<clipPath id="clip0_56_122">
<rect width="90" height="135" fill="white" transform="translate(72 50)"/>
</clipPath>
</defs>
</svg>
