<svg width="234" height="234" viewBox="0 0 234 234" fill="none" xmlns="http://www.w3.org/2000/svg">
<rect x="0.5" y="0.5" width="233" height="233" rx="116.5" fill="white"/>
<g clip-path="url(#clip0_56_143)">
<path d="M179.548 111.208L122.789 54.4521C119.522 51.1833 114.221 51.1833 110.95 54.4521L99.1636 66.2384L114.115 81.1899C117.59 80.0159 121.574 80.8035 124.343 83.5731C127.126 86.3605 127.908 90.3788 126.706 93.8644L141.115 108.274C144.601 107.073 148.624 107.85 151.408 110.639C155.299 114.529 155.299 120.833 151.408 124.726C147.515 128.619 141.211 128.619 137.317 124.726C134.39 121.796 133.666 117.497 135.148 113.891L121.71 100.453L121.709 135.816C122.683 136.297 123.573 136.934 124.343 137.7C128.235 141.59 128.235 147.895 124.343 151.79C120.451 155.681 114.144 155.681 110.257 151.79C106.365 147.895 106.365 141.59 110.257 137.7C111.189 136.767 112.298 136.028 113.517 135.526V99.8343C112.296 99.3356 111.187 98.5963 110.257 97.6603C107.308 94.716 106.599 90.39 108.11 86.7698L93.3715 72.0295L54.4527 110.946C51.1824 114.218 51.1824 119.52 54.4527 122.789L111.213 179.546C114.481 182.815 119.781 182.815 123.053 179.546L179.548 123.052C182.817 119.782 182.817 114.477 179.548 111.208" fill="#DE4C36"/>
</g>
<rect x="0.5" y="0.5" width="233" height="233" rx="116.5" stroke="black"/>
<defs>
<clipPath id="clip0_56_143">
<rect width="130" height="130" fill="white" transform="translate(52 52)"/>
</clipPath>
</defs>
</svg>
