<svg width="234" height="234" viewBox="0 0 234 234" fill="none" xmlns="http://www.w3.org/2000/svg">
<rect width="234" height="234" rx="117" fill="#161614"/>
<g clip-path="url(#clip0_56_132)">
<path d="M116.749 54C80.9936 54 52 82.9609 52 118.687C52 147.268 70.5524 171.515 96.2792 180.069C99.515 180.668 100.703 178.666 100.703 176.957C100.703 175.415 100.643 170.318 100.615 164.913C82.6018 168.826 78.8008 157.281 78.8008 157.281C75.8555 149.804 71.6117 147.816 71.6117 147.816C65.7373 143.801 72.0545 143.884 72.0545 143.884C78.5566 144.34 81.9802 150.55 81.9802 150.55C87.7551 160.439 97.1273 157.58 100.822 155.928C101.403 151.746 103.081 148.893 104.933 147.278C90.5516 145.641 75.433 140.095 75.433 115.309C75.433 108.247 77.9624 102.476 82.1046 97.9459C81.4323 96.3164 79.2162 89.7373 82.7318 80.8271C82.7318 80.8271 88.1689 79.0885 100.542 87.4579C105.707 86.0242 111.246 85.3058 116.749 85.2814C122.251 85.3058 127.795 86.0242 132.969 87.4579C145.328 79.0885 150.757 80.8271 150.757 80.8271C154.282 89.7373 152.064 96.3164 151.392 97.9459C155.543 102.476 158.056 108.246 158.056 115.309C158.056 140.154 142.909 145.625 128.491 147.226C130.813 149.233 132.882 153.17 132.882 159.205C132.882 167.86 132.807 174.826 132.807 176.957C132.807 178.678 133.973 180.695 137.255 180.06C162.968 171.497 181.497 147.258 181.497 118.687C181.497 82.9609 152.507 54 116.749 54Z" fill="white"/>
<path d="M76.2506 146.148C76.1084 146.469 75.6016 146.566 75.141 146.346C74.6713 146.135 74.4072 145.696 74.5595 145.374C74.6992 145.043 75.206 144.951 75.6747 145.173C76.1454 145.383 76.4136 145.826 76.2506 146.148V146.148ZM79.4356 148.987C79.1268 149.273 78.523 149.141 78.1132 148.689C77.6897 148.237 77.6105 147.635 77.9238 147.344C78.2422 147.058 78.8277 147.192 79.2522 147.643C79.6758 148.099 79.758 148.699 79.4351 148.988L79.4356 148.987ZM81.6207 152.62C81.2236 152.895 80.5746 152.637 80.1739 152.062C79.7773 151.487 79.7773 150.797 80.1826 150.52C80.5847 150.244 81.2236 150.493 81.6298 151.063C82.0259 151.648 82.0259 152.338 81.6202 152.62L81.6207 152.62ZM85.3155 156.827C84.9606 157.218 84.2049 157.113 83.6514 156.58C83.0857 156.058 82.9278 155.318 83.2838 154.927C83.6428 154.535 84.403 154.645 84.9606 155.174C85.5227 155.695 85.6943 156.441 85.316 156.827H85.3155ZM90.091 158.248C89.9351 158.754 89.2069 158.984 88.4736 158.769C87.7413 158.547 87.262 157.954 87.4097 157.442C87.5621 156.932 88.2933 156.692 89.0322 156.922C89.7634 157.143 90.2438 157.732 90.0915 158.248H90.091ZM95.5266 158.85C95.5449 159.384 94.9228 159.826 94.153 159.836C93.3786 159.852 92.7524 159.421 92.7443 158.896C92.7443 158.357 93.3521 157.919 94.1261 157.906C94.8959 157.891 95.5266 158.32 95.5266 158.85V158.85ZM100.866 158.645C100.958 159.166 100.423 159.701 99.6587 159.843C98.9071 159.98 98.2114 159.658 98.1154 159.143C98.022 158.609 98.5674 158.075 99.3174 157.936C100.083 157.803 100.768 158.116 100.866 158.645" fill="white"/>
</g>
<defs>
<clipPath id="clip0_56_132">
<rect width="130" height="126.344" fill="white" transform="translate(52 54)"/>
</clipPath>
</defs>
</svg>
