<svg width="234" height="234" viewBox="0 0 234 234" fill="none" xmlns="http://www.w3.org/2000/svg">
<rect x="0.5" y="0.5" width="233" height="233" rx="116.5" fill="white"/>
<g clip-path="url(#clip0_56_161)">
<path d="M117.038 176.759L140.958 103.217H93.1177L117.038 176.759H117.038Z" fill="#E24329"/>
<path d="M117.038 176.758L93.1176 103.216H59.5948L117.038 176.758Z" fill="#FC6D26"/>
<path d="M59.5949 103.216L52.326 125.566C52.0029 126.559 52.0028 127.629 52.3259 128.623C52.649 129.616 53.2787 130.482 54.1247 131.096L117.038 176.759L59.5944 103.217L59.5949 103.216Z" fill="#FCA326"/>
<path d="M59.5948 103.217H93.1176L78.7114 58.9226C77.97 56.6434 74.7424 56.6439 74.0015 58.9226L59.5948 103.217Z" fill="#E24329"/>
<path d="M117.038 176.758L140.958 103.216H174.481L117.038 176.758H117.038Z" fill="#FC6D26"/>
<path d="M174.481 103.216L181.75 125.566C182.073 126.559 182.073 127.629 181.75 128.623C181.427 129.617 180.797 130.482 179.951 131.096L117.038 176.759L174.481 103.217V103.216Z" fill="#FCA326"/>
<path d="M174.481 103.217H140.958L155.365 58.9226C156.106 56.6434 159.334 56.6439 160.075 58.9226L174.481 103.217Z" fill="#E24329"/>
</g>
<rect x="0.5" y="0.5" width="233" height="233" rx="116.5" stroke="black"/>
<defs>
<clipPath id="clip0_56_161">
<rect width="130" height="119.737" fill="white" transform="translate(52 57)"/>
</clipPath>
</defs>
</svg>
