<svg width="234" height="234" viewBox="0 0 234 234" fill="none" xmlns="http://www.w3.org/2000/svg">
<rect x="0.5" y="0.5" width="233" height="233" rx="116.5" fill="white"/>
<path d="M84.9646 181.54C77.2335 181.189 73.0337 179.902 70.2403 178.812C66.5389 177.371 63.9 175.656 61.1221 172.882C58.3441 170.108 56.6248 167.469 55.1914 163.767C54.1018 160.974 52.8152 156.774 52.4636 149.043C52.0773 140.686 52 138.179 52 117.006C52 95.833 52.085 93.3294 52.4598 84.9646C52.8114 77.2335 54.1057 73.0414 55.1875 70.2403C56.6286 66.5389 58.348 63.9 61.1182 61.1182C63.8923 58.3441 66.5312 56.6209 70.2364 55.1875C73.0298 54.098 77.2296 52.8114 84.9607 52.4598C93.3217 52.0773 95.833 52 116.998 52C138.171 52 140.674 52.085 149.039 52.4598C156.77 52.8114 160.962 54.1057 163.764 55.1875C167.465 56.6209 170.104 58.3441 172.882 61.1182C175.66 63.8923 177.371 66.535 178.812 70.2364C179.902 73.0298 181.189 77.2296 181.54 84.9607C181.923 93.3255 182 95.8292 182 117.002C182 138.167 181.923 140.678 181.54 149.043C181.189 156.774 179.894 160.974 178.812 163.767C177.371 167.469 175.656 170.108 172.882 172.882C170.108 175.656 167.465 177.371 163.764 178.812C160.97 179.902 156.77 181.189 149.039 181.54C140.682 181.923 138.171 182 116.998 182C95.833 182 93.3217 181.927 84.9646 181.54" fill="url(#paint0_radial_56_366)"/>
<path d="M84.9646 181.54C77.2335 181.189 73.0337 179.902 70.2403 178.812C66.5389 177.371 63.9 175.656 61.1221 172.882C58.3441 170.108 56.6248 167.469 55.1914 163.767C54.1018 160.974 52.8152 156.774 52.4636 149.043C52.0773 140.686 52 138.179 52 117.006C52 95.833 52.085 93.3294 52.4598 84.9646C52.8114 77.2335 54.1057 73.0414 55.1875 70.2403C56.6286 66.5389 58.348 63.9 61.1182 61.1182C63.8923 58.3441 66.5312 56.6209 70.2364 55.1875C73.0298 54.098 77.2296 52.8114 84.9607 52.4598C93.3217 52.0773 95.833 52 116.998 52C138.171 52 140.674 52.085 149.039 52.4598C156.77 52.8114 160.962 54.1057 163.764 55.1875C167.465 56.6209 170.104 58.3441 172.882 61.1182C175.66 63.8923 177.371 66.535 178.812 70.2364C179.902 73.0298 181.189 77.2296 181.54 84.9607C181.923 93.3255 182 95.8292 182 117.002C182 138.167 181.923 140.678 181.54 149.043C181.189 156.774 179.894 160.974 178.812 163.767C177.371 167.469 175.656 170.108 172.882 172.882C170.108 175.656 167.465 177.371 163.764 178.812C160.97 179.902 156.77 181.189 149.039 181.54C140.682 181.923 138.171 182 116.998 182C95.833 182 93.3217 181.927 84.9646 181.54" fill="url(#paint1_radial_56_366)"/>
<path d="M101.039 117.277C101.039 108.386 108.245 101.177 117.135 101.177C126.026 101.177 133.235 108.386 133.235 117.277C133.235 126.168 126.026 133.377 117.135 133.377C108.245 133.377 101.039 126.168 101.039 117.277V117.277ZM92.336 117.277C92.336 130.974 103.439 142.076 117.135 142.076C130.832 142.076 141.934 130.974 141.934 117.277C141.934 103.58 130.832 92.4778 117.135 92.4778C103.439 92.4778 92.3363 103.58 92.3363 117.277H92.336ZM137.121 91.4945C137.121 92.6407 137.46 93.7614 138.096 94.7147C138.733 95.668 139.638 96.4112 140.696 96.8502C141.755 97.2893 142.921 97.4045 144.045 97.1814C145.169 96.9582 146.202 96.4067 147.013 95.5965C147.824 94.7863 148.376 93.7539 148.6 92.6297C148.824 91.5056 148.71 90.3403 148.272 89.2811C147.833 88.222 147.091 87.3166 146.138 86.6794C145.185 86.0422 144.065 85.7018 142.919 85.7014H142.916C141.38 85.7021 139.907 86.3126 138.82 87.3988C137.733 88.485 137.122 89.9581 137.121 91.4945V91.4945ZM97.6237 156.589C92.9151 156.374 90.3558 155.59 88.6551 154.927C86.4002 154.05 84.7914 153.004 83.0999 151.315C81.4084 149.626 80.3614 148.018 79.4874 145.764C78.8244 144.064 78.0401 141.504 77.826 136.795C77.5919 131.704 77.5452 130.175 77.5452 117.278C77.5452 104.381 77.5958 102.856 77.826 97.7606C78.0405 93.0519 78.8306 90.4969 79.4874 88.7919C80.3652 86.5371 81.4107 84.9282 83.0999 83.2367C84.7891 81.5452 86.3964 80.4982 88.6551 79.6242C90.3551 78.9612 92.9151 78.1769 97.6237 77.9629C102.714 77.7287 104.244 77.682 117.135 77.682C130.027 77.682 131.557 77.7318 136.652 77.9636C141.361 78.1781 143.916 78.9682 145.621 79.625C147.876 80.499 149.485 81.5483 151.176 83.2375C152.868 84.9267 153.911 86.5378 154.789 88.7927C155.452 90.4927 156.236 93.0527 156.45 97.7613C156.684 102.856 156.731 104.381 156.731 117.279C156.731 130.176 156.684 131.701 156.45 136.796C156.236 141.504 155.447 144.064 154.789 145.764C153.911 148.019 152.865 149.628 151.176 151.316C149.487 153.003 147.876 154.05 145.621 154.928C143.921 155.591 141.361 156.375 136.652 156.59C131.562 156.824 130.032 156.87 117.135 156.87C104.238 156.87 102.713 156.824 97.6237 156.59V156.589ZM97.2239 69.2739C92.0825 69.5081 88.5693 70.3233 85.5012 71.5172C82.3256 72.75 79.6338 74.4041 76.9459 77.0878C74.258 79.7714 72.6082 82.4636 71.3753 85.643C70.1814 88.7131 69.3662 92.2243 69.1321 97.3657C68.8941 102.515 68.8396 104.161 68.8396 117.277C68.8396 130.392 68.8941 132.039 69.1321 137.188C69.3662 142.33 70.1814 145.841 71.3753 148.911C72.6082 152.086 74.2584 154.784 76.9459 157.466C79.6335 160.149 82.3218 161.8 85.5012 163.037C88.5751 164.231 92.0825 165.046 97.2239 165.28C102.376 165.514 104.02 165.572 117.135 165.572C130.251 165.572 131.897 165.518 137.046 165.28C142.188 165.046 145.699 164.231 148.769 163.037C151.945 161.8 154.636 160.15 157.324 157.466C160.012 154.782 161.659 152.086 162.895 148.911C164.089 145.841 164.908 142.33 165.138 137.188C165.372 132.035 165.427 130.392 165.427 117.277C165.427 104.161 165.372 102.515 165.138 97.3657C164.904 92.224 164.089 88.7111 162.895 85.643C161.659 82.4675 160.008 79.7757 157.324 77.0878C154.641 74.3998 151.945 72.75 148.773 71.5172C145.699 70.3233 142.188 69.5042 137.05 69.2739C131.9 69.0386 130.255 68.9814 117.141 68.9814C104.027 68.9814 102.378 69.0359 97.2258 69.2739" fill="white"/>
<rect x="0.5" y="0.5" width="233" height="233" rx="116.5" stroke="black"/>
<defs>
<radialGradient id="paint0_radial_56_366" cx="0" cy="0" r="1" gradientUnits="userSpaceOnUse" gradientTransform="translate(60.4135 179.152) scale(165.052)">
<stop offset="0.09" stop-color="#FA8F21"/>
<stop offset="0.78" stop-color="#D82D7E"/>
</radialGradient>
<radialGradient id="paint1_radial_56_366" cx="0" cy="0" r="1" gradientUnits="userSpaceOnUse" gradientTransform="translate(142.046 174.978) scale(145.247)">
<stop offset="0.64" stop-color="#8C3AAA" stop-opacity="0"/>
<stop offset="1" stop-color="#8C3AAA"/>
</radialGradient>
</defs>
</svg>
