<svg width="234" height="234" viewBox="0 0 234 234" fill="none" xmlns="http://www.w3.org/2000/svg">
<rect x="0.5" y="0.5" width="233" height="233" rx="116.5" fill="white"/>
<g clip-path="url(#clip0_56_379)">
<path fill-rule="evenodd" clip-rule="evenodd" d="M208.23 97.3767L216.592 97.4228C216.592 97.4228 201.046 118.498 199.777 120.216C199.365 120.772 198.739 121.372 198.421 122.116C197.618 123.985 196.794 128.085 196.794 128.085L189.143 128.124C189.143 128.124 190.334 123.849 190.285 121.573C190.242 119.584 189.227 117.598 188.658 115.603C188.082 113.584 187.301 109.633 187.301 109.633H195.167L196.251 113.975L208.23 97.3767" fill="#1A1918"/>
<path fill-rule="evenodd" clip-rule="evenodd" d="M192.398 101.822C193.941 102.752 194.888 107.886 194.888 107.886C194.888 107.886 186.814 108.006 182.42 108.006H178.623L174.012 128.085H166.961C166.961 128.085 171.35 106.264 172.385 102.307C172.721 101.026 174.685 101.246 178.002 101.246H183.299C186.719 101.246 190.716 100.809 192.398 101.822V101.822ZM159.571 111.601C159.571 111.601 159.791 110.312 158.825 108.819C158 107.547 157.239 107.251 155.069 107.183C148.943 106.99 149.062 111.533 149.062 111.533L159.571 111.601ZM166.215 106.399C167.113 109.639 165.402 117.253 165.402 117.253C165.402 117.253 156.465 117.104 151.57 117.253C150.048 117.299 148.227 117.087 147.773 117.796C147.136 118.789 148.006 120.317 148.744 120.962C149.593 121.706 151.247 121.79 151.842 121.866C155.815 122.371 164.13 121.996 164.13 121.996L162.689 128.378C162.689 128.378 150.939 128.968 145.061 127.564C143.901 127.287 142.813 126.729 142.078 125.936C141.877 125.719 141.703 125.424 141.513 125.168C141.362 124.964 140.92 124.295 140.722 123.765C139.379 120.186 140.879 113.33 142.349 109.655C142.52 109.23 142.734 108.689 142.96 108.23C143.242 107.658 143.48 107.012 143.705 106.67C143.857 106.434 144.044 106.282 144.202 106.06C144.383 105.797 144.594 105.542 144.79 105.314C145.333 104.684 145.948 104.239 146.689 103.686C149.137 101.851 153.569 100.427 158.893 100.972C160.897 101.178 163.924 101.895 165.402 103.957C165.798 104.508 165.993 105.601 166.215 106.399V106.399ZM133.874 101.221L140.711 101.181C140.711 101.181 136.901 119.266 134.959 128.085H127.093C121.597 128.085 116.701 128.766 114.618 124.829C112.598 121.006 114.526 114.719 115.432 110.447C116.072 107.424 117.42 101.246 117.42 101.246L124.504 101.181C124.504 101.181 122.503 110.8 121.67 115.603C121.371 117.324 120.756 118.944 121.399 120.216C122.009 121.426 122.863 121.513 125.466 121.573C126.291 121.592 128.992 121.573 128.992 121.573L133.874 101.221V101.221ZM101.872 114.246C102.588 111.701 103.632 108.942 103.499 106.648C103.355 104.196 101.3 101.963 99.9734 101.493C95.9786 100.082 92.2387 102.055 90.7523 103.664C88.8294 105.748 88.1783 108.182 87.4976 111.533C86.9909 114.021 86.5756 116.648 87.4976 118.588C89.13 122.018 94.2209 121.269 99.7021 121.302C100.516 119.12 101.188 116.67 101.872 114.246ZM111.364 104.207C112.145 109.888 109.148 116.16 107.084 121.613C109.189 121.804 111.033 121.584 111.166 121.741C111.304 121.945 109.755 128.251 109.216 128.267C107.545 128.311 102.01 128.357 99.7021 128.357C92.1704 128.357 85.1247 128.848 81.5315 125.101C80.0724 123.578 79.0634 120.968 78.819 119.131C78.4123 116.065 78.9221 112.689 79.6329 109.905C80.2758 107.392 81.0998 105.021 82.345 102.849C85.5099 97.3224 91.0153 93.2197 100.244 94.1668C102.034 94.3511 104.605 95.1353 106.211 96.066C106.322 96.1312 106.71 96.4406 106.799 96.4948C108.969 97.8762 110.946 101.173 111.364 104.207V104.207ZM78.0407 101.254C77.5851 103.33 77.1296 105.683 76.6495 107.734H69.0557C69.644 105.46 70.0944 103.2 70.6831 101.222C73.113 101.222 75.3723 101.254 78.0411 101.254H78.0407ZM68.7844 109.634H76.1073C75.1498 114.936 73.2539 123.489 71.7678 129.442C70.8376 133.168 70.2166 135.887 67.6997 137.854C67.4744 138.03 67.3444 137.946 67.1571 138.125C66.6933 138.568 64.548 139.081 63.3606 139.211C61.4295 139.42 59.2463 139.238 56.873 139.189C57.4941 136.918 58.1967 134.191 58.7502 132.155C64.5351 132.856 64.6815 127.385 65.8014 122.116C66.4494 119.071 68.4132 110.855 68.7844 109.634" fill="#1A1918"/>
<path fill-rule="evenodd" clip-rule="evenodd" d="M51.6983 123.472L51.5414 123.879C48.8676 129.089 44.1292 132.286 37.3707 132.427C34.2113 132.492 31.201 131.681 29.2344 130.799C24.9906 128.891 21.4209 125.353 19.4715 121.573C16.6751 116.154 16.1707 108.616 21.9853 102.986C22.0751 102.986 21.2799 104.207 21.3697 104.207L21.2097 104.728C17.0197 117.852 29.9288 129.1 42.4776 127.814C45.4934 127.505 49.3391 125.852 51.6983 123.472Z" fill="#21609B"/>
<path fill-rule="evenodd" clip-rule="evenodd" d="M44.1049 118.045C47.262 118.067 50.5596 116.591 52.5125 114.518C50.804 118.857 45.8571 121.646 39.2236 120.759C33.669 120.015 28.3779 114.423 27.833 108.819C27.4344 104.741 28.8549 102.307 31.1958 99.3548C30.3823 100.899 30.0782 102.09 30.0025 102.849C29.1133 111.671 37.0459 117.999 44.1049 118.045" fill="#21609B"/>
<path fill-rule="evenodd" clip-rule="evenodd" d="M52.1947 107.088C51.704 108.214 48.8783 110.341 47.6304 110.607C42.689 111.661 39.5245 109.316 37.8667 106.648C37.6204 106.25 37.1648 105.162 37.0832 104.885C36.4403 102.698 36.7358 99.39 38.6536 97.6778C38.0759 99.306 37.9916 101.197 38.2957 102.427C38.4799 103.17 39.0412 104.468 39.6029 105.284C40.6248 106.771 41.2732 107.132 42.5859 107.922C43.1773 108.277 43.8116 108.562 44.0856 108.64C45.3304 109.007 47.9586 109.973 52.1951 107.088" fill="#21609B"/>
</g>
<rect x="0.5" y="0.5" width="233" height="233" rx="116.5" stroke="black"/>
<defs>
<clipPath id="clip0_56_379">
<rect width="200" height="45.3039" fill="white" transform="translate(17 94)"/>
</clipPath>
</defs>
</svg>
