<svg width="234" height="234" viewBox="0 0 234 234" fill="none" xmlns="http://www.w3.org/2000/svg">
<rect width="234" height="234" rx="117" fill="#F0DB4F"/>
<path d="M52 52H182V182H52V52Z" fill="#F0DB4F"/>
<path d="M171.36 150.995C170.409 145.064 166.541 140.084 155.086 135.437C151.107 133.608 146.67 132.299 145.348 129.283C144.879 127.529 144.817 126.54 145.113 125.477C145.966 122.029 150.081 120.954 153.343 121.943C155.444 122.647 157.434 124.266 158.632 126.849C164.243 123.216 164.23 123.241 168.148 120.744C166.714 118.52 165.948 117.494 165.009 116.543C161.635 112.774 157.038 110.834 149.686 110.982C148.413 111.143 147.128 111.316 145.855 111.476C142.185 112.403 138.687 114.331 136.636 116.914C130.482 123.896 132.237 136.117 139.725 141.147C147.103 146.683 157.94 147.943 159.324 153.121C160.671 159.46 154.666 161.511 148.697 160.782C144.298 159.868 141.851 157.631 139.206 153.566C134.338 156.383 134.338 156.383 129.333 159.263C130.519 161.858 131.767 163.032 133.757 165.281C143.173 174.833 166.739 174.363 170.965 159.905C171.138 159.411 172.275 156.099 171.36 150.995V150.995ZM122.672 111.748H110.513C110.513 122.252 110.463 132.682 110.463 143.185C110.463 149.871 110.809 156 109.722 157.878C107.942 161.573 103.333 161.116 101.232 160.399C99.0944 159.349 98.007 157.854 96.7465 155.741C96.4005 155.135 96.141 154.665 96.0544 154.628C92.7551 156.643 89.4679 158.669 86.1685 160.683C87.8121 164.057 90.234 166.986 93.3358 168.889C97.9698 171.669 104.198 172.522 110.71 171.027C114.949 169.791 118.607 167.233 120.522 163.34C123.29 158.237 122.697 152.058 122.672 145.224C122.734 134.078 122.672 122.932 122.672 111.748Z" fill="#323330"/>
</svg>
