<svg width="234" height="234" viewBox="0 0 234 234" fill="none" xmlns="http://www.w3.org/2000/svg">
<rect x="0.5" y="0.5" width="233" height="233" rx="116.5" fill="white"/>
<mask id="path-2-inside-1_56_392" fill="white">
<path d="M64 104.257C64.1946 103.671 72.4389 75.4358 105.092 75.0413C105.092 75.0413 118.784 59.5783 137.44 75.0413C137.44 75.0413 142.501 79.1943 145.277 87.8176C145.277 87.8176 169.772 91.5276 173.737 111.741C173.737 111.741 182 145.025 154.018 168.409C154.018 168.409 150.078 171.558 147.453 173.021C147.453 173.021 141.633 173.03 140.431 173.021C137.869 173.001 136.252 173.021 133.923 173.021C133.923 173.021 130.345 171.744 130.197 167.662C130.197 167.662 129.897 153.465 129.977 151.013C129.977 151.013 130.048 148.716 126.699 148.859C126.699 148.859 123.503 148.492 123.049 151.236C123.049 151.236 122.974 165.88 122.902 168.477C122.902 168.477 122.677 172.797 117.839 173.007C117.839 173.007 100.498 173.53 98.1935 172.711C98.1935 172.711 94.1759 171.968 93.8753 168.177C93.8753 168.177 90.5977 148.855 90.0065 142.843C90.0065 142.843 78.9899 136.745 76.7571 135.111C76.7571 135.111 77.5013 154.8 84.3472 163.126C84.3472 163.126 85.5409 164.169 83.155 165.651C83.155 165.651 82.2633 166.394 81.3658 165.956C81.3658 165.956 52 149.578 62.8163 107.777"/>
</mask>
<path d="M64 104.257C64.1946 103.671 72.4389 75.4358 105.092 75.0413C105.092 75.0413 118.784 59.5783 137.44 75.0413C137.44 75.0413 142.501 79.1943 145.277 87.8176C145.277 87.8176 169.772 91.5276 173.737 111.741C173.737 111.741 182 145.025 154.018 168.409C154.018 168.409 150.078 171.558 147.453 173.021C147.453 173.021 141.633 173.03 140.431 173.021C137.869 173.001 136.252 173.021 133.923 173.021C133.923 173.021 130.345 171.744 130.197 167.662C130.197 167.662 129.897 153.465 129.977 151.013C129.977 151.013 130.048 148.716 126.699 148.859C126.699 148.859 123.503 148.492 123.049 151.236C123.049 151.236 122.974 165.88 122.902 168.477C122.902 168.477 122.677 172.797 117.839 173.007C117.839 173.007 100.498 173.53 98.1935 172.711C98.1935 172.711 94.1759 171.968 93.8753 168.177C93.8753 168.177 90.5977 148.855 90.0065 142.843C90.0065 142.843 78.9899 136.745 76.7571 135.111C76.7571 135.111 77.5013 154.8 84.3472 163.126C84.3472 163.126 85.5409 164.169 83.155 165.651C83.155 165.651 82.2633 166.394 81.3658 165.956C81.3658 165.956 52 149.578 62.8163 107.777" fill="url(#paint0_linear_56_392)"/>
<path d="M105.092 75.0413L105.104 76.0413L105.547 76.0359L105.841 75.7042L105.092 75.0413ZM137.44 75.0413L136.801 75.8112L136.805 75.8144L137.44 75.0413ZM145.277 87.8176L144.325 88.1241L144.515 88.7136L145.128 88.8063L145.277 87.8176ZM173.737 111.741L172.756 111.933L172.761 111.958L172.767 111.982L173.737 111.741ZM154.018 168.409L154.642 169.191L154.651 169.184L154.66 169.177L154.018 168.409ZM147.453 173.021L147.454 174.021L147.714 174.021L147.94 173.895L147.453 173.021ZM140.431 173.021L140.423 174.021L140.424 174.021L140.431 173.021ZM133.923 173.021L133.587 173.963L133.75 174.021H133.923V173.021ZM130.197 167.662L129.197 167.683L129.198 167.691L129.198 167.698L130.197 167.662ZM129.977 151.013L130.976 151.046L130.976 151.044L129.977 151.013ZM126.699 148.859L126.585 149.853L126.663 149.862L126.742 149.858L126.699 148.859ZM123.049 151.236L122.063 151.073L122.05 151.151L122.049 151.231L123.049 151.236ZM122.902 168.477L123.901 168.529L123.901 168.516L123.902 168.504L122.902 168.477ZM117.839 173.007L117.87 174.007L117.883 174.006L117.839 173.007ZM98.1935 172.711L98.5284 171.769L98.4535 171.742L98.3754 171.728L98.1935 172.711ZM93.8753 168.177L94.8722 168.098L94.8687 168.053L94.8612 168.009L93.8753 168.177ZM90.0065 142.843L91.0018 142.745L90.9504 142.222L90.4908 141.968L90.0065 142.843ZM76.7571 135.111L77.3475 134.304L75.6797 133.084L75.7578 135.149L76.7571 135.111ZM84.3472 163.126L83.5748 163.761L83.6271 163.825L83.6892 163.879L84.3472 163.126ZM83.155 165.651L82.6273 164.802L82.5682 164.839L82.5147 164.883L83.155 165.651ZM81.3658 165.956L80.8788 166.829L80.9024 166.842L80.9266 166.854L81.3658 165.956ZM64.949 104.572C65.1461 103.979 73.1901 76.4268 105.104 76.0413L105.08 74.0414C88.4222 74.2426 77.9391 81.5621 71.6155 88.9257C68.4622 92.5975 66.3481 96.2727 65.009 99.068C64.339 100.467 63.8618 101.647 63.5448 102.501C63.3862 102.928 63.2678 103.273 63.1853 103.522C63.1441 103.647 63.1121 103.747 63.0887 103.821C63.0772 103.858 63.0677 103.888 63.0608 103.91C63.0526 103.936 63.0507 103.942 63.051 103.941L64.949 104.572ZM105.092 75.0413C105.841 75.7042 105.841 75.7046 105.84 75.7049C105.84 75.705 105.84 75.7052 105.84 75.7053C105.84 75.7054 105.84 75.7052 105.84 75.7049C105.841 75.7042 105.843 75.7026 105.845 75.7C105.849 75.695 105.857 75.6864 105.868 75.6744C105.89 75.6504 105.925 75.6128 105.973 75.5631C106.068 75.4636 106.214 75.3155 106.408 75.13C106.796 74.7589 107.377 74.2395 108.132 73.6603C109.645 72.4999 111.842 71.113 114.589 70.1907C120.016 68.3677 127.741 68.3012 136.801 75.8112L138.078 74.2714C128.483 66.3184 120.034 66.2519 113.952 68.2947C110.943 69.3052 108.552 70.8177 106.915 72.0734C106.095 72.7023 105.46 73.2701 105.026 73.6842C104.809 73.8913 104.643 74.0604 104.528 74.1798C104.471 74.2396 104.427 74.2869 104.396 74.3205C104.381 74.3373 104.369 74.3506 104.36 74.3603C104.356 74.3652 104.352 74.3691 104.349 74.3721C104.348 74.3737 104.347 74.3749 104.346 74.376C104.345 74.3765 104.345 74.3771 104.345 74.3774C104.344 74.3779 104.344 74.3784 105.092 75.0413ZM137.44 75.0413C136.805 75.8144 136.805 75.8142 136.805 75.814C136.805 75.8139 136.804 75.8137 136.804 75.8136C136.804 75.8134 136.804 75.8133 136.804 75.8133C136.804 75.8131 136.804 75.8133 136.804 75.8137C136.805 75.8144 136.807 75.8162 136.811 75.819C136.817 75.8245 136.829 75.8341 136.844 75.8476C136.876 75.8748 136.925 75.918 136.991 75.9774C137.122 76.0962 137.317 76.2795 137.562 76.5278C138.053 77.0247 138.744 77.7811 139.522 78.8018C141.077 80.8431 142.977 83.9375 144.325 88.1241L146.229 87.5111C144.801 83.0744 142.782 79.7807 141.113 77.5897C140.278 76.4942 139.53 75.6734 138.985 75.1221C138.713 74.8464 138.491 74.6378 138.334 74.4958C138.256 74.4248 138.194 74.3704 138.15 74.3325C138.128 74.3135 138.11 74.2987 138.098 74.288C138.091 74.2827 138.086 74.2784 138.082 74.2751C138.08 74.2734 138.078 74.272 138.077 74.2709C138.076 74.2703 138.076 74.2698 138.075 74.2694C138.075 74.2692 138.075 74.2689 138.075 74.2688C138.074 74.2685 138.074 74.2683 137.44 75.0413ZM145.277 87.8176C145.128 88.8063 145.127 88.8063 145.127 88.8062C145.127 88.8062 145.127 88.8062 145.127 88.8062C145.127 88.8063 145.128 88.8064 145.129 88.8065C145.131 88.8068 145.134 88.8074 145.139 88.8081C145.149 88.8097 145.164 88.8121 145.186 88.8156C145.228 88.8225 145.292 88.8335 145.378 88.8487C145.55 88.8792 145.805 88.9271 146.134 88.9955C146.792 89.1323 147.741 89.3509 148.896 89.6757C151.207 90.3261 154.325 91.3987 157.558 93.0858C164.034 96.4651 170.855 102.241 172.756 111.933L174.718 111.548C172.655 101.028 165.246 94.8417 158.483 91.3127C155.097 89.5456 151.843 88.4274 149.438 87.7505C148.234 87.4117 147.239 87.1825 146.541 87.0374C146.193 86.9649 145.918 86.9134 145.729 86.8797C145.634 86.8628 145.561 86.8504 145.51 86.8421C145.485 86.8379 145.465 86.8348 145.451 86.8326C145.444 86.8315 145.439 86.8306 145.435 86.83C145.433 86.8297 145.431 86.8295 145.43 86.8293C145.429 86.8292 145.428 86.8291 145.428 86.829C145.428 86.8289 145.427 86.8289 145.277 87.8176ZM173.737 111.741C172.767 111.982 172.767 111.982 172.766 111.981C172.767 111.981 172.766 111.981 172.767 111.982C172.767 111.982 172.767 111.983 172.767 111.984C172.768 111.987 172.769 111.992 172.771 111.999C172.774 112.012 172.779 112.034 172.786 112.063C172.799 112.122 172.82 112.211 172.846 112.331C172.897 112.57 172.97 112.927 173.053 113.393C173.22 114.325 173.43 115.69 173.596 117.403C173.928 120.832 174.084 125.646 173.379 131.18C171.971 142.237 167.13 156.149 153.377 167.642L154.66 169.177C168.888 157.286 173.907 142.863 175.363 131.432C176.09 125.722 175.929 120.754 175.586 117.211C175.415 115.438 175.197 114.02 175.022 113.04C174.934 112.551 174.857 112.17 174.801 111.91C174.773 111.78 174.75 111.68 174.734 111.611C174.726 111.577 174.72 111.55 174.715 111.532C174.713 111.522 174.711 111.515 174.71 111.51C174.709 111.507 174.709 111.505 174.709 111.503C174.708 111.503 174.708 111.502 174.708 111.501C174.708 111.501 174.708 111.5 173.737 111.741ZM154.018 168.409C153.394 167.628 153.394 167.628 153.394 167.628C153.394 167.628 153.394 167.628 153.394 167.628C153.394 167.628 153.394 167.628 153.394 167.629C153.393 167.629 153.393 167.629 153.392 167.63C153.39 167.631 153.387 167.634 153.384 167.636C153.377 167.642 153.366 167.651 153.352 167.662C153.323 167.685 153.28 167.718 153.225 167.762C153.114 167.85 152.952 167.977 152.749 168.134C152.343 168.448 151.775 168.883 151.126 169.362C149.817 170.329 148.219 171.449 146.966 172.148L147.94 173.895C149.312 173.13 150.997 171.944 152.314 170.971C152.978 170.48 153.559 170.036 153.974 169.715C154.182 169.554 154.348 169.424 154.463 169.333C154.52 169.288 154.565 169.253 154.595 169.228C154.61 169.216 154.622 169.207 154.63 169.201C154.634 169.198 154.637 169.195 154.639 169.194C154.64 169.193 154.641 169.192 154.641 169.192C154.642 169.191 154.642 169.191 154.642 169.191C154.642 169.191 154.642 169.191 154.642 169.191C154.642 169.191 154.642 169.191 154.018 168.409ZM147.453 173.021C147.451 172.021 147.451 172.021 147.451 172.021C147.451 172.021 147.451 172.021 147.451 172.021C147.451 172.021 147.451 172.021 147.45 172.021C147.45 172.021 147.449 172.021 147.447 172.021C147.444 172.021 147.44 172.021 147.435 172.021C147.424 172.021 147.407 172.021 147.386 172.021C147.343 172.021 147.28 172.021 147.199 172.022C147.038 172.022 146.806 172.022 146.524 172.022C145.959 172.023 145.195 172.024 144.392 172.024C142.785 172.026 141.034 172.026 140.438 172.021L140.424 174.021C141.03 174.026 142.79 174.026 144.393 174.024C145.196 174.024 145.962 174.023 146.526 174.022C146.808 174.022 147.04 174.022 147.202 174.022C147.283 174.021 147.346 174.021 147.389 174.021C147.41 174.021 147.427 174.021 147.438 174.021C147.443 174.021 147.447 174.021 147.45 174.021C147.452 174.021 147.453 174.021 147.453 174.021C147.454 174.021 147.454 174.021 147.454 174.021C147.454 174.021 147.454 174.021 147.454 174.021C147.454 174.021 147.454 174.021 147.453 173.021ZM140.439 172.021C137.873 172.001 136.239 172.021 133.923 172.021V174.021C136.264 174.021 137.865 174.001 140.423 174.021L140.439 172.021ZM133.923 173.021C134.259 172.079 134.26 172.08 134.26 172.08C134.26 172.08 134.261 172.08 134.261 172.08C134.261 172.08 134.262 172.08 134.262 172.081C134.263 172.081 134.264 172.081 134.264 172.081C134.265 172.082 134.265 172.081 134.264 172.081C134.262 172.081 134.257 172.079 134.25 172.076C134.234 172.07 134.207 172.058 134.169 172.042C134.095 172.009 133.98 171.956 133.839 171.879C133.555 171.725 133.173 171.482 132.788 171.132C132.03 170.443 131.259 169.343 131.197 167.626L129.198 167.698C129.283 170.063 130.375 171.642 131.443 172.612C131.971 173.092 132.492 173.424 132.884 173.636C133.081 173.743 133.247 173.822 133.368 173.875C133.429 173.901 133.479 173.922 133.516 173.936C133.534 173.943 133.549 173.949 133.561 173.954C133.567 173.956 133.572 173.958 133.577 173.959C133.579 173.96 133.581 173.961 133.582 173.961C133.583 173.962 133.584 173.962 133.585 173.962C133.585 173.962 133.585 173.963 133.586 173.963C133.586 173.963 133.587 173.963 133.923 173.021ZM130.197 167.662C131.197 167.641 131.197 167.641 131.197 167.641C131.197 167.641 131.197 167.64 131.197 167.64C131.197 167.64 131.197 167.639 131.197 167.638C131.197 167.637 131.197 167.634 131.197 167.631C131.197 167.624 131.196 167.614 131.196 167.6C131.196 167.573 131.195 167.533 131.194 167.481C131.191 167.377 131.188 167.223 131.184 167.027C131.176 166.634 131.165 166.07 131.151 165.386C131.124 164.017 131.089 162.167 131.057 160.24C130.991 156.368 130.937 152.24 130.976 151.046L128.977 150.98C128.936 152.238 128.992 156.434 129.057 160.274C129.09 162.203 129.125 164.055 129.152 165.425C129.165 166.11 129.177 166.675 129.185 167.068C129.189 167.264 129.192 167.418 129.194 167.523C129.195 167.575 129.196 167.615 129.197 167.642C129.197 167.656 129.197 167.666 129.197 167.673C129.197 167.676 129.197 167.679 129.197 167.681C129.197 167.681 129.197 167.682 129.197 167.683C129.197 167.683 129.197 167.683 129.197 167.683C129.197 167.683 129.197 167.683 130.197 167.662ZM129.977 151.013C130.976 151.044 130.976 151.043 130.976 151.043C130.976 151.042 130.976 151.042 130.976 151.041C130.976 151.04 130.976 151.039 130.977 151.038C130.977 151.036 130.977 151.033 130.977 151.031C130.977 151.026 130.977 151.02 130.977 151.014C130.977 151.002 130.977 150.987 130.977 150.97C130.976 150.936 130.974 150.892 130.971 150.841C130.963 150.74 130.947 150.604 130.914 150.447C130.847 150.134 130.705 149.714 130.405 149.298C129.762 148.406 128.582 147.778 126.657 147.86L126.742 149.858C128.166 149.798 128.624 150.247 128.783 150.467C128.883 150.607 128.934 150.752 128.958 150.866C128.97 150.921 128.974 150.964 128.976 150.988C128.977 150.999 128.977 151.005 128.977 151.005C128.977 151.004 128.977 151.002 128.977 150.999C128.977 150.997 128.977 150.994 128.977 150.992C128.977 150.99 128.977 150.989 128.977 150.987C128.977 150.986 128.977 150.985 128.977 150.985C128.977 150.984 128.977 150.983 128.977 150.983C128.977 150.982 128.977 150.982 129.977 151.013ZM126.699 148.859C126.813 147.866 126.813 147.866 126.812 147.866C126.812 147.866 126.812 147.866 126.812 147.866C126.811 147.866 126.81 147.865 126.809 147.865C126.808 147.865 126.806 147.865 126.804 147.865C126.8 147.864 126.796 147.864 126.79 147.863C126.779 147.862 126.766 147.861 126.749 147.859C126.715 147.857 126.67 147.853 126.614 147.85C126.503 147.844 126.349 147.84 126.165 147.845C125.802 147.855 125.298 147.902 124.763 148.059C123.663 148.382 122.371 149.209 122.063 151.073L124.036 151.399C124.182 150.519 124.714 150.158 125.326 149.978C125.647 149.884 125.97 149.851 126.22 149.844C126.343 149.841 126.443 149.844 126.508 149.847C126.541 149.849 126.564 149.851 126.578 149.852C126.584 149.853 126.588 149.853 126.59 149.853C126.59 149.853 126.59 149.853 126.589 149.853C126.589 149.853 126.589 149.853 126.588 149.853C126.587 149.853 126.587 149.853 126.587 149.853C126.586 149.853 126.586 149.853 126.586 149.853C126.585 149.853 126.585 149.853 126.699 148.859ZM123.049 151.236C122.049 151.231 122.049 151.231 122.049 151.231C122.049 151.231 122.049 151.231 122.049 151.231C122.049 151.232 122.049 151.232 122.049 151.233C122.049 151.235 122.049 151.238 122.049 151.241C122.049 151.248 122.049 151.259 122.049 151.273C122.049 151.3 122.049 151.342 122.049 151.396C122.048 151.503 122.047 151.662 122.046 151.865C122.044 152.27 122.041 152.852 122.036 153.559C122.028 154.972 122.016 156.883 122.003 158.876C121.975 162.868 121.938 167.164 121.902 168.449L123.902 168.504C123.938 167.193 123.975 162.869 124.002 158.89C124.016 156.896 124.028 154.984 124.036 153.57C124.04 152.864 124.044 152.281 124.046 151.876C124.047 151.673 124.048 151.514 124.048 151.406C124.049 151.352 124.049 151.311 124.049 151.283C124.049 151.269 124.049 151.259 124.049 151.252C124.049 151.248 124.049 151.246 124.049 151.244C124.049 151.243 124.049 151.242 124.049 151.242C124.049 151.241 124.049 151.241 124.049 151.241C124.049 151.241 124.049 151.241 123.049 151.236ZM122.902 168.477C121.903 168.425 121.903 168.424 121.903 168.424C121.903 168.424 121.903 168.423 121.903 168.423C121.903 168.422 121.903 168.422 121.903 168.421C121.904 168.42 121.904 168.419 121.904 168.419C121.904 168.418 121.904 168.418 121.904 168.419C121.903 168.421 121.903 168.427 121.902 168.436C121.901 168.455 121.897 168.488 121.891 168.532C121.88 168.622 121.858 168.758 121.818 168.925C121.738 169.262 121.591 169.707 121.326 170.15C120.825 170.99 119.854 171.919 117.796 172.008L117.883 174.006C120.663 173.885 122.223 172.549 123.043 171.176C123.439 170.513 123.651 169.865 123.764 169.385C123.821 169.144 123.855 168.941 123.874 168.793C123.884 168.719 123.89 168.659 123.894 168.614C123.896 168.592 123.898 168.573 123.899 168.559C123.899 168.552 123.9 168.546 123.9 168.541C123.9 168.538 123.9 168.536 123.9 168.534C123.9 168.533 123.9 168.532 123.9 168.531C123.9 168.531 123.901 168.53 123.901 168.53C123.901 168.529 123.901 168.529 122.902 168.477ZM117.839 173.007C117.809 172.007 117.809 172.007 117.809 172.007C117.809 172.007 117.809 172.007 117.809 172.007C117.808 172.007 117.807 172.007 117.806 172.007C117.804 172.008 117.801 172.008 117.797 172.008C117.789 172.008 117.777 172.008 117.76 172.009C117.728 172.01 117.679 172.011 117.616 172.013C117.489 172.017 117.302 172.022 117.063 172.028C116.586 172.041 115.901 172.058 115.072 172.076C113.413 172.112 111.179 172.152 108.875 172.166C106.568 172.18 104.199 172.169 102.269 172.103C101.303 172.071 100.458 172.025 99.7911 171.963C99.088 171.898 98.6831 171.824 98.5284 171.769L97.8587 173.653C98.2801 173.803 98.9211 173.891 99.6075 173.955C100.33 174.021 101.218 174.069 102.201 174.102C104.171 174.169 106.57 174.18 108.887 174.166C111.205 174.152 113.451 174.112 115.116 174.076C115.948 174.057 116.636 174.04 117.116 174.027C117.356 174.021 117.544 174.016 117.673 174.012C117.737 174.01 117.786 174.009 117.819 174.008C117.836 174.008 117.848 174.007 117.857 174.007C117.861 174.007 117.864 174.007 117.866 174.007C117.867 174.007 117.868 174.007 117.869 174.007C117.869 174.007 117.869 174.007 117.869 174.007C117.87 174.007 117.87 174.007 117.839 173.007ZM98.1935 172.711C98.3754 171.728 98.3758 171.728 98.3763 171.728C98.3764 171.728 98.3768 171.728 98.377 171.728C98.3774 171.728 98.3778 171.728 98.3782 171.728C98.3789 171.728 98.3793 171.729 98.3795 171.729C98.3799 171.729 98.3795 171.729 98.3781 171.728C98.3753 171.728 98.369 171.726 98.3594 171.724C98.3401 171.72 98.3076 171.713 98.2638 171.702C98.1759 171.68 98.0437 171.643 97.8813 171.588C97.5538 171.478 97.119 171.297 96.6821 171.021C95.8195 170.475 94.9905 169.59 94.8722 168.098L92.8785 168.256C93.0607 170.555 94.3908 171.937 95.6122 172.711C96.2173 173.094 96.8057 173.336 97.2409 173.483C97.4598 173.557 97.6438 173.608 97.7768 173.642C97.8435 173.658 97.8976 173.671 97.9373 173.679C97.9572 173.684 97.9735 173.687 97.9859 173.689C97.9922 173.691 97.9975 173.692 98.0018 173.693C98.0039 173.693 98.0058 173.693 98.0075 173.694C98.0083 173.694 98.009 173.694 98.0097 173.694C98.0101 173.694 98.0106 173.694 98.0108 173.694C98.0112 173.694 98.0117 173.694 98.1935 172.711ZM93.8753 168.177C94.8612 168.009 94.8612 168.009 94.8612 168.009C94.8612 168.009 94.8612 168.009 94.8611 168.008C94.861 168.008 94.8609 168.007 94.8607 168.006C94.8603 168.004 94.8597 168 94.8589 167.995C94.8573 167.986 94.855 167.972 94.8519 167.954C94.8457 167.917 94.8365 167.863 94.8244 167.792C94.8003 167.649 94.7648 167.439 94.7195 167.169C94.6288 166.629 94.4986 165.852 94.3404 164.9C94.0241 162.996 93.5963 160.395 93.15 157.606C92.2552 152.014 91.2937 145.714 91.0018 142.745L89.0113 142.941C89.3105 145.983 90.2834 152.35 91.1752 157.922C91.6222 160.716 92.0507 163.321 92.3675 165.227C92.5259 166.181 92.6563 166.96 92.7472 167.5C92.7926 167.771 92.8282 167.981 92.8523 168.125C92.8644 168.196 92.8737 168.251 92.8799 168.288C92.8831 168.306 92.8854 168.32 92.887 168.33C92.8878 168.334 92.8884 168.338 92.8888 168.34C92.889 168.341 92.8892 168.342 92.8893 168.343C92.8893 168.343 92.8894 168.343 92.8894 168.344C92.8894 168.344 92.8894 168.344 93.8753 168.177ZM90.0065 142.843C90.4908 141.968 90.4908 141.968 90.4907 141.968C90.4907 141.968 90.4905 141.968 90.4904 141.968C90.4901 141.967 90.4896 141.967 90.4889 141.967C90.4876 141.966 90.4857 141.965 90.483 141.963C90.4778 141.961 90.4699 141.956 90.4596 141.95C90.4388 141.939 90.4078 141.922 90.3674 141.899C90.2864 141.854 90.1673 141.788 90.0148 141.704C89.7098 141.534 89.2715 141.29 88.7385 140.992C87.6723 140.395 86.2279 139.583 84.7143 138.721C81.655 136.977 78.4061 135.079 77.3475 134.304L76.1666 135.918C77.3409 136.777 80.7167 138.744 83.724 140.458C85.2436 141.324 86.693 142.139 87.7621 142.737C88.2968 143.036 88.7366 143.281 89.0428 143.451C89.1959 143.537 89.3157 143.603 89.3972 143.648C89.438 143.671 89.4692 143.688 89.4902 143.7C89.5007 143.706 89.5087 143.71 89.5141 143.713C89.5168 143.715 89.5188 143.716 89.5202 143.716C89.5208 143.717 89.5214 143.717 89.5217 143.717C89.5219 143.717 89.522 143.717 89.5221 143.718C89.5222 143.718 89.5223 143.718 90.0065 142.843ZM76.7571 135.111C75.7578 135.149 75.7578 135.149 75.7578 135.15C75.7578 135.15 75.7578 135.15 75.7578 135.151C75.7579 135.151 75.7579 135.152 75.758 135.154C75.7581 135.157 75.7582 135.161 75.7585 135.166C75.7589 135.176 75.7595 135.191 75.7603 135.211C75.762 135.25 75.7646 135.308 75.7683 135.383C75.7756 135.533 75.7872 135.753 75.8043 136.034C75.8385 136.597 75.895 137.408 75.9843 138.407C76.1628 140.403 76.473 143.153 76.9999 146.168C78.0429 152.139 79.9709 159.378 83.5748 163.761L85.1196 162.491C81.8776 158.548 80.0106 151.78 78.97 145.824C78.4551 142.877 78.1513 140.185 77.9764 138.229C77.8889 137.251 77.8338 136.459 77.8006 135.913C77.784 135.64 77.7729 135.428 77.7659 135.286C77.7625 135.214 77.76 135.161 77.7585 135.125C77.7577 135.107 77.7572 135.094 77.7568 135.085C77.7566 135.081 77.7565 135.078 77.7564 135.076C77.7564 135.075 77.7564 135.074 77.7564 135.074C77.7564 135.073 77.7564 135.073 77.7564 135.073C77.7564 135.073 77.7564 135.073 76.7571 135.111ZM84.3472 163.126C83.6892 163.879 83.6885 163.878 83.6879 163.878C83.6877 163.878 83.6871 163.877 83.6867 163.877C83.6859 163.876 83.6851 163.875 83.6844 163.875C83.6828 163.873 83.6813 163.872 83.6799 163.871C83.6771 163.868 83.6744 163.866 83.672 163.864C83.6672 163.859 83.6632 163.855 83.6599 163.852C83.6533 163.846 83.6493 163.841 83.647 163.839C83.6431 163.834 83.6437 163.834 83.6454 163.837C83.6471 163.84 83.6473 163.841 83.647 163.84C83.6468 163.839 83.6464 163.838 83.6461 163.836C83.646 163.836 83.6459 163.835 83.6459 163.834C83.6459 163.834 83.6458 163.834 83.6458 163.834C83.6458 163.833 83.6458 163.833 83.6458 163.833C83.6458 163.833 83.6458 163.833 83.6458 163.834C83.6458 163.834 83.6458 163.834 83.6457 163.835C83.6456 163.836 83.6454 163.838 83.645 163.841C83.644 163.846 83.6418 163.856 83.6365 163.872C83.626 163.902 83.6007 163.959 83.5402 164.042C83.4157 164.212 83.1542 164.475 82.6273 164.802L83.6826 166.501C84.9921 165.687 85.6462 164.792 85.6458 163.833C85.6456 163.38 85.4931 163.023 85.3475 162.787C85.2746 162.669 85.2006 162.576 85.1407 162.509C85.1105 162.475 85.0831 162.447 85.0602 162.424C85.0487 162.413 85.0383 162.403 85.0291 162.395C85.0245 162.39 85.0202 162.386 85.0162 162.383C85.0143 162.381 85.0123 162.379 85.0105 162.378C85.0096 162.377 85.0087 162.376 85.0078 162.375C85.0074 162.375 85.0068 162.374 85.0065 162.374C85.0059 162.374 85.0053 162.373 84.3472 163.126ZM83.155 165.651C82.5147 164.883 82.515 164.883 82.5153 164.883C82.5154 164.883 82.5157 164.882 82.5159 164.882C82.5162 164.882 82.5166 164.882 82.5169 164.881C82.5176 164.881 82.5183 164.88 82.5189 164.88C82.5201 164.879 82.5211 164.878 82.5219 164.877C82.5235 164.876 82.5244 164.875 82.5246 164.875C82.525 164.875 82.5226 164.877 82.5176 164.88C82.5076 164.888 82.488 164.902 82.4605 164.92C82.4036 164.956 82.3238 165.001 82.233 165.037C82.0416 165.111 81.9084 165.108 81.805 165.057L80.9266 166.854C81.7207 167.242 82.482 167.087 82.9609 166.899C83.2052 166.804 83.4044 166.691 83.5427 166.602C83.6128 166.556 83.6699 166.516 83.7122 166.484C83.7334 166.469 83.751 166.455 83.7648 166.444C83.7718 166.439 83.7778 166.434 83.7829 166.43C83.7854 166.428 83.7877 166.426 83.7897 166.424C83.7908 166.423 83.7917 166.422 83.7926 166.422C83.7931 166.421 83.7935 166.421 83.7939 166.421C83.7942 166.42 83.7945 166.42 83.7946 166.42C83.7949 166.42 83.7952 166.42 83.155 165.651ZM81.3658 165.956C81.8529 165.082 81.8533 165.083 81.8536 165.083C81.8536 165.083 81.8538 165.083 81.8537 165.083C81.8535 165.083 81.8529 165.082 81.8518 165.082C81.8497 165.081 81.8458 165.078 81.8402 165.075C81.8291 165.069 81.811 165.058 81.7863 165.044C81.737 165.015 81.6612 164.97 81.5611 164.909C81.3609 164.786 81.0636 164.598 80.6859 164.342C79.9304 163.831 78.8545 163.049 77.5927 161.98C75.0682 159.842 71.8069 156.561 68.8762 152.001C63.033 142.909 58.4481 128.65 63.7844 108.027L61.8482 107.526C56.3681 128.705 61.0581 143.535 67.1937 153.082C70.2524 157.842 73.6566 161.268 76.3001 163.507C77.6224 164.627 78.7562 165.451 79.5644 165.998C79.9686 166.272 80.2916 166.477 80.5163 166.614C80.6286 166.683 80.7164 166.735 80.7775 166.771C80.8081 166.789 80.832 166.803 80.8489 166.812C80.8574 166.817 80.8642 166.821 80.8692 166.824C80.8716 166.825 80.8737 166.826 80.8753 166.827C80.8761 166.828 80.877 166.828 80.8774 166.828C80.8781 166.829 80.8788 166.829 81.3658 165.956Z" fill="black" mask="url(#path-2-inside-1_56_392)"/>
<path d="M96.8708 131.191C96.8708 131.191 122.491 145.772 137.992 122.364C137.992 122.364 150.544 105.996 145.545 88.5364C145.545 88.5364 154.347 103.209 137.315 125.975C137.319 125.979 122.873 146.273 96.8708 131.191V131.191Z" fill="#006699"/>
<path d="M86.7332 127.751C86.7332 127.751 88.561 136.197 82.9403 138.855C82.9403 138.855 70.1545 133.596 71.447 123.883C71.447 123.883 71.8478 121.459 74.228 122.945C74.228 122.945 79.8873 126.018 84.353 126.904C84.3472 126.904 86.6187 127.112 86.7332 127.751V127.751Z" fill="#CEE6FF"/>
<path d="M83.1835 113.474C83.1835 113.474 85.1114 105.247 92.3867 105.767C92.3867 105.767 98.5699 105.933 98.7889 114.422C98.7889 114.428 93.9182 101.727 83.1835 113.474V113.474Z" fill="#006699"/>
<rect x="0.5" y="0.5" width="233" height="233" rx="116.5" stroke="black"/>
<defs>
<linearGradient id="paint0_linear_56_392" x1="117.652" y1="71.3289" x2="117.652" y2="170.325" gradientUnits="userSpaceOnUse">
<stop offset="0.018" stop-color="#3BB6FF"/>
<stop offset="0.302" stop-color="#39AFFF"/>
<stop offset="0.552" stop-color="#36A3FF"/>
<stop offset="0.717" stop-color="#359FFF"/>
<stop offset="0.832" stop-color="#3398FF"/>
<stop offset="0.964" stop-color="#3297FF"/>
</linearGradient>
</defs>
</svg>
