<svg width="234" height="234" viewBox="0 0 234 234" fill="none" xmlns="http://www.w3.org/2000/svg">
<rect x="0.5" y="0.5" width="233" height="233" rx="116.5" fill="white"/>
<g clip-path="url(#clip0_56_406)">
<path d="M181.696 80.6868C181.744 80.865 181.768 81.0488 181.769 81.2334V109.927C181.769 110.296 181.672 110.657 181.487 110.976C181.303 111.295 181.037 111.559 180.718 111.742L156.651 125.608V153.091C156.651 153.839 156.254 154.53 155.605 154.906L105.367 183.846C105.252 183.912 105.126 183.953 105.001 183.998C104.954 184.014 104.91 184.042 104.86 184.055C104.509 184.148 104.14 184.148 103.788 184.055C103.731 184.04 103.679 184.008 103.624 183.987C103.509 183.946 103.388 183.909 103.279 183.846L53.0506 154.906C52.7315 154.723 52.4664 154.459 52.282 154.14C52.0975 153.821 52.0003 153.46 52 153.091V67.0093C52 66.821 52.0261 66.6379 52.0732 66.4601C52.0889 66.3999 52.1254 66.345 52.1464 66.2849C52.1856 66.175 52.2221 66.0626 52.2796 65.9606C52.3188 65.8926 52.3763 65.8377 52.4234 65.7749C52.4835 65.6912 52.5384 65.6049 52.6089 65.5317C52.669 65.4715 52.7475 65.4271 52.8154 65.3748C52.8912 65.312 52.9591 65.244 53.0454 65.1943H53.048L78.1634 50.7244C78.4814 50.5413 78.8418 50.4449 79.2087 50.4449C79.5756 50.4449 79.9361 50.5413 80.2541 50.7244L105.369 65.1943H105.375C105.458 65.2466 105.529 65.312 105.605 65.3721C105.673 65.4244 105.748 65.4715 105.809 65.5291C105.882 65.6049 105.934 65.6912 105.997 65.7749C106.041 65.8377 106.101 65.8926 106.138 65.9606C106.198 66.0652 106.232 66.175 106.274 66.2849C106.295 66.345 106.331 66.3999 106.347 66.4627C106.395 66.6409 106.42 66.8247 106.42 67.0093V120.775L127.349 108.717V81.2308C127.349 81.0477 127.375 80.862 127.422 80.6868C127.44 80.624 127.474 80.5691 127.495 80.509C127.537 80.3991 127.573 80.2867 127.631 80.1847C127.67 80.1167 127.728 80.0618 127.772 79.999C127.835 79.9153 127.887 79.829 127.96 79.7558C128.02 79.6956 128.096 79.6512 128.164 79.5989C128.243 79.5361 128.31 79.4681 128.394 79.4184H128.397L153.515 64.9485C153.833 64.7651 154.193 64.6686 154.56 64.6686C154.927 64.6686 155.288 64.7651 155.605 64.9485L180.721 79.4184C180.81 79.4707 180.878 79.5361 180.956 79.5963C181.021 79.6486 181.097 79.6956 181.157 79.7532C181.23 79.829 181.283 79.9153 181.345 79.999C181.392 80.0618 181.45 80.1167 181.487 80.1847C181.547 80.2867 181.581 80.3991 181.622 80.509C181.646 80.5691 181.68 80.624 181.696 80.6868V80.6868ZM177.582 108.717V84.8554L168.793 89.9185L156.651 96.9141V120.775L177.585 108.717H177.582ZM152.467 151.881V128.004L140.523 134.829L106.417 154.307V178.409L152.467 151.881ZM56.1868 70.6313V151.881L102.231 178.407V154.31L78.1764 140.687L78.1686 140.682L78.1581 140.677C78.0771 140.63 78.0092 140.562 77.9334 140.504C77.868 140.452 77.7923 140.41 77.7348 140.353L77.7295 140.345C77.6616 140.279 77.6145 140.198 77.557 140.125C77.5048 140.055 77.442 139.994 77.4002 139.921L77.3976 139.913C77.3506 139.835 77.3218 139.741 77.2879 139.652C77.2539 139.573 77.2094 139.5 77.1885 139.416V139.414C77.1624 139.314 77.1572 139.21 77.1467 139.108C77.1363 139.029 77.1154 138.951 77.1154 138.873V82.69L64.9758 75.6917L56.1868 70.6339V70.6313ZM79.2114 54.9558L58.2854 67.0093L79.2061 79.0627L100.13 67.0066L79.2061 54.9558H79.2114ZM90.0938 130.18L102.233 123.187V70.6313L93.4443 75.6944L81.3021 82.69V135.245L90.0938 130.18ZM154.56 69.1799L133.637 81.2334L154.56 93.2869L175.481 81.2308L154.56 69.1799ZM152.467 96.9141L140.325 89.9185L131.535 84.8554V108.717L143.675 115.71L152.467 120.775V96.9141ZM104.322 150.685L135.011 133.153L150.352 124.392L129.445 112.346L105.372 126.215L83.4321 138.854L104.322 150.685Z" fill="#FF2D20"/>
</g>
<rect x="0.5" y="0.5" width="233" height="233" rx="116.5" stroke="black"/>
<defs>
<clipPath id="clip0_56_406">
<rect width="130" height="134.498" fill="white" transform="translate(52 50)"/>
</clipPath>
</defs>
</svg>
