<svg width="234" height="234" viewBox="0 0 234 234" fill="none" xmlns="http://www.w3.org/2000/svg">
<rect x="0.5" y="0.5" width="233" height="233" rx="116.5" fill="white"/>
<g clip-path="url(#clip0_56_186)">
<path d="M171.48 52H147.808C142.082 52 137.382 56.7039 137.382 62.4342V93.0526H103.114C97.5588 93.0526 93.0296 97.5855 93.0296 103.23V137.526H62.1793C56.539 137.526 52.0098 142.059 52.0098 147.704V171.651C52.0098 177.296 56.539 181.829 62.1793 182H171.565C177.291 182 181.991 177.296 181.991 171.566V62.4342C181.906 56.7039 177.206 52 171.48 52Z" fill="url(#paint0_linear_56_186)"/>
<path d="M171.48 52H147.808C142.082 52 137.382 56.7039 137.382 62.4342V93.0526H103.114C97.5588 93.0526 93.0296 97.5855 93.0296 103.23V137.526H62.1793C56.539 137.526 52.0098 142.059 52.0098 147.704V171.651C52.0098 177.296 56.539 181.829 62.1793 182H171.565C177.291 182 181.991 177.296 181.991 171.566V62.4342C181.906 56.7039 177.206 52 171.48 52Z" fill="url(#paint1_linear_56_186)"/>
<path d="M171.479 52H147.978C142.253 52 137.552 56.7039 137.552 62.4342V182H171.479C177.205 182 181.905 177.296 181.905 171.566V62.4342C181.905 56.7039 177.205 52 171.479 52Z" fill="#F57C00"/>
<path d="M93.0291 103.316V137.526H62.2642C56.624 137.526 52.0093 142.145 52.0093 147.79V171.737C52.0093 177.382 56.624 182 62.2642 182H137.467V93.0527H103.284C97.6438 93.0527 93.0291 97.6712 93.0291 103.316Z" fill="#FFC107"/>
<path d="M137.467 93.0527V182H171.394C177.119 182 181.82 177.296 181.82 171.566V137.526L137.467 93.0527Z" fill="url(#paint2_linear_56_186)"/>
<path opacity="0.2" d="M103.284 93.908H137.467V93.0527H103.284C97.6438 93.0527 93.0291 97.6712 93.0291 103.316V104.171C93.0291 98.5264 97.6438 93.908 103.284 93.908Z" fill="white"/>
<path opacity="0.2" d="M62.2642 138.382H93.0291V137.526H62.2642C56.624 137.526 52.0093 142.145 52.0093 147.79V148.645C52.0093 143 56.624 138.382 62.2642 138.382Z" fill="white"/>
<path opacity="0.2" d="M171.48 52H147.979C142.253 52 137.553 56.7039 137.553 62.4342V63.2895C137.553 57.5592 142.253 52.8553 147.979 52.8553H171.48C177.205 52.8553 181.905 57.5592 181.905 63.2895V62.4342C181.905 56.7039 177.205 52 171.48 52Z" fill="white"/>
<path opacity="0.2" d="M171.479 181.145H62.2642C56.624 181.145 52.0093 176.526 52.0093 170.881V171.737C52.0093 177.382 56.624 182 62.2642 182H171.394C177.12 182 181.82 177.296 181.82 171.566V170.71C181.905 176.441 177.205 181.145 171.479 181.145V181.145Z" fill="#BF360C"/>
<path d="M171.48 52H147.979C142.253 52 137.553 56.7039 137.553 62.4342V93.0526H103.37C97.7297 93.0526 93.115 97.6711 93.115 103.316V137.526H62.2647C56.6245 137.526 52.0098 142.145 52.0098 147.789V171.737C52.0098 177.382 56.6245 182 62.2647 182H171.48C177.206 182 181.906 177.296 181.906 171.566V62.4342C181.906 56.7039 177.206 52 171.48 52Z" fill="url(#paint3_linear_56_186)"/>
</g>
<rect x="0.5" y="0.5" width="233" height="233" rx="116.5" stroke="black"/>
<defs>
<linearGradient id="paint0_linear_56_186" x1="52.0098" y1="117" x2="181.991" y2="117" gradientUnits="userSpaceOnUse">
<stop stop-color="white" stop-opacity="0.1"/>
<stop offset="1" stop-color="white" stop-opacity="0"/>
</linearGradient>
<linearGradient id="paint1_linear_56_186" x1="52.0098" y1="117" x2="181.991" y2="117" gradientUnits="userSpaceOnUse">
<stop stop-color="white" stop-opacity="0.1"/>
<stop offset="1" stop-color="white" stop-opacity="0"/>
</linearGradient>
<linearGradient id="paint2_linear_56_186" x1="115.462" y1="115.503" x2="178.845" y2="178.836" gradientUnits="userSpaceOnUse">
<stop stop-color="#BF360C" stop-opacity="0.2"/>
<stop offset="1" stop-color="#BF360C" stop-opacity="0.02"/>
</linearGradient>
<linearGradient id="paint3_linear_56_186" x1="95.5668" y1="95.6449" x2="179.661" y2="179.672" gradientUnits="userSpaceOnUse">
<stop stop-color="white" stop-opacity="0.1"/>
<stop offset="1" stop-color="white" stop-opacity="0"/>
</linearGradient>
<clipPath id="clip0_56_186">
<rect width="130" height="130" fill="white" transform="translate(52 52)"/>
</clipPath>
</defs>
</svg>
