<svg width="234" height="234" viewBox="0 0 234 234" fill="none" xmlns="http://www.w3.org/2000/svg">
<rect x="0.5" y="0.5" width="233" height="233" rx="116.5" fill="white"/>
<g clip-path="url(#clip0_56_420)">
<path d="M176.777 176.757C176.313 177.22 175.733 177.452 175.037 177.452C174.341 177.452 173.761 177.22 173.297 176.757C172.833 176.294 172.6 175.714 172.6 175.019C172.6 174.324 172.832 173.687 173.355 173.224C173.819 172.76 174.399 172.587 175.037 172.587C175.733 172.587 176.313 172.818 176.777 173.282C177.241 173.745 177.473 174.324 177.473 175.019C177.531 175.714 177.299 176.294 176.777 176.757V176.757ZM173.645 173.571C173.239 173.977 173.065 174.44 173.065 174.961C173.065 175.541 173.239 176.004 173.645 176.41C174.051 176.815 174.515 176.989 175.095 176.989C175.675 176.989 176.139 176.815 176.545 176.41C176.951 176.004 177.125 175.541 177.125 174.961C177.125 174.44 176.951 173.919 176.545 173.571C176.139 173.166 175.675 172.934 175.095 172.934C174.515 172.992 174.051 173.166 173.645 173.571ZM175.849 176.236C175.617 176.41 175.385 176.467 175.153 176.467C174.805 176.467 174.457 176.352 174.167 176.062C173.877 175.772 173.761 175.425 173.761 175.019C173.761 174.614 173.877 174.266 174.109 173.977C174.341 173.687 174.689 173.571 175.095 173.571C175.327 173.571 175.559 173.629 175.791 173.745C176.081 173.919 176.313 174.208 176.371 174.672H175.733C175.675 174.498 175.617 174.324 175.501 174.266C175.385 174.208 175.269 174.151 175.153 174.151C174.979 174.151 174.805 174.208 174.689 174.382C174.573 174.556 174.515 174.788 174.515 175.077C174.515 175.367 174.573 175.599 174.689 175.714C174.805 175.83 174.979 175.946 175.153 175.946C175.327 175.946 175.443 175.888 175.559 175.83L175.733 175.483H176.313C176.255 175.83 176.081 176.062 175.849 176.236V176.236ZM181.998 150.518C181.998 150.287 181.94 150.055 181.94 149.823C181.94 149.65 181.882 149.534 181.882 149.418C181.824 149.07 181.766 148.781 181.65 148.433C181.418 147.796 181.07 147.159 180.606 146.638C180.142 146.116 179.619 145.711 179.097 145.421C178.517 145.132 177.937 144.958 177.473 144.842C177.299 144.842 177.183 144.784 177.067 144.784C177.705 142.004 176.893 139.861 176.371 138.876L176.487 138.76C177.183 138.065 177.763 137.428 178.285 136.791L178.401 136.675C178.807 136.096 179.039 135.517 179.213 134.995C179.329 134.532 179.445 134.126 179.445 133.721V133.373V133.142V132.621C179.387 131.752 179.271 130.651 178.691 129.435C178.401 128.856 177.995 128.218 177.473 127.639C176.951 127.06 176.313 126.539 175.559 126.133C175.501 126.075 175.443 126.075 175.385 126.017C173.819 123.758 172.078 121.963 170.512 120.631C169.7 119.936 168.946 119.356 168.308 118.893C167.67 118.43 167.148 118.082 166.858 117.85C166.162 117.329 165.64 117.04 165.407 116.924C164.827 116.576 164.421 116.287 164.189 116.113C164.015 115.939 163.899 115.881 163.841 115.823C163.841 115.823 163.841 115.765 163.783 115.649C163.725 115.476 163.725 115.244 163.725 114.838C163.725 114.259 163.725 113.39 163.783 112.232C163.899 110.378 164.073 107.888 164.305 104.47C164.363 103.37 164.363 102.327 164.363 101.401C164.305 99.8367 164.073 98.4466 163.783 97.1723C163.725 96.8827 163.609 96.5931 163.551 96.3035C163.493 96.0718 163.435 95.9559 163.377 95.8401C163.319 95.6663 163.261 95.4925 163.145 95.2609C163.087 95.145 163.087 95.0292 162.971 94.9133C162.855 94.6237 162.739 94.3341 162.565 94.0445L162.507 93.9866L162.449 93.8128L162.391 93.697C162.101 93.1757 161.753 92.7123 161.405 92.3068C161.231 91.4959 160.941 90.3375 160.419 89.0053C159.955 87.8468 159.375 86.5726 158.505 85.2983C158.215 84.8349 157.866 84.4295 157.518 84.024L157.634 83.9082C157.808 83.7344 161.869 79.4482 165.117 73.8877C171.092 63.5196 169.12 57.2061 166.394 53.7308L166.336 53.615L166.278 53.4991C163.667 50.603 160.071 48.8654 155.72 48.2862C146.613 47.1277 136.287 51.6456 133.561 52.9199L128.572 47.4753C128.108 47.0119 127.644 46.5485 127.122 46.201C126.6 45.8534 126.02 45.5059 125.44 45.2163C124.28 44.695 123.004 44.3475 121.611 44.1737C118.885 43.8262 115.753 44.1737 112.388 45.0425C107.342 46.3168 101.715 48.8654 95.7979 52.3986C89.8811 55.9319 83.7323 60.5077 77.7575 65.9524C70.4485 72.5555 64.4156 79.564 60.007 86.283C57.8027 89.5845 56.0045 92.8281 54.6703 95.9559C53.3361 99.0258 52.466 101.98 52.118 104.644C51.8859 106.614 51.8859 108.467 52.292 110.147C52.466 110.9 52.698 111.595 53.0461 112.29C53.4521 113.159 53.9742 113.97 54.6123 114.665L59.775 120.051L60.3551 120.631L60.2971 120.689L60.1231 121.036C60.007 121.21 59.949 121.384 59.833 121.499L59.659 121.847C59.601 122.021 59.485 122.195 59.427 122.368L59.2529 122.716C59.1949 122.89 59.0789 123.063 59.0209 123.237C58.9629 123.353 58.9049 123.469 58.9049 123.585L58.7309 124.106C58.6729 124.222 58.6729 124.338 58.6148 124.454C58.5568 124.627 58.4988 124.801 58.4408 125.033C58.4408 125.091 58.3828 125.149 58.3828 125.207C58.3828 125.264 58.3248 125.322 58.3248 125.38C58.2668 125.554 58.2088 125.786 58.1508 125.959C58.1508 126.075 58.0928 126.191 58.0928 126.307C58.0928 126.365 58.0348 126.481 58.0348 126.539C58.0348 126.655 57.9768 126.77 57.9768 126.886C57.9768 127.002 57.9188 127.118 57.9188 127.234C57.8607 127.465 57.8607 127.697 57.8027 127.987C57.8027 128.045 57.8027 128.103 57.7447 128.218V128.276C57.7447 128.45 57.6867 128.624 57.6867 128.74C57.6867 128.971 57.6287 129.261 57.6287 129.493V132.389C57.6287 132.505 57.6287 132.621 57.6867 132.736C57.6867 132.852 57.6867 133.026 57.7447 133.2V133.373C57.7447 133.489 57.8027 133.663 57.8027 133.779C57.8027 133.895 57.8607 134.011 57.8607 134.184C57.8607 134.242 57.8607 134.3 57.9188 134.358C57.9188 134.416 57.9768 134.532 57.9768 134.59V134.706C57.9768 134.822 58.0348 134.937 58.0928 135.169C58.0928 135.227 58.0928 135.227 58.1508 135.285C58.2088 135.401 58.2088 135.517 58.2088 135.575L58.2668 135.69C58.2668 135.748 58.2668 135.748 58.3248 135.806L58.3828 135.922V136.096C58.3828 136.154 58.3828 136.154 58.4408 136.212L58.4988 136.328C58.4988 136.443 58.5568 136.501 58.5568 136.617C58.6148 136.733 58.6148 136.849 58.6729 137.08V137.023V137.08C58.6729 137.138 58.6729 137.138 58.7309 137.196C58.7889 137.37 58.8469 137.486 58.8469 137.544C58.9049 137.66 58.9629 137.776 59.0209 138.007L59.0789 138.065C59.1369 138.181 59.1369 138.297 59.1949 138.355L59.2529 138.471C59.2529 138.529 59.3109 138.586 59.3109 138.644C59.3109 138.702 59.369 138.818 59.427 138.876L59.485 138.992C59.543 139.05 59.543 139.166 59.601 139.224C59.659 139.282 59.659 139.339 59.659 139.397C59.717 139.513 59.775 139.629 59.833 139.803L59.891 139.861C59.949 139.919 59.949 139.977 60.007 140.035C60.065 140.092 60.065 140.208 60.1231 140.266C60.1811 140.324 60.2391 140.44 60.2971 140.614L60.3551 140.672C60.4131 140.73 60.4131 140.788 60.4711 140.845C60.5291 140.961 60.5871 141.019 60.5871 141.077C60.6451 141.135 60.7031 141.251 60.7611 141.367V141.425C60.8192 141.483 60.8192 141.54 60.8772 141.598C60.9352 141.714 60.9932 141.772 61.0512 141.83C61.1092 141.888 61.1672 142.004 61.2832 142.178C61.3412 142.236 61.3992 142.293 61.3992 142.351C61.4572 142.467 61.5152 142.525 61.5733 142.583C61.6313 142.641 61.6893 142.757 61.7473 142.873C61.8053 142.931 61.8633 143.046 61.9213 143.104C61.9793 143.22 62.0373 143.278 62.1533 143.336L62.3274 143.51L62.3854 143.568C62.5014 143.684 62.5594 143.799 62.6754 143.915L62.7914 144.031L62.9654 144.205L63.3135 144.552L63.4295 144.668L63.6035 144.842L63.6615 144.9C63.7776 145.016 63.9516 145.132 64.0676 145.305L64.1256 145.363C64.1836 145.421 64.2416 145.421 64.2996 145.537C64.4737 145.711 64.6477 145.827 64.8217 146L64.9377 146.058L64.9957 146.116L65.1117 146.174C65.2858 146.29 65.4018 146.406 65.5758 146.522L65.6338 146.58C65.6918 146.638 65.7498 146.638 65.7498 146.638L65.8658 146.753C65.9819 146.869 66.0979 146.927 66.2139 147.043L66.3299 147.101L66.4459 147.217L66.5039 147.275C66.6199 147.333 66.794 147.449 66.91 147.506C66.968 147.564 67.026 147.622 67.142 147.622L67.258 147.68L67.316 147.738H67.374C67.6061 147.854 67.7801 147.97 67.9541 148.086L68.0701 148.144L68.7662 148.491H68.8242L68.9403 148.549L69.2883 148.723C69.3463 148.723 69.4043 148.781 69.4623 148.781C69.5203 148.839 69.5784 148.839 69.6944 148.897H69.7524C69.8684 148.955 69.9844 149.012 70.1004 149.012H70.1584C70.2744 149.07 70.3905 149.128 70.5645 149.186H70.6225L70.7385 149.244C70.7965 149.244 70.8545 149.302 70.9125 149.302H70.9705C71.1446 149.36 71.3186 149.418 71.5506 149.476H71.6086C71.8987 149.592 72.1887 149.65 72.4787 149.707H72.5368C72.7688 149.765 73.0588 149.823 73.2909 149.881H73.5229C73.7549 149.939 73.987 149.997 74.219 149.997H74.451C74.625 149.997 74.7411 150.055 74.9151 150.055C74.9151 150.113 74.9731 150.171 74.9731 150.229C75.3791 151.329 75.7852 152.43 76.2493 153.472C83.0942 172.413 102.063 187.125 123.7 189.847C145.337 192.512 168.482 178.147 177.879 158.743C178.285 157.99 178.633 157.295 178.981 156.542C179.909 155.558 180.664 154.573 181.128 153.53C181.882 152.893 182.056 151.619 181.998 150.518V150.518ZM61.8633 142.989H61.9213H61.8633Z" fill="#664F44"/>
<path d="M163.493 55.7582C162.449 54.5998 161.231 53.7309 159.897 53.0938C159.665 52.9779 159.433 52.92 159.143 52.8621C159.027 52.8042 158.911 52.6883 158.795 52.6304C157.635 52.167 156.416 51.8774 155.14 51.7037C148.875 50.8928 141.682 53.2096 137.622 54.8314C137.39 54.9473 137.158 55.0052 136.926 55.1211C136.578 55.2948 136.23 55.4107 135.882 55.5844C135.302 55.8161 134.721 56.1057 134.083 56.3953C133.967 56.4533 133.909 56.4533 133.793 56.5112L132.691 55.2369L132.169 54.6577L131.705 54.1364L131.531 53.9047L127.296 49.0392L126.948 48.6338L126.484 48.1125H126.426L125.208 48.4021L123.816 48.6917C123.062 48.3442 122.134 48.1125 121.09 47.9387C119.001 47.6491 116.333 47.9387 113.317 48.6917C110.3 49.4447 106.878 50.7769 103.281 52.5725C96.0301 56.1637 88.025 61.6662 80.2519 68.7327C77.5256 71.1654 75.0312 73.714 72.7109 76.2047C70.4486 78.6374 68.4183 81.128 66.562 83.5028C62.7915 88.4262 59.9491 93.1758 58.0929 97.462C56.8747 100.3 56.1206 102.907 55.8306 105.166C55.5985 106.787 55.6565 108.236 55.9466 109.394C56.0626 109.799 56.1786 110.089 56.2946 110.437C56.5847 111.132 56.9327 111.711 57.3968 112.232L62.0954 117.155L62.6175 117.677L62.6755 117.619C62.7915 117.445 62.9655 117.271 63.1396 117.155L63.1976 117.098L63.3716 116.924C63.4876 116.75 63.6616 116.634 63.7777 116.46C63.8937 116.345 63.9517 116.287 64.0677 116.229C64.1837 116.171 64.2417 116.055 64.3577 115.997L64.4737 115.881C64.5898 115.823 64.6478 115.707 64.7638 115.65C64.8798 115.534 65.0538 115.418 65.1698 115.302C65.2279 115.244 65.3439 115.186 65.4019 115.128H65.4599C65.6339 115.012 65.7499 114.897 65.9239 114.781C66.04 114.723 66.098 114.665 66.214 114.549C66.388 114.433 66.504 114.317 66.6781 114.201C66.7941 114.144 66.8521 114.086 66.9681 114.028C67.1421 113.912 67.3161 113.796 67.4902 113.738C67.6062 113.68 67.6642 113.622 67.7802 113.564C67.9542 113.448 68.1283 113.391 68.3023 113.275C68.4183 113.217 68.4763 113.159 68.5923 113.101L68.7083 113.043C68.8824 112.985 68.9984 112.869 69.1724 112.811C69.2304 112.753 69.3464 112.753 69.4044 112.695C69.5204 112.638 69.6365 112.58 69.8105 112.522L70.1585 112.348L70.2745 112.29L71.1447 111.943C71.2607 111.885 71.3187 111.885 71.4347 111.827C71.5507 111.769 71.6087 111.769 71.7248 111.711L71.8408 111.653C71.8988 111.653 71.9568 111.595 72.0148 111.595C72.1308 111.537 72.2468 111.537 72.4208 111.479H72.5369C72.7109 111.421 72.8269 111.421 73.0009 111.363C73.1169 111.305 73.291 111.305 73.407 111.247C73.581 111.19 73.755 111.19 73.9291 111.132C73.9871 111.132 74.0451 111.074 74.1611 111.074C74.2191 111.074 74.3351 111.074 74.3931 111.016C74.5671 110.958 74.7412 110.958 74.9152 110.958C75.0892 110.958 75.2052 110.9 75.3793 110.9C75.4953 110.9 75.6113 110.842 75.7273 110.842H76.1914C76.7714 110.842 77.4675 110.842 78.1636 110.9H78.2797C78.9758 110.958 79.7879 111.074 80.6 111.247C80.774 111.305 81.006 111.305 81.1801 111.363C81.2381 111.305 81.2381 111.19 81.2961 111.132C81.7601 110.379 82.1662 109.568 82.6303 108.815C85.2406 104.471 88.025 100.648 90.8674 97.2883C91.8535 96.1298 92.8397 95.0872 93.8258 94.0446C97.9444 89.7584 102.063 86.4568 105.775 83.9083C106.588 83.3291 107.458 82.8078 108.212 82.2865C109.314 81.5914 110.358 81.0122 111.344 80.433C112.156 79.9696 112.91 79.5641 113.665 79.2166C114.883 78.5795 115.985 78.0582 116.971 77.6527L117.841 77.3052C118.247 77.1314 118.653 76.9576 119.001 76.8418C118.711 76.7839 118.363 76.7839 118.073 76.7839H116.913C116.623 76.7839 116.275 76.7839 115.985 76.8418C115.405 76.8997 114.767 76.9576 114.129 77.0156C113.897 77.0735 113.723 77.0735 113.491 77.1314C115.057 76.3205 116.623 75.7413 118.073 75.2779C119.059 74.9883 120.045 74.7566 120.974 74.5828C122.25 74.3512 123.468 74.1774 124.57 74.1195C125.324 74.0615 126.02 74.0615 126.658 74.0615C127.296 74.0615 127.935 74.1195 128.457 74.1195C130.371 74.2353 131.531 74.5249 131.531 74.5249C131.241 74.1195 130.893 73.8299 130.545 73.5402C129.849 73.0189 129.095 72.6714 128.399 72.3818C128.109 72.266 127.877 72.208 127.644 72.0922C127.47 72.0343 127.296 71.9764 127.18 71.9764C127.528 71.9184 127.819 71.8605 128.109 71.8605C128.457 71.8026 128.747 71.8026 129.095 71.7447C131.821 71.513 134.257 71.7447 136.056 72.0343C138.202 72.4397 139.536 72.961 139.536 72.961C139.246 72.3818 138.782 71.8605 138.26 71.3971C137.912 71.1075 137.506 70.8179 137.158 70.5862C137.912 70.76 138.55 70.9338 139.246 71.1654C140.986 71.6867 142.437 72.3239 143.597 72.8452L144.641 73.3665C144.757 73.4244 144.815 73.4823 144.873 73.4823C145.917 74.0615 146.497 74.467 146.497 74.467C146.323 73.8299 145.975 73.2506 145.511 72.7293C145.395 72.6135 145.279 72.4397 145.163 72.3239H145.221C145.279 72.3239 145.337 72.3818 145.453 72.3818C145.511 72.3818 145.627 72.4397 145.743 72.4976C146.207 72.6714 146.903 72.961 147.715 73.3665C147.773 73.3665 147.773 73.4244 147.831 73.4244L148.179 73.5982C148.469 73.7719 148.759 73.8878 149.049 74.1195L149.92 74.6408C150.094 74.7566 150.21 74.8145 150.384 74.9304C150.674 75.1621 151.022 75.3937 151.312 75.6834C151.66 75.973 151.95 76.2626 152.24 76.5522L152.414 76.726C152.646 76.9576 152.878 77.1893 153.052 77.421C153.458 77.8844 153.806 78.4057 154.154 78.927C154.56 79.5641 154.85 80.3171 155.14 81.0701C155.14 81.128 155.14 81.1859 155.198 81.1859C155.372 81.0122 155.72 80.6646 156.126 80.2013C159.491 76.2626 169.584 63.5197 163.493 55.7582" fill="#132134"/>
<path d="M178.518 150.924C178.518 150.924 178.634 150.055 178.169 149.244C178.169 149.186 178.111 149.128 178.111 149.128L178.053 149.07L177.879 148.897C177.763 148.781 177.647 148.665 177.473 148.549C177.415 148.491 177.299 148.433 177.183 148.375C176.893 148.259 176.603 148.144 176.197 148.086C175.907 148.028 175.617 148.028 175.269 148.028H174.805V148.144C174.805 148.201 174.863 148.259 174.863 148.375C174.863 148.433 174.863 148.491 174.921 148.491C174.979 148.665 175.037 148.954 175.095 149.186C175.095 149.186 175.095 149.244 175.037 149.36V149.418C174.863 149.823 174.399 150.75 173.355 151.908C173.181 152.14 173.007 152.314 172.775 152.546C169.874 155.558 163.609 159.786 150.384 162.161C145.917 162.798 141.74 162.856 138.26 162.392C133.039 161.755 129.153 160.075 127.296 157.817C127.122 157.643 127.006 157.411 126.832 157.237C126.716 157.064 126.658 156.948 126.542 156.774C126.484 156.716 126.484 156.658 126.426 156.6C125.672 155.21 125.324 153.704 125.324 152.256C125.324 150.46 125.904 148.781 126.832 147.506C127.586 146.464 128.573 145.653 129.791 145.305C130.371 145.132 131.009 145.016 131.647 145.074C131.763 145.074 131.937 145.074 132.169 145.132C132.575 145.19 133.213 145.247 133.967 145.363C134.025 145.363 134.141 145.363 134.199 145.421C136.694 145.711 140.638 146.116 145.395 145.827C154.096 145.305 165.524 142.583 175.907 133.2V133.142C175.965 132.331 175.849 130.941 174.863 129.84C174.689 129.666 174.515 129.493 174.283 129.319C174.167 129.203 173.993 129.145 173.877 129.029C173.703 128.971 173.587 128.856 173.471 128.798L172.949 128.45V128.392C172.891 128.276 172.833 128.161 172.717 128.045C170.048 123.99 166.336 121.615 164.828 120.515C164.132 119.994 163.667 119.762 163.667 119.762C160.477 117.792 160.013 117.155 160.303 111.884C160.419 109.973 160.593 107.482 160.825 104.065C160.825 103.602 160.883 103.196 160.883 102.791V102.501V101.111C160.883 100.821 160.825 100.532 160.825 100.3C160.825 100.184 160.825 100.068 160.767 99.9525C160.709 99.6629 160.709 99.3733 160.651 99.0837C160.651 98.9679 160.593 98.7941 160.593 98.6783C160.593 98.5045 160.535 98.3887 160.477 98.2149C160.419 98.099 160.419 97.9253 160.361 97.8094C160.303 97.6357 160.245 97.4619 160.245 97.2881C160.245 97.2302 160.187 97.1723 160.187 97.1144C160.187 97.0564 160.129 96.9985 160.129 96.9406V96.8827L160.071 96.7089C160.013 96.5931 159.955 96.4772 159.955 96.3614V96.3035L159.897 96.1876L159.839 96.0718C159.723 95.8401 159.665 95.6084 159.549 95.4346L159.491 95.2609C159.375 95.0871 159.259 94.8554 159.143 94.6817L159.085 94.6237L159.027 94.5658C158.911 94.45 158.853 94.3341 158.737 94.2183L158.621 94.0445C158.505 93.8707 158.389 93.7549 158.273 93.6391V93.1757C158.215 92.944 158.157 92.6544 158.099 92.3648C158.099 92.3069 158.041 92.191 158.041 92.1331V92.0752C158.041 91.9593 157.983 91.9014 157.983 91.7856C157.925 91.5539 157.867 91.3222 157.751 91.0905C157.751 91.0326 157.693 90.9167 157.693 90.8588L157.519 90.3375C157.461 90.2217 157.461 90.1058 157.403 90.0479C157.345 89.8741 157.287 89.7004 157.171 89.5266L156.997 89.1791C156.939 89.0053 156.823 88.8315 156.765 88.6578L156.59 88.3102C156.474 88.1365 156.416 87.9627 156.3 87.7889L156.126 87.4414C156.01 87.2676 155.894 87.0939 155.778 86.8622C155.72 86.7464 155.662 86.6884 155.604 86.5726C155.546 86.5147 155.488 86.3988 155.43 86.3409C155.256 86.1671 155.14 85.9934 154.966 85.8196L154.85 85.7617C154.618 85.53 154.444 85.2983 154.212 85.1245L154.154 85.0666C154.038 85.0087 153.922 84.8928 153.864 84.8349H153.806C153.69 84.777 153.632 84.7191 153.516 84.6612L153.458 84.6032C153.342 84.5453 153.168 84.4295 152.936 84.3136C152.878 84.2557 152.762 84.2557 152.646 84.1978C152.124 84.024 151.486 83.7923 150.674 83.5606C150.616 83.5606 150.558 83.5606 150.5 83.5027C149.862 83.329 149.107 83.1552 148.295 83.0393C148.005 82.9814 147.773 82.9814 147.483 82.9235C147.367 82.9235 147.251 82.9235 147.077 82.8656H146.903C146.265 82.8077 145.685 82.7497 145.047 82.7497H144.989C144.177 82.7497 143.365 82.8077 142.611 82.9814C142.785 82.6918 143.307 82.3443 143.771 82.0547C144.409 81.7071 144.989 81.4755 144.989 81.4755C144.641 81.4755 144.293 81.5334 143.945 81.5913C143.829 81.5913 143.713 81.6492 143.597 81.6492C143.539 81.6492 143.423 81.6492 143.365 81.7071H143.307C143.249 81.7071 143.191 81.7071 143.133 81.7651C141.334 82.1705 139.594 82.8077 138.608 83.2131L138.26 83.3869H138.202C138.086 83.3869 138.028 83.3869 137.912 83.4448C138.608 82.1126 139.652 81.4175 140.464 81.07C140.58 81.0121 140.754 80.9542 140.87 80.8962C140.928 80.8962 140.928 80.8962 140.986 80.8383C141.102 80.7804 141.218 80.7804 141.276 80.7225C141.45 80.6646 141.566 80.6646 141.566 80.6646H140.638C138.666 80.8962 136.868 81.5334 135.36 82.4022C134.315 82.9814 133.387 83.6186 132.575 84.2557C132.343 84.3136 132.169 84.3716 131.937 84.3716C129.733 84.8349 127.238 85.4141 124.628 86.2251C123.642 86.5147 122.656 86.8622 121.67 87.2097C120.916 87.4993 120.103 87.7889 119.349 88.0786C118.769 88.3102 118.247 88.5419 117.667 88.7736C113.665 90.5692 109.662 92.944 106.356 96.1297L106.007 96.4772L105.137 97.3461L104.789 97.6936C104.673 97.8674 104.499 98.0411 104.383 98.157C103.745 98.852 103.165 99.605 102.585 100.416C102.179 100.995 101.773 101.632 101.425 102.269L101.367 102.327C100.613 103.66 99.9166 105.05 99.3946 106.614C99.1045 107.367 98.8725 108.177 98.6405 108.988C98.5825 109.22 98.5245 109.394 98.4664 109.626L98.4084 109.741C98.1764 110.61 98.0024 111.537 97.8864 112.464C97.8864 112.637 97.8284 112.811 97.8284 113.043C97.7703 113.506 97.7123 113.97 97.7123 114.491C97.6543 114.954 97.6543 115.36 97.6543 115.823V117.619C97.6543 118.14 97.6543 118.661 97.7123 119.183V119.241C97.7123 119.762 97.7703 120.283 97.8284 120.862C97.8284 121.094 97.8864 121.326 97.8864 121.557V121.731C97.8864 121.847 97.8864 121.963 97.9444 122.137C98.0024 122.716 98.1184 123.353 98.1764 123.99C98.1764 124.164 98.2344 124.338 98.2344 124.511C98.3504 125.033 98.4084 125.612 98.5245 126.133C98.5245 126.133 98.4084 125.438 98.4664 124.396C98.4664 124.164 98.5245 123.874 98.5245 123.643C98.5825 123.063 98.6985 122.368 98.9305 121.731L99.1045 121.21C99.1045 121.152 99.1625 121.094 99.2205 120.978C99.3366 120.689 99.5106 120.341 99.6846 120.051C99.7426 120.283 99.7426 120.515 99.8006 120.689V123.758C99.8586 125.728 100.033 128.103 100.439 130.13C100.439 130.13 100.497 126.481 101.135 126.017C101.135 126.017 102.237 132.852 103.223 135.401C103.339 135.748 103.513 135.98 103.629 136.154V135.459L103.513 131.694V131.288C104.267 132.852 105.137 134.416 106.124 136.096C106.414 136.559 106.646 137.023 106.936 137.486C105.079 139.108 103.339 141.483 102.063 144.263C101.889 144.726 101.657 145.19 101.483 145.653C101.367 145.943 101.309 146.174 101.193 146.464C101.193 146.522 101.135 146.638 101.135 146.696C101.077 146.869 101.019 147.101 100.961 147.275C100.961 147.391 100.903 147.448 100.903 147.564C100.845 147.738 100.787 147.97 100.729 148.144C100.729 148.259 100.671 148.317 100.671 148.433L100.497 149.302C100.439 149.592 100.381 149.881 100.381 150.171C100.381 150.287 100.381 150.345 100.323 150.46C100.323 150.692 100.265 150.866 100.265 151.098C100.265 151.213 100.265 151.329 100.207 151.445C100.207 151.677 100.149 151.851 100.149 152.082V154.11C100.149 154.341 100.149 154.573 100.207 154.862V155.036C100.207 155.326 100.265 155.615 100.323 155.963C100.323 156.079 100.323 156.137 100.381 156.253C100.381 156.484 100.439 156.658 100.497 156.89C100.497 157.006 100.555 157.121 100.555 157.237C100.613 157.411 100.613 157.643 100.671 157.817C100.671 157.932 100.729 158.048 100.729 158.164C100.787 158.338 100.845 158.512 100.845 158.743C100.903 158.859 100.903 158.975 100.961 159.149C101.019 159.322 101.077 159.554 101.135 159.728C101.193 159.844 101.193 159.96 101.251 160.075C101.309 160.249 101.367 160.481 101.425 160.655C101.483 160.771 101.483 160.886 101.541 161.002C101.599 161.234 101.715 161.466 101.773 161.639C101.831 161.755 101.831 161.813 101.889 161.929L102.759 163.84C102.817 163.956 102.875 164.014 102.933 164.13L103.281 164.825C103.339 164.941 103.397 165.057 103.513 165.173C103.629 165.346 103.745 165.578 103.861 165.752C103.919 165.868 104.035 165.984 104.093 166.099C104.209 166.273 104.325 166.505 104.499 166.679C104.615 166.794 104.673 166.91 104.789 167.084C104.905 167.258 105.079 167.489 105.195 167.663C105.311 167.779 105.369 167.895 105.485 168.069C105.659 168.242 105.775 168.474 105.949 168.648C106.065 168.764 106.124 168.88 106.24 168.995C106.414 169.227 106.588 169.401 106.82 169.633L107.11 169.922C107.4 170.212 107.69 170.559 107.98 170.849C107.98 170.849 107.806 170.617 107.574 170.154C107.516 170.096 107.458 169.98 107.458 169.864L107.284 169.517C107.226 169.401 107.168 169.285 107.11 169.111C106.646 168.069 106.24 166.563 106.298 164.941L106.82 165.636C106.994 166.041 107.284 166.563 107.574 167.142C107.69 167.316 107.806 167.547 107.864 167.721C108.328 168.532 108.792 169.459 109.372 170.328C110.068 171.428 110.764 172.471 111.518 173.455C111.518 173.455 110.648 171.602 110.358 170.386C110.3 170.038 110.242 169.748 110.3 169.575C110.358 169.633 110.416 169.748 110.532 169.806C110.59 169.864 110.648 169.98 110.764 170.038C110.88 170.212 111.054 170.443 111.286 170.733L111.402 170.849C111.518 170.965 111.576 171.139 111.692 171.254C111.808 171.428 111.924 171.602 112.098 171.776C113.316 173.34 114.999 175.425 116.159 176.525C116.565 176.873 116.913 177.162 117.145 177.278L115.463 174.266C119.291 177.394 135.186 181.391 150.79 176.931C152.704 176.409 154.56 175.714 156.416 174.903C157.519 174.44 158.621 173.861 159.723 173.282L159.897 173.166C160.651 172.76 161.405 172.297 162.159 171.834C162.739 171.486 163.319 171.081 163.841 170.733C164.77 170.096 165.698 169.401 166.626 168.648C166.684 168.59 166.742 168.532 166.8 168.532C167.67 167.779 168.54 166.968 169.294 166.157C170.338 165.057 171.267 163.956 172.079 162.856L172.137 162.798C172.369 162.508 172.543 162.277 172.717 161.987L172.775 161.929C172.833 161.813 172.891 161.755 172.949 161.639C173.239 161.234 173.471 160.886 173.761 160.481C173.819 160.365 173.877 160.307 173.935 160.191C174.051 159.96 174.167 159.786 174.341 159.554C174.457 159.38 174.515 159.265 174.631 159.091C174.747 158.917 174.863 158.743 174.921 158.57C175.095 158.28 175.269 157.932 175.443 157.643L175.617 157.295L175.965 156.6L176.139 156.253L176.197 156.137C176.313 155.847 176.487 155.558 176.603 155.268V155.21C177.125 154.747 177.473 154.283 177.821 153.878C177.879 153.82 177.937 153.762 177.937 153.704C178.285 152.604 178.518 151.735 178.518 150.924V150.924ZM85.1826 139.687C85.1826 139.629 85.1826 139.571 85.1246 139.455C84.9506 138.471 84.7766 137.428 84.7185 136.385V136.154C84.5445 136.212 84.3705 136.443 84.1385 136.733C84.0805 136.849 83.9644 136.965 83.9064 137.138C83.3844 138.123 82.9203 139.513 82.9203 139.513C82.9783 139.05 83.0363 138.586 83.0363 138.123V137.949C83.0943 137.486 83.1523 136.965 83.2103 136.501V136.327C83.2683 135.748 83.3844 135.227 83.5004 134.706C83.5004 134.648 83.5004 134.59 83.5584 134.474V134.416C83.5584 134.358 83.5584 134.3 83.6164 134.242C83.6164 134.126 83.6744 134.069 83.6744 133.953C83.7324 133.547 83.8484 133.142 83.9064 132.736C83.9644 132.389 84.0224 132.041 84.0805 131.752V131.636C84.0805 131.578 84.0805 131.52 84.1385 131.52V131.404C84.1385 131.346 84.1965 131.23 84.1965 131.172C84.1965 131.115 84.1965 131.057 84.2545 130.999C84.2545 130.883 84.3125 130.767 84.3125 130.709C84.3125 130.651 84.3705 130.535 84.3705 130.477C84.3705 130.362 84.4285 130.246 84.4285 130.188C84.4285 130.13 84.4285 130.072 84.4865 130.014C84.4865 129.956 84.4865 129.898 84.5445 129.898C84.5445 129.782 84.6025 129.724 84.6025 129.666V129.493L84.4865 129.609C84.3705 129.666 84.3125 129.782 84.1965 129.84L84.0805 129.956C83.9644 130.072 83.8484 130.188 83.7904 130.304L83.7324 130.362L83.3844 130.883L83.3264 130.941C83.3264 130.999 83.2683 130.999 83.2683 131.057L83.0943 131.404V131.52C83.0363 131.694 82.9203 131.868 82.8623 132.041C82.6883 132.505 82.5142 132.968 82.3982 133.373C82.3402 133.489 82.3402 133.663 82.2822 133.721C82.2242 133.953 82.1662 134.184 82.1662 134.242V134.3V134.242C82.1662 134.069 82.1662 133.953 82.2242 133.779C82.2242 133.489 82.2822 133.142 82.2822 132.852C82.2822 132.62 82.3402 132.331 82.3982 132.099C82.3982 132.041 82.3982 131.925 82.4562 131.868C82.4562 131.752 82.5142 131.636 82.5142 131.52C82.5142 131.404 82.5722 131.288 82.5722 131.172V130.999C82.5722 130.883 82.6303 130.709 82.6303 130.593V130.304V130.188C82.6303 130.13 82.6303 130.072 82.6883 130.014C82.7463 129.84 82.8043 129.609 82.8043 129.435V129.377C82.8623 129.261 82.8623 129.087 82.9203 128.971V128.913C82.9783 128.624 83.0943 128.334 83.1523 128.045V127.929C83.1523 127.871 83.1523 127.813 83.2103 127.755C83.3263 127.292 83.5004 126.828 83.6164 126.423V126.365C83.7324 126.017 83.9064 125.612 84.0224 125.264V125.206C84.0805 125.033 84.1385 124.917 84.1965 124.743C84.3125 124.511 84.3705 124.28 84.4865 124.048C84.4865 123.99 84.5445 123.874 84.6605 123.643C84.7185 123.585 84.7185 123.469 84.7766 123.411C84.8346 123.295 84.8926 123.179 84.9506 123.005L85.0086 122.89L85.9947 121.094C86.0527 121.036 86.0527 120.92 86.1107 120.862V120.804L86.1687 120.689C86.2848 120.515 86.4008 120.283 86.5168 120.109C86.6908 119.82 86.8068 119.53 86.9809 119.298C87.2709 118.777 87.5029 118.314 87.677 118.082C87.735 117.908 87.793 117.85 87.851 117.792C87.793 117.792 87.5029 117.561 87.0389 117.271C86.4588 116.924 85.6467 116.46 84.6605 115.997C84.3125 115.823 84.0224 115.707 83.6744 115.534C83.2683 115.36 82.8043 115.186 82.3402 115.012C82.2242 114.954 82.1082 114.954 81.9922 114.896C81.5861 114.781 81.2381 114.665 80.832 114.549C80.542 114.491 80.2519 114.433 80.0199 114.375C79.7879 114.317 79.5558 114.317 79.3238 114.259C79.2078 114.259 79.0918 114.259 78.9757 114.201C78.8597 114.201 78.7437 114.201 78.6277 114.143C78.3377 114.143 77.9896 114.085 77.6996 114.085H77.2355C76.5394 114.085 75.9013 114.143 75.2632 114.259H75.1472C73.9871 114.433 72.8849 114.723 71.7828 115.128C71.4347 115.244 71.0867 115.418 70.6806 115.591C70.5646 115.649 70.5066 115.707 70.3906 115.707L70.0425 115.881C68.9984 116.402 68.0122 117.097 67.0841 117.85H67.0261C66.214 118.488 65.5179 119.241 64.8798 119.994L64.3577 120.689C64.1257 120.978 63.9517 121.268 63.7776 121.557C63.4296 122.079 63.0816 122.658 62.7915 123.237C62.6755 123.469 62.5595 123.643 62.5015 123.874C62.5015 123.932 62.4435 123.932 62.4435 123.99C61.8634 125.38 61.3993 126.828 61.2253 128.392C61.1673 128.682 61.1673 128.971 61.1093 129.319V129.435C61.1093 129.666 61.0513 129.898 61.0513 130.188V131.23C61.0513 131.462 61.0513 131.694 61.1093 131.925V132.215C61.1093 132.389 61.1673 132.563 61.1673 132.736V132.794C61.1673 132.91 61.1673 132.968 61.2253 133.084C61.2253 133.258 61.2833 133.431 61.2833 133.547C61.2833 133.663 61.3413 133.779 61.3413 133.895C61.3993 134.069 61.3993 134.184 61.4573 134.358C61.4573 134.474 61.5153 134.59 61.5733 134.706V134.764L61.6313 134.879V134.995L61.6894 135.111C61.7474 135.227 61.7474 135.343 61.8054 135.459C61.8634 135.575 61.8634 135.748 61.9214 135.864C61.9794 135.98 62.0374 136.096 62.0374 136.27L62.0954 136.385C62.1534 136.501 62.1534 136.559 62.2114 136.675C62.2694 136.791 62.3274 136.907 62.3855 137.08L62.5595 137.428C62.6175 137.486 62.6175 137.544 62.6755 137.602C62.7335 137.66 62.7335 137.718 62.7915 137.776L62.9655 138.123C63.0235 138.239 63.0815 138.413 63.1976 138.529C63.2556 138.644 63.3136 138.76 63.3716 138.818C63.4296 138.934 63.5456 139.108 63.6036 139.224C63.6616 139.339 63.7196 139.397 63.7776 139.513C63.8357 139.629 63.9517 139.803 64.0677 139.919C64.1257 140.034 64.1837 140.092 64.2417 140.15C64.3577 140.266 64.4157 140.44 64.5318 140.556C64.5898 140.614 64.6478 140.73 64.7058 140.787C64.8218 140.903 64.9378 141.077 65.0538 141.193C65.1118 141.251 65.1698 141.309 65.2278 141.425C65.3439 141.54 65.4599 141.714 65.5759 141.83L65.7499 142.004C65.8659 142.12 65.982 142.293 66.156 142.409L66.33 142.583L66.7361 142.989C66.7941 143.046 66.8521 143.104 66.9101 143.104C67.0261 143.22 67.2001 143.336 67.3741 143.51C67.4322 143.568 67.4902 143.568 67.5482 143.626C67.7222 143.741 67.8382 143.857 68.0122 143.973C68.0702 144.031 68.1282 144.031 68.1282 144.089L68.6503 144.437L68.7663 144.494L69.2884 144.842L69.4044 144.9C69.5784 145.016 69.8105 145.132 69.9845 145.247L70.1005 145.305C70.2745 145.421 70.5066 145.537 70.6806 145.595L70.7966 145.653C71.0286 145.769 71.2027 145.827 71.4347 145.943L71.4927 146C71.7247 146.116 71.9568 146.174 72.1308 146.29H72.1888C72.4208 146.348 72.6529 146.464 72.8849 146.522H72.9429C73.0589 146.58 73.1749 146.58 73.291 146.638C73.407 146.696 73.523 146.696 73.697 146.753H73.755C73.9871 146.811 74.2771 146.869 74.5091 146.927C74.7412 146.985 75.0312 147.043 75.2632 147.043C76.0753 147.159 76.8875 147.217 77.6996 147.275H78.2797C78.5697 147.275 78.8017 147.275 79.0918 147.217C79.4398 147.159 79.8459 147.159 80.2519 147.101C80.6 147.043 80.948 146.985 81.2381 146.927C81.7601 146.811 82.2822 146.696 82.7463 146.522C84.2545 146.116 85.5307 145.537 86.3428 144.9C86.3428 144.9 85.8207 142.583 85.4146 140.266C85.2986 140.15 85.2406 139.919 85.1826 139.687" fill="#90694C"/>
<path d="M122.424 53.615L122.25 51.2981L123.41 48.7496L123.874 48.6337C123.12 48.2862 122.192 48.0545 121.148 47.8807C119.059 47.5911 116.391 47.8807 113.375 48.6337C110.358 49.3867 106.936 50.7189 103.339 52.5145C96.0882 56.1057 88.0831 61.6082 80.31 68.6747C77.5837 71.1074 75.0893 73.656 72.769 76.1467C70.5067 78.5794 68.4764 81.07 66.6201 83.4448C62.8496 88.3682 60.0072 93.1178 58.151 97.404C56.9328 100.242 56.1787 102.849 55.8887 105.108C55.6566 106.729 55.7146 108.177 56.0047 109.336C56.1207 109.741 56.2367 110.031 56.3527 110.379C56.6428 111.074 56.9908 111.653 57.4549 112.174L62.1535 117.097L62.6756 117.619L62.7336 117.561C62.8496 117.387 63.0236 117.213 63.1977 117.097L63.2557 117.04L63.4297 116.866C63.5457 116.692 63.7197 116.576 63.8358 116.402C63.9518 116.287 64.0098 116.229 64.1258 116.171C64.2418 116.113 64.2998 115.997 64.4158 115.939L64.5319 115.823C64.6479 115.765 64.7059 115.649 64.8219 115.592C64.9379 115.476 65.1119 115.36 65.2279 115.244C65.286 115.186 65.402 115.128 65.46 115.07H65.518C65.692 114.954 65.808 114.839 65.9821 114.723C66.0981 114.665 66.1561 114.607 66.2721 114.491C66.4461 114.375 66.5621 114.259 66.7362 114.143C66.8522 114.086 66.9102 114.028 67.0262 113.97C67.2002 113.854 67.3742 113.738 67.5483 113.68C67.6643 113.622 67.7223 113.564 67.8383 113.506C68.0123 113.39 68.1864 113.333 68.3604 113.217C68.4764 113.159 68.5344 113.101 68.6504 113.043L68.7664 112.985C69.8686 109.915 71.5508 106.498 73.7551 103.022C76.4235 98.7362 79.846 94.2183 83.9065 89.7004C86.4589 86.8622 89.2433 84.024 92.2597 81.3017C96.1462 77.7685 100.149 74.5828 104.093 71.8025C106.762 69.949 109.372 68.2693 111.924 66.8212C112.156 66.7054 112.388 66.5316 112.679 66.4158C113.375 66.0103 114.013 65.6628 114.709 65.3153C116.159 64.5623 117.609 63.8672 119.001 63.288L118.305 62.4771L118.189 62.3612L117.319 61.3766L112.504 55.5844L112.562 51.414L112.504 51.3561L115.927 50.3135L122.424 53.615Z" fill="#2F83C1"/>
<path d="M178.518 150.924C178.518 150.924 178.634 150.055 178.17 149.244C178.17 149.186 178.112 149.128 178.112 149.128L178.054 149.07L177.88 148.897C177.763 148.781 177.647 148.665 177.473 148.549C177.415 148.491 177.299 148.433 177.183 148.375C176.893 148.26 176.603 148.144 176.197 148.086C175.907 148.028 175.617 148.028 175.269 148.028H174.805V148.144C174.805 148.202 174.863 148.26 174.863 148.375C174.863 148.433 174.863 148.491 174.921 148.491C174.979 148.665 175.037 148.955 175.095 149.186C175.095 149.186 175.095 149.244 175.037 149.36V149.418C174.863 149.823 174.399 150.75 173.355 151.909C173.181 152.14 173.007 152.314 172.775 152.546C169.874 155.558 163.61 159.786 150.384 162.161C145.917 162.798 141.74 162.856 138.26 162.392C133.039 161.755 129.153 160.076 127.296 157.817C127.122 157.643 127.006 157.411 126.832 157.237C126.716 157.064 126.658 156.948 126.542 156.774C126.484 156.716 126.484 156.658 126.426 156.6C125.672 155.21 125.324 153.704 125.324 152.256C125.324 150.461 125.904 148.781 126.832 147.507C127.587 146.464 128.573 145.653 129.791 145.306C130.371 145.132 131.009 145.016 131.647 145.074C131.763 145.074 131.937 145.074 132.169 145.132C132.575 145.19 133.213 145.248 133.967 145.363C134.025 145.363 134.141 145.363 134.199 145.421C136.694 145.711 140.638 146.116 145.395 145.827C154.096 145.306 165.524 142.583 175.907 133.2V133.142C175.965 132.331 175.849 130.941 174.863 129.84C174.689 129.667 174.515 129.493 174.283 129.319C174.167 129.203 173.993 129.145 173.877 129.029C173.703 128.972 173.587 128.856 173.471 128.798L172.949 128.45V128.392C172.891 128.276 172.833 128.161 172.717 128.045C170.048 123.99 166.336 121.615 164.828 120.515C164.132 119.994 163.668 119.762 163.668 119.762C160.477 117.793 160.013 117.155 160.303 111.885C160.419 109.973 160.593 107.482 160.825 104.065C160.825 103.602 160.883 103.196 160.883 102.791V102.501V101.111C160.883 100.821 160.825 100.532 160.825 100.3C160.825 100.184 160.825 100.068 160.767 99.9526C160.709 99.663 160.709 99.3734 160.651 99.0838C160.651 98.968 160.593 98.7942 160.593 98.6784C160.593 98.5046 160.535 98.3887 160.477 98.215C160.419 98.0991 160.419 97.9254 160.361 97.8095C160.303 97.6358 160.245 97.462 160.245 97.2882C160.245 97.2303 160.187 97.1724 160.187 97.1145C160.187 97.0565 160.129 96.9986 160.129 96.9407V96.8828L160.071 96.709C160.013 96.5932 159.955 96.4773 159.955 96.3615V96.3036L159.897 96.1877L159.839 96.0719C159.723 95.8402 159.665 95.6085 159.549 95.4347L159.491 95.261C159.375 95.0872 159.259 94.8555 159.143 94.6817L159.085 94.6238L159.027 94.5659C158.911 94.4501 158.853 94.3342 158.737 94.2184L158.621 94.0446C158.505 93.8708 158.389 93.755 158.273 93.6391L157.809 93.1758C157.635 93.0599 157.461 92.9441 157.287 92.8862C157.229 92.8282 157.171 92.8282 157.113 92.8282L156.765 92.6545C156.707 92.6545 156.649 92.5966 156.591 92.5966C156.475 92.5386 156.359 92.5386 156.301 92.4807C156.243 92.4807 156.184 92.4228 156.068 92.4228C155.952 92.4228 155.894 92.3649 155.778 92.3649H154.502C154.444 92.3649 154.386 92.3649 154.328 92.4228C154.27 92.4228 154.212 92.4228 154.154 92.4807C154.038 92.4807 153.922 92.5386 153.748 92.5966H153.632C153.284 92.7124 152.994 92.8282 152.646 92.9441L152.53 93.002C152.414 93.0599 152.298 93.1179 152.124 93.1758L151.95 93.2337L151.602 93.4075L151.428 93.5233L151.08 93.6971L150.906 93.8129C150.79 93.8708 150.674 93.9867 150.558 94.0446L150.442 94.1025C150.326 94.2184 150.152 94.2763 150.036 94.3921L149.978 94.4501C149.804 94.5659 149.688 94.6817 149.514 94.7397C149.224 94.9134 148.933 95.1451 148.643 95.3189C148.411 95.4927 148.179 95.6664 147.889 95.8402L147.773 95.8981C147.541 96.0719 147.251 96.2456 147.019 96.3615L146.903 96.4194C146.671 96.5932 146.381 96.709 146.149 96.8828L146.033 96.9407C145.801 97.1145 145.511 97.2303 145.221 97.3462L145.105 97.4041C144.815 97.5199 144.583 97.6358 144.293 97.7516L144.177 97.8095C143.887 97.9254 143.597 97.9833 143.307 98.0991H143.249C142.959 98.1571 142.611 98.215 142.321 98.2729C141.798 98.3308 141.218 98.3888 140.696 98.3888C139.826 98.3888 138.956 98.3308 138.028 98.215L137.158 98.0412C137.042 98.0412 136.926 97.9833 136.868 97.9833C136.114 97.8095 135.302 97.6358 134.547 97.462C134.199 97.4041 133.909 97.2882 133.561 97.2303C133.039 97.1145 132.517 96.9986 131.937 96.8828C131.821 96.8828 131.705 96.8249 131.647 96.8249C131.589 96.8249 131.473 96.7669 131.415 96.7669C131.299 96.7669 131.183 96.709 131.067 96.709C130.951 96.709 130.835 96.6511 130.719 96.6511H130.603C130.487 96.6511 130.371 96.5932 130.313 96.5932C130.081 96.5352 129.849 96.4773 129.559 96.4773C129.501 96.4773 129.385 96.4773 129.327 96.4194C129.153 96.4194 128.979 96.3615 128.805 96.3615C128.689 96.3615 128.631 96.3615 128.515 96.3036C128.341 96.3036 128.225 96.2456 128.051 96.2456H125.382C125.092 96.2456 124.86 96.3036 124.57 96.3036H124.338C124.164 96.3036 123.99 96.3615 123.816 96.3615H123.758C123.642 96.3615 123.584 96.4194 123.468 96.4194C123.294 96.4773 123.12 96.4773 122.946 96.5352C122.83 96.5352 122.714 96.5932 122.656 96.5932C122.482 96.6511 122.308 96.709 122.134 96.709C122.018 96.709 121.96 96.7669 121.844 96.8249C121.67 96.8828 121.438 96.9407 121.264 96.9986C121.148 97.0565 121.09 97.0565 121.032 97.1145C120.742 97.2303 120.452 97.3462 120.219 97.462C118.015 98.7363 116.101 100.474 114.651 102.443C114.129 103.138 113.665 103.833 113.259 104.528C112.794 105.281 112.446 106.092 112.098 106.903C111.982 107.135 111.924 107.367 111.808 107.598C111.692 108.004 111.518 108.409 111.402 108.815C111.402 108.873 111.402 108.931 111.344 108.931C111.228 109.394 111.112 109.857 110.996 110.379C110.88 110.9 110.822 111.363 110.764 111.885C110.706 112.174 110.706 112.406 110.706 112.695C110.648 113.448 110.648 114.144 110.706 114.897V115.07C110.706 115.244 110.706 115.418 110.764 115.649C110.822 116.171 110.88 116.692 110.996 117.213C111.054 117.387 111.112 117.561 111.112 117.793C111.17 117.966 111.17 118.14 111.228 118.314C111.576 119.646 112.098 120.862 112.736 121.905C115.115 126.018 119.059 128.508 121.96 129.84C123.062 130.304 124.222 130.767 125.44 131.173L125.324 131.288C125.092 131.346 124.86 131.404 124.57 131.462C124.164 131.578 123.642 131.752 123.12 131.926C122.54 132.099 121.844 132.389 121.148 132.679C119.291 133.432 117.203 134.532 115.347 136.038C115.115 136.212 114.883 136.443 114.651 136.617C114.245 136.965 113.897 137.312 113.549 137.718L113.433 137.834L113.259 138.007C113.143 138.181 112.968 138.297 112.852 138.471L112.678 138.644C112.504 138.876 112.33 139.108 112.214 139.34C112.04 139.571 111.924 139.803 111.75 140.035C110.648 141.946 110.01 144.263 110.184 147.043V146.927C110.184 146.869 110.184 146.811 110.242 146.754V146.696C110.242 146.638 110.3 146.58 110.3 146.464V146.406C110.3 146.348 110.358 146.232 110.358 146.116C110.358 146.001 110.416 145.943 110.474 145.827V145.769C110.532 145.653 110.532 145.537 110.59 145.421V145.363C110.648 145.248 110.648 145.132 110.706 145.016V144.958C110.764 144.842 110.822 144.726 110.88 144.553L110.938 144.495C110.996 144.379 111.054 144.205 111.17 144.089C111.286 143.857 111.402 143.684 111.518 143.452C111.576 143.394 111.634 143.278 111.692 143.22L111.75 143.162L112.098 142.641C112.214 142.525 112.33 142.352 112.446 142.236L112.562 142.12C112.678 142.004 112.736 141.888 112.852 141.83L112.968 141.714C113.085 141.599 113.259 141.483 113.375 141.309C113.375 141.309 110.88 146.985 111.982 151.445V151.387V151.271V151.098V150.866V150.576C111.982 150.461 111.982 150.345 112.04 150.229C112.04 150.113 112.04 149.997 112.098 149.881V149.823C112.098 149.708 112.156 149.534 112.156 149.418V149.302C112.214 149.128 112.214 149.013 112.272 148.839V148.781C112.33 148.607 112.388 148.433 112.388 148.317C112.388 148.26 112.446 148.202 112.446 148.144L112.504 148.028C112.562 147.912 112.62 147.738 112.678 147.622C112.736 147.449 112.852 147.275 112.968 147.101C112.968 147.043 113.026 146.985 113.026 146.985L113.375 146.464C113.375 146.464 113.259 147.854 113.259 149.534C113.259 149.823 113.259 150.055 113.317 150.345C113.317 150.518 113.317 150.692 113.375 150.866C113.491 149.07 113.839 147.391 114.303 145.827C113.839 147.391 113.491 149.07 113.375 150.866C113.317 152.024 113.317 153.183 113.433 154.399C113.607 156.427 114.129 158.628 114.999 160.887C114.999 160.887 114.187 158.28 115.347 155.674L115.695 156.369C115.811 157.122 115.927 158.222 116.159 159.438C116.391 161.466 117.319 167.548 121.496 171.776C121.496 171.776 119.929 169.749 120.161 167.142C120.336 167.49 120.51 167.779 120.626 168.069C121.322 169.401 122.714 171.834 124.28 173.571C124.28 173.571 123.062 171.197 123.352 170.675C123.352 170.675 127.412 175.715 128.689 176.178L127.006 173.398L126.948 173.34C132.807 177.626 140.928 179.19 150.906 176.41C152.646 175.946 154.386 175.309 156.242 174.556C157.345 174.093 158.447 173.514 159.549 172.934L159.723 172.818C160.477 172.413 161.231 171.95 161.985 171.486C162.565 171.139 163.145 170.733 163.668 170.386C164.596 169.749 165.524 169.054 166.452 168.301C166.51 168.243 166.568 168.185 166.626 168.185C167.496 167.432 168.366 166.621 169.12 165.81C170.164 164.709 171.093 163.609 171.905 162.508L171.963 162.45C172.195 162.161 172.369 161.929 172.543 161.64L172.601 161.582C172.659 161.466 172.717 161.408 172.775 161.292C173.065 160.887 173.297 160.539 173.587 160.134C173.645 160.018 173.703 159.96 173.761 159.844C173.877 159.612 173.993 159.438 174.167 159.207C174.283 159.033 174.341 158.917 174.457 158.743C174.573 158.57 174.689 158.396 174.747 158.222C174.921 157.932 175.095 157.585 175.269 157.295L175.443 156.948L175.791 156.253L175.965 155.905L176.023 155.789C176.139 155.5 176.313 155.21 176.429 154.921V154.863C176.951 154.399 177.299 153.936 177.647 153.53C177.705 153.473 177.763 153.415 177.763 153.357C178.286 152.604 178.518 151.735 178.518 150.924V150.924ZM84.7186 136.154C84.5445 136.212 84.3705 136.443 84.1385 136.733C84.0805 136.849 83.9645 136.965 83.9065 137.139C83.3844 138.123 82.9203 139.513 82.9203 139.513C82.9783 139.05 83.0363 138.587 83.0363 138.123V137.949C83.0943 137.486 83.1523 136.965 83.2104 136.501V136.328C83.2684 135.748 83.3844 135.227 83.5004 134.706C83.5004 134.648 83.5004 134.59 83.5584 134.474V134.416C83.5584 134.358 83.5584 134.3 83.6164 134.242C83.6164 134.127 83.6744 134.069 83.6744 133.953C83.7324 133.547 83.8484 133.142 83.9065 132.736C83.9645 132.389 84.0225 132.041 84.0805 131.752V131.636C84.0805 131.578 84.0805 131.52 84.1385 131.52V131.404C84.1385 131.346 84.1965 131.23 84.1965 131.173C84.1965 131.115 84.1965 131.057 84.2545 130.999C84.2545 130.883 84.3125 130.767 84.3125 130.709C84.3125 130.651 84.3705 130.535 84.3705 130.478C84.3705 130.362 84.4285 130.246 84.4285 130.188C84.4285 130.13 84.4285 130.072 84.4865 130.014C84.4865 129.956 84.4865 129.898 84.5445 129.898C84.5445 129.782 84.6025 129.725 84.6025 129.667V129.493L84.4865 129.609C84.3705 129.667 84.3125 129.782 84.1965 129.84L84.0805 129.956C83.9645 130.072 83.8484 130.188 83.7904 130.304L83.7324 130.362L83.3844 130.883L83.3264 130.941C83.3264 130.999 83.2684 130.999 83.2684 131.057L83.0943 131.404V131.52C83.0363 131.694 82.9203 131.868 82.8623 132.041C82.6883 132.505 82.5143 132.968 82.3982 133.374C82.3402 133.489 82.3402 133.663 82.2822 133.721C82.2242 133.953 82.1662 134.185 82.1662 134.242V134.3V134.242C82.1662 134.069 82.1662 133.953 82.2242 133.779C82.2242 133.489 82.2822 133.142 82.2822 132.852C82.2822 132.621 82.3402 132.331 82.3982 132.099C82.3982 132.041 82.3982 131.926 82.4562 131.868C82.4562 131.752 82.5143 131.636 82.5143 131.52C82.5143 131.404 82.5723 131.288 82.5723 131.173V130.999C82.5723 130.883 82.6303 130.709 82.6303 130.593V130.304V130.188C82.6303 130.13 82.6303 130.072 82.6883 130.014C82.7463 129.84 82.8043 129.609 82.8043 129.435V129.377C82.8623 129.261 82.8623 129.087 82.9203 128.972V128.914C82.9783 128.624 83.0943 128.334 83.1523 128.045V127.929C83.1523 127.871 83.1523 127.813 83.2104 127.755C83.3264 127.292 83.5004 126.828 83.6164 126.423V126.365C83.7324 126.018 83.9065 125.612 84.0225 125.265V125.207C84.0805 125.033 84.1385 124.917 84.1965 124.743C84.3125 124.512 84.3705 124.28 84.4865 124.048C84.4865 123.99 84.5445 123.874 84.6606 123.643C84.7186 123.585 84.7186 123.469 84.7766 123.411C84.8346 123.295 84.8926 123.179 84.9506 123.006L85.0086 122.89C84.9506 122.832 84.8346 122.832 84.7766 122.774H84.7186L84.6025 122.716C84.0805 122.484 83.5004 122.253 82.9203 122.079H82.8043C82.3982 121.963 82.0502 121.905 81.6441 121.847C81.4121 121.847 81.1801 121.789 80.948 121.789H80.368C80.0779 121.789 79.7879 121.847 79.4978 121.847C79.3818 121.847 79.3238 121.847 79.2078 121.905C79.0918 121.905 78.9178 121.963 78.8017 121.963C78.7437 121.963 78.6857 121.963 78.6277 122.021C78.5117 122.021 78.4537 122.079 78.3377 122.079C78.1637 122.137 77.9316 122.195 77.7576 122.253C77.6996 122.253 77.5836 122.311 77.5256 122.311C77.2935 122.426 77.0035 122.484 76.7715 122.6C76.6554 122.658 76.5974 122.716 76.4814 122.716L76.1334 122.89L76.0174 122.948C75.9013 123.006 75.7853 123.063 75.6693 123.179C75.5533 123.237 75.4373 123.295 75.3213 123.411C75.2052 123.469 75.0892 123.585 74.9732 123.643C74.9152 123.701 74.7992 123.759 74.7412 123.816C74.5672 123.99 74.3351 124.164 74.1611 124.338L73.8711 124.627C73.697 124.801 73.581 124.975 73.407 125.149L73.349 125.207C73.291 125.322 73.175 125.38 73.117 125.496L72.9429 125.67C72.6529 126.075 72.3628 126.539 72.1308 127.002C72.0728 127.06 72.0728 127.118 72.0148 127.176C71.8988 127.408 71.8408 127.639 71.7248 127.871C71.6668 127.987 71.6667 128.045 71.6087 128.161C71.5507 128.392 71.4347 128.624 71.3767 128.914V129.145C71.3187 129.319 71.3187 129.493 71.2607 129.667C71.2607 129.782 71.2607 129.84 71.2027 129.956C71.2027 130.072 71.2027 130.13 71.1447 130.246V130.478C71.1447 130.767 71.0867 131.057 71.1447 131.346C71.1447 131.578 71.1447 131.81 71.2027 132.041V132.157C71.2027 132.273 71.2607 132.389 71.2607 132.505C71.3187 132.968 71.4347 133.374 71.5507 133.837C71.6668 134.185 71.7828 134.474 71.8988 134.764C72.1308 135.343 72.4209 135.864 72.7689 136.386C73.465 137.428 74.3931 138.355 75.4953 139.05C76.0754 139.455 76.7715 139.745 77.4676 139.977C78.1056 140.208 78.8017 140.382 79.5558 140.44C79.7299 140.44 79.9039 140.498 80.0199 140.498H80.774C81.006 140.498 81.2381 140.44 81.4701 140.44C81.5861 140.44 81.7602 140.44 81.8762 140.382C82.2242 140.324 82.5143 140.266 82.8623 140.208H82.9203C83.0363 140.15 83.1523 140.15 83.3264 140.093C83.7324 139.977 84.1385 139.803 84.4865 139.629L84.5445 139.571C84.6606 139.513 84.7766 139.455 84.8346 139.455C84.6606 138.471 84.4865 137.428 84.4285 136.386C84.7186 136.27 84.7186 136.212 84.7186 136.154" fill="#FCE9CD"/>
<path d="M123.874 54.3101L124.048 54.4259L123.874 54.3101Z" fill="#4D9ED7"/>
<path d="M174.979 148.549C174.979 148.491 174.979 148.433 174.921 148.433C174.863 148.317 174.863 148.26 174.863 148.202C174.573 147.275 174.225 146.58 173.877 146.058C173.471 145.421 173.123 145.074 173.123 145.074L173.297 144.379C173.355 144.089 173.413 143.8 173.413 143.51C173.645 141.425 173.123 139.803 172.659 138.876C172.601 138.702 172.543 138.587 172.485 138.471C172.137 138.702 171.846 138.934 171.498 139.166C165.234 143.394 158.215 146.116 150.616 147.275C145.395 148.086 139.884 148.144 134.141 147.449L134.257 147.507C134.257 147.507 130.777 147.97 129.849 151.271L129.907 151.329L129.617 153.53C129.733 156.542 131.067 158.396 132.633 159.381C134.257 160.018 136.23 160.481 138.434 160.771C142.204 161.234 146.613 161.118 151.022 160.423C156.938 159.612 165.292 156.484 171.266 152.43C172.601 151.503 173.877 150.518 174.921 149.534L174.979 149.476L175.037 149.418C175.037 149.013 174.979 148.781 174.979 148.549" fill="white"/>
<path d="M163.668 119.936C160.477 117.966 160.013 117.329 160.303 112.058C160.419 110.147 160.593 107.656 160.825 104.239C160.825 103.776 160.883 103.37 160.883 102.965V102.675V101.285C160.883 100.995 160.825 100.706 160.825 100.474C160.825 100.358 160.825 100.242 160.767 100.126C160.709 99.8368 160.709 99.5472 160.651 99.2576C160.651 99.1418 160.593 98.968 160.593 98.8521C160.593 98.6784 160.535 98.5625 160.477 98.3888C160.419 98.2729 160.419 98.0992 160.361 97.9833C159.897 97.2882 159.375 96.709 158.737 96.1877L158.621 96.0719L158.505 96.014H158.447C158.331 95.956 158.273 95.8981 158.157 95.8402C158.041 95.7823 157.925 95.7244 157.867 95.6664C156.939 95.0872 155.836 94.7397 154.734 94.5659C154.096 94.4501 153.458 94.4501 152.82 94.4501C152.53 94.4501 152.182 94.508 151.892 94.508C151.08 94.6238 150.268 94.7976 149.398 95.0293C149.108 95.2031 148.817 95.4347 148.527 95.6085C148.295 95.7823 148.063 95.956 147.773 96.1298L147.657 96.1877C147.425 96.3615 147.135 96.5353 146.903 96.6511L146.787 96.709C146.555 96.8828 146.265 96.9986 146.033 97.1724L145.917 97.2303C145.685 97.4041 145.395 97.5199 145.105 97.6358L144.989 97.6937C144.699 97.8095 144.467 97.9254 144.177 98.0412L144.061 98.0992C143.771 98.215 143.481 98.2729 143.191 98.3888H143.133C142.843 98.4467 142.495 98.5046 142.205 98.5625C141.682 98.6205 141.102 98.6784 140.58 98.6784C139.71 98.6784 138.84 98.6205 137.912 98.5046L137.042 98.3308C136.926 98.3308 136.81 98.2729 136.752 98.2729C135.998 98.0992 135.186 97.9254 134.431 97.7516C134.083 97.6937 133.793 97.5779 133.445 97.5199C132.923 97.4041 132.401 97.2883 131.821 97.1724C131.705 97.1724 131.589 97.1145 131.531 97.1145C131.067 97.1145 130.603 97.1724 130.197 97.2303H130.081C128.747 97.4041 127.471 97.6937 126.136 98.1571C126.078 98.1571 126.02 98.215 125.904 98.215C125.672 98.2729 125.498 98.3888 125.266 98.4467C124.976 98.5625 124.744 98.6784 124.454 98.7942C122.54 99.6051 120.742 100.764 119.001 102.212C118.305 102.791 117.667 103.428 117.029 104.065C116.101 105.05 115.289 106.092 114.535 107.193C114.477 107.251 114.477 107.309 114.419 107.367C114.013 107.946 113.665 108.583 113.375 109.162C113.259 109.394 113.143 109.626 113.027 109.799V109.857C112.678 110.61 112.388 111.305 112.156 112.058C112.156 112.116 112.156 112.174 112.098 112.174C112.04 112.29 112.04 112.406 111.982 112.522C111.866 112.869 111.75 113.217 111.692 113.564C111.576 113.912 111.518 114.259 111.46 114.665C111.46 114.723 111.402 114.839 111.402 114.897C111.344 115.128 111.344 115.36 111.286 115.534C111.17 116.345 111.112 117.155 111.054 117.966V118.546C111.402 119.878 111.924 121.094 112.562 122.137C114.941 126.249 118.885 128.74 121.786 130.072C122.888 130.535 124.048 130.999 125.266 131.404L125.324 131.462L125.382 131.404C125.556 131.288 125.672 131.173 125.846 131.057C125.904 130.999 125.962 130.999 126.02 130.941L126.542 130.593C126.6 130.535 126.658 130.535 126.716 130.478L127.238 130.13C127.297 130.072 127.355 130.072 127.413 130.014C127.587 129.898 127.761 129.782 127.993 129.667C128.051 129.609 128.109 129.609 128.167 129.551C128.341 129.435 128.573 129.319 128.747 129.203C128.805 129.145 128.863 129.145 128.921 129.087C129.095 128.972 129.327 128.856 129.501 128.74C129.559 128.682 129.675 128.682 129.733 128.624C129.907 128.508 130.139 128.392 130.313 128.277C130.371 128.219 130.487 128.161 130.545 128.161C130.719 128.045 130.951 127.929 131.183 127.813C131.299 127.755 131.357 127.697 131.473 127.697C131.705 127.581 131.879 127.466 132.111 127.408C132.227 127.35 132.285 127.292 132.401 127.292C132.633 127.176 132.807 127.118 133.039 127.002L133.387 126.828C133.619 126.713 133.793 126.655 134.025 126.539C134.141 126.481 134.257 126.423 134.431 126.365C134.664 126.307 134.838 126.191 135.07 126.133C135.186 126.075 135.36 126.018 135.476 125.96C135.708 125.902 135.882 125.786 136.114 125.728C136.288 125.67 136.404 125.612 136.578 125.554C136.81 125.496 136.984 125.38 137.216 125.322L137.738 125.149C137.912 125.091 138.144 125.033 138.318 124.917C138.492 124.859 138.724 124.801 138.898 124.743C139.072 124.685 139.304 124.627 139.478 124.569C139.71 124.512 139.942 124.454 140.116 124.396C140.29 124.338 140.464 124.28 140.696 124.222C140.928 124.164 141.16 124.106 141.45 123.99C141.566 123.932 141.682 123.932 141.799 123.874C142.727 121.5 145.569 115.592 150.384 114.954C150.906 114.897 151.37 114.839 151.834 114.839H152.182C152.124 114.491 152.066 114.144 152.066 113.738C151.892 111.19 152.704 109.046 153.806 108.988C154.676 108.931 155.372 110.205 155.488 110.61C155.836 111.363 156.068 112.348 156.126 113.448C156.184 114.433 156.068 115.36 155.894 116.171C156.01 116.287 156.068 116.402 156.185 116.46C157.287 117.851 157.461 119.704 157.403 121.094C157.809 121.036 158.273 121.036 158.737 120.978C158.853 120.978 158.969 120.978 159.085 120.92H159.317C159.839 120.862 160.419 120.805 160.999 120.805C162.275 120.689 163.552 120.631 164.886 120.573C164.132 120.167 163.668 119.936 163.668 119.936V119.936ZM175.791 155.616C173.703 157.469 171.499 158.975 169.294 160.192C168.192 160.771 167.09 161.292 166.046 161.755C163.668 162.798 161.405 163.493 159.375 164.014C154.908 165.115 151.834 165.115 151.834 165.115C154.27 166.447 157.345 166.447 159.433 166.273C160.883 166.157 161.869 165.868 161.869 165.868C161.811 166.737 161.695 167.548 161.579 168.358C161.405 169.227 161.173 169.98 160.883 170.675V170.733C160.535 171.602 160.071 172.355 159.607 173.05C159.549 173.108 159.491 173.224 159.433 173.282L159.607 173.166C160.361 172.761 161.115 172.297 161.869 171.834C162.449 171.486 163.029 171.081 163.552 170.733C164.48 170.096 165.408 169.401 166.336 168.648C166.394 168.59 166.452 168.532 166.51 168.532C167.38 167.779 168.25 166.968 169.004 166.157C170.048 165.057 170.977 163.956 171.789 162.856L171.847 162.798C172.079 162.508 172.253 162.277 172.427 161.987L172.485 161.929C172.543 161.813 172.601 161.755 172.659 161.64C172.949 161.234 173.181 160.887 173.471 160.481C173.529 160.365 173.587 160.307 173.645 160.192C173.761 159.96 173.877 159.786 174.051 159.554C174.167 159.381 174.225 159.265 174.341 159.091C174.457 158.917 174.573 158.743 174.631 158.57C174.805 158.28 174.979 157.933 175.153 157.643L175.327 157.295L175.675 156.6L175.849 156.253L175.907 156.137C176.023 155.847 176.197 155.558 176.313 155.268C176.081 155.326 175.965 155.442 175.791 155.616V155.616ZM122.888 132.273C122.308 132.447 121.612 132.736 120.916 133.026C119.059 133.779 116.971 134.88 115.115 136.386C114.883 136.559 114.651 136.791 114.419 136.965C114.013 137.312 113.665 137.66 113.317 138.065L113.201 138.181L113.027 138.355C112.911 138.529 112.737 138.645 112.62 138.818L112.446 138.992C112.272 139.224 112.098 139.455 111.982 139.687C111.808 139.919 111.692 140.151 111.518 140.382C110.416 142.294 109.778 144.61 109.952 147.391V147.275C109.952 147.217 109.952 147.159 110.01 147.101V147.043C110.01 146.985 110.068 146.927 110.068 146.812V146.754C110.068 146.696 110.126 146.58 110.126 146.464C110.126 146.348 110.184 146.29 110.242 146.174V146.116C110.3 146.001 110.3 145.885 110.358 145.769V145.711C110.416 145.595 110.416 145.479 110.474 145.363V145.306C110.532 145.19 110.59 145.074 110.648 144.9L110.706 144.842C110.764 144.726 110.822 144.553 110.938 144.437C111.054 144.205 111.17 144.031 111.286 143.8C111.344 143.742 111.402 143.626 111.46 143.568L111.518 143.51L111.866 142.989C111.982 142.873 112.098 142.699 112.214 142.583L112.33 142.467C112.446 142.352 112.504 142.236 112.62 142.178L112.736 142.062C112.853 141.946 113.027 141.83 113.143 141.656C113.143 141.656 110.648 147.333 111.75 151.793V151.735V151.619V151.445V151.214V150.924C111.75 150.808 111.75 150.692 111.808 150.576C111.808 150.461 111.808 150.345 111.866 150.229V150.171C111.866 150.055 111.924 149.881 111.924 149.766V149.65C111.982 149.476 111.982 149.36 112.04 149.186V149.128C112.098 148.955 112.156 148.781 112.156 148.665C112.156 148.607 112.214 148.549 112.214 148.491L112.272 148.375C112.33 148.26 112.388 148.086 112.446 147.97C112.504 147.796 112.62 147.622 112.736 147.449C112.736 147.391 112.795 147.333 112.795 147.333L113.143 146.812C113.143 146.812 113.027 148.202 113.027 149.881C113.027 150.171 113.027 150.403 113.085 150.692C113.085 150.866 113.085 151.04 113.143 151.214C113.259 149.418 113.607 147.738 114.071 146.174C114.187 145.769 114.361 145.306 114.477 144.9C114.477 144.842 114.535 144.784 114.535 144.726C114.709 144.321 114.825 143.973 114.999 143.568C115.057 143.51 115.057 143.452 115.115 143.336C115.289 142.989 115.463 142.583 115.637 142.236C115.695 142.178 115.695 142.12 115.695 142.062C116.101 141.309 116.507 140.614 116.913 139.977C116.971 139.919 116.971 139.861 117.029 139.803C117.203 139.571 117.377 139.34 117.551 139.05C117.609 138.992 117.609 138.934 117.667 138.876C117.725 138.818 117.725 138.76 117.783 138.702C118.015 138.413 118.189 138.123 118.421 137.834C118.479 137.776 118.479 137.718 118.537 137.718C118.769 137.428 119.001 137.139 119.233 136.907C119.523 136.559 119.813 136.27 120.104 135.922C120.336 135.691 120.51 135.459 120.742 135.285L120.974 135.053C121.438 134.59 121.902 134.127 122.366 133.721C123.642 132.563 124.686 131.81 125.034 131.578C124.802 131.636 124.57 131.694 124.28 131.752C123.932 131.926 123.468 132.099 122.888 132.273" fill="#F2D2AC"/>
<path d="M156.3 119.704C156.3 119.704 156.3 119.588 156.242 119.357C156.01 118.546 155.198 116.576 152.008 116.866C148.643 117.213 147.483 119.936 147.193 120.862C147.135 121.036 147.135 121.152 147.135 121.152L147.251 121.21C147.657 120.862 148.469 120.862 149.223 121.384C149.572 121.615 149.804 121.847 150.036 122.137C150.326 122.6 150.384 123.064 150.21 123.411L150.036 123.585C150.036 123.585 150.152 123.643 150.384 123.701C151.312 123.99 153.922 124.512 155.314 122.716C155.372 122.6 155.43 122.542 155.488 122.426C155.198 122.311 155.082 121.905 155.082 121.384C155.082 121.152 155.14 120.92 155.198 120.631C155.372 119.936 155.894 119.53 156.3 119.704ZM139.536 144.495C137.332 144.958 135.418 145.306 133.967 145.537C134.025 145.537 134.141 145.537 134.199 145.595C136.694 145.885 140.638 146.29 145.395 146.001C154.096 145.479 165.524 142.757 175.907 133.374V133.316C175.965 132.505 175.849 131.115 174.863 130.014C174.689 129.84 174.515 129.667 174.283 129.493C174.225 129.493 174.225 129.435 174.167 129.435C173.877 129.261 173.645 129.145 173.413 128.972L172.891 128.624V128.566C172.253 129.493 171.499 130.362 170.686 131.173C170.396 131.462 170.106 131.752 169.758 132.041C166.916 134.59 163.203 136.791 159.201 138.529C152.588 141.425 145.163 143.336 139.536 144.495ZM84.5445 129.377C84.4285 129.435 84.3705 129.551 84.2545 129.609L84.1385 129.725C84.0225 129.84 83.9064 129.956 83.8484 130.072L83.7904 130.13L83.4424 130.651L83.3844 130.709C83.3844 130.767 83.3264 130.767 83.3264 130.825L83.1523 131.173V131.288C83.0943 131.462 82.9783 131.636 82.9203 131.81C82.7463 132.273 82.5723 132.736 82.4562 133.142C82.3982 133.258 82.3982 133.432 82.3402 133.489C82.2822 133.721 82.2242 133.953 82.2242 134.011V134.069V134.011C82.2242 133.837 82.2242 133.721 82.2822 133.547C82.2822 133.258 82.3402 132.91 82.3402 132.621C82.3402 132.389 82.3982 132.099 82.4562 131.868C82.4562 131.81 82.4562 131.694 82.5142 131.636C82.5142 131.52 82.5723 131.404 82.5723 131.288C82.5723 131.173 82.6303 131.057 82.6303 130.941V130.767C82.6303 130.651 82.6883 130.478 82.6883 130.362V130.072V129.956C82.6883 129.898 82.6883 129.84 82.7463 129.782C82.8043 129.609 82.8623 129.377 82.8623 129.203V129.145C82.9203 129.029 82.9203 128.856 82.9783 128.74V128.682C83.0363 128.392 83.1523 128.103 83.2103 127.813V127.697C83.2103 127.639 83.2103 127.581 83.2683 127.523C83.3844 127.06 83.5584 126.597 83.6744 126.191V126.133C83.7904 125.786 83.9644 125.38 84.0805 125.033V124.975C84.1385 124.801 84.1965 124.685 84.2545 124.512C84.3705 124.28 84.4285 124.048 84.5445 123.816C84.5445 123.759 84.6025 123.643 84.7186 123.411C84.7766 123.353 84.7766 123.237 84.8346 123.179C84.8926 123.064 84.9506 122.948 85.0086 122.774L85.0666 122.658C85.0086 122.6 84.8926 122.6 84.8346 122.542H84.7766L84.6605 122.484C84.1385 122.253 83.5584 122.021 82.9783 121.847H82.8623C82.4562 121.731 82.1082 121.673 81.7021 121.615C81.4701 121.615 81.2381 121.558 81.006 121.558H80.426C80.1359 121.558 79.8459 121.615 79.5558 121.615C79.4398 121.615 79.3818 121.615 79.2658 121.673C79.1498 121.673 78.9758 121.731 78.8597 121.731C78.8017 121.731 78.7437 121.731 78.6857 121.789C78.5697 121.789 78.5117 121.847 78.3957 121.847C78.2217 121.905 77.9896 121.963 77.8156 122.021C77.7576 122.021 77.6416 122.079 77.5836 122.079C77.3515 122.195 77.0615 122.253 76.8295 122.368C76.7134 122.426 76.6554 122.484 76.5394 122.484L76.1914 122.658L76.0754 122.716C75.9593 122.774 75.8433 122.832 75.7273 122.948C75.6113 123.006 75.4953 123.064 75.3793 123.179C75.2632 123.237 75.1472 123.353 75.0312 123.411C74.9732 123.469 74.8572 123.527 74.7992 123.585C74.6252 123.759 74.3931 123.932 74.2191 124.106L73.9291 124.396C73.755 124.569 73.639 124.743 73.465 124.917L73.407 124.975C73.349 125.091 73.233 125.149 73.175 125.265L73.0009 125.438C72.7109 125.844 72.4209 126.307 72.1888 126.771C72.1308 126.828 72.1308 126.886 72.0728 126.944C71.9568 127.176 71.8988 127.408 71.7828 127.639C71.7248 127.755 71.7248 127.813 71.6667 127.929C71.6667 127.987 71.7248 128.045 71.7248 128.103C71.7828 128.334 71.8408 128.508 71.8988 128.74V128.856C71.9568 129.029 72.0728 129.261 72.1308 129.435C72.3628 130.014 72.5949 130.535 72.8849 130.999C72.9429 131.057 72.9429 131.115 73.0009 131.173V131.231L73.0589 131.288C73.233 131.636 73.407 131.926 73.581 132.157C73.8711 132.563 74.1031 132.852 74.2771 133.084L74.3931 133.2C74.3931 133.258 74.4511 133.258 74.4511 133.258L74.5671 133.374C74.5671 133.258 74.5091 133.142 74.5091 133.084C74.3351 132.331 74.2771 131.636 74.2771 130.883V130.767C74.2771 130.304 74.2771 129.84 74.3351 129.435L74.5091 129.956C74.5671 130.188 74.6832 130.42 74.7412 130.651V130.767C75.0892 131.752 75.4953 132.563 75.9013 133.2C76.3654 134.011 76.7715 134.532 77.0615 134.88C77.1195 134.938 77.1775 134.995 77.1775 135.053L77.2935 135.169C77.1195 134.358 77.0035 133.605 77.0035 132.852V132.099C77.0035 131.752 77.0035 131.462 77.0615 131.173C77.1775 131.694 77.3515 132.215 77.5256 132.679V132.736C78.1636 134.416 78.9177 135.633 79.4398 136.386L79.4978 136.443C79.6138 136.559 79.6719 136.675 79.7299 136.791C79.7879 136.849 79.8459 136.907 79.8459 136.965L79.9619 137.081L80.0199 137.139V137.023C80.0199 136.907 79.9619 136.791 79.9619 136.675C79.9039 136.27 79.8459 135.864 79.7879 135.517C79.7879 135.285 79.7299 134.995 79.7299 134.764V134.069V133.953V133.489C79.7299 133.2 79.7879 132.852 79.7879 132.563C79.8459 132.736 79.9039 132.968 79.9619 133.142C80.0199 133.258 80.0779 133.432 80.1359 133.547V133.605L80.1939 133.663C80.2519 133.837 80.3099 134.011 80.3679 134.127C80.484 134.416 80.6 134.706 80.774 134.938C80.948 135.285 81.064 135.575 81.2381 135.806C81.3541 135.98 81.4121 136.096 81.4701 136.212C81.5861 136.386 81.7021 136.559 81.7601 136.675C81.8762 136.791 81.9342 136.907 81.9922 137.023L82.0502 137.081C82.1082 137.196 82.2242 137.254 82.2822 137.37C82.3402 137.428 82.3982 137.486 82.3982 137.544C82.5142 137.66 82.5723 137.776 82.6303 137.776L82.6883 137.834V137.66C82.7463 137.196 82.8043 136.675 82.8623 136.212V136.038C82.9203 135.459 83.0363 134.938 83.1523 134.416C83.1523 134.358 83.1523 134.3 83.2103 134.185V134.127C83.2103 134.069 83.2103 134.011 83.2683 133.953C83.2683 133.837 83.3264 133.779 83.3264 133.663C83.3844 133.258 83.5004 132.852 83.5584 132.447C83.6164 132.099 83.6744 131.752 83.7324 131.462V131.346C83.7324 131.288 83.7324 131.231 83.7904 131.231V131.115C83.7904 131.057 83.8484 130.941 83.8484 130.883C83.8484 130.825 83.8484 130.767 83.9064 130.709C83.9064 130.593 83.9644 130.478 83.9644 130.42C83.9644 130.362 84.0225 130.246 84.0225 130.188C84.0225 130.072 84.0805 129.956 84.0805 129.898C84.0805 129.84 84.0805 129.782 84.1385 129.725C84.1385 129.667 84.1385 129.609 84.1965 129.609C84.1965 129.493 84.2545 129.435 84.2545 129.377V129.203L84.5445 129.377V129.377ZM154.85 153.588C155.662 153.299 156.358 153.067 156.939 152.835C158.041 152.372 158.621 152.025 158.621 151.909C158.563 151.793 157.925 151.851 156.765 152.14C156.184 152.256 155.488 152.372 154.618 152.604C154.212 152.72 153.748 152.777 153.284 152.835C152.82 152.893 152.298 153.009 151.776 153.067C150.732 153.241 149.572 153.357 148.295 153.473L146.381 153.646C145.743 153.704 145.047 153.704 144.351 153.762C141.566 153.82 138.492 153.704 135.36 153.125C133.735 152.835 131.473 152.082 129.907 151.214L129.849 151.156C130.777 147.854 134.257 147.391 134.257 147.391L134.141 147.333H133.967C133.445 147.275 133.039 147.217 132.633 147.159C132.343 147.101 132.111 147.101 131.937 147.043C131.763 147.043 131.589 146.985 131.531 146.985C129.443 146.869 128.283 148.607 127.935 149.36L127.76 149.708C127.47 150.403 127.238 151.156 127.18 152.025C127.064 153.588 127.47 155.268 128.689 156.716C129.501 157.701 130.893 158.57 132.691 159.265C131.125 158.28 129.733 156.369 129.675 153.415C131.473 154.168 133.503 154.631 135.069 154.921C138.376 155.558 141.624 155.616 144.467 155.442C145.163 155.384 145.917 155.326 146.555 155.268C147.251 155.152 147.889 155.094 148.527 155.036C149.804 154.805 150.906 154.631 152.008 154.399C152.53 154.283 153.052 154.168 153.516 153.994C154.038 153.878 154.444 153.762 154.85 153.588" fill="#F2D2AC"/>
<path d="M152.124 114.896C153.864 114.954 155.024 115.476 155.836 116.287C156.01 115.534 156.126 114.607 156.068 113.564C156.01 112.464 155.778 111.479 155.43 110.726C155.314 110.263 154.618 109.046 153.748 109.104C152.646 109.162 151.834 111.305 152.008 113.854C152.008 114.201 152.066 114.549 152.124 114.896ZM155.024 121.442C155.024 121.905 155.198 122.31 155.43 122.484C155.836 122.716 156.358 122.253 156.59 121.5C156.59 121.442 156.648 121.384 156.648 121.326C156.822 120.631 156.648 119.936 156.242 119.762C155.836 119.53 155.314 119.994 155.082 120.747C155.082 120.978 155.024 121.21 155.024 121.442ZM147.135 122.716C147.309 123.006 147.599 123.295 147.947 123.527C148.701 123.99 149.513 124.048 149.977 123.643L150.151 123.469C150.325 123.121 150.267 122.658 149.977 122.195C149.803 121.905 149.513 121.615 149.165 121.442C148.411 120.978 147.599 120.92 147.193 121.268C147.135 121.326 147.077 121.384 147.019 121.5C146.845 121.789 146.903 122.253 147.135 122.716V122.716ZM175.965 133.316C175.907 133.316 175.907 133.316 175.965 133.316V133.316ZM175.037 149.36C173.935 150.403 172.717 151.387 171.324 152.314C165.35 156.369 156.996 159.554 151.08 160.307C146.613 161.002 142.262 161.118 138.492 160.655C136.288 160.365 134.373 159.902 132.691 159.265C130.893 158.57 129.501 157.701 128.688 156.716C127.47 155.268 127.122 153.53 127.18 152.024C127.238 151.214 127.412 150.403 127.76 149.708L127.934 149.36C128.34 148.607 129.443 146.811 131.531 146.985C131.589 146.985 131.763 146.985 131.937 147.043C132.111 147.043 132.401 147.101 132.633 147.159C133.039 147.217 133.445 147.275 133.967 147.333H134.141C139.884 148.028 145.395 147.97 150.615 147.159C158.215 146.001 165.234 143.278 171.498 139.05C171.846 138.818 172.136 138.587 172.485 138.355L175.907 133.258C165.524 142.699 154.096 145.421 145.395 145.943C140.638 146.232 136.694 145.885 134.199 145.537C134.083 145.537 134.025 145.537 133.967 145.479C133.213 145.363 132.633 145.306 132.169 145.248C131.937 145.248 131.763 145.19 131.647 145.19C131.009 145.132 130.371 145.248 129.791 145.421C128.63 145.769 127.586 146.58 126.832 147.622C125.904 148.897 125.324 150.634 125.324 152.372C125.324 153.82 125.672 155.326 126.426 156.716C126.484 156.774 126.484 156.832 126.542 156.89C126.658 157.064 126.716 157.18 126.832 157.353C126.948 157.527 127.122 157.759 127.296 157.932C129.094 160.191 133.039 161.813 138.26 162.508C141.798 162.972 145.917 162.914 150.383 162.277C163.609 159.902 169.874 155.616 172.775 152.662C173.007 152.43 173.181 152.256 173.355 152.024C174.399 150.808 174.863 149.881 175.037 149.534V149.476C175.095 149.36 175.095 149.302 175.095 149.302L175.037 149.36" fill="#664F44"/>
<path d="M132.981 103.602C132.575 103.37 132.111 103.196 131.647 103.08C131.357 103.022 131.067 102.965 130.719 102.907C130.603 102.907 130.487 102.907 130.371 102.849C128.805 102.733 127.471 102.965 127.471 102.965C127.181 103.022 126.89 103.08 126.658 103.196C124.57 103.833 123.12 104.934 122.076 106.208C121.264 107.251 120.684 108.351 120.394 109.452C120.336 109.568 120.336 109.626 120.336 109.741C120.278 110.031 120.162 110.321 120.104 110.552C119.929 111.479 119.813 112.29 119.813 112.985C119.813 113.912 119.871 114.491 119.871 114.491C120.22 113.68 120.626 112.985 121.032 112.29C122.018 110.61 123.062 109.22 124.164 108.12C126.252 105.976 128.399 104.818 130.023 104.239C131.763 103.66 132.981 103.602 132.981 103.602V103.602ZM158.099 100.648L158.041 100.532C157.809 100.242 157.519 99.9526 157.171 99.7209C156.359 99.1996 155.256 98.91 153.748 99.1996C153.748 99.1996 151.95 99.605 150.906 100.821C150.906 100.821 154.038 99.4892 157.403 101.864C157.693 102.096 158.041 102.327 158.331 102.617C158.621 102.907 158.969 103.196 159.259 103.602C159.259 103.602 159.143 102.154 158.273 100.879C158.215 100.763 158.157 100.706 158.099 100.648" fill="#E9B784"/>
<path d="M133.387 123.701C134.606 123.353 135.882 123.006 137.332 122.658C137.564 121.557 137.622 120.225 137.448 118.777C137.042 115.418 135.534 112.811 134.026 112.985C132.517 113.159 131.647 116.055 132.053 119.414C132.285 121.152 132.749 122.658 133.387 123.701Z" fill="#664F44"/>
<path d="M126.484 47.9966L123.352 48.6916L123.99 54.368L115.695 50.1397L112.272 51.1823L112.33 51.2402L122.424 62.7088L122.54 62.6508L122.656 62.5929C122.946 62.4191 123.294 62.1875 123.584 62.0137C123.7 61.9558 123.816 61.8978 123.932 61.782C124.396 61.4924 124.86 61.2028 125.324 60.9711L121.031 56.0477L127.934 59.4072C128.166 59.2914 128.34 59.1755 128.572 59.0597L127.934 54.1363L131.067 57.7854H131.125C131.415 57.6695 131.647 57.4958 131.937 57.3799L132.053 57.322L132.169 57.2641C132.227 57.2641 132.285 57.2062 132.285 57.2062L132.633 57.0324C132.633 57.0324 132.691 57.0324 132.691 56.9745C133.039 56.8007 133.445 56.627 133.793 56.4532L126.484 47.9966Z" fill="#FFD250"/>
<path d="M123.41 48.8655V48.6917V48.8655ZM123.41 48.6917L123.874 48.5759C123.12 48.2283 122.192 47.9967 121.147 47.8229C119.059 47.5333 116.391 47.8229 113.374 48.5759C110.358 49.3289 106.936 50.6611 103.339 52.4566C96.088 56.0478 88.0829 61.5504 80.3098 68.6169C77.5835 71.0496 75.0891 73.5982 72.7688 76.0888L82.1661 87.6732C84.7184 84.8929 87.4448 82.1127 90.4612 79.3903C94.4638 75.7413 98.5244 72.4976 102.527 69.7174C106.413 66.9951 110.3 64.6782 113.954 62.8247L112.33 55.4107L112.388 51.2403L112.33 51.1824L115.753 50.1398L122.424 53.5572L122.25 51.2403L123.41 48.6917" fill="#4D9ED7"/>
<path d="M123.41 48.6917L122.25 51.2402L122.424 53.615L124.048 54.4259L123.41 48.6917ZM121.032 56.0477L127.993 59.4651L125.324 60.9711L121.032 56.0477ZM127.993 54.1363L128.631 59.0597L131.125 57.7854L127.993 54.1363Z" fill="#132134"/>
<path d="M154.212 52.3407H155.488C156.648 52.3407 157.751 52.5145 158.795 52.7462C158.853 52.7462 158.911 52.7462 158.969 52.8041H159.027L159.143 52.862H159.259C159.143 52.8041 159.027 52.6882 158.911 52.6303C157.751 52.1669 156.532 51.8773 155.256 51.7036C148.991 50.8927 141.798 53.2095 137.738 54.8313C137.506 54.9472 137.274 55.0051 137.042 55.121C136.694 55.2947 136.346 55.4106 135.998 55.5843C135.417 55.816 134.837 56.1056 134.199 56.3952C134.083 56.4532 134.025 56.4532 133.909 56.5111C133.561 56.6849 133.155 56.8586 132.807 57.0324C132.807 57.0324 132.749 57.0324 132.749 57.0903L132.401 57.2641C132.343 57.2641 132.285 57.322 132.285 57.322H132.053L131.995 57.3799C131.705 57.4958 131.473 57.6116 131.183 57.7854H131.125C131.067 57.8433 131.009 57.8433 130.951 57.9012H130.893C130.835 57.9012 130.777 57.9591 130.777 57.9591C130.371 58.1908 129.965 58.3646 129.559 58.5963C129.269 58.77 128.979 58.8859 128.689 59.0597H128.631C128.398 59.1755 128.224 59.2913 127.992 59.4072C127.296 59.7547 126.658 60.1602 125.962 60.5656C125.904 60.6235 125.846 60.6235 125.73 60.6815C125.672 60.7394 125.614 60.7394 125.556 60.7973C125.498 60.8552 125.44 60.8552 125.382 60.9132L125.324 60.9711C124.86 61.2607 124.396 61.4924 123.932 61.782C123.816 61.8399 123.7 61.8978 123.584 62.0137C123.294 62.1874 122.946 62.4191 122.656 62.5929L122.54 62.6508L122.424 62.7087L119.813 64.4464C118.363 65.4311 116.971 66.4157 115.579 67.4583C115.405 67.5742 115.231 67.7479 115.057 67.8638C111.402 70.5861 107.922 73.5401 104.557 76.5521C101.019 79.7957 97.5962 83.0973 94.4058 86.4567C92.6656 88.1944 91.1573 89.7583 89.9972 91.0326C87.5608 93.639 86.2267 95.2609 86.2847 95.3188C86.2847 95.3188 86.5167 95.145 86.9228 94.7396C86.6327 95.0871 86.2847 95.4926 85.9946 95.8401C91.3314 90.1637 97.1902 84.3715 103.513 78.9269C107.342 75.6253 111.344 72.4396 115.463 69.4856C117.261 68.2113 119.117 66.937 120.973 65.7207C121.554 65.3152 122.192 64.9677 122.772 64.5622C123.062 64.3885 123.352 64.2147 123.7 64.0409C123.874 63.9251 124.048 63.8092 124.222 63.7513C124.57 63.5776 124.86 63.3459 125.208 63.1721C125.498 62.9983 125.846 62.8246 126.136 62.5929C126.31 62.477 126.484 62.4191 126.658 62.3033L127.876 61.6082C128.108 61.4924 128.34 61.3186 128.573 61.2028C129.327 60.7973 130.081 60.3919 130.893 59.9864C130.951 59.9285 131.009 59.9285 131.067 59.8706L131.415 59.6968C131.589 59.6389 131.705 59.523 131.879 59.4651C131.937 59.4072 131.995 59.4072 132.053 59.3493L132.401 59.1755C132.401 59.1755 132.459 59.1755 132.459 59.1176H132.517C132.865 58.9438 133.213 58.77 133.503 58.6542C133.561 58.6542 133.619 58.5963 133.677 58.5384L134.025 58.3646C134.431 58.1908 134.779 58.0171 135.185 57.8433C135.301 57.7854 135.417 57.7274 135.475 57.6695C135.533 57.6695 135.591 57.6116 135.649 57.6116C135.766 57.5537 135.882 57.4958 135.998 57.4958C136.462 57.322 136.868 57.0903 137.332 56.9165C137.738 56.7428 138.086 56.569 138.492 56.3952C140.696 55.4685 142.726 54.7155 144.641 54.0784C148.237 53.0937 151.428 52.4565 154.212 52.3407" fill="white"/>
</g>
<rect x="0.5" y="0.5" width="233" height="233" rx="116.5" stroke="black"/>
<defs>
<clipPath id="clip0_56_420">
<rect width="130" height="146.774" fill="white" transform="translate(52 44)"/>
</clipPath>
</defs>
</svg>
