<svg width="234" height="234" viewBox="0 0 234 234" fill="none" xmlns="http://www.w3.org/2000/svg">
<rect x="0.5" y="0.5" width="233" height="233" rx="116.5" fill="white"/>
<g clip-path="url(#clip0_56_478)">
<path d="M171.665 151.623C164.597 151.447 159.12 152.154 154.525 154.097C153.2 154.627 151.079 154.627 150.903 156.306C151.61 157.013 151.698 158.162 152.317 159.133C153.378 160.9 155.232 163.286 156.911 164.523C158.766 165.936 160.622 167.35 162.565 168.587C166.011 170.707 169.899 171.944 173.256 174.064C175.2 175.3 177.142 176.892 179.086 178.217C180.058 178.923 180.676 180.072 181.914 180.514V180.249C181.295 179.453 181.118 178.305 180.5 177.421C179.618 176.538 178.733 175.743 177.849 174.859C175.287 171.414 172.107 168.41 168.661 165.936C165.834 163.992 159.649 161.342 158.501 158.073C158.501 158.073 158.412 157.985 158.324 157.897C160.268 157.72 162.565 157.013 164.421 156.483C167.424 155.687 170.163 155.864 173.256 155.069C174.669 154.716 176.083 154.274 177.496 153.832V153.037C175.906 151.447 174.758 149.327 173.079 147.825C168.573 143.936 163.625 140.138 158.501 136.957C155.762 135.19 152.228 134.042 149.312 132.54C148.253 132.009 146.485 131.745 145.867 130.861C144.276 128.918 143.393 126.356 142.245 124.059C139.683 119.199 137.209 113.81 135 108.686C133.41 105.24 132.438 101.794 130.494 98.6142C121.394 83.5946 111.499 74.4946 96.3033 65.5708C93.034 63.7158 89.1467 62.9206 84.9943 61.9491C82.7863 61.8603 80.5768 61.684 78.3684 61.5952C76.9546 60.9767 75.5409 59.2983 74.3038 58.5031C69.2689 55.3222 56.2806 48.4317 52.57 57.5317C50.1843 63.274 56.1043 68.928 58.1356 71.8443C59.6387 73.8761 61.5816 76.1729 62.6419 78.4703C63.2604 79.9714 63.4366 81.5628 64.0552 83.1528C65.4694 87.0391 66.7938 91.3692 68.6498 94.9919C69.6218 96.847 70.6816 98.7904 71.9186 100.469C72.6255 101.441 73.862 101.883 74.1276 103.473C72.8911 105.24 72.8022 107.891 72.0948 110.099C68.9144 120.083 70.152 132.452 74.6573 139.784C76.0705 141.992 79.4282 146.853 83.934 144.997C87.9102 143.407 87.0266 138.371 88.1742 133.954C88.4403 132.892 88.2636 132.187 88.7932 131.48V131.657C90.0303 134.13 91.2668 136.516 92.4155 138.99C95.1546 143.318 99.925 147.825 103.901 150.829C106.022 152.418 107.7 155.157 110.351 156.129V155.864H110.174C109.644 155.069 108.848 154.716 108.142 154.097C106.552 152.507 104.784 150.563 103.548 148.796C99.8377 143.848 96.5679 138.371 93.6525 132.716C92.2393 129.978 91.0017 126.974 89.8536 124.235C89.3229 123.174 89.3229 121.585 88.4398 121.055C87.1144 122.998 85.171 124.677 84.1991 127.062C82.5213 130.861 82.344 135.544 81.7255 140.402C81.3721 140.492 81.5483 140.402 81.3716 140.58C78.5451 139.872 77.5731 136.958 76.5123 134.483C73.8615 128.211 73.4197 118.139 75.7176 110.895C76.3361 109.039 78.9869 103.208 77.9266 101.441C77.3964 99.7623 75.6287 98.7904 74.6573 97.4655C73.5091 95.7867 72.2716 93.6671 71.4768 91.811C69.3562 86.8634 68.2959 81.3856 65.9991 76.438C64.9388 74.1407 63.0842 71.756 61.5816 69.6354C59.9033 67.2502 58.0477 65.5708 56.7223 62.7439C56.2811 61.7724 55.662 60.1819 56.3689 59.1216C56.5456 58.4148 56.8986 58.1502 57.6059 57.9735C58.7546 57.001 62.0239 58.238 63.1716 58.7682C66.4409 60.0926 69.1795 61.3306 71.9186 63.1856C73.1552 64.0692 74.4806 65.7481 76.0705 66.1899H77.9261C80.7536 66.8079 83.9335 66.3666 86.5843 67.1613C91.2673 68.6629 95.5075 70.8719 99.307 73.2576C110.881 80.5904 120.422 91.0158 126.872 103.473C127.932 105.504 128.374 107.361 129.346 109.48C131.202 113.81 133.499 118.227 135.353 122.468C137.209 126.62 138.975 130.861 141.626 134.307C142.951 136.162 148.252 137.134 150.638 138.106C152.405 138.901 155.144 139.608 156.734 140.58C159.738 142.434 162.741 144.556 165.569 146.587C166.983 147.647 171.4 149.856 171.665 151.623V151.623Z" fill="#00546B"/>
<path d="M81.5476 74.8472C80.046 74.8472 78.9862 75.0249 77.9259 75.2895V75.4662H78.1026C78.81 76.8799 80.046 77.8519 80.9291 79.0884C81.6365 80.5017 82.2545 81.9159 82.9619 83.3297C83.0497 83.2408 83.1381 83.1529 83.1381 83.1529C84.3756 82.2688 84.9936 80.8556 84.9936 78.735C84.4635 78.117 84.3751 77.4985 83.9333 76.8799C83.4037 75.9958 82.2545 75.5546 81.5476 74.8472V74.8472Z" fill="#00546B"/>
</g>
<rect x="0.5" y="0.5" width="233" height="233" rx="116.5" stroke="black"/>
<defs>
<clipPath id="clip0_56_478">
<rect width="130" height="127.972" fill="white" transform="translate(52 53)"/>
</clipPath>
</defs>
</svg>
