<svg width="234" height="234" viewBox="0 0 234 234" fill="none" xmlns="http://www.w3.org/2000/svg">
<rect x="0.5" y="0.5" width="233" height="233" rx="116.5" fill="white"/>
<g clip-path="url(#clip0_56_485)">
<path d="M98.4523 52.3443C77.2802 53.911 59.2814 55.3517 58.4352 55.5204C56.0625 55.9435 53.904 57.553 52.8891 59.6713L52 61.5352L52.0857 105.958L52.2116 150.38L53.5666 153.133C54.3298 154.657 59.4957 161.772 65.1275 169.096C76.2652 183.536 77.0686 184.342 81.3025 184.765C82.5317 184.891 91.7627 184.468 101.757 183.876C111.794 183.241 127.883 182.267 137.54 181.718C178.784 179.214 176.665 179.425 179.035 177.393C182 174.937 181.788 178.959 181.914 124.969C182 79.1911 181.957 76.1864 181.28 74.7885C180.476 73.2219 179.035 72.1212 160.233 58.9081C147.658 50.1002 146.768 49.6342 141.134 49.5485C138.807 49.4655 119.582 50.7349 98.4523 52.3443V52.3443ZM146.048 58.1449C147.826 58.9482 160.828 68.0105 162.732 69.7485C163.241 70.2574 163.409 70.6805 163.155 70.9349C162.563 71.4437 82.1032 76.2293 79.776 75.8892C78.7182 75.7204 77.1516 75.0858 76.2625 74.4913C72.5776 71.9927 63.4323 64.497 63.4323 63.948C63.4323 62.5073 63.135 62.5073 99.004 59.9257C105.865 59.4597 117.129 58.6135 123.99 58.0618C138.85 56.8755 143.298 56.9183 146.048 58.1449V58.1449ZM171.625 81.3094C172.217 81.9012 172.726 83.0447 172.895 84.1454C173.021 85.163 173.106 104.134 173.021 126.238C172.895 164.18 172.852 166.552 172.132 167.653C171.709 168.33 170.862 169.051 170.225 169.262C168.449 169.983 84.1385 174.768 82.4031 174.259C81.5997 174.048 80.4964 173.37 79.9046 172.779L78.887 171.678L78.7611 130.772C78.6754 102.061 78.7611 89.3567 79.1012 88.2132C79.3556 87.367 79.9903 86.3494 80.5419 86.0119C81.3052 85.5031 86.3023 85.08 103.495 84.065C115.565 83.3875 134.238 82.244 144.953 81.6093C170.439 80.04 170.356 80.04 171.625 81.3094V81.3094Z" fill="black"/>
<path d="M148.97 95.3259C144.396 95.6231 140.331 96.0463 139.865 96.3007C138.467 97.021 137.62 98.2074 137.452 99.5625C137.326 100.96 137.749 101.129 142.32 101.681L144.31 101.935V120.017C144.31 130.772 144.141 137.887 143.93 137.676C143.718 137.421 137.706 128.276 130.548 117.35C123.392 106.383 117.463 97.3612 117.378 97.2781C117.292 97.1924 112.635 97.4469 107.046 97.8298C100.185 98.2958 96.4169 98.7189 95.6537 99.142C94.4245 99.7767 93.0695 102.021 93.0695 103.504C93.0695 104.394 94.6789 104.86 98.0666 104.86H99.8448V156.861L96.9659 157.75C94.7218 158.427 93.9585 158.85 93.5783 159.697C92.9007 161.137 92.9436 162.45 93.6211 162.45C93.8755 162.45 98.6611 162.152 104.164 161.815C115.048 161.18 116.274 160.883 117.418 158.639C117.758 157.961 118.052 157.241 118.052 157.029C118.052 156.861 116.571 156.352 114.791 155.929C112.97 155.506 111.149 155.082 110.768 154.997C110.048 154.785 110.005 153.473 110.005 135.263V115.74L122.878 135.94C136.386 157.112 138.081 159.528 140.156 160.586C142.741 161.941 149.304 161.009 152.606 158.85L153.624 158.216L153.71 129.336L153.836 100.414L156.08 99.9909C158.747 99.4821 159.976 98.2556 159.976 96.1373C159.976 94.7823 159.89 94.6966 158.621 94.7394C157.863 94.7742 153.501 95.0286 148.97 95.3259V95.3259Z" fill="black"/>
</g>
<rect x="0.5" y="0.5" width="233" height="233" rx="116.5" stroke="black"/>
<defs>
<clipPath id="clip0_56_485">
<rect width="130" height="138.357" fill="white" transform="translate(52 48)"/>
</clipPath>
</defs>
</svg>
