<svg width="234" height="234" viewBox="0 0 234 234" fill="none" xmlns="http://www.w3.org/2000/svg">
<rect width="234" height="234" rx="117" fill="#8993BE"/>
<path d="M117 163.698C166.706 163.698 207 142.723 207 116.849C207 90.9751 166.706 70 117 70C67.2944 70 27 90.9751 27 116.849C27 142.723 67.2944 163.698 117 163.698Z" fill="#8993BE"/>
<path fill-rule="evenodd" clip-rule="evenodd" d="M52.2739 144.589L62.1374 94.6572H84.9446C94.8074 95.2738 99.7391 100.205 99.7391 108.836C99.7391 123.63 88.0271 132.26 77.5471 131.644H66.4524L63.9866 144.589H52.2739ZM68.9176 122.398L72.0001 103.904H80.0136C84.3287 103.904 87.4105 105.753 87.4105 109.452C86.7946 119.932 81.8628 121.781 76.3152 122.398H68.9183H68.9176ZM97.4476 131.644L107.31 81.7126H119.023L116.557 94.6572H127.652C137.516 95.2738 141.214 100.205 139.982 106.37L135.667 131.644H123.338L127.653 108.836C128.269 105.753 128.269 103.904 123.955 103.904H114.708L109.16 131.644H97.4476V131.644ZM134.877 144.589L144.74 94.6572H167.548C177.411 95.2738 182.343 100.205 182.343 108.836C182.343 123.63 170.63 132.26 160.151 131.644H149.055L146.589 144.589H134.877V144.589ZM151.52 122.398L154.603 103.904H162.617C166.932 103.904 170.014 105.753 170.014 109.452C169.398 119.932 164.466 121.781 158.918 122.398H151.521H151.52Z" fill="#232531"/>
</svg>
