<svg width="234" height="234" viewBox="0 0 234 234" fill="none" xmlns="http://www.w3.org/2000/svg">
<rect width="234" height="234" rx="117" fill="#31C5F0"/>
<g clip-path="url(#clip0_56_492)">
<path d="M57.4165 59.4295H176.583V175.346H57.4165V59.4295Z" fill="url(#paint0_radial_56_492)"/>
<path d="M57.4166 59.4295H176.583V175.346H57.4166V59.4295ZM52 180.763H182V54.0129H52V180.763ZM139.642 106.013C135.362 106.013 133.9 108.179 133.9 109.967C133.9 111.917 134.875 113.271 140.617 116.25C149.121 120.367 151.775 124.321 151.775 130.117C151.775 138.784 145.167 143.442 136.229 143.442C131.517 143.442 127.454 142.467 125.125 141.113C124.746 140.95 124.692 140.68 124.692 140.246V132.284C124.692 131.742 124.963 131.579 125.342 131.85C128.754 134.071 132.654 135.046 136.229 135.046C140.508 135.046 142.296 133.259 142.296 130.821C142.296 128.871 141.05 127.138 135.579 124.321C127.887 120.638 124.692 116.9 124.692 110.671C124.692 103.684 130.163 97.8879 139.642 97.8879C144.3 97.8879 147.55 98.5921 149.338 99.4045C149.771 99.6753 149.879 100.109 149.879 100.488V107.908C149.879 108.342 149.608 108.613 149.067 108.45C146.683 106.934 143.162 106.013 139.642 106.013V106.013ZM93.0583 112.459C94.3042 112.567 95.2792 112.567 97.4458 112.567C103.784 112.567 109.742 110.346 109.742 101.734C109.742 94.8547 105.463 91.3879 98.2584 91.3879C96.0919 91.3879 94.0334 91.4962 93.0583 91.5503V112.459ZM83.4168 83.6961C83.4168 83.317 84.1753 83.046 84.6083 83.046C88.0752 82.8835 93.221 82.7752 98.5834 82.7752C113.588 82.7752 119.437 91.0085 119.437 101.517C119.437 115.275 109.471 121.179 97.2292 121.179C95.1709 121.179 94.4669 121.071 93.0041 121.071V141.871C93.0041 142.304 92.8416 142.521 92.3542 142.521H84.0667C83.6334 142.521 83.4166 142.359 83.4166 141.871V83.6961H83.4168Z" fill="#31C5F0"/>
</g>
<defs>
<radialGradient id="paint0_radial_56_492" cx="0" cy="0" r="1" gradientUnits="userSpaceOnUse" gradientTransform="translate(96.6642 85.4065) scale(90.5667 87.685)">
<stop stop-color="#34364E" stop-opacity="0.98"/>
<stop offset="1" stop-color="#0C0824"/>
</radialGradient>
<clipPath id="clip0_56_492">
<rect width="130" height="126.776" fill="white" transform="translate(52 54)"/>
</clipPath>
</defs>
</svg>
