<svg width="234" height="234" viewBox="0 0 234 234" fill="none" xmlns="http://www.w3.org/2000/svg">
<rect x="0.5" y="0.5" width="233" height="233" rx="116.5" fill="white"/>
<g clip-path="url(#clip0_56_507)">
<path d="M163.871 124.012C159.326 124.037 155.391 125.129 152.09 126.754C150.871 124.342 149.653 122.234 149.45 120.66C149.221 118.832 148.942 117.715 149.221 115.531C149.5 113.348 150.77 110.25 150.77 109.996C150.744 109.768 150.49 108.65 147.875 108.625C145.26 108.6 143 109.133 142.746 109.818C142.492 110.504 141.985 112.078 141.654 113.703C141.197 116.09 136.424 124.545 133.707 128.988C132.819 127.262 132.057 125.738 131.904 124.519C131.676 122.691 131.396 121.574 131.676 119.391C131.955 117.207 133.225 114.109 133.225 113.855C133.199 113.627 132.946 112.51 130.331 112.484C127.715 112.459 125.456 112.992 125.202 113.678C124.948 114.363 124.668 115.988 124.11 117.562C123.576 119.137 117.229 133.254 115.578 136.936C114.74 138.814 114.004 140.312 113.471 141.328C112.938 142.344 113.446 141.404 113.395 141.506C112.938 142.369 112.684 142.852 112.684 142.852V142.877C112.328 143.512 111.947 144.121 111.769 144.121C111.643 144.121 111.389 142.42 111.82 140.084C112.76 135.184 115.045 127.541 115.02 127.262C115.02 127.135 115.451 125.789 113.547 125.104C111.693 124.418 111.033 125.561 110.881 125.561C110.728 125.561 110.601 125.967 110.601 125.967C110.601 125.967 112.658 117.36 106.666 117.36C102.908 117.36 97.7285 121.448 95.164 125.18C93.539 126.069 90.0859 127.947 86.4296 129.954C85.0331 130.715 83.5859 131.528 82.2148 132.264L81.9357 131.959C74.674 124.215 61.2424 118.73 61.801 108.32C62.0041 104.537 63.3244 94.5585 87.5981 82.4726C107.479 72.5703 123.399 75.2871 126.166 81.33C130.102 89.9628 117.66 106.01 96.9926 108.32C89.1215 109.209 84.9826 106.162 83.9419 105.019C82.8501 103.826 82.6977 103.775 82.2915 104.004C81.6313 104.359 82.0376 105.426 82.2915 106.06C82.9008 107.66 85.4399 110.504 89.7563 111.926C93.5393 113.17 102.782 113.855 113.954 109.539C126.471 104.689 136.247 91.2324 133.377 79.9843C130.457 68.5331 111.465 64.7753 93.5141 71.1484C82.8244 74.957 71.2463 80.8984 62.9182 88.6933C53.0158 97.9355 51.4416 106.01 52.1018 109.361C54.4126 121.32 70.8908 129.115 77.4924 134.879C77.1623 135.056 76.8576 135.234 76.5783 135.387C73.2775 137.011 60.7092 143.588 57.5607 150.545C54.0061 158.416 58.1193 164.078 60.8615 164.84C69.342 167.201 78.0256 162.961 82.7228 155.978C87.3945 148.996 86.8361 139.932 84.6779 135.793L84.6015 135.641L87.1913 134.117C88.8674 133.127 90.5178 132.213 91.9648 131.425C91.1525 133.634 90.5683 136.25 90.2639 140.058C89.9084 144.527 91.7365 150.316 94.1486 152.601C95.215 153.591 96.4846 153.617 97.2717 153.617C100.065 153.617 101.334 151.306 102.731 148.539C104.457 145.162 105.981 141.252 105.981 141.252C105.981 141.252 104.076 151.84 109.281 151.84C111.186 151.84 113.09 149.377 113.953 148.107V148.133C113.953 148.133 114.004 148.056 114.106 147.879C114.212 147.721 114.314 147.56 114.41 147.396V147.346C115.172 146.025 116.873 143.004 119.412 138.002C122.687 131.553 125.836 123.478 125.836 123.478C125.836 123.478 126.141 125.459 127.08 128.709C127.639 130.639 128.857 132.746 129.797 134.803C129.035 135.869 128.578 136.479 128.578 136.479L128.603 136.504C127.994 137.317 127.309 138.18 126.598 139.043C124.008 142.141 120.91 145.67 120.504 146.686C120.022 147.879 120.123 148.768 121.063 149.479C121.748 149.987 122.967 150.088 124.262 149.987C126.598 149.834 128.223 149.25 129.035 148.895C130.305 148.438 131.752 147.752 133.149 146.737C135.688 144.858 137.237 142.192 137.084 138.637C137.008 136.682 136.373 134.752 135.586 132.924C135.815 132.594 136.043 132.264 136.272 131.909C140.283 126.043 143.381 119.594 143.381 119.594C143.381 119.594 143.686 121.575 144.625 124.825C145.107 126.475 146.072 128.278 146.936 130.055C143.178 133.128 140.817 136.682 140.004 139.018C138.506 143.335 139.674 145.29 141.883 145.747C142.873 145.95 144.295 145.493 145.361 145.036C146.682 144.604 148.281 143.868 149.754 142.776C152.293 140.897 154.731 138.282 154.604 134.753C154.528 133.128 154.096 131.528 153.512 130.005C156.711 128.684 160.85 127.923 166.106 128.557C177.404 129.878 179.639 136.936 179.207 139.882C178.776 142.827 176.415 144.452 175.627 144.96C174.84 145.442 174.586 145.62 174.662 145.975C174.764 146.509 175.119 146.483 175.805 146.382C176.744 146.229 181.746 143.97 181.949 138.536C182.254 131.553 175.627 123.936 163.871 124.012V124.012ZM76.7307 153.389C72.9982 157.477 67.7424 159.025 65.508 157.705C63.0959 156.309 64.0351 150.291 68.6311 145.949C71.424 143.309 75.0549 140.871 77.4416 139.373C77.9748 139.043 78.7873 138.561 79.7521 137.977C79.9045 137.875 80.0061 137.824 80.0061 137.824C80.1838 137.723 80.3869 137.596 80.59 137.469C82.2912 143.664 80.6662 149.098 76.7307 153.389V153.389ZM104.026 134.828C102.731 138.002 99.9885 146.152 98.3381 145.695C96.916 145.314 96.0529 139.145 98.0585 133.051C99.0742 129.978 101.232 126.322 102.502 124.9C104.559 122.615 106.793 121.853 107.352 122.793C108.012 124.012 104.838 132.848 104.026 134.828ZM126.547 145.594C125.988 145.873 125.481 146.076 125.252 145.924C125.074 145.822 125.48 145.442 125.48 145.442C125.48 145.442 128.299 142.42 129.416 141.024C130.051 140.211 130.812 139.272 131.625 138.205V138.51C131.625 142.166 128.121 144.603 126.547 145.594ZM143.914 141.633C143.508 141.328 143.559 140.389 144.93 137.443C145.463 136.275 146.682 134.32 148.789 132.467C149.043 133.228 149.196 133.965 149.17 134.65C149.145 139.221 145.895 140.922 143.914 141.633Z" fill="#CF649A"/>
</g>
<rect x="0.5" y="0.5" width="233" height="233" rx="116.5" stroke="black"/>
<defs>
<clipPath id="clip0_56_507">
<rect width="130" height="97.5" fill="white" transform="translate(52 68)"/>
</clipPath>
</defs>
</svg>
