<svg width="234" height="234" viewBox="0 0 234 234" fill="none" xmlns="http://www.w3.org/2000/svg">
<rect x="0.5" y="0.5" width="233" height="233" rx="116.5" fill="white"/>
<mask id="mask0_56_208" style="mask-type:alpha" maskUnits="userSpaceOnUse" x="61" y="40" width="113" height="153">
<path d="M131.386 40.2493H72.3706C66.6426 40.2493 61.9561 44.9358 61.9561 50.6638V182.581C61.9561 188.309 66.6426 192.996 72.3706 192.996H162.63C168.358 192.996 173.044 188.309 173.044 182.581V81.9074L131.386 40.2493Z" fill="white"/>
</mask>
<g mask="url(#mask0_56_208)">
<path d="M131.386 40.2493H72.3706C66.6426 40.2493 61.9561 44.9358 61.9561 50.6638V182.581C61.9561 188.309 66.6426 192.996 72.3706 192.996H162.63C168.358 192.996 173.044 188.309 173.044 182.581V81.9074L148.744 64.5499L131.386 40.2493Z" fill="#0F9D58"/>
</g>
<mask id="mask1_56_208" style="mask-type:alpha" maskUnits="userSpaceOnUse" x="61" y="40" width="113" height="153">
<path d="M131.386 40.2493H72.3706C66.6426 40.2493 61.9561 44.9358 61.9561 50.6638V182.581C61.9561 188.309 66.6426 192.996 72.3706 192.996H162.63C168.358 192.996 173.044 188.309 173.044 182.581V81.9074L131.386 40.2493Z" fill="white"/>
</mask>
<g mask="url(#mask1_56_208)">
<path d="M89.7283 114.887V165.224H145.272V114.887H89.7283ZM114.029 158.281H96.6713V149.602H114.029V158.281ZM114.029 144.395H96.6713V135.716H114.029V144.395ZM114.029 130.509H96.6713V121.83H114.029V130.509ZM138.329 158.281H120.972V149.602H138.329V158.281ZM138.329 144.395H120.972V135.716H138.329V144.395ZM138.329 130.509H120.972V121.83H138.329V130.509Z" fill="#F1F1F1"/>
</g>
<mask id="mask2_56_208" style="mask-type:alpha" maskUnits="userSpaceOnUse" x="61" y="40" width="113" height="153">
<path d="M131.386 40.2493H72.3706C66.6426 40.2493 61.9561 44.9358 61.9561 50.6638V182.581C61.9561 188.309 66.6426 192.996 72.3706 192.996H162.63C168.358 192.996 173.044 188.309 173.044 182.581V81.9074L131.386 40.2493Z" fill="white"/>
</mask>
<g mask="url(#mask2_56_208)">
<path d="M134.433 78.8611L173.045 117.464V81.9073L134.433 78.8611Z" fill="url(#paint0_linear_56_208)"/>
</g>
<mask id="mask3_56_208" style="mask-type:alpha" maskUnits="userSpaceOnUse" x="61" y="40" width="113" height="153">
<path d="M131.386 40.2493H72.3706C66.6426 40.2493 61.9561 44.9358 61.9561 50.6638V182.581C61.9561 188.309 66.6426 192.996 72.3706 192.996H162.63C168.358 192.996 173.044 188.309 173.044 182.581V81.9074L131.386 40.2493Z" fill="white"/>
</mask>
<g mask="url(#mask3_56_208)">
<path d="M131.386 40.2493V71.4929C131.386 77.2469 136.047 81.9074 141.801 81.9074H173.045L131.386 40.2493Z" fill="#87CEAC"/>
</g>
<mask id="mask4_56_208" style="mask-type:alpha" maskUnits="userSpaceOnUse" x="61" y="40" width="113" height="153">
<path d="M131.386 40.2493H72.3706C66.6426 40.2493 61.9561 44.9358 61.9561 50.6638V182.581C61.9561 188.309 66.6426 192.996 72.3706 192.996H162.63C168.358 192.996 173.044 188.309 173.044 182.581V81.9074L131.386 40.2493Z" fill="white"/>
</mask>
<g mask="url(#mask4_56_208)">
<path d="M72.3706 40.2493C66.6426 40.2493 61.9561 44.9358 61.9561 50.6638V51.5317C61.9561 45.8037 66.6426 41.1171 72.3706 41.1171H131.386V40.2493H72.3706Z" fill="white" fill-opacity="0.2"/>
</g>
<mask id="mask5_56_208" style="mask-type:alpha" maskUnits="userSpaceOnUse" x="61" y="40" width="113" height="153">
<path d="M131.386 40.2493H72.3706C66.6426 40.2493 61.9561 44.9358 61.9561 50.6638V182.581C61.9561 188.309 66.6426 192.996 72.3706 192.996H162.63C168.358 192.996 173.044 188.309 173.044 182.581V81.9074L131.386 40.2493Z" fill="white"/>
</mask>
<g mask="url(#mask5_56_208)">
<path d="M162.63 192.128H72.3706C66.6426 192.128 61.9561 187.441 61.9561 181.713V182.581C61.9561 188.309 66.6426 192.996 72.3706 192.996H162.63C168.358 192.996 173.044 188.309 173.044 182.581V181.713C173.044 187.441 168.358 192.128 162.63 192.128Z" fill="#263238" fill-opacity="0.2"/>
</g>
<mask id="mask6_56_208" style="mask-type:alpha" maskUnits="userSpaceOnUse" x="61" y="40" width="113" height="153">
<path d="M131.386 40.2493H72.3706C66.6426 40.2493 61.9561 44.9358 61.9561 50.6638V182.581C61.9561 188.309 66.6426 192.996 72.3706 192.996H162.63C168.358 192.996 173.044 188.309 173.044 182.581V81.9074L131.386 40.2493Z" fill="white"/>
</mask>
<g mask="url(#mask6_56_208)">
<path d="M141.801 81.9075C136.047 81.9075 131.386 77.247 131.386 71.4929V72.3608C131.386 78.1148 136.047 82.7753 141.801 82.7753H173.045V81.9075H141.801Z" fill="#263238" fill-opacity="0.1"/>
</g>
<path d="M131.386 40.2493H72.3706C66.6426 40.2493 61.9561 44.9358 61.9561 50.6638V182.581C61.9561 188.309 66.6426 192.996 72.3706 192.996H162.63C168.358 192.996 173.044 188.309 173.044 182.581V81.9074L131.386 40.2493Z" fill="url(#paint1_radial_56_208)"/>
<rect x="0.5" y="0.5" width="233" height="233" rx="116.5" stroke="black"/>
<defs>
<linearGradient id="paint0_linear_56_208" x1="153.741" y1="82.1756" x2="153.741" y2="117.47" gradientUnits="userSpaceOnUse">
<stop stop-color="#263238" stop-opacity="0.2"/>
<stop offset="1" stop-color="#263238" stop-opacity="0.02"/>
</linearGradient>
<radialGradient id="paint1_radial_56_208" cx="0" cy="0" r="1" gradientUnits="userSpaceOnUse" gradientTransform="translate(65.4754 43.2854) scale(179.128)">
<stop stop-color="white" stop-opacity="0.1"/>
<stop offset="1" stop-color="white" stop-opacity="0"/>
</radialGradient>
</defs>
</svg>
