<svg width="234" height="234" viewBox="0 0 234 234" fill="none" xmlns="http://www.w3.org/2000/svg">
<rect width="234" height="234" rx="117" fill="#9B5C8F"/>
<g clip-path="url(#clip0_56_514)">
<path d="M64.0697 78H169.877C176.573 78 181.994 83.4204 181.994 90.1168V130.505C181.994 137.201 176.573 142.622 169.877 142.622H131.933L137.141 155.376L114.236 142.622H64.1225C57.4266 142.622 52.0062 137.201 52.0062 130.505V90.1168C51.9529 83.4737 57.3728 78 64.0697 78Z" fill="#9B5C8F"/>
<path d="M59.4084 89.0439C60.1482 88.0395 61.2577 87.5115 62.7373 87.4058C65.4326 87.1941 66.965 88.462 67.3346 91.21C68.9727 102.254 70.7692 111.607 72.6712 119.269L84.2432 97.2341C85.3004 95.2259 86.6216 94.1693 88.2068 94.0636C90.5319 93.9052 91.9582 95.3843 92.5396 98.502C93.8608 105.529 95.5516 111.501 97.5593 116.573C98.9333 103.152 101.258 93.4823 104.534 87.5115C105.327 86.0318 106.489 85.292 108.022 85.1859C109.237 85.0808 110.347 85.4504 111.351 86.2431C112.355 87.0357 112.883 88.0395 112.989 89.2551C113.042 90.2062 112.883 90.9988 112.461 91.7914C110.4 95.5961 108.708 101.99 107.335 110.867C106.014 119.48 105.538 126.191 105.855 130.999C105.961 132.32 105.75 133.482 105.222 134.487C104.587 135.649 103.636 136.283 102.421 136.389C101.047 136.494 99.6204 135.861 98.2463 134.434C93.3322 129.414 89.4219 121.91 86.5688 111.924C83.1337 118.687 80.5975 123.76 78.9594 127.141C75.8417 133.113 73.1998 136.178 70.9804 136.336C69.5536 136.442 68.3385 135.226 67.2818 132.69C64.5871 125.768 61.6807 112.399 58.5635 92.584C58.3518 91.21 58.6686 89.9944 59.4084 89.0439V89.0439ZM172.963 97.3397C171.061 94.0108 168.26 92.0031 164.509 91.21C163.504 90.9988 162.554 90.8932 161.655 90.8932C156.582 90.8932 152.461 93.5351 149.238 98.8194C146.49 103.311 145.116 108.278 145.116 113.72C145.116 117.789 145.961 121.276 147.652 124.183C149.554 127.512 152.355 129.519 156.107 130.312C157.11 130.524 158.062 130.629 158.96 130.629C164.086 130.629 168.207 127.987 171.378 122.703C174.125 118.159 175.499 113.192 175.499 107.749C175.552 103.628 174.654 100.193 172.963 97.3397V97.3397ZM166.305 111.977C165.565 115.464 164.244 118.053 162.289 119.797C160.757 121.171 159.33 121.752 158.009 121.488C156.741 121.223 155.684 120.114 154.892 118.053C154.257 116.415 153.941 114.777 153.941 113.244C153.941 111.924 154.046 110.603 154.31 109.387C154.786 107.221 155.684 105.107 157.11 103.099C158.855 100.51 160.704 99.4536 162.606 99.8232C163.874 100.087 164.932 101.197 165.724 103.258C166.358 104.896 166.675 106.534 166.675 108.066C166.675 109.44 166.569 110.761 166.305 111.976V111.977ZM139.885 97.3397C137.982 94.0108 135.129 92.0031 131.43 91.21C130.426 90.9988 129.475 90.8932 128.577 90.8932C123.504 90.8932 119.383 93.5351 116.159 98.8194C113.412 103.311 112.038 108.278 112.038 113.72C112.038 117.789 112.883 121.276 114.574 124.183C116.476 127.512 119.277 129.519 123.028 130.312C124.033 130.524 124.983 130.629 125.882 130.629C131.007 130.629 135.129 127.987 138.299 122.703C141.047 118.159 142.421 113.192 142.421 107.749C142.421 103.628 141.575 100.193 139.885 97.3397V97.3397ZM133.174 111.977C132.434 115.464 131.113 118.053 129.158 119.797C127.626 121.171 126.199 121.752 124.878 121.488C123.61 121.223 122.553 120.114 121.76 118.053C121.126 116.415 120.809 114.777 120.809 113.244C120.809 111.924 120.915 110.603 121.179 109.387C121.655 107.221 122.553 105.107 123.98 103.099C125.724 100.51 127.573 99.4536 129.475 99.8232C130.743 100.087 131.8 101.197 132.593 103.258C133.227 104.896 133.544 106.534 133.544 108.066C133.597 109.44 133.438 110.761 133.174 111.976V111.977Z" fill="white"/>
</g>
<defs>
<clipPath id="clip0_56_514">
<rect width="130" height="77.688" fill="white" transform="translate(52 78)"/>
</clipPath>
</defs>
</svg>
