<svg width="234" height="234" viewBox="0 0 234 234" fill="none" xmlns="http://www.w3.org/2000/svg">
<rect x="0.5" y="0.5" width="233" height="233" rx="116.5" fill="white"/>
<g clip-path="url(#clip0_56_520)">
<path d="M61.2399 116.998C61.2399 139.071 74.0666 158.144 92.6664 167.184L66.0675 94.3051C62.8789 101.445 61.2339 109.178 61.2399 116.998V116.998ZM154.644 114.184C154.644 107.293 152.169 102.521 150.045 98.8059C147.219 94.2127 144.571 90.323 144.571 85.7298C144.571 80.604 148.457 75.8326 153.933 75.8326C154.18 75.8326 154.415 75.8634 154.657 75.8772C144.735 66.7884 131.518 61.2393 117.001 61.2393C97.5205 61.2393 80.3818 71.2341 70.4114 86.3728C71.7196 86.4121 72.9536 86.4386 73.9998 86.4386C79.8322 86.4386 88.8605 85.7309 88.8605 85.7309C91.8663 85.5537 92.2207 89.9686 89.2191 90.3241C89.2191 90.3241 86.1973 90.6795 82.836 90.8557L103.142 151.255L115.346 114.657L106.657 90.8546C103.654 90.6785 100.81 90.323 100.81 90.323C97.8049 90.1469 98.1572 85.5527 101.162 85.7298C101.162 85.7298 110.371 86.4375 115.85 86.4375C121.681 86.4375 130.71 85.7298 130.71 85.7298C133.718 85.5527 134.072 89.9676 131.068 90.323C131.068 90.323 128.041 90.6785 124.686 90.8546L144.837 150.796L150.398 132.21C152.809 124.498 154.644 118.958 154.644 114.184V114.184Z" fill="#00749A"/>
<path d="M117.979 121.876L101.249 170.49C106.364 171.997 111.669 172.763 117.001 172.763C123.495 172.763 129.722 171.639 135.518 169.602C135.363 169.359 135.23 169.101 135.121 168.834L117.979 121.876ZM165.929 90.2456C166.169 92.0218 166.305 93.9295 166.305 95.9794C166.305 101.638 165.248 107.999 162.065 115.952L145.032 165.198C161.61 155.531 172.76 137.571 172.76 116.998C172.775 107.647 170.425 98.4447 165.929 90.2456V90.2456Z" fill="#00749A"/>
<path d="M117.001 52C81.1607 52 52.0005 81.158 52.0005 116.998C52.0005 152.843 81.1596 182.001 117.001 182.001C152.84 182.001 182.005 152.844 182.005 116.998C182.004 81.158 152.84 52 117.001 52ZM117.001 179.021C82.8042 179.021 54.9809 151.197 54.9809 116.998C54.9809 82.8026 82.8031 54.9815 117.001 54.9815C151.197 54.9815 179.018 82.8026 179.018 116.998C179.018 151.197 151.196 179.021 117.001 179.021Z" fill="#00749A"/>
</g>
<rect x="0.5" y="0.5" width="233" height="233" rx="116.5" stroke="black"/>
<defs>
<clipPath id="clip0_56_520">
<rect width="130" height="130" fill="white" transform="translate(52 52)"/>
</clipPath>
</defs>
</svg>
