<svg width="234" height="234" viewBox="0 0 234 234" fill="none" xmlns="http://www.w3.org/2000/svg">
<rect width="234" height="234" rx="117" fill="#FF26BE"/>
<g clip-path="url(#clip0_56_90)">
<path d="M158.98 180.098H75.0204C62.2908 180.098 52 169.779 52 157.015V76.0836C52 63.3191 62.2908 53 75.0204 53H158.98C171.709 53 182 63.3191 182 76.0836V157.015C182 169.779 171.709 180.098 158.98 180.098Z" fill="#FF26BE"/>
<path d="M156.92 174.665H77.0797C66.2481 174.665 57.4185 165.811 57.4185 154.95V78.1485C57.4185 67.2871 66.2481 58.4333 77.0797 58.4333H156.868C167.757 58.4333 176.53 67.2871 176.53 78.1485V154.898C176.582 165.811 167.752 174.665 156.92 174.665Z" fill="#2E001F"/>
<path d="M103.402 112.474L118.57 141.695C118.841 142.128 118.68 142.566 118.243 142.566H108.815C108.217 142.566 107.947 142.404 107.676 141.862C104.208 134.692 100.688 127.523 97.058 119.811H96.9488C93.6988 127.09 90.1212 134.75 86.658 141.919C86.3876 142.352 86.1172 142.519 85.6804 142.519H76.752C76.2112 142.519 76.154 142.086 76.4296 141.758L91.2704 113.402L76.9184 84.7237C76.5908 84.2909 76.9184 83.9624 77.2408 83.9624H86.5592C87.1 83.9624 87.3184 84.0719 87.5316 84.5621C90.9428 91.7317 94.4112 99.1203 97.6612 106.342H97.7704C100.911 99.1725 104.38 91.7317 107.739 84.6142C108.009 84.1814 108.17 83.9103 108.716 83.9103H117.437C117.868 83.9103 118.035 84.2388 117.764 84.6716L103.402 112.474ZM121.228 121.328C121.228 108.673 129.626 98.7866 142.948 98.7866C144.087 98.7866 144.68 98.7866 145.766 98.8961V84.5047C145.766 84.1762 146.037 83.9624 146.307 83.9624H154.866C155.298 83.9624 155.407 84.1241 155.407 84.3952V134.259C155.407 135.725 155.407 137.57 155.678 139.583C155.678 139.912 155.568 140.016 155.246 140.183C150.696 142.357 145.928 143.332 141.378 143.332C129.62 143.379 121.222 136.105 121.228 121.328ZM145.761 107.427C145.002 107.098 143.92 106.884 142.62 106.884C135.793 106.884 131.03 112.151 131.03 120.9C131.03 130.896 135.907 134.916 142.028 134.916C143.328 134.916 144.737 134.755 145.766 134.317V107.427H145.761Z" fill="#FFD9F2"/>
</g>
<defs>
<clipPath id="clip0_56_90">
<rect width="130" height="127.098" fill="white" transform="translate(52 53)"/>
</clipPath>
</defs>
</svg>
