<svg width="234" height="234" viewBox="0 0 234 234" fill="none" xmlns="http://www.w3.org/2000/svg">
<rect x="0.5" y="0.5" width="233" height="233" rx="116.5" fill="white"/>
<path fill-rule="evenodd" clip-rule="evenodd" d="M170.937 109.447C171.593 110.579 171.808 111.867 171.879 113.315L171.972 115.246V128.743L172.067 130.675C172.258 133.83 174.585 136.163 177.765 136.362L179.687 136.457V115.246L179.782 113.315C179.861 111.883 180.073 110.571 180.74 109.431C181.419 108.261 182.394 107.291 183.566 106.617C184.739 105.943 186.068 105.59 187.42 105.593C188.773 105.595 190.101 105.953 191.271 106.631C192.441 107.309 193.412 108.283 194.087 109.455C194.743 110.587 194.948 111.9 195.027 113.315L195.122 115.239V128.743L195.217 130.675C195.415 133.846 197.724 136.18 200.914 136.362L202.836 136.457V113.315C202.836 109.223 201.211 105.299 198.318 102.405C195.425 99.5105 191.501 97.8838 187.409 97.8822C185.219 97.8799 183.054 98.345 181.058 99.2465C179.061 100.148 177.281 101.465 175.834 103.11C174.387 101.466 172.607 100.149 170.611 99.2472C168.615 98.3455 166.45 97.8795 164.26 97.8802C161.055 97.8802 158.082 98.8524 155.619 100.531C154.117 98.8544 150.754 97.8802 148.824 97.8802V136.457L150.754 136.362C153.983 136.149 156.316 133.879 156.442 130.675L156.545 128.743V115.246L156.64 113.315C156.721 111.859 156.924 110.579 157.582 109.439C158.261 108.27 159.236 107.3 160.408 106.625C161.579 105.951 162.907 105.595 164.26 105.595C165.613 105.595 166.942 105.951 168.114 106.627C169.286 107.303 170.259 108.276 170.937 109.447V109.447ZM38.8783 136.364L40.8084 136.457H69.7405L69.6453 134.533C69.3841 131.361 67.1379 129.044 63.9561 128.838L62.026 128.743H44.6687L67.8104 105.593L67.7152 103.671C67.5653 100.467 65.224 98.1516 62.026 97.9754L60.0958 97.8883L31.1637 97.8802L31.2589 99.8104C31.5121 102.952 33.7906 105.317 36.9461 105.5L38.8783 105.595H56.2355L33.0939 128.745L33.189 130.675C33.3794 133.854 35.6741 136.157 38.8783 136.362V136.364ZM141.252 103.527C143.043 105.318 144.464 107.444 145.434 109.785C146.403 112.125 146.902 114.633 146.902 117.167C146.902 119.7 146.403 122.208 145.434 124.549C144.464 126.889 143.043 129.015 141.252 130.806C137.632 134.423 132.725 136.454 127.609 136.454C122.492 136.454 117.585 134.423 113.966 130.806C106.434 123.274 106.434 111.059 113.966 103.527C115.756 101.736 117.881 100.316 120.22 99.3468C122.558 98.3776 125.065 97.8786 127.597 97.8782C130.132 97.8764 132.644 98.3746 134.987 99.3442C137.33 100.314 139.459 101.736 141.252 103.529V103.527ZM135.793 108.989C137.963 111.16 139.182 114.104 139.182 117.174C139.182 120.243 137.963 123.187 135.793 125.358C133.622 127.528 130.678 128.746 127.609 128.746C124.539 128.746 121.596 127.528 119.424 125.358C117.255 123.187 116.036 120.243 116.036 117.174C116.036 114.104 117.255 111.16 119.424 108.989C121.596 106.82 124.539 105.601 127.609 105.601C130.678 105.601 133.622 106.82 135.793 108.989ZM87.114 97.8782C89.6457 97.8788 92.1526 98.3782 94.4913 99.3478C96.8301 100.317 98.9549 101.738 100.745 103.529C108.279 111.059 108.279 123.276 100.745 130.806C97.1253 134.423 92.2182 136.454 87.1018 136.454C81.9854 136.454 77.0784 134.423 73.4591 130.806C65.9268 123.274 65.9268 111.059 73.4591 103.527C75.2489 101.736 77.3738 100.316 79.7125 99.3468C82.0513 98.3776 84.558 97.8786 87.0897 97.8782H87.114V97.8782ZM95.2862 108.985C97.4564 111.157 98.6756 114.101 98.6756 117.171C98.6756 120.241 97.4564 123.185 95.2862 125.356C93.115 127.526 90.1712 128.744 87.1018 128.744C84.0324 128.744 81.0886 127.526 78.9174 125.356C76.7478 123.185 75.5291 120.241 75.5291 117.172C75.5291 114.102 76.7478 111.158 78.9174 108.987C81.0886 106.818 84.0324 105.599 87.1018 105.599C90.1712 105.599 93.115 106.818 95.2862 108.987V108.985Z" fill="#2D8CFF"/>
<rect x="0.5" y="0.5" width="233" height="233" rx="116.5" stroke="black"/>
</svg>
