<svg width="589" height="448" viewBox="0 0 589 448" fill="none" xmlns="http://www.w3.org/2000/svg">
<g clip-path="url(#clip0_19:322)">
<path d="M209.53 104.243C209.285 104.243 209.05 104.15 208.871 103.983C208.692 103.816 208.584 103.588 208.566 103.344C207.934 94.7578 204.082 86.7269 197.781 80.8582C191.48 74.9896 183.195 71.7162 174.583 71.693C173.552 71.693 172.47 71.7454 171.365 71.8487C171.18 71.8661 170.994 71.8299 170.83 71.7444C170.665 71.659 170.528 71.5279 170.436 71.3669C166.48 64.4447 160.573 58.8404 153.451 55.2535C146.329 51.6666 138.309 50.2559 130.39 51.1974C122.471 52.139 115.005 55.391 108.924 60.5478C102.842 65.7046 98.4144 72.5378 96.193 80.1944C96.1343 80.3996 96.0091 80.5795 95.837 80.7057C95.6649 80.8319 95.4556 80.8974 95.2423 80.8917L94.9852 80.8839C94.8515 80.8795 94.7179 80.8747 94.5832 80.8747C88.0512 80.8952 81.7225 83.1478 76.6473 87.2587C71.5721 91.3697 68.0554 97.0918 66.6808 103.476C66.635 103.693 66.516 103.887 66.3438 104.027C66.1716 104.167 65.9565 104.243 65.7348 104.243H0.966765C0.710807 104.242 0.465567 104.14 0.284817 103.959C0.104067 103.778 0.00255966 103.532 0.00255966 103.276C0.00255966 103.021 0.104067 102.775 0.284817 102.594C0.465567 102.413 0.710807 102.311 0.966765 102.31H64.9611C66.5721 95.6697 70.3615 89.7603 75.7245 85.5248C81.0876 81.2892 87.7152 78.9716 94.5498 78.9418C96.9829 71.0736 101.649 64.0811 107.982 58.8139C114.315 53.5466 122.041 50.2313 130.223 49.2707C138.405 48.3101 146.689 49.7455 154.071 53.4025C161.452 57.0596 167.612 62.7809 171.802 69.8715C172.753 69.7974 173.686 69.7601 174.583 69.7601C183.684 69.7847 192.44 73.2442 199.098 79.4461C205.757 85.648 209.827 94.135 210.495 103.209C210.504 103.335 210.488 103.462 210.448 103.583C210.407 103.703 210.344 103.815 210.261 103.91C210.177 104.006 210.076 104.085 209.962 104.141C209.849 104.198 209.725 104.232 209.598 104.241C209.575 104.242 209.553 104.243 209.53 104.243Z" fill="#CBCBCB"/>
<path d="M198.027 116.635H39.4775C39.2211 116.635 38.9752 116.533 38.7939 116.352C38.6126 116.171 38.5107 115.925 38.5107 115.669C38.5107 115.412 38.6126 115.166 38.7939 114.985C38.9752 114.804 39.2211 114.702 39.4775 114.702H198.027C198.284 114.702 198.529 114.804 198.711 114.985C198.892 115.166 198.994 115.412 198.994 115.669C198.994 115.925 198.892 116.171 198.711 116.352C198.529 116.533 198.284 116.635 198.027 116.635Z" fill="#CBCBCB"/>
<path d="M78.1481 130.649H24.976C24.8488 130.65 24.7228 130.625 24.6053 130.576C24.4877 130.528 24.3808 130.457 24.2907 130.367C24.2007 130.277 24.1293 130.171 24.0805 130.053C24.0318 129.936 24.0067 129.81 24.0067 129.683C24.0067 129.556 24.0318 129.43 24.0805 129.312C24.1293 129.195 24.2007 129.088 24.2907 128.998C24.3808 128.909 24.4877 128.837 24.6053 128.789C24.7228 128.741 24.8488 128.716 24.976 128.716H78.1481C78.4041 128.717 78.6493 128.819 78.8301 129C79.0108 129.181 79.1124 129.427 79.1124 129.683C79.1124 129.939 79.0108 130.184 78.8301 130.365C78.6493 130.546 78.4041 130.649 78.1481 130.649Z" fill="#CBCBCB"/>
<path d="M127.862 318.703C127.862 357.996 86.6558 376.798 86.6558 376.798C86.6558 376.798 45.0275 357.996 44.1823 318.703C43.6854 295.608 62.9145 276.875 86.0219 276.875C91.5164 276.875 96.957 277.957 102.033 280.059C107.109 282.161 111.722 285.242 115.607 289.126C119.492 293.01 122.574 297.622 124.677 302.696C126.779 307.771 127.862 313.21 127.862 318.703Z" fill="#E5E5E5"/>
<path d="M100.603 379.121H72.7093L69.3281 365.601H103.983L100.603 379.121Z" fill="#CBCBCB"/>
<path d="M99.6515 402.243H73.6602V415.784H99.6515V402.243Z" fill="white"/>
<path d="M99.8628 415.995H73.4488V402.032H99.8628V415.995ZM73.8715 415.573H99.4402V402.454H73.8715V415.573Z" fill="#CBCBCB"/>
<path d="M91.9838 380.716H81.3282L80.1054 378.795H93.2066L91.9838 380.716Z" fill="#CBCBCB"/>
<path d="M73.3432 379.121H72.9206V399.824H73.3432V379.121Z" fill="#CBCBCB"/>
<path d="M100.391 379.121H99.9685V399.824H100.391V379.121Z" fill="#CBCBCB"/>
<path d="M90.8921 365.372L90.634 365.038C102.843 355.625 117.397 339.5 117.397 316.132C117.407 307.948 114.999 299.943 110.476 293.121C105.953 286.299 99.5162 280.964 91.9724 277.786L92.137 277.397C99.7574 280.608 106.26 285.997 110.829 292.888C115.398 299.778 117.83 307.865 117.82 316.132C117.82 339.671 103.176 355.902 90.8921 365.372Z" fill="#CBCBCB"/>
<path d="M77.368 365.372L77.1099 365.038C89.3192 355.625 103.873 339.5 103.873 316.132C103.877 308.003 101.498 300.051 97.0309 293.258C92.5639 286.465 86.2044 281.129 78.738 277.909L78.9055 277.521C86.4478 280.774 92.8718 286.164 97.3841 293.026C101.896 299.887 104.299 307.92 104.296 316.132C104.296 339.671 89.6524 355.902 77.368 365.372Z" fill="#CBCBCB"/>
<path d="M94.6757 365.372C82.3914 355.902 67.748 339.671 67.748 316.132C67.7446 307.92 70.1475 299.887 74.6599 293.026C79.1722 286.164 85.5963 280.774 93.1387 277.521L93.3062 277.909C85.8397 281.129 79.4801 286.465 75.0131 293.258C70.546 300.05 68.1673 308.003 68.1706 316.132C68.1706 339.5 82.7245 355.625 94.9337 365.037L94.6757 365.372Z" fill="#CBCBCB"/>
<path d="M81.1518 365.372C68.8675 355.902 54.224 339.672 54.224 316.132C54.2102 307.832 56.6594 299.715 61.2616 292.807C65.8638 285.899 72.4123 280.511 80.0784 277.324L80.2413 277.714C72.6522 280.869 66.1695 286.202 61.6135 293.041C57.0575 299.88 54.633 307.915 54.6466 316.132C54.6466 339.5 69.2006 355.625 81.4098 365.037L81.1518 365.372Z" fill="#CBCBCB"/>
<path d="M86.2332 276.875H85.8106V365.601H86.2332V276.875Z" fill="#CBCBCB"/>
<path d="M81.2605 399.173L73.5108 406.92L73.8096 407.219L81.5593 399.472L81.2605 399.173Z" fill="#CBCBCB"/>
<path d="M85.0278 399.044L73.5078 411.157L73.8141 411.448L85.3341 399.335L85.0278 399.044Z" fill="#CBCBCB"/>
<path d="M102.082 399.19H70.3849V402.993H102.082V399.19Z" fill="white"/>
<path d="M102.293 403.204H70.1736V398.979H102.293V403.204ZM70.5962 402.782H101.87V399.401H70.5962V402.782Z" fill="#CBCBCB"/>
<path d="M207.606 219.123C207.606 245.058 180.409 257.468 180.409 257.468C180.409 257.468 152.932 245.058 152.374 219.123C152.047 203.879 164.739 191.515 179.99 191.515C187.315 191.515 194.339 194.423 199.518 199.601C204.697 204.779 207.606 211.801 207.606 219.123Z" fill="#E5E5E5"/>
<path d="M189.614 259.001H171.203L168.972 250.078H191.846L189.614 259.001Z" fill="#CBCBCB"/>
<path d="M188.987 274.263H171.831V283.201H188.987V274.263Z" fill="white"/>
<path d="M189.126 283.34H171.692V274.124H189.126V283.34ZM171.971 283.061H188.847V274.402H171.971V283.061Z" fill="#CBCBCB"/>
<path d="M183.925 260.054H176.892L176.085 258.786H184.732L183.925 260.054Z" fill="#CBCBCB"/>
<path d="M171.622 259.002H171.343V272.666H171.622V259.002Z" fill="#CBCBCB"/>
<path d="M189.475 259.002H189.196V272.666H189.475V259.002Z" fill="#CBCBCB"/>
<path d="M183.205 249.927L183.035 249.706C191.093 243.493 200.699 232.85 200.699 217.426C200.706 212.024 199.117 206.74 196.131 202.238C193.146 197.735 188.897 194.214 183.918 192.116L184.027 191.859C189.056 193.978 193.348 197.535 196.364 202.084C199.38 206.632 200.985 211.969 200.978 217.426C200.978 232.963 191.313 243.676 183.205 249.927Z" fill="#CBCBCB"/>
<path d="M174.278 249.927L174.108 249.706C182.167 243.493 191.773 232.85 191.773 217.426C191.775 212.06 190.205 206.811 187.257 202.328C184.308 197.844 180.111 194.323 175.183 192.197L175.293 191.941C180.272 194.088 184.512 197.646 187.49 202.175C190.468 206.704 192.054 212.006 192.052 217.426C192.052 232.963 182.387 243.676 174.278 249.927Z" fill="#CBCBCB"/>
<path d="M185.702 249.927C177.594 243.676 167.929 232.963 167.929 217.426C167.927 212.006 169.513 206.704 172.491 202.175C175.469 197.646 179.71 194.088 184.688 191.941L184.798 192.197C179.87 194.322 175.673 197.844 172.724 202.328C169.776 206.811 168.206 212.06 168.208 217.426C168.208 232.85 177.814 243.493 185.873 249.706L185.702 249.927Z" fill="#CBCBCB"/>
<path d="M176.776 249.927C168.668 243.676 159.002 232.963 159.002 217.426C158.993 211.948 160.61 206.59 163.648 202.03C166.685 197.471 171.007 193.914 176.067 191.811L176.175 192.069C171.166 194.151 166.887 197.671 163.88 202.185C160.873 206.699 159.272 212.003 159.281 217.426C159.281 232.85 168.888 243.493 176.946 249.706L176.776 249.927Z" fill="#CBCBCB"/>
<path d="M180.13 191.515H179.851V250.078H180.13V191.515Z" fill="#CBCBCB"/>
<path d="M176.848 272.237L171.733 277.35L171.93 277.547L177.045 272.434L176.848 272.237Z" fill="#CBCBCB"/>
<path d="M179.334 272.151L171.731 280.146L171.933 280.338L179.536 272.344L179.334 272.151Z" fill="#CBCBCB"/>
<path d="M190.591 272.248H169.669V274.758H190.591V272.248Z" fill="white"/>
<path d="M190.73 274.897H169.53V272.109H190.73V274.897ZM169.809 274.618H190.451V272.387H169.809V274.618Z" fill="#CBCBCB"/>
<path d="M438.812 254.581C438.987 254.581 439.156 254.514 439.284 254.395C439.412 254.275 439.49 254.111 439.502 253.937C439.955 247.782 442.716 242.026 447.233 237.819C451.749 233.613 457.688 231.266 463.861 231.25C464.6 231.25 465.376 231.287 466.168 231.361C466.3 231.374 466.433 231.348 466.552 231.286C466.67 231.225 466.768 231.131 466.834 231.016C469.669 226.054 473.903 222.037 479.008 219.466C484.113 216.895 489.862 215.884 495.538 216.559C501.214 217.233 506.566 219.565 510.925 223.261C515.284 226.957 518.458 231.855 520.05 237.343C520.092 237.49 520.182 237.619 520.305 237.71C520.429 237.8 520.579 237.847 520.732 237.843L520.916 237.838C521.012 237.834 521.107 237.831 521.204 237.831C525.886 237.846 530.422 239.46 534.06 242.407C537.698 245.354 540.219 249.455 541.204 254.031C541.237 254.187 541.322 254.326 541.446 254.426C541.569 254.526 541.723 254.581 541.882 254.581H588.307C588.398 254.581 588.489 254.563 588.573 254.529C588.657 254.494 588.734 254.443 588.798 254.379C588.863 254.314 588.914 254.238 588.949 254.154C588.984 254.07 589.002 253.979 589.002 253.888C589.002 253.797 588.984 253.707 588.949 253.623C588.914 253.538 588.863 253.462 588.798 253.397C588.734 253.333 588.657 253.282 588.573 253.247C588.489 253.213 588.398 253.195 588.307 253.195H542.437C541.282 248.436 538.566 244.2 534.722 241.164C530.877 238.128 526.127 236.467 521.228 236.445C519.484 230.806 516.139 225.793 511.6 222.018C507.061 218.242 501.522 215.866 495.658 215.178C489.793 214.489 483.855 215.518 478.564 218.139C473.273 220.761 468.858 224.862 465.854 229.944C465.173 229.891 464.504 229.864 463.861 229.864C457.338 229.882 451.062 232.361 446.289 236.807C441.516 241.252 438.598 247.336 438.12 253.84C438.113 253.93 438.125 254.021 438.154 254.108C438.182 254.194 438.228 254.274 438.288 254.343C438.347 254.411 438.42 254.467 438.502 254.508C438.583 254.549 438.672 254.573 438.762 254.579C438.779 254.58 438.795 254.581 438.812 254.581Z" fill="#CBCBCB"/>
<path d="M447.057 263.463H560.703C560.887 263.463 561.063 263.39 561.193 263.261C561.323 263.131 561.396 262.954 561.396 262.771C561.396 262.587 561.323 262.411 561.193 262.281C561.063 262.151 560.887 262.078 560.703 262.078H447.057C446.873 262.078 446.697 262.151 446.567 262.281C446.437 262.411 446.364 262.587 446.364 262.771C446.364 262.954 446.437 263.131 446.567 263.261C446.697 263.39 446.873 263.463 447.057 263.463Z" fill="#CBCBCB"/>
<path d="M532.984 273.509H571.098C571.281 273.508 571.457 273.435 571.586 273.305C571.716 273.175 571.788 272.999 571.788 272.816C571.788 272.633 571.716 272.457 571.586 272.327C571.457 272.197 571.281 272.124 571.098 272.123H532.984C532.893 272.123 532.803 272.141 532.719 272.176C532.635 272.211 532.559 272.262 532.494 272.326C532.43 272.39 532.379 272.467 532.344 272.551C532.309 272.635 532.291 272.725 532.291 272.816C532.291 272.907 532.309 272.997 532.344 273.081C532.379 273.165 532.43 273.241 532.494 273.306C532.559 273.37 532.635 273.421 532.719 273.456C532.803 273.491 532.893 273.509 532.984 273.509Z" fill="#CBCBCB"/>
<path d="M355.883 440.666H353.601L352.516 431.87H355.883V440.666Z" fill="#9F616A"/>
<path d="M356.464 442.876H349.109V442.783C349.11 442.025 349.412 441.297 349.949 440.761C350.485 440.224 351.213 439.922 351.972 439.921H356.464V442.876Z" fill="#2F2E41"/>
<path d="M385.297 436.345L383.342 437.519L377.88 430.538L380.766 428.805L385.297 436.345Z" fill="#9F616A"/>
<path d="M380.63 441.727L380.582 441.647C380.192 440.996 380.076 440.217 380.26 439.481C380.443 438.745 380.912 438.111 381.562 437.72L385.412 435.407L386.935 437.94L380.63 441.727Z" fill="#2F2E41"/>
<path d="M356.475 438.851L356.436 438.851C355.326 438.847 354.218 438.783 353.115 438.659C352.695 438.618 352.239 438.573 351.689 438.528L351.671 438.524C351.296 438.413 351.285 434.899 351.444 422.87C351.526 416.71 351.618 409.727 351.508 405.28L351.507 405.236L351.54 405.207C353.524 403.468 355.891 402.224 358.449 401.575C361.006 400.926 363.681 400.891 366.254 401.473L366.294 401.481L366.315 401.516C368.557 405.309 371.942 410.771 375.215 416.053C382.73 428.18 384.879 431.746 384.643 432.015L384.615 432.037C384.102 432.294 383.717 432.491 383.389 432.659C382.093 433.33 380.761 433.931 379.399 434.458L379.339 434.483L379.295 434.435C371.67 426.082 365.325 416.752 361.401 408.127C360.942 411.072 360.386 414.917 359.797 418.979C358.106 430.662 356.963 438.354 356.503 438.823L356.475 438.851Z" fill="#2F2E41"/>
<path d="M358.53 406.178C363.076 406.158 367.593 406.914 371.884 408.414C372.034 401.21 369.619 394.188 365.07 388.6L365.036 388.56L365.053 388.51C366.251 385.051 367.489 381.475 368.595 377.916L368.579 377.856C367.803 375.099 366.137 372.313 363.488 369.338C363.2 369.04 362.81 368.863 362.397 368.842C361.984 368.821 361.578 368.958 361.262 369.225C358.94 371.348 357.132 373.97 355.974 376.894C354.817 379.818 354.339 382.968 354.579 386.103L354.58 386.121L354.575 386.139C352.501 393.166 351.747 396.775 351.083 399.959C350.598 402.282 350.178 404.294 349.336 407.168C352.356 406.511 355.438 406.179 358.53 406.178Z" fill="#CBCBCB"/>
<path opacity="0.1" d="M365.223 383.965L358.474 398.655L354.618 394.753L365.223 383.965Z" fill="black"/>
<path d="M362.338 367.908C364.99 367.908 367.14 365.759 367.14 363.108C367.14 360.456 364.99 358.307 362.338 358.307C359.685 358.307 357.535 360.456 357.535 363.108C357.535 365.759 359.685 367.908 362.338 367.908Z" fill="#9F616A"/>
<path d="M356.515 360.396H364.14V357.073C362.467 356.408 360.829 355.843 359.839 357.073C358.957 357.073 358.112 357.423 357.489 358.046C356.865 358.669 356.515 359.514 356.515 360.396Z" fill="#2F2E41"/>
<path d="M364.562 356.487C369.121 356.487 370.397 362.199 370.397 365.421C370.397 367.218 369.584 367.861 368.306 368.079L367.855 365.673L366.798 368.182C366.439 368.184 366.062 368.177 365.672 368.17L365.313 367.432L364.514 368.157C361.314 368.161 358.728 368.628 358.728 365.421C358.728 362.199 359.847 356.487 364.562 356.487Z" fill="#2F2E41"/>
<path d="M502.252 134.696C502.252 261.229 369.559 321.774 369.559 321.774C369.559 321.774 235.506 261.229 232.784 134.696C231.184 60.3227 293.106 0 367.518 0C441.929 0 502.252 60.3055 502.252 134.696Z" fill="#D81B5E"/>
<path d="M372.406 439.672H369.608L368.278 428.887H372.406V439.672Z" fill="#FFB7B7"/>
<path d="M367.611 438.873H373.005V442.268H364.215C364.215 441.822 364.302 441.38 364.473 440.969C364.644 440.557 364.894 440.182 365.209 439.867C365.525 439.552 365.899 439.302 366.311 439.131C366.723 438.96 367.165 438.873 367.611 438.873Z" fill="#2F2E41"/>
<path d="M382.9 439.672H380.103L378.772 428.887H382.901L382.9 439.672Z" fill="#FFB7B7"/>
<path d="M378.105 438.873H383.499V442.268H374.709C374.709 441.367 375.067 440.504 375.704 439.867C376.341 439.23 377.204 438.873 378.105 438.873Z" fill="#2F2E41"/>
<path d="M382.558 407.55C382.257 407.356 382.002 407.099 381.811 406.796C381.62 406.493 381.498 406.151 381.453 405.796C381.408 405.441 381.441 405.08 381.551 404.739C381.661 404.398 381.844 404.085 382.088 403.822L380.246 377.695L385.551 378.209L385.697 403.796C386.111 404.235 386.35 404.81 386.368 405.413C386.386 406.015 386.182 406.604 385.795 407.067C385.409 407.529 384.865 407.834 384.269 407.923C383.672 408.012 383.064 407.879 382.558 407.55Z" fill="#FFB7B7"/>
<path d="M372.273 434.238L369.194 434.091C368.932 434.079 368.685 433.967 368.503 433.777C368.321 433.588 368.218 433.336 368.217 433.074L368.002 401.928C368.001 401.781 368.032 401.634 368.092 401.499C368.153 401.365 368.242 401.245 368.354 401.148C368.465 401.05 368.597 400.978 368.738 400.937C368.88 400.895 369.029 400.884 369.176 400.905L381.494 402.693C381.737 402.727 381.96 402.848 382.122 403.033C382.283 403.218 382.373 403.455 382.373 403.701L383.957 432.56C383.958 432.696 383.933 432.83 383.881 432.956C383.83 433.081 383.755 433.195 383.659 433.291C383.564 433.387 383.45 433.464 383.325 433.516C383.2 433.568 383.066 433.594 382.931 433.595H379.611C379.366 433.595 379.129 433.509 378.943 433.349C378.757 433.19 378.634 432.97 378.597 432.728C378.597 432.728 376.09 411.081 375.746 411.093C375.399 411.1 373.342 433.335 373.342 433.335C373.311 433.584 373.191 433.813 373.003 433.98C372.815 434.146 372.573 434.239 372.322 434.24C372.306 434.24 372.29 434.239 372.273 434.238Z" fill="#2F2E41"/>
<path d="M381.447 386.474C381.323 386.385 381.22 386.269 381.147 386.134C381.074 386 381.031 385.851 381.023 385.698L380.634 378.656C380.596 377.959 380.817 377.271 381.256 376.727C381.694 376.183 382.318 375.82 383.008 375.709C383.698 375.598 384.405 375.746 384.992 376.125C385.58 376.504 386.006 377.086 386.189 377.761L387.896 384.057C387.967 384.319 387.931 384.6 387.796 384.836C387.66 385.072 387.437 385.244 387.174 385.316L382.317 386.633C382.169 386.673 382.014 386.679 381.864 386.652C381.713 386.625 381.571 386.564 381.447 386.474Z" fill="#272C30"/>
<path d="M376.91 369.738C380.004 369.738 382.513 367.23 382.513 364.136C382.513 361.042 380.004 358.534 376.91 358.534C373.815 358.534 371.307 361.042 371.307 364.136C371.307 367.23 373.815 369.738 376.91 369.738Z" fill="#FFB7B7"/>
<path d="M380.875 368.568C380.641 368.82 380.339 369.001 380.006 369.088C379.673 369.175 379.321 369.165 378.993 369.06C378.665 368.954 378.374 368.757 378.155 368.492C377.935 368.227 377.795 367.904 377.752 367.563C377.742 367.445 377.742 367.326 377.755 367.208C377.825 366.534 378.214 365.923 378.121 365.211C378.1 365.034 378.034 364.866 377.929 364.721C377.096 363.606 375.141 365.22 374.355 364.21C373.873 363.591 374.439 362.617 374.069 361.925C373.581 361.012 372.135 361.462 371.228 360.962C370.219 360.406 370.28 358.858 370.944 357.917C371.376 357.361 371.926 356.907 372.554 356.587C373.182 356.267 373.872 356.09 374.576 356.068C375.987 356.035 377.387 356.308 378.681 356.869C380.21 357.366 381.558 358.301 382.56 359.557C383.078 360.381 383.406 361.31 383.521 362.277C383.636 363.243 383.534 364.223 383.223 365.146C382.885 366.277 381.729 367.659 380.875 368.568Z" fill="#2F2E41"/>
<path d="M382.503 373.479C382.405 373.41 382.306 373.341 382.205 373.273C381.667 372.916 381.084 372.63 380.472 372.424V370.952H376.138V372.318C374.701 372.714 373.412 373.524 372.432 374.647C371.452 375.769 370.823 377.155 370.625 378.632L367.673 400.539C367.654 400.676 367.663 400.815 367.7 400.949C367.736 401.082 367.8 401.207 367.886 401.315C367.97 401.422 368.075 401.512 368.195 401.577C368.315 401.643 368.446 401.683 368.582 401.696C370.65 401.964 372.643 402.647 374.441 403.702C375.746 404.425 377.216 404.8 378.708 404.791C379.893 404.787 381.068 404.578 382.182 404.173C382.371 404.104 382.535 403.98 382.653 403.817C382.772 403.655 382.839 403.461 382.848 403.26C382.954 400.902 383.576 388.767 385.386 381.365C385.737 379.913 385.651 378.389 385.138 376.986C384.625 375.583 383.708 374.363 382.503 373.479Z" fill="#272C30"/>
<path d="M414.471 329.257H324.648L313.761 285.719H425.358L414.471 329.257Z" fill="#272C30"/>
<path d="M411.408 403.715H327.71V447.32H411.408V403.715Z" fill="white"/>
<path d="M412.089 448H327.03V403.034H412.089V448ZM328.391 446.639H410.728V404.395H328.391V446.639Z" fill="#3F3D56"/>
<path d="M386.716 334.391H352.403L348.465 328.205H390.654L386.716 334.391Z" fill="#272C30"/>
<path d="M326.689 329.257H325.329V395.925H326.689V329.257Z" fill="#3F3D56"/>
<path d="M413.79 329.257H412.429V395.925H413.79V329.257Z" fill="#3F3D56"/>
<path d="M383.201 284.982L382.37 283.904C421.687 253.593 468.554 201.666 468.554 126.416C468.585 100.061 460.832 74.2829 446.267 52.3153C431.702 30.3476 410.973 13.1683 386.68 2.93174L387.21 1.6788C411.75 12.0192 432.689 29.3729 447.402 51.5634C462.115 73.7539 469.947 99.7934 469.915 126.416C469.915 202.218 422.759 254.484 383.201 284.982Z" fill="#272C30"/>
<path d="M339.65 284.982L338.819 283.904C378.136 253.593 425.004 201.666 425.004 126.416C425.014 100.238 417.354 74.6302 402.969 52.7558C388.585 30.8814 368.106 13.6987 344.062 3.33004L344.601 2.08109C368.889 12.5549 389.576 29.912 404.107 52.0084C418.637 74.1048 426.375 99.9724 426.364 126.416C426.364 202.219 379.209 254.485 339.65 284.982Z" fill="#272C30"/>
<path d="M395.385 284.982C355.827 254.484 308.671 202.219 308.671 126.416C308.661 99.9722 316.399 74.1043 330.929 52.0079C345.46 29.9115 366.147 12.5544 390.436 2.08075L390.975 3.3297C366.931 13.6982 346.452 30.8809 332.067 52.7554C317.682 74.6298 310.022 100.238 310.032 126.416C310.032 201.666 356.899 253.593 396.216 283.904L395.385 284.982Z" fill="#272C30"/>
<path d="M351.835 284.982C312.276 254.484 265.121 202.219 265.121 126.416C265.077 99.6885 272.963 73.5482 287.784 51.303C302.604 29.0577 323.692 11.7071 348.378 1.44662L348.903 2.70222C324.464 12.8596 303.588 30.0358 288.917 52.0576C274.246 74.0794 266.438 99.957 266.482 126.416C266.482 201.666 313.349 253.594 352.666 283.904L351.835 284.982Z" fill="#272C30"/>
<path d="M368.198 0H366.837V285.719H368.198V0Z" fill="#272C30"/>
<path d="M352.185 393.828L327.229 418.777L328.191 419.739L353.147 394.79L352.185 393.828Z" fill="#3F3D56"/>
<path d="M364.317 393.413L327.219 432.419L328.206 433.356L365.303 394.35L364.317 393.413Z" fill="#3F3D56"/>
<path d="M419.234 393.884H317.163V406.129H419.234V393.884Z" fill="white"/>
<path d="M419.914 406.809H316.482V393.204H419.914V406.809ZM317.843 405.449H418.553V394.564H317.843V405.449Z" fill="#3F3D56"/>
<path d="M350.175 399.579C350.448 399.56 350.714 399.482 350.953 399.349C351.192 399.216 351.399 399.033 351.56 398.812C351.721 398.59 351.831 398.336 351.883 398.068C351.934 397.8 351.927 397.523 351.86 397.258L357.422 393.615L354.25 392.245L349.455 395.914C349.017 396.056 348.646 396.353 348.412 396.75C348.178 397.146 348.098 397.615 348.187 398.067C348.276 398.518 348.527 398.922 348.894 399.201C349.26 399.479 349.716 399.614 350.176 399.579H350.175Z" fill="#9F616A"/>
<path d="M355.527 396.955L355.457 396.905C354.133 395.931 352.664 394.924 351.243 393.95L351.157 393.892L351.225 393.813C354.258 390.266 357.294 386.56 360.231 382.976L360.225 382.963L360.253 382.948L360.264 382.934L360.271 382.939L360.288 382.93L360.208 382.937L359.303 375.84C358.855 375.102 358.626 374.252 358.644 373.389C358.661 372.526 358.923 371.685 359.401 370.966C359.95 370.189 360.766 369.643 361.693 369.431C362.621 369.22 363.594 369.358 364.425 369.819C364.836 370.094 365.179 370.459 365.43 370.885C365.68 371.311 365.832 371.788 365.873 372.28C365.931 372.719 365.891 373.165 365.754 373.587C365.618 374.008 365.389 374.393 365.085 374.715C365.398 378.159 365.536 381.616 365.499 385.074L365.499 385.107L365.479 385.134C362.348 389.11 358.909 393.065 355.583 396.89L355.527 396.955Z" fill="#CBCBCB"/>
<path d="M356.605 375.142C356.633 375.265 356.651 375.39 356.659 375.516L366.459 381.168L368.842 379.797L371.381 383.12L366.285 386.751L355.104 377.933C354.648 378.102 354.152 378.128 353.681 378.008C353.21 377.887 352.786 377.627 352.467 377.26C352.148 376.893 351.948 376.438 351.894 375.955C351.84 375.472 351.934 374.984 352.164 374.556C352.394 374.127 352.749 373.779 353.182 373.558C353.615 373.336 354.105 373.252 354.587 373.315C355.069 373.379 355.52 373.588 355.881 373.914C356.241 374.24 356.494 374.668 356.605 375.142H356.605Z" fill="#FFB7B7"/>
<path d="M366.81 380.687C366.793 380.535 366.811 380.381 366.862 380.237C366.913 380.093 366.996 379.962 367.105 379.854L372.092 374.866C372.587 374.372 373.246 374.078 373.944 374.042C374.642 374.005 375.329 374.228 375.872 374.668C376.416 375.107 376.777 375.733 376.886 376.423C376.996 377.113 376.846 377.819 376.465 378.405L372.913 383.877C372.765 384.105 372.532 384.265 372.266 384.322C372 384.378 371.722 384.327 371.493 384.179L367.272 381.441C367.143 381.358 367.035 381.247 366.955 381.116C366.875 380.986 366.825 380.839 366.81 380.687Z" fill="#272C30"/>
<path d="M298.946 332.133C298.771 332.133 298.602 332.066 298.474 331.947C298.346 331.827 298.268 331.664 298.256 331.489C297.803 325.334 295.041 319.578 290.525 315.371C286.008 311.165 280.069 308.818 273.897 308.802C273.158 308.802 272.382 308.839 271.59 308.913C271.457 308.926 271.324 308.9 271.206 308.839C271.088 308.777 270.99 308.684 270.924 308.568C268.089 303.606 263.854 299.589 258.749 297.018C253.645 294.447 247.896 293.436 242.22 294.111C236.544 294.786 231.192 297.117 226.833 300.813C222.474 304.509 219.3 309.407 217.708 314.896C217.666 315.043 217.576 315.172 217.452 315.262C217.329 315.353 217.179 315.399 217.026 315.395L216.842 315.39C216.746 315.387 216.65 315.383 216.554 315.383C211.872 315.398 207.335 317.012 203.698 319.959C200.06 322.906 197.539 327.007 196.554 331.583C196.521 331.739 196.436 331.878 196.312 331.978C196.189 332.079 196.035 332.133 195.876 332.133H149.451C149.359 332.133 149.269 332.116 149.185 332.081C149.1 332.046 149.024 331.995 148.959 331.931C148.895 331.867 148.843 331.79 148.808 331.706C148.774 331.622 148.756 331.532 148.756 331.44C148.756 331.349 148.774 331.259 148.808 331.175C148.843 331.091 148.895 331.014 148.959 330.95C149.024 330.885 149.1 330.834 149.185 330.8C149.269 330.765 149.359 330.747 149.451 330.748H195.321C196.476 325.988 199.192 321.752 203.036 318.716C206.88 315.68 211.631 314.019 216.53 313.998C218.274 308.358 221.619 303.346 226.158 299.57C230.697 295.795 236.235 293.418 242.1 292.73C247.965 292.041 253.903 293.07 259.194 295.691C264.484 298.313 268.9 302.414 271.903 307.496C272.585 307.443 273.254 307.416 273.897 307.416C280.42 307.434 286.696 309.914 291.469 314.359C296.242 318.805 299.159 324.888 299.638 331.392C299.644 331.483 299.633 331.574 299.604 331.66C299.575 331.746 299.53 331.826 299.47 331.895C299.41 331.964 299.338 332.02 299.256 332.06C299.175 332.101 299.086 332.125 298.995 332.132C298.979 332.133 298.962 332.133 298.946 332.133Z" fill="#CBCBCB"/>
<path d="M290.701 341.016H177.055C176.963 341.016 176.873 340.998 176.789 340.964C176.705 340.929 176.628 340.878 176.563 340.814C176.499 340.749 176.447 340.673 176.412 340.589C176.378 340.504 176.36 340.414 176.36 340.323C176.36 340.232 176.378 340.142 176.412 340.057C176.447 339.973 176.499 339.897 176.563 339.832C176.628 339.768 176.705 339.717 176.789 339.682C176.873 339.648 176.963 339.63 177.055 339.63H290.701C290.885 339.63 291.061 339.703 291.191 339.833C291.321 339.963 291.394 340.139 291.394 340.323C291.394 340.507 291.321 340.683 291.191 340.813C291.061 340.943 290.885 341.016 290.701 341.016Z" fill="#CBCBCB"/>
<path d="M204.773 351.061H166.66C166.569 351.061 166.479 351.044 166.394 351.009C166.31 350.974 166.233 350.923 166.169 350.859C166.104 350.794 166.053 350.718 166.018 350.634C165.983 350.55 165.965 350.459 165.965 350.368C165.965 350.277 165.983 350.187 166.018 350.103C166.053 350.018 166.104 349.942 166.169 349.878C166.233 349.813 166.31 349.762 166.394 349.727C166.479 349.693 166.569 349.675 166.66 349.675H204.773C204.864 349.675 204.955 349.693 205.039 349.727C205.123 349.762 205.2 349.813 205.265 349.878C205.329 349.942 205.381 350.018 205.415 350.103C205.45 350.187 205.468 350.277 205.468 350.368C205.468 350.459 205.45 350.55 205.415 350.634C205.381 350.718 205.329 350.794 205.265 350.859C205.2 350.923 205.123 350.974 205.039 351.009C204.955 351.044 204.864 351.061 204.773 351.061Z" fill="#CBCBCB"/>
</g>
<defs>
<clipPath id="clip0_19:322">
<rect width="589" height="448" fill="white"/>
</clipPath>
</defs>
</svg>
