<svg width="171" height="34" viewBox="0 0 171 34" fill="none" xmlns="http://www.w3.org/2000/svg">
<path d="M19.3225 4.48816C19.8967 5.29731 20.3546 6.18302 20.6829 7.11943C21.0936 7.17288 21.5012 7.24793 21.904 7.34425L22.112 7.39213L22.1599 7.4067C22.2451 7.42752 22.3304 7.45042 22.4136 7.4754L22.657 7.54617L22.865 7.61487C22.9358 7.63777 23.0065 7.66067 23.073 7.68773C23.1396 7.71479 23.2041 7.73353 23.2811 7.75851C23.358 7.78349 23.4121 7.80847 23.4891 7.83345C23.8724 7.9816 24.2474 8.15047 24.6124 8.3393C24.6997 8.38302 24.7871 8.42881 24.8724 8.47669C25.018 8.55372 25.1594 8.63698 25.3009 8.72025L25.4819 8.83058L25.5672 8.88262L25.7544 9.00753C25.8168 9.045 25.875 9.08663 25.9353 9.12826C26.6316 9.60548 27.2758 10.1546 27.8574 10.7666C27.9261 10.8353 27.9926 10.906 28.0654 10.9747C28.1382 11.0434 28.1715 11.0934 28.2235 11.1517C28.3088 11.2495 28.392 11.3474 28.4731 11.4473C28.5231 11.5056 28.5709 11.5659 28.6167 11.6263C28.6624 11.6867 28.7456 11.7908 28.806 11.8719C28.8663 11.9531 28.9224 12.0281 28.9765 12.1072C29.0306 12.1863 29.0889 12.2654 29.1429 12.3466C29.2511 12.5069 29.351 12.6692 29.457 12.8358C29.509 12.919 29.559 13.0023 29.6047 13.0877C29.6505 13.173 29.7025 13.2563 29.7483 13.3416C29.8481 13.5269 29.9438 13.7142 30.0332 13.9037C30.0707 13.9765 30.1061 14.0536 30.1393 14.1285C30.1726 14.2034 30.2059 14.2805 30.2392 14.3554C30.2725 14.4303 30.2974 14.4886 30.3245 14.5636L30.3994 14.7509C30.4597 14.9091 30.5179 15.0694 30.572 15.2318C30.6053 15.3255 30.6365 15.4192 30.6656 15.5149C30.6647 15.519 30.6647 15.5233 30.6656 15.5274C30.6927 15.619 30.7197 15.7085 30.7447 15.8001C30.8195 16.0603 30.8861 16.3247 30.9423 16.5912C30.9568 16.6578 30.9693 16.7265 30.9839 16.7993C30.9984 16.8722 30.9984 16.8763 31.0047 16.9159C31.0109 16.9554 31.0255 17.02 31.0317 17.072C31.038 17.1241 31.0567 17.2198 31.0671 17.2948C31.0775 17.3697 31.0921 17.4446 31.1004 17.5217C31.1004 17.555 31.1004 17.5883 31.1149 17.6216C31.1295 17.6549 31.1274 17.734 31.1337 17.7902C31.1399 17.8464 31.1461 17.8985 31.1482 17.9505C31.1503 18.0025 31.1649 18.115 31.1711 18.1961C31.1773 18.2773 31.1836 18.3897 31.1877 18.4897C31.1919 18.5896 31.1877 18.6978 31.2002 18.7978C31.2127 18.8977 31.2002 19.0059 31.2002 19.11C31.1964 22.3149 29.9225 25.3874 27.658 27.6536C25.3935 29.9197 22.3232 31.1946 19.1207 31.1984H18.8108C18.7068 31.1984 18.6028 31.1984 18.5009 31.1859C18.3989 31.1734 18.2928 31.1859 18.1972 31.1672H18.1847L17.881 31.1297L17.6376 31.1047L17.4878 31.0839C17.4171 31.0839 17.3443 31.0652 17.2798 31.0527H17.2569L17.0489 31.0173L16.87 30.9861L16.6079 30.9341C16.1389 30.835 15.6763 30.7078 15.2225 30.5531L14.9584 30.4594C14.8731 30.4282 14.7878 30.397 14.7004 30.3616L14.3572 30.2179C14.2844 30.1888 14.2116 30.1576 14.1492 30.1243L13.9162 30.016C13.8163 29.9681 13.7082 29.9203 13.6208 29.8682L13.3795 29.7433L13.0966 29.5872C13.0134 29.5393 12.9302 29.4914 12.847 29.4394C12.6931 29.3478 12.5433 29.25 12.3956 29.15C12.3837 29.1436 12.3726 29.1359 12.3623 29.1271L12.1231 28.9627C12.0441 28.9065 11.965 28.8503 11.888 28.7899C11.8111 28.7295 11.7341 28.6754 11.6571 28.613C11.5802 28.5505 11.5344 28.5172 11.4741 28.4652C11.3763 28.3861 11.2786 28.3049 11.1829 28.2216L10.9957 28.053C10.9249 27.9884 10.8521 27.9239 10.7876 27.8552L10.5796 27.647C10.4465 27.5138 10.3154 27.3764 10.1886 27.2307C10.122 27.1558 10.0533 27.0808 9.98054 27.0038C9.85365 26.8581 9.73092 26.7124 9.61443 26.5604C9.54162 26.4688 9.4709 26.3772 9.40641 26.2815C9.36273 26.2252 9.32321 26.1711 9.28576 26.1149L9.24416 26.0587C9.19632 25.9921 9.14639 25.9213 9.10063 25.8505C9.05487 25.7798 9.0091 25.7132 8.96334 25.6424C8.91758 25.5716 8.83645 25.4467 8.77613 25.3447C8.67836 25.1844 8.58475 25.0199 8.49531 24.8534C8.32057 24.5349 8.1604 24.2039 8.01479 23.8667L7.91702 23.6315C7.91612 23.6273 7.91612 23.6231 7.91702 23.619C7.89206 23.5586 7.86918 23.5003 7.8463 23.442L7.78389 23.2776C7.76309 23.2214 7.74229 23.1631 7.72357 23.1048C7.70485 23.0465 7.66532 22.9424 7.63828 22.8571C7.61124 22.7717 7.5842 22.6905 7.55923 22.6073C7.55736 22.599 7.55736 22.5905 7.55923 22.5823C7.53219 22.5011 7.50931 22.4178 7.48643 22.3366C7.46355 22.2555 7.43859 22.1597 7.4157 22.0702C7.34914 21.8037 7.28881 21.5352 7.24097 21.2625C7.22433 21.1709 7.20769 21.0814 7.19313 20.9877C7.17857 20.894 7.16608 20.8066 7.1536 20.7129C6.21012 20.3895 5.31718 19.9339 4.5014 19.3598C4.55156 22.2304 5.4453 25.0226 7.07109 27.3881C8.69688 29.7536 10.9827 31.5876 13.6434 32.6612C16.3041 33.7349 19.2219 34.0007 22.0326 33.4255C24.8433 32.8503 27.4225 31.4595 29.4484 29.4267C31.4743 27.3939 32.8572 24.8091 33.4245 21.9948C33.9918 19.1805 33.7184 16.2613 32.6384 13.6015C31.5584 10.9417 29.7197 8.65904 27.3517 7.03836C24.9836 5.41767 22.1911 4.53071 19.3225 4.48816V4.48816ZM7.0808 17.9588C7.0912 17.8693 7.09952 17.7798 7.10992 17.6903C7.12032 17.6008 7.1328 17.5113 7.1432 17.4238C7.1536 17.3364 7.16817 17.2469 7.18481 17.1595C7.20145 17.072 7.21393 16.9846 7.22849 16.8972C7.29505 16.5474 7.37202 16.204 7.46771 15.8563C7.49059 15.773 7.51555 15.6877 7.54051 15.6044L7.60292 15.4087C7.6093 15.3804 7.61764 15.3526 7.62788 15.3255L7.70277 15.1173C7.72357 15.0549 7.74645 14.9903 7.77141 14.9279L7.81509 14.8092C7.86918 14.6704 7.92534 14.5317 7.98359 14.3929C8.05223 14.2305 8.12296 14.0702 8.1916 13.912C8.22696 13.835 8.26441 13.7621 8.30185 13.6872C8.3232 13.6386 8.34752 13.5913 8.37466 13.5456C8.401 13.4901 8.43013 13.4339 8.46202 13.377L8.49531 13.3187C8.53483 13.2438 8.57643 13.1709 8.62011 13.096L8.73452 12.8878L8.84061 12.7171L8.94046 12.561C9.07983 12.3528 9.22544 12.1446 9.37729 11.9365C9.4293 11.8657 9.4813 11.7991 9.5333 11.7283C9.58531 11.6575 9.61235 11.6242 9.65395 11.5743C9.7746 11.4223 9.89941 11.2724 10.0305 11.1267C10.0825 11.0642 10.1386 11.006 10.1906 10.9456C10.305 10.8186 10.4236 10.6958 10.5443 10.575L10.694 10.4293C10.771 10.3544 10.848 10.2794 10.927 10.2087L11.1038 10.0505C11.2078 9.9547 11.3118 9.8631 11.4262 9.77359C11.4803 9.72779 11.5365 9.682 11.5947 9.63828C11.8381 9.44468 12.0877 9.25941 12.3457 9.08663C12.4185 9.03459 12.4934 8.98671 12.5703 8.93883L12.7471 8.82434L12.8886 8.74315C12.9552 8.70152 13.0217 8.66196 13.0966 8.62449C13.1715 8.58702 13.2672 8.52873 13.3525 8.48294C13.4378 8.43714 13.5251 8.38718 13.6104 8.34555L13.8725 8.2144H13.8871C14.041 8.13946 14.1991 8.06868 14.3593 8.00623C14.4778 7.95627 14.5964 7.90631 14.7171 7.86051C14.7961 7.82928 14.8751 7.79806 14.9563 7.771L15.1643 7.69397L15.2745 7.6565L15.5138 7.57948L15.8008 7.4754L16.0879 7.39629L16.3437 7.33384L16.5372 7.29221L16.6246 7.27139L16.7702 7.24225L17.0302 7.19437L17.2153 7.16522C17.2819 7.15273 17.3464 7.14441 17.4233 7.13608C17.5918 7.1111 17.7624 7.09028 17.933 7.07363C17.5092 6.21076 16.9351 5.43041 16.2376 4.76919C13.4059 5.3389 10.8062 6.73506 8.76641 8.78156C6.72661 10.8281 5.33809 13.4332 4.77598 16.2685C5.43908 16.963 6.21928 17.5352 7.0808 17.9588V17.9588Z" fill="#D8195E"/>
<path d="M21.1062 8.69526C20.4467 8.56801 19.7767 8.50388 19.1051 8.50375C18.897 8.50375 18.689 8.50375 18.481 8.52456C18.6714 9.21906 18.7672 9.93608 18.766 10.6562C18.7675 11.9043 18.4815 13.1359 17.9301 14.2554C17.3788 15.3748 16.5769 16.352 15.5869 17.111C14.5969 17.87 13.4453 18.3903 12.2217 18.6316C10.9981 18.8729 9.73535 18.8286 8.53162 18.5021V18.5021C8.53162 18.7103 8.51498 18.9018 8.51498 19.1038C8.51432 19.7857 8.57981 20.4662 8.71052 21.1355C10.2461 21.4174 11.8248 21.3581 13.3349 20.9617C14.845 20.5654 16.2497 19.8417 17.4493 18.8419C18.649 17.8422 19.6145 16.5907 20.2773 15.1762C20.9401 13.7616 21.2842 12.2186 21.2851 10.6562C21.2849 9.99849 21.2251 9.34214 21.1062 8.69526V8.69526ZM10.6388 9.74559e-06C8.54304 0.00147266 6.49431 0.621931 4.74939 1.78363C3.00446 2.94532 1.64097 4.59657 0.829797 6.53043C0.0186205 8.46429 -0.204156 10.5947 0.189388 12.6548C0.582932 14.7148 1.57529 16.6127 3.04209 18.1108C3.11072 16.9633 3.30179 15.8265 3.61205 14.7197C2.71472 13.1728 2.35297 11.3726 2.583 9.59887C2.81303 7.82509 3.62196 6.17697 4.88413 4.91054C6.14631 3.64411 7.79107 2.83026 9.56292 2.5954C11.3348 2.36054 13.1345 2.71783 14.6827 3.61176C15.7893 3.29605 16.9268 3.10131 18.0754 3.03096C16.0891 1.08461 13.4188 -0.00375715 10.6388 9.74559e-06V9.74559e-06Z" fill="#D8195E"/>
<path d="M49.1669 11.179C50.9429 11.179 52.3769 11.707 53.4689 12.763C54.5729 13.819 55.1249 15.241 55.1249 17.029C55.1249 18.805 54.5729 20.221 53.4689 21.277C52.3769 22.333 50.9429 22.861 49.1669 22.861H45.3689V11.179H49.1669ZM47.5109 20.935H49.1669C50.2709 20.935 51.1649 20.563 51.8489 19.819C52.4969 19.099 52.8209 18.169 52.8209 17.029C52.8209 15.865 52.4969 14.923 51.8489 14.203C51.1769 13.471 50.2829 13.105 49.1669 13.105H47.5109V20.935ZM57.7087 11.179H65.2327V13.015H59.8327V16.093H64.8907V17.929H59.8327V21.007H65.2327V22.861H57.7087V11.179ZM76.9496 14.761C76.9496 15.589 76.7156 16.297 76.2476 16.885C75.7796 17.473 75.1076 17.881 74.2316 18.109L77.3636 22.861H74.5916L72.0176 18.307H70.3976V22.861H68.2736V11.179H72.5936C73.9736 11.179 75.0476 11.509 75.8156 12.169C76.5716 12.805 76.9496 13.669 76.9496 14.761ZM72.3956 16.885C73.1756 16.885 73.7636 16.711 74.1596 16.363C74.5556 16.003 74.7536 15.535 74.7536 14.959C74.7536 14.371 74.5736 13.903 74.2136 13.555C73.8536 13.195 73.3136 13.015 72.5936 13.015H70.3976V16.885H72.3956ZM84.3396 10.945C85.1196 10.945 85.8336 11.077 86.4816 11.341C87.1296 11.593 87.6876 11.971 88.1556 12.475C89.1396 13.531 89.6316 15.043 89.6316 17.011C89.6316 18.991 89.1396 20.521 88.1556 21.601C87.2196 22.609 85.9416 23.113 84.3216 23.113C82.7136 23.113 81.4416 22.597 80.5056 21.565C79.5216 20.497 79.0296 18.979 79.0296 17.011C79.0296 15.019 79.5216 13.495 80.5056 12.439C81.4296 11.443 82.7076 10.945 84.3396 10.945ZM87.4356 17.047C87.4356 15.703 87.1536 14.671 86.5896 13.951C86.0376 13.219 85.2876 12.853 84.3396 12.853C83.3916 12.853 82.6356 13.219 82.0716 13.951C81.5076 14.671 81.2256 15.703 81.2256 17.047C81.2256 18.379 81.5076 19.405 82.0716 20.125C82.6356 20.833 83.3916 21.187 84.3396 21.187C85.2876 21.187 86.0376 20.833 86.5896 20.125C87.1536 19.405 87.4356 18.379 87.4356 17.047ZM102.835 14.401C102.643 13.381 101.923 12.871 100.675 12.871C100.063 12.871 99.5834 12.997 99.2354 13.249C98.8994 13.489 98.7314 13.783 98.7314 14.131C98.7314 14.479 98.8394 14.755 99.0554 14.959C99.2834 15.151 99.6314 15.331 100.099 15.499L102.637 16.489C103.501 16.825 104.167 17.251 104.635 17.767C105.103 18.271 105.337 18.907 105.337 19.675C105.337 20.731 104.941 21.571 104.149 22.195C103.357 22.807 102.229 23.113 100.765 23.113C99.4694 23.113 98.4194 22.795 97.6154 22.159C96.7154 21.463 96.2414 20.479 96.1934 19.207H98.2994C98.2994 20.167 98.7974 20.773 99.7934 21.025C100.093 21.109 100.489 21.151 100.981 21.151C101.473 21.151 101.929 21.031 102.349 20.791C102.769 20.539 102.979 20.209 102.979 19.801C102.979 19.381 102.865 19.063 102.637 18.847C102.409 18.619 102.037 18.409 101.521 18.217L99.1994 17.299C98.2994 16.951 97.6094 16.543 97.1294 16.075C96.6494 15.607 96.4094 14.959 96.4094 14.131C96.4094 13.159 96.7874 12.391 97.5434 11.827C98.3114 11.239 99.3494 10.945 100.657 10.945C101.977 10.945 102.991 11.251 103.699 11.863C104.419 12.463 104.833 13.309 104.941 14.401H102.835ZM106.61 11.179H115.97V13.015H112.352V22.861H110.228V13.015H106.61V11.179ZM119.7 11.179V18.451C119.7 19.411 119.94 20.101 120.42 20.521C120.912 20.941 121.542 21.151 122.31 21.151C123.078 21.151 123.702 20.941 124.182 20.521C124.674 20.101 124.92 19.411 124.92 18.451V11.179H127.044V18.451C127.044 19.939 126.63 21.091 125.802 21.907C124.974 22.711 123.81 23.113 122.31 23.113C120.81 23.113 119.646 22.711 118.818 21.907C117.99 21.091 117.576 19.939 117.576 18.451V11.179H119.7ZM133.964 11.179C135.74 11.179 137.174 11.707 138.266 12.763C139.37 13.819 139.922 15.241 139.922 17.029C139.922 18.805 139.37 20.221 138.266 21.277C137.174 22.333 135.74 22.861 133.964 22.861H130.166V11.179H133.964ZM132.308 20.935H133.964C135.068 20.935 135.962 20.563 136.646 19.819C137.294 19.099 137.618 18.169 137.618 17.029C137.618 15.865 137.294 14.923 136.646 14.203C135.974 13.471 135.08 13.105 133.964 13.105H132.308V20.935ZM142.524 11.179H144.648V22.861H142.524V11.179ZM152.472 10.945C153.252 10.945 153.966 11.077 154.614 11.341C155.262 11.593 155.82 11.971 156.288 12.475C157.272 13.531 157.764 15.043 157.764 17.011C157.764 18.991 157.272 20.521 156.288 21.601C155.352 22.609 154.074 23.113 152.454 23.113C150.846 23.113 149.574 22.597 148.638 21.565C147.654 20.497 147.162 18.979 147.162 17.011C147.162 15.019 147.654 13.495 148.638 12.439C149.562 11.443 150.84 10.945 152.472 10.945ZM155.568 17.047C155.568 15.703 155.286 14.671 154.722 13.951C154.17 13.219 153.42 12.853 152.472 12.853C151.524 12.853 150.768 13.219 150.204 13.951C149.64 14.671 149.358 15.703 149.358 17.047C149.358 18.379 149.64 19.405 150.204 20.125C150.768 20.833 151.524 21.187 152.472 21.187C153.42 21.187 154.17 20.833 154.722 20.125C155.286 19.405 155.568 18.379 155.568 17.047ZM166.416 14.401C166.224 13.381 165.504 12.871 164.256 12.871C163.644 12.871 163.164 12.997 162.816 13.249C162.48 13.489 162.312 13.783 162.312 14.131C162.312 14.479 162.42 14.755 162.636 14.959C162.864 15.151 163.212 15.331 163.68 15.499L166.218 16.489C167.082 16.825 167.748 17.251 168.216 17.767C168.684 18.271 168.918 18.907 168.918 19.675C168.918 20.731 168.522 21.571 167.73 22.195C166.938 22.807 165.81 23.113 164.346 23.113C163.05 23.113 162 22.795 161.196 22.159C160.296 21.463 159.822 20.479 159.774 19.207H161.88C161.88 20.167 162.378 20.773 163.374 21.025C163.674 21.109 164.07 21.151 164.562 21.151C165.054 21.151 165.51 21.031 165.93 20.791C166.35 20.539 166.56 20.209 166.56 19.801C166.56 19.381 166.446 19.063 166.218 18.847C165.99 18.619 165.618 18.409 165.102 18.217L162.78 17.299C161.88 16.951 161.19 16.543 160.71 16.075C160.23 15.607 159.99 14.959 159.99 14.131C159.99 13.159 160.368 12.391 161.124 11.827C161.892 11.239 162.93 10.945 164.238 10.945C165.558 10.945 166.572 11.251 167.28 11.863C168 12.463 168.414 13.309 168.522 14.401H166.416Z" fill="white"/>
</svg>
