<svg width="182" height="34" viewBox="0 0 182 34" fill="none" xmlns="http://www.w3.org/2000/svg">
<path d="M19.3225 4.48828C19.8967 5.29743 20.3546 6.18314 20.6829 7.11955C21.0936 7.173 21.5012 7.24805 21.904 7.34437L22.112 7.39225L22.1599 7.40682C22.2451 7.42764 22.3304 7.45054 22.4136 7.47552L22.657 7.5463L22.865 7.61499C22.9358 7.63789 23.0065 7.66079 23.073 7.68785C23.1396 7.71491 23.2041 7.73365 23.2811 7.75863C23.358 7.78361 23.4121 7.80859 23.4891 7.83357C23.8724 7.98172 24.2474 8.15059 24.6124 8.33942C24.6997 8.38314 24.7871 8.42894 24.8724 8.47681C25.018 8.55384 25.1594 8.6371 25.3009 8.72037L25.4819 8.8307L25.5672 8.88275L25.7544 9.00765C25.8168 9.04512 25.875 9.08675 25.9353 9.12839C26.6316 9.6056 27.2758 10.1547 27.8574 10.7667C27.9261 10.8354 27.9926 10.9062 28.0654 10.9749C28.1382 11.0435 28.1715 11.0935 28.2235 11.1518C28.3088 11.2496 28.392 11.3475 28.4731 11.4474C28.5231 11.5057 28.5709 11.5661 28.6167 11.6264C28.6624 11.6868 28.7456 11.7909 28.806 11.8721C28.8663 11.9532 28.9224 12.0282 28.9765 12.1073C29.0306 12.1864 29.0889 12.2655 29.1429 12.3467C29.2511 12.507 29.351 12.6694 29.457 12.8359C29.509 12.9192 29.559 13.0024 29.6047 13.0878C29.6505 13.1731 29.7025 13.2564 29.7483 13.3417C29.8481 13.527 29.9438 13.7144 30.0332 13.9038C30.0707 13.9767 30.1061 14.0537 30.1393 14.1286C30.1726 14.2036 30.2059 14.2806 30.2392 14.3555C30.2725 14.4305 30.2974 14.4888 30.3245 14.5637L30.3994 14.7511C30.4597 14.9093 30.5179 15.0696 30.572 15.2319C30.6053 15.3256 30.6365 15.4193 30.6656 15.515C30.6647 15.5191 30.6647 15.5234 30.6656 15.5275C30.6927 15.6191 30.7197 15.7086 30.7447 15.8002C30.8195 16.0604 30.8861 16.3248 30.9423 16.5913C30.9568 16.6579 30.9693 16.7266 30.9839 16.7994C30.9984 16.8723 30.9984 16.8765 31.0047 16.916C31.0109 16.9556 31.0255 17.0201 31.0317 17.0721C31.038 17.1242 31.0567 17.2199 31.0671 17.2949C31.0775 17.3698 31.0921 17.4448 31.1004 17.5218C31.1004 17.5551 31.1004 17.5884 31.1149 17.6217C31.1295 17.655 31.1274 17.7341 31.1337 17.7903C31.1399 17.8465 31.1461 17.8986 31.1482 17.9506C31.1503 18.0027 31.1649 18.1151 31.1711 18.1963C31.1773 18.2774 31.1836 18.3899 31.1877 18.4898C31.1919 18.5897 31.1877 18.698 31.2002 18.7979C31.2127 18.8978 31.2002 19.006 31.2002 19.1101C31.1964 22.315 29.9225 25.3875 27.658 27.6537C25.3935 29.9199 22.3232 31.1947 19.1207 31.1985H18.8108C18.7068 31.1985 18.6028 31.1985 18.5009 31.1861C18.3989 31.1736 18.2928 31.1861 18.1972 31.1673H18.1847L17.881 31.1299L17.6376 31.1049L17.4878 31.0841C17.4171 31.0841 17.3443 31.0653 17.2798 31.0528H17.2569L17.0489 31.0174L16.87 30.9862L16.6079 30.9342C16.1389 30.8351 15.6763 30.7079 15.2225 30.5532L14.9584 30.4595C14.8731 30.4283 14.7878 30.3971 14.7004 30.3617L14.3572 30.2181C14.2844 30.1889 14.2116 30.1577 14.1492 30.1244L13.9162 30.0161C13.8163 29.9683 13.7082 29.9204 13.6208 29.8683L13.3795 29.7434L13.0966 29.5873C13.0134 29.5394 12.9302 29.4916 12.847 29.4395C12.6931 29.3479 12.5433 29.2501 12.3956 29.1502C12.3837 29.1437 12.3726 29.1361 12.3623 29.1273L12.1231 28.9628C12.0441 28.9066 11.965 28.8504 11.888 28.79C11.8111 28.7297 11.7341 28.6755 11.6571 28.6131C11.5802 28.5506 11.5344 28.5173 11.4741 28.4653C11.3763 28.3862 11.2786 28.305 11.1829 28.2217L10.9957 28.0531C10.9249 27.9886 10.8521 27.924 10.7876 27.8553L10.5796 27.6472C10.4465 27.5139 10.3154 27.3765 10.1886 27.2308C10.122 27.1559 10.0533 27.0809 9.98054 27.0039C9.85365 26.8582 9.73092 26.7125 9.61443 26.5605C9.54162 26.4689 9.4709 26.3773 9.40641 26.2816C9.36273 26.2254 9.32321 26.1712 9.28576 26.115L9.24416 26.0588C9.19632 25.9922 9.14639 25.9214 9.10063 25.8507C9.05487 25.7799 9.0091 25.7133 8.96334 25.6425C8.91758 25.5717 8.83645 25.4468 8.77613 25.3448C8.67836 25.1845 8.58475 25.0201 8.49531 24.8535C8.32057 24.535 8.1604 24.204 8.01479 23.8668L7.91702 23.6316C7.91612 23.6275 7.91612 23.6232 7.91702 23.6191C7.89206 23.5587 7.86918 23.5004 7.8463 23.4421L7.78389 23.2777C7.76309 23.2215 7.74229 23.1632 7.72357 23.1049C7.70484 23.0466 7.66532 22.9425 7.63828 22.8572C7.61124 22.7718 7.5842 22.6906 7.55923 22.6074C7.55736 22.5992 7.55736 22.5906 7.55923 22.5824C7.53219 22.5012 7.50931 22.4179 7.48643 22.3368C7.46355 22.2556 7.43859 22.1598 7.4157 22.0703C7.34914 21.8038 7.28881 21.5353 7.24097 21.2626C7.22433 21.171 7.20769 21.0815 7.19313 20.9878C7.17857 20.8941 7.16608 20.8067 7.1536 20.713C6.21012 20.3896 5.31718 19.934 4.5014 19.3599C4.55156 22.2305 5.4453 25.0227 7.07109 27.3882C8.69688 29.7537 10.9827 31.5877 13.6434 32.6614C16.3041 33.735 19.2219 34.0009 22.0326 33.4256C24.8433 32.8504 27.4225 31.4597 29.4484 29.4268C31.4743 27.394 32.8572 24.8092 33.4245 21.9949C33.9918 19.1806 33.7184 16.2614 32.6384 13.6016C31.5584 10.9418 29.7197 8.65917 27.3517 7.03848C24.9836 5.41779 22.1911 4.53083 19.3225 4.48828ZM7.0808 17.9589C7.0912 17.8694 7.09952 17.7799 7.10992 17.6904C7.12032 17.6009 7.1328 17.5114 7.1432 17.424C7.1536 17.3365 7.16817 17.247 7.18481 17.1596C7.20145 17.0721 7.21393 16.9847 7.22849 16.8973C7.29505 16.5476 7.37202 16.2041 7.46771 15.8564C7.49059 15.7732 7.51555 15.6878 7.54051 15.6045L7.60292 15.4089C7.6093 15.3806 7.61764 15.3527 7.62788 15.3256L7.70277 15.1174C7.72357 15.055 7.74645 14.9904 7.77141 14.928L7.81509 14.8093C7.86918 14.6706 7.92534 14.5318 7.98359 14.393C8.05223 14.2306 8.12296 14.0703 8.1916 13.9121C8.22696 13.8351 8.26441 13.7622 8.30185 13.6873C8.3232 13.6387 8.34752 13.5914 8.37466 13.5457C8.401 13.4902 8.43013 13.434 8.46202 13.3771L8.49531 13.3188C8.53483 13.2439 8.57643 13.171 8.62011 13.0961L8.73452 12.8879L8.84061 12.7172L8.94046 12.5611C9.07983 12.3529 9.22544 12.1448 9.37729 11.9366C9.4293 11.8658 9.4813 11.7992 9.5333 11.7284C9.58531 11.6576 9.61235 11.6243 9.65395 11.5744C9.7746 11.4224 9.89941 11.2725 10.0305 11.1268C10.0825 11.0644 10.1386 11.0061 10.1906 10.9457C10.305 10.8187 10.4236 10.6959 10.5443 10.5752L10.694 10.4294C10.771 10.3545 10.848 10.2796 10.927 10.2088L11.1038 10.0506C11.2078 9.95482 11.3118 9.86323 11.4262 9.77371C11.4803 9.72792 11.5365 9.68212 11.5947 9.6384C11.8381 9.4448 12.0877 9.25953 12.3457 9.08675C12.4185 9.03471 12.4934 8.98683 12.5703 8.93895L12.7471 8.82446L12.8886 8.74327C12.9552 8.70164 13.0217 8.66209 13.0966 8.62462C13.1715 8.58714 13.2672 8.52886 13.3525 8.48306C13.4378 8.43726 13.5251 8.3873 13.6104 8.34567L13.8725 8.21452H13.8871C14.041 8.13958 14.1991 8.0688 14.3593 8.00635C14.4778 7.95639 14.5964 7.90643 14.7171 7.86063C14.7961 7.82941 14.8751 7.79818 14.9563 7.77112L15.1643 7.6941L15.2745 7.65663L15.5138 7.5796L15.8008 7.47552L16.0879 7.39641L16.3437 7.33396L16.5372 7.29233L16.6246 7.27151L16.7702 7.24237L17.0302 7.19449L17.2153 7.16534C17.2819 7.15285 17.3464 7.14453 17.4233 7.1362C17.5918 7.11122 17.7624 7.0904 17.933 7.07375C17.5092 6.21089 16.9351 5.43053 16.2376 4.76931C13.4059 5.33902 10.8062 6.73518 8.76641 8.78168C6.72661 10.8282 5.33809 13.4334 4.77598 16.2686C5.43908 16.9632 6.21928 17.5354 7.0808 17.9589Z" fill="#D8195E"/>
<path d="M21.1062 8.69526C20.4467 8.56801 19.7767 8.50388 19.1051 8.50375C18.897 8.50375 18.689 8.50375 18.481 8.52456C18.6714 9.21906 18.7672 9.93608 18.766 10.6562C18.7675 11.9043 18.4815 13.1359 17.9301 14.2554C17.3788 15.3748 16.5769 16.352 15.5869 17.111C14.5969 17.87 13.4453 18.3903 12.2217 18.6316C10.9981 18.8729 9.73535 18.8286 8.53162 18.5021C8.53162 18.7103 8.51498 18.9018 8.51498 19.1038C8.51432 19.7857 8.57981 20.4662 8.71052 21.1355C10.2461 21.4174 11.8248 21.3581 13.3349 20.9617C14.845 20.5654 16.2497 19.8417 17.4493 18.8419C18.649 17.8422 19.6145 16.5907 20.2773 15.1762C20.9401 13.7616 21.2842 12.2186 21.2851 10.6562C21.2849 9.99849 21.2251 9.34214 21.1062 8.69526ZM10.6388 9.74558e-06C8.54304 0.00147266 6.49431 0.621931 4.74939 1.78363C3.00446 2.94532 1.64097 4.59657 0.829797 6.53043C0.0186205 8.46429 -0.204156 10.5947 0.189388 12.6548C0.582932 14.7148 1.57529 16.6127 3.04209 18.1108C3.11072 16.9633 3.30179 15.8265 3.61205 14.7197C2.71472 13.1728 2.35297 11.3726 2.583 9.59887C2.81303 7.82509 3.62196 6.17697 4.88413 4.91054C6.14631 3.64411 7.79107 2.83026 9.56292 2.5954C11.3348 2.36054 13.1345 2.71783 14.6827 3.61176C15.7893 3.29605 16.9268 3.10131 18.0754 3.03096C16.0891 1.08461 13.4188 -0.00375715 10.6388 9.74558e-06Z" fill="#D8195E"/>
<path d="M48.0869 11.1788H50.7509L54.5849 22.8608H52.3349L51.5249 20.3408H47.1869L46.3589 22.8608H44.1089L48.0869 11.1788ZM47.7269 18.7388H51.0029L49.3829 13.7168L47.7269 18.7388ZM60.4345 11.1788C62.2105 11.1788 63.6445 11.7068 64.7365 12.7628C65.8405 13.8188 66.3925 15.2408 66.3925 17.0288C66.3925 18.8048 65.8405 20.2208 64.7365 21.2768C63.6445 22.3328 62.2105 22.8608 60.4345 22.8608H56.6365V11.1788H60.4345ZM58.7785 20.9348H60.4345C61.5385 20.9348 62.4325 20.5628 63.1165 19.8188C63.7645 19.0988 64.0885 18.1688 64.0885 17.0288C64.0885 15.8648 63.7645 14.9228 63.1165 14.2028C62.4445 13.4708 61.5505 13.1048 60.4345 13.1048H58.7785V20.9348ZM71.6943 11.1788H74.3583L78.1923 22.8608H75.9423L75.1323 20.3408H70.7943L69.9663 22.8608H67.7163L71.6943 11.1788ZM71.3343 18.7388H74.6103L72.9903 13.7168L71.3343 18.7388ZM88.9379 14.7608C88.9379 15.5888 88.7039 16.2968 88.2359 16.8848C87.7679 17.4728 87.0959 17.8808 86.2199 18.1088L89.3519 22.8608H86.5799L84.0059 18.3068H82.3859V22.8608H80.2619V11.1788H84.5819C85.9619 11.1788 87.0359 11.5088 87.8039 12.1688C88.5599 12.8048 88.9379 13.6688 88.9379 14.7608ZM84.3839 16.8848C85.1639 16.8848 85.7519 16.7108 86.1479 16.3628C86.5439 16.0028 86.7419 15.5348 86.7419 14.9588C86.7419 14.3708 86.5619 13.9028 86.2019 13.5548C85.8419 13.1948 85.3019 13.0148 84.5819 13.0148H82.3859V16.8848H84.3839ZM94.5459 11.1788H97.2099L101.044 22.8608H98.7939L97.9839 20.3408H93.6459L92.8179 22.8608H90.5679L94.5459 11.1788ZM94.1859 18.7388H97.4619L95.8419 13.7168L94.1859 18.7388ZM113.804 14.4008C113.612 13.3808 112.892 12.8708 111.644 12.8708C111.032 12.8708 110.552 12.9968 110.204 13.2488C109.868 13.4888 109.7 13.7828 109.7 14.1308C109.7 14.4788 109.808 14.7548 110.024 14.9588C110.252 15.1508 110.6 15.3308 111.068 15.4988L113.606 16.4888C114.47 16.8248 115.136 17.2508 115.604 17.7668C116.072 18.2708 116.306 18.9068 116.306 19.6748C116.306 20.7308 115.91 21.5708 115.118 22.1948C114.326 22.8068 113.198 23.1128 111.734 23.1128C110.438 23.1128 109.388 22.7948 108.584 22.1588C107.684 21.4628 107.21 20.4788 107.162 19.2068H109.268C109.268 20.1668 109.766 20.7728 110.762 21.0248C111.062 21.1088 111.458 21.1508 111.95 21.1508C112.442 21.1508 112.898 21.0308 113.318 20.7908C113.738 20.5388 113.948 20.2088 113.948 19.8008C113.948 19.3808 113.834 19.0628 113.606 18.8468C113.378 18.6188 113.006 18.4088 112.49 18.2168L110.168 17.2988C109.268 16.9508 108.578 16.5428 108.098 16.0748C107.618 15.6068 107.378 14.9588 107.378 14.1308C107.378 13.1588 107.756 12.3908 108.512 11.8268C109.28 11.2388 110.318 10.9448 111.626 10.9448C112.946 10.9448 113.96 11.2508 114.668 11.8628C115.388 12.4628 115.802 13.3088 115.91 14.4008H113.804ZM117.579 11.1788H126.939V13.0148H123.321V22.8608H121.197V13.0148H117.579V11.1788ZM130.669 11.1788V18.4508C130.669 19.4108 130.909 20.1008 131.389 20.5208C131.881 20.9408 132.511 21.1508 133.279 21.1508C134.047 21.1508 134.671 20.9408 135.151 20.5208C135.643 20.1008 135.889 19.4108 135.889 18.4508V11.1788H138.013V18.4508C138.013 19.9388 137.599 21.0908 136.771 21.9068C135.943 22.7108 134.779 23.1128 133.279 23.1128C131.779 23.1128 130.615 22.7108 129.787 21.9068C128.959 21.0908 128.545 19.9388 128.545 18.4508V11.1788H130.669ZM144.933 11.1788C146.709 11.1788 148.143 11.7068 149.235 12.7628C150.339 13.8188 150.891 15.2408 150.891 17.0288C150.891 18.8048 150.339 20.2208 149.235 21.2768C148.143 22.3328 146.709 22.8608 144.933 22.8608H141.135V11.1788H144.933ZM143.277 20.9348H144.933C146.037 20.9348 146.931 20.5628 147.615 19.8188C148.263 19.0988 148.587 18.1688 148.587 17.0288C148.587 15.8648 148.263 14.9228 147.615 14.2028C146.943 13.4708 146.049 13.1048 144.933 13.1048H143.277V20.9348ZM153.492 11.1788H155.616V22.8608H153.492V11.1788ZM163.441 10.9448C164.221 10.9448 164.935 11.0768 165.583 11.3408C166.231 11.5928 166.789 11.9708 167.257 12.4748C168.241 13.5308 168.733 15.0428 168.733 17.0108C168.733 18.9908 168.241 20.5208 167.257 21.6008C166.321 22.6088 165.043 23.1128 163.423 23.1128C161.815 23.1128 160.543 22.5968 159.607 21.5648C158.623 20.4968 158.131 18.9788 158.131 17.0108C158.131 15.0188 158.623 13.4948 159.607 12.4388C160.531 11.4428 161.809 10.9448 163.441 10.9448ZM166.537 17.0468C166.537 15.7028 166.255 14.6708 165.691 13.9508C165.139 13.2188 164.389 12.8528 163.441 12.8528C162.493 12.8528 161.737 13.2188 161.173 13.9508C160.609 14.6708 160.327 15.7028 160.327 17.0468C160.327 18.3788 160.609 19.4048 161.173 20.1248C161.737 20.8328 162.493 21.1868 163.441 21.1868C164.389 21.1868 165.139 20.8328 165.691 20.1248C166.255 19.4048 166.537 18.3788 166.537 17.0468ZM177.384 14.4008C177.192 13.3808 176.472 12.8708 175.224 12.8708C174.612 12.8708 174.132 12.9968 173.784 13.2488C173.448 13.4888 173.28 13.7828 173.28 14.1308C173.28 14.4788 173.388 14.7548 173.604 14.9588C173.832 15.1508 174.18 15.3308 174.648 15.4988L177.186 16.4888C178.05 16.8248 178.716 17.2508 179.184 17.7668C179.652 18.2708 179.886 18.9068 179.886 19.6748C179.886 20.7308 179.49 21.5708 178.698 22.1948C177.906 22.8068 176.778 23.1128 175.314 23.1128C174.018 23.1128 172.968 22.7948 172.164 22.1588C171.264 21.4628 170.79 20.4788 170.742 19.2068H172.848C172.848 20.1668 173.346 20.7728 174.342 21.0248C174.642 21.1088 175.038 21.1508 175.53 21.1508C176.022 21.1508 176.478 21.0308 176.898 20.7908C177.318 20.5388 177.528 20.2088 177.528 19.8008C177.528 19.3808 177.414 19.0628 177.186 18.8468C176.958 18.6188 176.586 18.4088 176.07 18.2168L173.748 17.2988C172.848 16.9508 172.158 16.5428 171.678 16.0748C171.198 15.6068 170.958 14.9588 170.958 14.1308C170.958 13.1588 171.336 12.3908 172.092 11.8268C172.86 11.2388 173.898 10.9448 175.206 10.9448C176.526 10.9448 177.54 11.2508 178.248 11.8628C178.968 12.4628 179.382 13.3088 179.49 14.4008H177.384Z" fill="white"/>
</svg>
