<svg width="90" height="90" viewBox="0 0 90 90" fill="none" xmlns="http://www.w3.org/2000/svg">
<g clip-path="url(#clip0_2:1839)">
<path d="M1.64516 71.3604C1.15973 71.3676 0.975312 71.3842 0.83871 71.4044C0.702274 71.4244 0.613816 71.4482 0.54235 71.4732C0.392254 71.5325 0.294633 71.566 0.170025 71.749C0.0684066 71.9336 0.0680735 72.0622 0.0732377 72.2493C0.0779022 72.3338 0.0900631 72.4319 0.114385 72.5542C0.138707 72.6764 0.175356 72.8232 0.236494 73.0141C0.308798 73.2363 0.389316 73.4556 0.47788 73.6718C1.03928 74.8657 1.74845 75.9912 2.56723 76.9766C3.38601 77.9619 4.3144 78.8074 5.31377 79.5805C6.31313 80.3538 7.38346 81.0548 8.53391 81.6918C9.68437 82.3289 10.9153 82.9023 12.231 83.422C13.5843 83.9554 14.9659 84.4139 16.3696 84.7954C20.8997 85.993 25.5412 86.7235 32.4032 87.0973C39.2649 87.4711 48.3471 87.4883 55.8668 87.0591C63.3864 86.63 69.3434 85.7551 75.1865 84.3662C76.9493 83.902 78.6757 83.2943 80.19 82.6196C81.7039 81.9447 83.0056 81.2028 84.1673 80.38C85.3289 79.5572 86.3504 78.6536 87.2751 77.5566C88.1998 76.4597 89.0273 75.1694 89.6825 73.7987C89.9594 73.1682 90.2037 72.5139 89.7401 71.9063C89.6914 71.8492 89.637 71.7973 89.5777 71.7514C89.5028 71.6937 89.4224 71.6435 89.3376 71.6014C89.2397 71.5513 89.1209 71.5008 88.9385 71.4592C88.7562 71.4174 88.5104 71.3846 88.264 71.3721H3.70169C2.9164 71.3562 2.13043 71.3534 1.64516 71.3604ZM87.2861 21.7612C87.7927 21.7368 88.2996 21.6889 88.6211 21.6406C88.9423 21.5924 89.0783 21.5441 89.1889 21.4978C89.3002 21.4515 89.3861 21.4073 89.4589 21.3595C89.8487 21.0798 89.8894 20.8256 89.9477 20.5507C89.9643 20.4491 89.9747 20.3335 89.9757 20.1962C89.976 20.0313 89.9655 19.8664 89.9444 19.7028C89.9202 19.5052 89.8806 19.269 89.8123 18.9706C89.7323 18.6293 89.6401 18.291 89.5357 17.9563C89.3148 17.248 89.0021 16.5708 88.4826 15.7402C87.9626 14.9097 87.2361 13.9259 86.2196 12.8296C85.2031 11.7332 83.8972 10.5245 82.4815 9.42033C81.0524 8.30752 79.5353 7.31266 77.945 6.44557C75.1257 4.94278 72.1359 3.77549 68.2218 2.74348C64.3076 1.71147 59.4687 0.81456 54.0371 0.358109C48.6055 -0.0983423 42.581 -0.114501 37.088 0.321126C31.595 0.75692 26.6337 1.6445 22.6086 2.67818C18.5837 3.71186 15.495 4.8913 12.5772 6.41441C11.0922 7.18438 9.64589 8.03065 8.37582 8.86342C7.10559 9.69636 6.0116 10.516 5.05006 11.3218C4.08868 12.1275 3.25974 12.9193 2.52475 13.8741C1.78976 14.8286 1.14823 15.9462 0.654464 17.1242C0.505146 17.4583 0.374016 17.8003 0.261649 18.1485C0.161196 18.4637 0.0975596 18.7351 0.0570787 18.9748C0.0205398 19.1842 0.00142773 19.3963 -6.10529e-05 19.6088C-0.00119903 19.7763 0.0135827 19.9435 0.0440848 20.1081C0.122048 20.4783 0.243491 20.7966 0.614982 21.1351C0.716434 21.2243 0.833213 21.307 0.971148 21.3832C1.10908 21.4593 1.26817 21.5288 1.45858 21.5894C1.64899 21.6502 1.87039 21.7022 2.14026 21.7382C2.41014 21.7743 2.72849 21.7936 3.04634 21.7935L87.2861 21.7612Z" fill="#DB933A"/>
<path d="M29.5637 40.4072C30.6861 39.4246 30.9572 38.4421 30.9755 37.4351L30.9828 27.4626C30.9762 27.0623 30.8777 26.6602 30.4354 26.2599C30.3496 26.1849 30.2575 26.1174 30.1601 26.0583C30.0463 25.989 29.927 25.9292 29.8034 25.8795C29.3564 25.6995 28.8482 25.6278 28.3301 25.6648C28.1602 25.6774 27.9915 25.7026 27.8253 25.7404C27.6664 25.7769 27.5191 25.8237 27.3859 25.8772C27.2526 25.9308 27.1332 25.9915 27.0279 26.0555C26.9226 26.1196 26.8313 26.1872 26.7513 26.2569C26.3117 26.6527 26.2071 27.0505 26.1991 27.4598L26.2168 36.7562C26.2016 37.1109 26.152 37.4794 25.6455 37.8479C25.0853 38.1887 24.4059 38.2832 23.6668 37.8439C23.181 37.4909 23.1091 37.1272 23.0957 36.7479L23.0862 27.5006C23.0787 27.0928 22.9781 26.6838 22.5265 26.2757C22.439 26.1996 22.3451 26.131 22.246 26.0708C22.1301 26.0005 22.0087 25.9398 21.883 25.8894C21.4305 25.7076 20.9149 25.6352 20.3903 25.674C20.2192 25.6869 20.0492 25.7128 19.8819 25.7514C19.7223 25.7886 19.5746 25.8361 19.441 25.8905C19.3166 25.9408 19.1966 26.0012 19.0823 26.0713C18.9844 26.1312 18.8918 26.1995 18.8056 26.2754C18.3655 26.6772 18.2635 27.0798 18.2592 27.4954L18.2469 37.4329C18.247 37.6518 18.2652 37.8704 18.3015 38.0863C18.4406 38.8649 18.7698 39.6407 19.6614 40.4123C19.8885 40.6041 20.1314 40.7764 20.3875 40.9273C20.6903 41.1055 21.007 41.259 21.3346 41.386C21.7167 41.5347 22.1097 41.6538 22.51 41.7424C23.3644 41.9358 24.3668 42.0132 25.3235 41.9424C25.7853 41.9093 26.244 41.8426 26.696 41.7427C27.0991 41.6537 27.4948 41.5341 27.8796 41.3849C28.2095 41.2571 28.5285 41.1029 28.8335 40.9236C29.091 40.7723 29.3352 40.5995 29.5637 40.4072ZM34.8079 45.4511C34.6774 45.3374 34.5375 45.2351 34.3896 45.1453C34.2301 45.0478 34.0497 44.9557 33.848 44.8742C33.6462 44.7928 33.4235 44.7215 33.183 44.666C32.7032 44.554 32.1461 44.5097 31.6134 44.5505C31.3559 44.5697 31.1003 44.6083 30.8487 44.666C30.6082 44.7215 30.3855 44.7926 30.1837 44.8742C29.9961 44.9496 29.8149 45.0403 29.6421 45.1453C29.4827 45.2426 29.3448 45.3452 29.2238 45.4511C28.5588 46.0527 28.4016 46.6567 28.3907 47.2788V66.0837C28.3907 66.2216 28.4011 66.3597 28.422 66.4934C28.505 66.9763 28.6926 67.4494 29.2287 67.9318C29.3499 68.0385 29.488 68.1416 29.6476 68.2395C29.8203 68.3451 30.0015 68.4362 30.1892 68.5119C30.8656 68.7851 31.6342 68.8937 32.4168 68.8364C32.6817 68.8164 32.9391 68.7764 33.179 68.7208C33.4188 68.6652 33.6411 68.5939 33.8426 68.5119C34.0442 68.4301 34.2248 68.3375 34.3842 68.2395C34.5437 68.1416 34.6819 68.0385 34.8032 67.9318C35.4722 67.3238 35.6301 66.7129 35.641 66.0837V47.2788C35.6305 46.6704 35.4807 46.0595 34.8079 45.4511ZM25.1056 63.3082L18.8566 56.4716L25.1623 49.6578C26.0427 48.46 26.1809 47.2633 25.2929 46.0292C25.1318 45.8191 24.9475 45.6281 24.7433 45.4596C24.2903 45.0828 23.7316 44.8098 23.19 44.6695C22.9127 44.5967 22.6284 44.554 22.3419 44.5421C22.0756 44.531 21.8089 44.5486 21.5463 44.5945C21.3026 44.6373 21.0641 44.7059 20.8348 44.7991C20.6155 44.8886 20.406 45.0004 20.2094 45.1326C20.0147 45.2635 19.8333 45.4132 19.668 45.5797C16.9436 48.5245 14.2196 51.4691 11.4949 54.4137L11.5144 47.2509C11.5054 46.6534 11.3603 46.052 10.6934 45.4548C10.5641 45.3433 10.4253 45.2431 10.2788 45.1554C10.1207 45.0603 9.94162 44.9705 9.74139 44.8912C9.54115 44.8119 9.31975 44.7431 9.08053 44.6898C8.60226 44.5822 8.04702 44.5424 7.51544 44.5872C7.25787 44.6083 7.00226 44.6487 6.7508 44.7083C6.52351 44.762 6.30077 44.8333 6.08461 44.9217C5.88254 45.005 5.7013 45.0986 5.54137 45.1972C5.38145 45.2959 5.24285 45.4 5.1214 45.5069C4.45539 46.1126 4.29313 46.7214 4.27997 47.3466L4.29729 66.15C4.30646 66.7399 4.44706 67.3421 5.08942 67.9293C5.21331 68.0384 5.34628 68.1366 5.4869 68.223C5.63783 68.3163 5.80858 68.4038 5.99982 68.4817C6.19123 68.5597 6.4033 68.6282 6.63485 68.6821C7.33935 68.8456 8.15347 68.8649 8.97008 68.6836C9.20679 68.631 9.43909 68.5602 9.66492 68.4719C9.87649 68.3886 10.0664 68.2945 10.2333 68.1955C10.3876 68.1046 10.534 68.001 10.6709 67.8857C11.3486 67.2956 11.5217 66.6994 11.5357 66.0942L11.4842 58.7207L19.6112 67.6698C20.5734 68.6482 21.577 68.8749 22.5708 68.7699C23.0398 68.7148 23.5562 68.557 24.0521 68.2762C24.2957 68.1383 24.5252 67.9768 24.7371 67.7939C25.9327 66.7232 26.2601 65.444 25.7703 64.2737C25.6334 63.9571 25.4185 63.626 25.1056 63.3082ZM4.89701 41.4245C4.96681 41.4835 5.04544 41.5393 5.13873 41.5924C5.23218 41.6456 5.34063 41.6961 5.47374 41.7447C5.60684 41.7932 5.76427 41.8398 6.01815 41.8746C6.27186 41.9093 6.62219 41.9325 6.97136 41.9325H11.8244C12.1537 41.9325 12.4831 41.9106 12.7908 41.8692C13.4298 41.7737 13.9322 41.6521 14.488 41.3451C14.776 41.1826 15.0872 40.9569 15.3709 40.7019C16.0636 40.0637 16.4364 39.4236 16.6641 38.7848C16.7324 38.5904 16.7894 38.3846 16.8327 38.1652C16.8784 37.9324 16.9063 37.6963 16.9162 37.4592C16.927 37.2059 16.9193 36.933 16.883 36.6423C16.8467 36.3516 16.7819 36.0432 16.6968 35.7735C16.6191 35.5224 16.5111 35.2818 16.3751 35.0569C16.1137 34.673 15.8233 34.3074 15.5875 34.0557C15.3517 33.8038 15.1706 33.6659 14.9787 33.5409C14.786 33.4149 14.5838 33.3039 14.374 33.2091C14.6704 33.0103 14.9526 32.7893 15.1687 32.5907C15.5713 32.2165 15.782 31.9009 15.9574 31.5778C16.1015 31.3059 16.2034 31.0137 16.2596 30.7111C16.3603 30.1195 16.3403 29.2599 16.0827 28.5035C15.9606 28.143 15.789 27.8073 15.5308 27.4656C15.3808 27.2635 15.2061 27.0809 15.0107 26.9222C14.7717 26.726 14.4453 26.5087 14.1032 26.3232C13.907 26.2201 13.7024 26.1338 13.4918 26.065C13.2171 25.9742 12.9362 25.9033 12.6513 25.8529C12.277 25.7865 11.8993 25.741 11.5199 25.7164H6.9537C6.65651 25.7164 6.35898 25.7408 6.10177 25.7872C5.84473 25.8337 5.628 25.9012 5.44075 25.9835C5.25351 26.0658 5.09575 26.1627 4.95948 26.2749C4.82506 26.3847 4.70817 26.5144 4.61281 26.6595C4.40108 26.9737 4.30379 27.3895 4.30346 27.8051V39.8809C4.30346 39.999 4.30779 40.1171 4.31912 40.2271C4.37026 40.6297 4.45838 41.038 4.89701 41.4245ZM8.97042 28.9464L10.1545 28.9609C10.579 28.9759 10.9771 29.0602 11.3628 29.4873C11.4404 29.5785 11.5068 29.6786 11.5607 29.7855C11.8665 30.4539 11.7806 31.0764 11.3566 31.594C10.9491 32.0261 10.5455 32.0763 10.156 32.0821L8.97008 32.0669V28.9464H8.97042ZM8.97042 35.0735L10.3906 35.071C10.8625 35.1087 11.3028 35.2055 11.7248 35.7202C11.8029 35.8222 11.8714 35.9373 11.9267 36.0651C11.9822 36.193 12.0248 36.3338 12.0501 36.483C12.1274 36.9515 12.037 37.4214 11.7996 37.8139C11.7281 37.9318 11.6426 38.0406 11.545 38.1379C11.0596 38.5974 10.5787 38.6478 10.1135 38.6225L8.97042 38.6124V35.0735ZM65.582 41.9323H71.9796C72.3298 41.924 72.6801 41.8468 73.0338 41.4279C73.5062 40.7865 73.5899 40.0388 73.3448 39.2157C73.3045 39.0958 73.2567 38.9875 73.2045 38.8911C73.1561 38.801 73.0996 38.7154 73.0359 38.6353C72.6891 38.219 72.3399 38.1306 71.9791 38.1198L68.3705 38.0964L68.3821 35.574L71.2415 35.5886C71.6518 35.5786 72.0744 35.5075 72.495 34.9904C72.9576 34.3334 73.0528 33.5467 72.6801 32.7028C72.6293 32.599 72.5686 32.5003 72.4989 32.4081C72.0896 31.901 71.6779 31.8144 71.2453 31.8022L68.345 31.8026V29.5621L71.6501 29.5701C72.0191 29.5556 72.3984 29.4687 72.7749 29.1023C72.853 29.0237 72.9272 28.9334 72.9951 28.8298C73.371 28.2243 73.4659 27.5024 73.1734 26.735C73.125 26.618 73.0649 26.5062 72.9941 26.4013C72.567 25.8157 72.1277 25.7316 71.6683 25.7159H65.5816C65.2495 25.7158 64.9026 25.7798 64.5743 25.9437C64.4191 26.0211 64.2746 26.1184 64.1445 26.2332C63.6984 26.6337 63.5 27.1396 63.4986 27.6204L63.5058 39.9082C63.5058 40.0608 63.5253 40.2134 63.5666 40.3689C63.6076 40.5243 63.67 40.6827 63.7502 40.8308C63.8301 40.9792 63.9274 41.1173 64.0352 41.2391C64.5285 41.7765 65.0542 41.9248 65.582 41.9323ZM87.8638 38.9835L84.7013 34.9366C84.7081 34.9386 84.7152 34.9384 84.7599 34.9221C84.9152 34.875 85.3365 34.6409 85.6651 34.3289C86.8612 33.1431 87.0528 31.955 87.1498 30.7697C87.2276 29.7574 87.0135 28.7687 86.2254 27.7082C85.9918 27.4024 85.7262 27.1225 85.4331 26.8732C84.5773 26.1427 83.5072 25.7136 82.5751 25.7193H76.5613C76.1315 25.7318 75.6965 25.7879 75.278 26.2908C75.2197 26.3656 75.1626 26.4533 75.1066 26.5597C75.0503 26.6665 74.995 26.7921 74.9502 26.964C74.9056 27.1361 74.8707 27.3548 74.8559 27.5742V40.2517C74.8559 40.3387 74.8624 40.4258 74.8754 40.5098C74.9259 40.8092 75.042 41.1062 75.371 41.4025C75.4455 41.4683 75.5311 41.5323 75.6297 41.5928C75.728 41.6533 75.8393 41.7099 75.9636 41.7604C76.395 41.934 76.8795 41.9984 77.3776 41.9634C77.5473 41.9511 77.7158 41.9261 77.8818 41.8886C78.0331 41.8546 78.1814 41.8089 78.3256 41.7519C78.4511 41.7024 78.5725 41.6428 78.6884 41.5738C78.7867 41.5152 78.8798 41.4485 78.967 41.3744C79.4001 40.9932 79.5084 40.6086 79.5155 40.2171L79.5234 35.6911L83.7027 41.2504C83.8328 41.4324 84.0642 41.6433 84.2766 41.7525C85.0806 42.1424 85.869 42.0016 86.7689 41.502C86.9135 41.4164 87.0519 41.3211 87.1834 41.2166C88.0264 40.5118 88.3742 39.7207 87.8638 38.9835ZM81.9824 32.1387C81.5776 32.5805 81.1784 32.677 80.7876 32.7136C80.7076 32.7183 80.7251 32.718 80.4401 32.7298C80.2367 32.738 79.8834 32.752 79.5294 32.7655V28.9934C79.8869 28.9962 80.2449 28.9994 80.4518 29.0016C80.659 29.0037 80.7153 29.0051 80.7508 29.0057C80.7859 29.0066 80.7999 29.0069 80.8143 29.0076C81.2229 29.0319 81.6076 29.1277 81.9875 29.525C82.0675 29.6125 82.1377 29.7084 82.1971 29.811C82.6382 30.6703 82.514 31.4737 81.9824 32.1387ZM87.079 55.4296C87.0351 55.2784 86.9778 55.1314 86.9079 54.9903C86.8532 54.8808 86.7876 54.7771 86.712 54.6808C86.5437 54.4714 86.387 54.3579 86.2027 54.2585C86.0856 54.1973 85.963 54.1475 85.8364 54.1097C85.6941 54.0664 85.5295 54.0296 85.3165 54.0036C85.0725 53.9756 84.827 53.9626 84.5815 53.9646L78.9728 53.9989C78.3171 53.9661 77.6371 54.0629 76.9686 54.6015C76.8237 54.7216 76.6919 54.8566 76.5753 55.0043C76.447 55.167 76.336 55.3427 76.2441 55.5284C75.9351 56.1534 75.8175 56.8857 75.9246 57.6227C75.9579 57.8486 76.0145 58.0704 76.0935 58.2846C76.1641 58.4765 76.255 58.6603 76.3649 58.8328C76.8896 59.6073 77.4442 59.8043 78.0133 59.9098C78.198 59.9389 78.3832 59.9628 78.5322 59.9774C78.8155 60.0046 78.9951 60.0047 79.2119 60.0008C79.3457 59.9852 79.4799 59.9733 79.6143 59.9651C79.8069 59.9568 79.8349 59.9649 79.9284 60.0156C80.1447 60.223 80.1124 60.3694 80.1519 60.6365C80.1564 60.7011 80.1557 60.7566 80.1484 60.8285C80.1263 61.0671 79.9842 61.5312 79.7378 61.924C79.6258 62.0437 79.4979 62.1476 79.3578 62.2327C79.0284 62.4341 78.6263 62.5737 78.2353 62.6588C77.8059 62.7526 77.3402 62.7953 76.8773 62.7931C76.483 62.7943 76.0893 62.7638 75.6999 62.7021C75.3537 62.6478 75.0136 62.5601 74.6843 62.4403C74.0603 62.2045 73.523 61.8962 72.9576 61.3288C72.6753 61.0423 72.3859 60.6821 72.1342 60.2981C71.6856 59.5984 71.3787 58.809 71.233 57.9359C71.0872 57.0628 71.1025 56.1066 71.2856 55.1725C71.4687 54.2385 71.8202 53.3269 72.3135 52.5015C72.4872 52.2073 72.7124 51.9309 73.0426 51.6485C73.2232 51.496 73.416 51.3586 73.6192 51.2377C73.8759 51.0849 74.1443 50.9525 74.4218 50.8417C74.7361 50.7148 75.1018 50.595 75.5346 50.4942C76.4167 50.2855 77.5067 50.1886 78.5189 50.2873C78.7073 50.3093 78.894 50.3413 79.1136 50.3891C79.3331 50.4369 79.5857 50.5007 80.1564 50.7043C80.7268 50.9079 81.6151 51.2511 82.4945 51.614C83.3639 51.9257 84.2276 51.8596 85.1306 51.2412C85.319 51.1071 85.494 50.9548 85.6528 50.7866C86.4338 49.9355 86.7903 48.8732 86.5189 47.8637C86.4334 47.5626 86.283 47.284 86.0781 47.0474C85.9768 46.9294 85.8641 46.8219 85.7414 46.7264C84.9743 46.1176 84.1445 45.5842 83.4057 45.2174C82.6674 44.8506 82.0204 44.6505 81.351 44.4867C80.6602 44.3175 79.9595 44.1918 79.253 44.1104C78.4898 44.0235 77.7221 43.9822 76.9539 43.9867C75.9107 43.9792 74.8696 44.0834 73.8486 44.2975C72.8439 44.5094 71.8843 44.8274 70.9654 45.2604C70.0462 45.6935 69.1671 46.2418 68.343 46.9289C67.5189 47.6161 66.7498 48.4422 66.1569 49.2587C65.5643 50.0751 65.1482 50.8821 64.8138 51.8045C64.479 52.7267 64.2263 53.7647 64.0915 54.8054C63.9567 55.8461 63.9402 56.8896 64.0222 57.8713C64.1042 58.853 64.2844 59.7729 64.538 60.6256C64.7915 61.4784 65.1184 62.2642 65.4659 62.9425C65.813 63.621 66.181 64.1924 66.5808 64.7139C66.9718 65.2267 67.4083 65.703 67.8852 66.137C68.368 66.5753 68.8917 66.9661 69.4493 67.3041C70.0242 67.6533 70.6581 67.9635 71.3826 68.2315C72.1076 68.4997 72.9235 68.7261 73.896 68.8826C74.8689 69.039 75.9982 69.1259 77.1263 69.1229C77.6717 69.1218 78.2167 69.0983 78.7601 69.0525C79.2898 69.0073 79.7974 68.9414 80.284 68.8547C80.7706 68.7681 81.2371 68.661 81.6837 68.5331C82.1303 68.4051 82.5579 68.2565 82.9666 68.0868C83.3699 67.9201 83.7617 67.727 84.1395 67.5087C84.5151 67.2918 84.8739 67.047 85.2129 66.7764C85.886 66.246 86.5186 65.5168 86.8882 64.8323C87.0698 64.4965 87.1753 64.1923 87.2309 63.8781L87.3029 57.2459C87.2927 56.8432 87.2626 56.4406 87.2229 56.1317C87.1821 55.8229 87.1323 55.6077 87.079 55.4296ZM61.5289 33.0651C61.5001 32.9659 61.4625 32.8694 61.4166 32.7768C61.3232 32.5775 61.1292 32.3815 60.9537 32.2962C60.8768 32.256 60.7963 32.2233 60.7133 32.1986C60.5067 32.1318 60.1999 32.1039 59.8898 32.1033L56.2086 32.0818C55.6978 32.0666 55.1664 32.1204 54.639 32.7461C54.2443 33.2699 54.1256 33.8509 54.2082 34.4923C54.2313 34.6497 54.27 34.7983 54.3198 34.9334C54.3696 35.0685 54.4307 35.1901 54.499 35.2976C54.8429 35.8092 55.2064 35.939 55.5785 36.0081C55.6996 36.0271 55.8213 36.0427 55.9192 36.0524C56.1053 36.0702 56.2234 36.0704 56.3653 36.0677C56.4649 36.0564 56.5651 36.0477 56.6295 36.0442C56.7718 36.0384 56.7981 36.0449 56.8668 36.1034C56.9647 36.2293 56.9624 36.3213 56.9822 36.4852C56.9884 36.6061 56.9764 36.6679 56.9436 36.7954C56.9016 36.9466 56.8213 37.1557 56.7107 37.3308C56.1809 37.8271 55.4862 37.8892 54.8331 37.9015C54.5743 37.9023 54.3159 37.8823 54.0603 37.8419C53.4004 37.7281 52.8287 37.5042 52.2603 36.94C52.0752 36.7517 51.8851 36.5152 51.7199 36.263C51.425 35.8033 51.2239 35.2849 51.1283 34.7115C51.0327 34.1383 51.0424 33.5099 51.1628 32.8966C51.2854 32.2774 51.5137 31.6839 51.8376 31.1422C51.9516 30.9491 52.0995 30.7676 52.3162 30.5821C52.4347 30.482 52.5613 30.3917 52.6946 30.3123C52.843 30.2233 53.0154 30.1354 53.2216 30.0521C53.4279 29.9688 53.6678 29.8901 53.9518 29.824C54.5307 29.6869 55.2462 29.6231 55.9102 29.6882C56.0338 29.7026 56.1563 29.7236 56.3007 29.755C56.4448 29.7864 56.6104 29.8283 56.9849 29.9619C57.3594 30.0957 57.9424 30.3209 58.5196 30.5595C59.1987 30.7876 59.8575 30.7391 60.5918 30.0163C61.1684 29.3739 61.4241 28.5759 61.0434 27.8085C60.9567 27.6505 60.8382 27.4971 60.6508 27.3493C60.1472 26.9495 59.6025 26.5992 59.1177 26.3581C58.6329 26.1174 58.2083 25.9858 57.7687 25.8782C56.8641 25.6541 55.8789 25.5445 54.883 25.5499C54.1986 25.545 53.5156 25.6135 52.8457 25.7541C52.1858 25.8932 51.5563 26.1019 50.9531 26.3863C50.3498 26.6707 49.7729 27.0307 49.2315 27.4821C48.6908 27.9334 48.1859 28.4761 47.7971 29.0126C47.4079 29.5488 47.1345 30.0786 46.9153 30.6844C46.6957 31.2901 46.5298 31.9718 46.4412 32.6553C46.3526 33.3388 46.3419 34.0242 46.3957 34.6689C46.4495 35.3136 46.5678 35.918 46.7341 36.4779C46.9006 37.0379 47.115 37.554 47.3431 37.9996C47.551 38.4091 47.7961 38.7987 48.0753 39.1633C48.3319 39.5 48.6186 39.8129 48.9317 40.098C49.2485 40.3858 49.5922 40.6425 49.9582 40.8645C50.3357 41.0937 50.7515 41.2974 51.2271 41.4735C51.7027 41.6496 52.2386 41.7982 52.8766 41.901C53.8199 42.0511 54.9555 42.107 56.0685 42.0126C56.4037 41.9845 56.7374 41.9412 57.0687 41.8828C57.3783 41.8282 57.6849 41.7577 57.9872 41.6716C58.2733 41.5903 58.5545 41.4925 58.8293 41.3787C59.094 41.2693 59.3512 41.1426 59.5991 40.9992C59.8458 40.8569 60.0813 40.6961 60.3036 40.5181C60.7458 40.1698 61.1609 39.691 61.4038 39.2412C61.5232 39.0205 61.5922 38.8206 61.629 38.6144L61.6762 34.2584C61.6707 34.0137 61.6532 33.7694 61.6235 33.5264C61.5965 33.3235 61.564 33.1819 61.5289 33.0651ZM60.6875 45.4195C60.5566 45.3044 60.416 45.2009 60.2672 45.1103C60.0938 45.0041 59.9119 44.9125 59.7234 44.8364C59.0454 44.5622 58.2736 44.4531 57.4881 44.5114C57.2312 44.5309 56.9761 44.57 56.7252 44.6283C56.4988 44.6807 56.277 44.751 56.0618 44.8386C55.8744 44.9148 55.6937 45.0064 55.5214 45.1125C55.3737 45.2033 55.234 45.3067 55.1039 45.4215C54.4376 46.0327 54.2833 46.6461 54.2765 47.2788V55.3784C51.9886 52.6407 49.6995 49.9042 48.3769 48.3213C47.0544 46.7384 46.6981 46.3092 46.4434 46.0172C46.1883 45.7252 46.035 45.5706 45.8638 45.4286C45.6925 45.2867 45.5036 45.1569 45.2957 45.0427C45.0781 44.9231 44.8495 44.8244 44.6132 44.748C43.8238 44.4941 42.9418 44.4574 42.0369 44.6867C41.7554 44.7589 41.4815 44.8585 41.2193 44.984C40.9863 45.0952 40.7656 45.2305 40.5606 45.3875C39.7882 45.9992 39.5558 46.6461 39.5494 47.2789L39.6044 66.0815C39.6048 66.2211 39.6156 66.3606 39.6371 66.4954C39.7217 66.981 39.9078 67.4554 40.4464 67.9407C40.5671 68.047 40.7044 68.1494 40.8625 68.2465C41.0206 68.3436 41.1997 68.4353 41.3991 68.5162C42.0671 68.7856 42.8246 68.8911 43.5954 68.8319C43.8488 68.8121 44.1003 68.7729 44.3477 68.7148C44.5721 68.6621 44.7919 68.5918 45.0052 68.5044C45.1918 68.428 45.3717 68.3363 45.5431 68.2302C45.6907 68.1391 45.8303 68.0355 45.9603 67.9207C46.6301 67.3065 46.789 66.6884 46.7997 66.0519V57.4176L54.6901 67.3796C55.7973 68.638 56.9066 68.8954 58.0404 68.8301C58.507 68.7934 59.0226 68.6675 59.5208 68.4373C59.7644 68.3247 59.9974 68.1904 60.2168 68.036C61.041 67.4506 61.4744 66.7197 61.5271 66.0839L61.5247 47.2791C61.5159 46.6602 61.3675 46.0388 60.6875 45.4195ZM42.4216 41.7465C43.2254 42.1364 44.0138 41.9956 44.9139 41.496C45.0583 41.4105 45.1967 41.3151 45.328 41.2106C46.1716 40.506 46.5195 39.7148 46.0087 38.9778L42.8464 34.9308C42.8534 34.9328 42.8604 34.9324 42.905 34.9163C43.0603 34.8691 43.4818 34.6351 43.8101 34.323C45.0062 33.1371 45.1979 31.9492 45.2949 30.7639C45.3724 29.7515 45.1583 28.7628 44.3705 27.7023C44.1369 27.3966 43.8712 27.1167 43.5779 26.8676C42.7223 26.1371 41.6523 25.7078 40.7202 25.7136H34.7062C34.2766 25.7261 33.8415 25.7824 33.423 26.2852C33.3647 26.36 33.3076 26.4476 33.2513 26.5541C33.1834 26.6822 33.1309 26.8179 33.095 26.9584C33.0502 27.1304 33.0155 27.3492 33.0007 27.5686V40.2461C33.0007 40.333 33.0072 40.4202 33.0204 40.5041C33.0707 40.8035 33.1871 41.1005 33.516 41.3969C33.5906 41.4627 33.6762 41.5266 33.7745 41.5871C33.873 41.6476 33.9839 41.7042 34.1084 41.7547C34.5398 41.9283 35.0243 41.9929 35.5224 41.9578C35.6921 41.9454 35.8607 41.9204 36.0268 41.883C36.178 41.849 36.3264 41.8033 36.4706 41.7464C36.596 41.6968 36.7173 41.6372 36.8332 41.5683C36.9315 41.5097 37.0247 41.443 37.1118 41.3689C37.5447 40.9877 37.6532 40.6031 37.6603 40.2116L37.668 35.6856L41.8474 41.2449C41.9778 41.4265 42.209 41.6373 42.4216 41.7465ZM40.1167 32.1096C39.7117 32.5516 39.3127 32.6478 38.9221 32.6845C38.8421 32.6893 38.8594 32.6888 38.5744 32.7008C38.3712 32.7091 38.0175 32.723 37.6638 32.7365V28.9642C38.0215 28.9671 38.3792 28.9702 38.5861 28.9724C38.7931 28.9746 38.8496 28.9757 38.8849 28.9766C38.9201 28.9772 38.9342 28.9777 38.9486 28.9782C39.3572 29.0027 39.7415 29.0984 40.1217 29.4957C40.1983 29.5795 40.2691 29.6746 40.3314 29.7817C40.7724 30.641 40.6483 31.4444 40.1167 32.1096Z" fill="#CA3132"/>
<path d="M83.9627 87.3141C84.0759 87.0778 84.0883 86.862 83.9948 86.561C83.9505 86.4355 83.833 86.3068 83.7271 86.2505C83.608 86.1835 83.4977 86.153 83.3543 86.1317C83.2582 86.1189 83.1614 86.1126 83.0644 86.1129H81.9986V88.9246H82.4222V87.7058H82.9103L83.6493 88.9246H84.1244L83.328 87.6863C83.5322 87.66 83.8166 87.5824 83.9627 87.3141ZM82.9295 87.3445H82.4219V86.4739C82.7721 86.4882 83.1814 86.4219 83.4289 86.5567C83.6934 86.7247 83.6323 87.0111 83.5304 87.1767C83.4307 87.2898 83.3644 87.3063 83.2047 87.3313C83.1335 87.3396 83.0314 87.3445 82.9295 87.3445Z" fill="black"/>
<path d="M85.2796 86.78C85.1274 86.2887 84.8204 85.8599 84.4044 85.5575C83.7329 85.0773 82.9413 84.9607 82.159 85.2019C81.9081 85.2823 81.6694 85.4033 81.4575 85.5574C81.2456 85.7115 81.0612 85.8985 80.9131 86.1059C80.458 86.7593 80.3616 87.5064 80.5796 88.2516C80.6534 88.491 80.7654 88.7199 80.9131 88.9281C81.0609 89.1363 81.2453 89.3239 81.4568 89.4783C82.1219 89.9548 82.9258 90.079 83.7067 89.8348C83.9569 89.7538 84.1926 89.6334 84.4049 89.4782C84.6138 89.3245 84.7968 89.1385 84.947 88.9271C85.3961 88.2787 85.4985 87.5213 85.2796 86.78ZM84.533 88.726C84.2938 89.0706 83.9476 89.3268 83.5482 89.4548C82.9248 89.6457 82.2893 89.5518 81.7632 89.1733C81.5947 89.0492 81.4475 88.8984 81.3276 88.7269C81.2068 88.5548 81.1135 88.3619 81.0514 88.1558C80.9892 87.9497 80.9579 87.7308 80.9579 87.5136C80.9573 87.0961 81.075 86.667 81.3292 86.3078C81.4503 86.1366 81.5981 85.9861 81.7672 85.8621C81.9356 85.7393 82.1227 85.6446 82.3213 85.5815C82.9418 85.3945 83.5628 85.4801 84.0946 85.8621C84.2634 85.9862 84.4109 86.137 84.5312 86.3087C84.6531 86.4823 84.7464 86.6742 84.8077 86.8772C84.9956 87.5244 84.9028 88.1846 84.533 88.726Z" fill="black"/>
</g>
<defs>
<clipPath id="clip0_2:1839">
<rect width="90" height="89.964" fill="white"/>
</clipPath>
</defs>
</svg>
