<svg width="90" height="68" viewBox="0 0 90 68" fill="none" xmlns="http://www.w3.org/2000/svg">
<g clip-path="url(#clip0_2:1850)">
<path d="M89.2247 22.2272C93.792 39.4137 77.6974 58.6096 53.2722 65.1054C28.8469 71.6012 5.34448 62.9252 0.775314 45.7368C-3.79385 28.5485 12.3026 9.3544 36.726 2.86402C61.1495 -3.62635 84.6555 5.03887 89.2247 22.2272Z" fill="#ED1C2C"/>
<path d="M24.8588 34.8913L28.6598 26.6992H35.0153L26.6667 42.6805H23.0527L14.6717 26.6992H21.0272L24.8588 34.8913Z" fill="white"/>
<path d="M39.1617 27.7048C38.1307 27.697 37.1322 27.3428 36.3267 26.6992V42.6787H41.9967V26.6992C41.1912 27.3428 40.1927 27.697 39.1617 27.7048Z" fill="white"/>
<path d="M42.8458 22.1822C42.8462 22.9146 42.6293 23.6306 42.2227 24.2397C41.816 24.8488 41.2378 25.3236 40.5613 25.604C39.8848 25.8844 39.1402 25.9579 38.4219 25.8151C37.7036 25.6723 37.0438 25.3197 36.5259 24.8018C36.0081 24.284 35.6555 23.6242 35.5127 22.9058C35.3699 22.1875 35.4433 21.443 35.7238 20.7665C36.0042 20.0899 36.479 19.5118 37.0881 19.1051C37.6972 18.6984 38.4132 18.4816 39.1455 18.4819C40.1258 18.4857 41.0647 18.8768 41.7579 19.5699C42.451 20.263 42.8421 21.202 42.8458 22.1822Z" fill="#FDD900"/>
<path d="M71.6352 32.524C70.8563 32.3675 69.0808 32.211 69.0808 31.1227C69.0808 30.3114 70.2015 30.0308 70.8563 30.0308C71.9215 30.0555 72.9671 30.3218 73.9144 30.8097L75.814 27.1975C74.1626 26.4492 72.3565 26.1686 70.5505 26.1686C67.0606 26.1686 63.5096 27.9135 63.5096 31.8387C63.5096 34.7043 65.2851 35.5767 67.0606 36.0445C68.8361 36.5122 70.6116 36.5733 70.6116 37.82C70.6116 38.6924 69.5521 39.036 68.8361 39.0342C67.2387 39.0342 65.125 37.9639 63.9683 37.1418C63.6498 38.6291 63.008 40.0281 62.0885 41.2396C64.0763 42.5123 66.3841 43.1953 68.7444 43.2094C72.4519 43.2094 76.2835 41.4645 76.2835 37.2587C76.2835 34.2995 74.2903 33.0529 71.6424 32.524" fill="white"/>
<path d="M52.9987 38.5737C52.2664 38.5737 51.5506 38.3564 50.9418 37.9493C50.3331 37.5422 49.8588 36.9637 49.5791 36.2869C49.2993 35.6102 49.2267 34.8656 49.3703 34.1475C49.514 33.4294 49.8675 32.7701 50.3861 32.2531C50.9046 31.736 51.565 31.3844 52.2835 31.2429C53.002 31.1013 53.7463 31.1761 54.4223 31.4579C55.0982 31.7396 55.6754 32.2155 56.0807 32.8255C56.486 33.4354 56.7012 34.1519 56.699 34.8842C56.6948 35.8641 56.3035 36.8026 55.6104 37.4953C54.9174 38.1881 53.9786 38.5789 52.9987 38.5827V38.5737ZM54.3587 26.1704C52.4897 26.1704 50.5577 26.9169 49.5287 28.5089H49.4693V26.71H43.7975V50.655H49.4693V41.1533C50.6836 42.5546 52.5832 43.2094 54.4217 43.2094C59.1581 43.2094 62.4285 39.3454 62.4285 34.7349C62.4285 30.1549 59.1257 26.1686 54.3605 26.1686" fill="white"/>
<path d="M79.8147 27.3091C80.2878 27.3091 80.4443 27.2209 80.4443 26.9277C80.4443 26.6345 80.2752 26.5464 79.8597 26.5464H79.4459V27.3091H79.8147ZM79.0304 26.2765C79.0286 26.2643 79.0296 26.2518 79.0335 26.2401C79.0374 26.2283 79.044 26.2176 79.0527 26.2089C79.0615 26.2002 79.0721 26.1936 79.0839 26.1897C79.0956 26.1858 79.1081 26.1848 79.1203 26.1866H79.9172C80.5109 26.1866 80.8599 26.4564 80.8599 26.9277C80.8685 27.0099 80.8604 27.093 80.836 27.172C80.8117 27.251 80.7715 27.3243 80.7181 27.3873C80.6646 27.4504 80.5989 27.5019 80.525 27.5389C80.451 27.5758 80.3703 27.5974 80.2878 27.6023L80.8365 28.3075C80.8707 28.3542 80.8365 28.3992 80.7807 28.3992H80.4785C80.458 28.4002 80.4376 28.3953 80.4197 28.3851C80.4019 28.3749 80.3873 28.3598 80.3778 28.3416L79.8489 27.6455H79.4459V28.3201C79.4459 28.3758 79.4226 28.3992 79.3668 28.3992H79.1203C79.0646 28.3992 79.0304 28.3758 79.0304 28.3201V26.2765ZM81.3689 27.3217C81.3689 26.4348 80.9552 25.6721 79.8201 25.6721C78.685 25.6721 78.2731 26.4348 78.2731 27.3217C78.2731 28.2085 78.676 28.9712 79.8201 28.9712C80.9642 28.9712 81.3635 28.2283 81.3635 27.3289L81.3689 27.3217ZM81.7125 27.3289C81.7125 28.3722 81.1729 29.3076 79.8147 29.3076C78.4566 29.3076 77.9079 28.365 77.9079 27.3289C77.9079 26.2927 78.4691 25.3501 79.8147 25.3501C81.1603 25.3501 81.7125 26.2801 81.7125 27.3289Z" fill="white"/>
<path d="M79.8147 29.3526C78.3756 29.3526 77.8629 28.3021 77.8629 27.3217C77.8629 26.3413 78.3756 25.3015 79.8147 25.3015C81.0308 25.3015 81.7575 26.057 81.7575 27.3217C81.7575 28.5863 81.0308 29.3526 79.8147 29.3526ZM79.8147 25.3951C78.649 25.3951 77.9529 26.1146 77.9529 27.3271C77.9529 28.2643 78.4422 29.2681 79.8147 29.2681C80.975 29.2681 81.6676 28.5485 81.6676 27.3271C81.6676 26.1056 80.975 25.3897 79.8147 25.3897V25.3951ZM79.8147 29.0198C78.4296 29.0198 78.2227 27.9585 78.2227 27.3271C78.2227 26.2477 78.8037 25.6325 79.8147 25.6325C80.8257 25.6325 81.4085 26.2495 81.4085 27.3271C81.4085 28.4046 80.8275 29.0144 79.8147 29.0144V29.0198ZM79.8147 25.7207C78.5069 25.7207 78.3108 26.7262 78.3108 27.3271C78.3108 27.9279 78.5069 28.9317 79.8147 28.9317C81.1225 28.9317 81.3204 27.9261 81.3204 27.3271C81.3204 25.9239 80.3778 25.7099 79.8147 25.7099V25.7207ZM80.7807 28.4478H80.4785C80.4511 28.4496 80.4237 28.4437 80.3995 28.4306C80.3753 28.4176 80.3553 28.3979 80.3418 28.374L79.8273 27.6886H79.4891V28.3182C79.4915 28.3349 79.49 28.3518 79.4847 28.3678C79.4794 28.3837 79.4705 28.3982 79.4586 28.4101C79.4467 28.422 79.4323 28.4309 79.4163 28.4362C79.4004 28.4415 79.3834 28.443 79.3668 28.4406H79.1203C79.1031 28.4429 79.0856 28.4415 79.069 28.4364C79.0524 28.4313 79.0372 28.4226 79.0243 28.4109C79.0114 28.3993 79.0013 28.3849 78.9946 28.3689C78.9879 28.3529 78.9847 28.3356 78.9854 28.3182V26.2765C78.9834 26.2584 78.9855 26.24 78.9915 26.2228C78.9976 26.2056 79.0075 26.19 79.0205 26.1772C79.0335 26.1643 79.0493 26.1546 79.0665 26.1488C79.0838 26.1429 79.1022 26.1411 79.1203 26.1434H79.9172C80.5343 26.1434 80.9048 26.4366 80.9048 26.9277C80.9226 27.092 80.8764 27.2569 80.776 27.3882C80.6755 27.5194 80.5284 27.607 80.3652 27.6329L80.8707 28.2805C80.8822 28.295 80.8894 28.3125 80.8916 28.3309C80.8939 28.3493 80.891 28.3679 80.8833 28.3848C80.8731 28.4029 80.8581 28.4178 80.84 28.4279C80.8219 28.4381 80.8014 28.4431 80.7807 28.4424V28.4478ZM79.401 27.6077H79.8705L80.4101 28.3272C80.4371 28.365 80.4479 28.3668 80.4767 28.3668H80.7789C80.7829 28.3686 80.7872 28.3695 80.7915 28.3695C80.7958 28.3695 80.8001 28.3686 80.8041 28.3668C80.8048 28.3633 80.8048 28.3596 80.8041 28.356L80.2087 27.5897L80.2842 27.5789C80.362 27.5759 80.4384 27.5569 80.5085 27.5231C80.5786 27.4892 80.641 27.4412 80.6917 27.3821C80.7424 27.3229 80.7803 27.254 80.803 27.1795C80.8258 27.105 80.8329 27.0266 80.8239 26.9493C80.8239 26.5068 80.4965 26.2531 79.9244 26.2531H79.1275C79.0898 26.2531 79.0826 26.2531 79.0826 26.2981V28.3416C79.0826 28.3596 79.0826 28.3758 79.1275 28.3758H79.374C79.4046 28.3758 79.4082 28.3758 79.4082 28.3416L79.401 27.6077ZM79.8147 27.3594H79.401V26.5014H79.8597C80.3004 26.5014 80.4893 26.6291 80.4893 26.9277C80.4893 27.2857 80.2518 27.354 79.8147 27.354V27.3594ZM79.4891 27.2695H79.8147C80.3148 27.2695 80.3993 27.167 80.3993 26.9331C80.3993 26.7316 80.3076 26.5967 79.8597 26.5967H79.4891V27.2695Z" fill="white"/>
</g>
<defs>
<clipPath id="clip0_2:1850">
<rect width="90" height="66.5533" fill="white" transform="translate(0 0.705353)"/>
</clipPath>
</defs>
</svg>
