<svg width="171" height="34" viewBox="0 0 171 34" fill="none" xmlns="http://www.w3.org/2000/svg">
<path d="M19.3225 4.6272C19.8967 5.43635 20.3546 6.32206 20.6829 7.25847C21.0936 7.31192 21.5012 7.38697 21.904 7.48329L22.112 7.53117L22.1599 7.54574C22.2451 7.56656 22.3304 7.58946 22.4136 7.61444L22.657 7.68521L22.865 7.75391C22.9358 7.77681 23.0065 7.79971 23.073 7.82677C23.1396 7.85383 23.2041 7.87257 23.2811 7.89755C23.358 7.92253 23.4121 7.94751 23.4891 7.97249C23.8724 8.12064 24.2474 8.28951 24.6124 8.47834C24.6997 8.52206 24.7871 8.56785 24.8724 8.61573C25.018 8.69276 25.1594 8.77602 25.3009 8.85929L25.4819 8.96962L25.5672 9.02166L25.7544 9.14657C25.8168 9.18404 25.875 9.22567 25.9353 9.2673C26.6316 9.74452 27.2758 10.2936 27.8574 10.9056C27.9261 10.9743 27.9926 11.0451 28.0654 11.1138C28.1382 11.1825 28.1715 11.2324 28.2235 11.2907C28.3088 11.3886 28.392 11.4864 28.4731 11.5863C28.5231 11.6446 28.5709 11.705 28.6167 11.7653C28.6624 11.8257 28.7456 11.9298 28.806 12.011C28.8663 12.0922 28.9224 12.1671 28.9765 12.2462C29.0306 12.3253 29.0889 12.4044 29.1429 12.4856C29.2511 12.6459 29.351 12.8083 29.457 12.9748C29.509 13.0581 29.559 13.1413 29.6047 13.2267C29.6505 13.312 29.7025 13.3953 29.7483 13.4807C29.8481 13.6659 29.9438 13.8533 30.0332 14.0427C30.0707 14.1156 30.1061 14.1926 30.1393 14.2675C30.1726 14.3425 30.2059 14.4195 30.2392 14.4944C30.2725 14.5694 30.2974 14.6277 30.3245 14.7026L30.3994 14.89C30.4597 15.0482 30.5179 15.2085 30.572 15.3708C30.6053 15.4645 30.6365 15.5582 30.6656 15.654C30.6647 15.6581 30.6647 15.6623 30.6656 15.6664C30.6927 15.758 30.7197 15.8476 30.7447 15.9391C30.8195 16.1994 30.8861 16.4637 30.9423 16.7302C30.9568 16.7968 30.9693 16.8655 30.9839 16.9384C30.9984 17.0112 30.9984 17.0154 31.0047 17.0549C31.0109 17.0945 31.0255 17.159 31.0317 17.2111C31.038 17.2631 31.0567 17.3589 31.0671 17.4338C31.0775 17.5087 31.0921 17.5837 31.1004 17.6607C31.1004 17.694 31.1004 17.7273 31.1149 17.7606C31.1295 17.7939 31.1274 17.873 31.1337 17.9292C31.1399 17.9855 31.1461 18.0375 31.1482 18.0895C31.1503 18.1416 31.1649 18.254 31.1711 18.3352C31.1773 18.4164 31.1836 18.5288 31.1877 18.6287C31.1919 18.7286 31.1877 18.8369 31.2002 18.9368C31.2127 19.0367 31.2002 19.145 31.2002 19.249C31.1964 22.4539 29.9225 25.5264 27.658 27.7926C25.3935 30.0588 22.3232 31.3336 19.1207 31.3375H18.8108C18.7068 31.3375 18.6028 31.3375 18.5009 31.325C18.3989 31.3125 18.2928 31.325 18.1972 31.3062H18.1847L17.881 31.2688L17.6376 31.2438L17.4878 31.223C17.4171 31.223 17.3443 31.2042 17.2798 31.1917H17.2569L17.0489 31.1564L16.87 31.1251L16.6079 31.0731C16.1389 30.974 15.6763 30.8468 15.2225 30.6921L14.9584 30.5985C14.8731 30.5672 14.7878 30.536 14.7004 30.5006L14.3572 30.357C14.2844 30.3278 14.2116 30.2966 14.1492 30.2633L13.9162 30.1551C13.8163 30.1072 13.7082 30.0593 13.6208 30.0073L13.3795 29.8824L13.0966 29.7262C13.0134 29.6784 12.9302 29.6305 12.847 29.5784C12.6931 29.4868 12.5433 29.389 12.3956 29.2891C12.3837 29.2827 12.3726 29.275 12.3623 29.2662L12.1231 29.1017C12.0441 29.0455 11.965 28.9893 11.888 28.9289C11.8111 28.8686 11.7341 28.8144 11.6571 28.752C11.5802 28.6895 11.5344 28.6562 11.4741 28.6042C11.3763 28.5251 11.2786 28.4439 11.1829 28.3606L10.9957 28.192C10.9249 28.1275 10.8521 28.063 10.7876 27.9943L10.5796 27.7861C10.4465 27.6529 10.3154 27.5155 10.1886 27.3697C10.122 27.2948 10.0533 27.2199 9.98054 27.1428C9.85365 26.9971 9.73092 26.8514 9.61443 26.6994C9.54162 26.6078 9.4709 26.5163 9.40641 26.4205C9.36273 26.3643 9.32321 26.3102 9.28576 26.254L9.24416 26.1978C9.19632 26.1311 9.14639 26.0604 9.10063 25.9896C9.05487 25.9188 9.0091 25.8522 8.96334 25.7814C8.91758 25.7106 8.83645 25.5857 8.77613 25.4837C8.67836 25.3234 8.58475 25.159 8.49531 24.9925C8.32057 24.674 8.1604 24.343 8.01479 24.0057L7.91702 23.7705C7.91612 23.7664 7.91612 23.7621 7.91702 23.758C7.89206 23.6976 7.86918 23.6393 7.8463 23.5811L7.78389 23.4166C7.76309 23.3604 7.74229 23.3021 7.72357 23.2438C7.70484 23.1855 7.66532 23.0815 7.63828 22.9961C7.61124 22.9108 7.5842 22.8296 7.55923 22.7463C7.55736 22.7381 7.55736 22.7295 7.55923 22.7213C7.53219 22.6401 7.50931 22.5569 7.48643 22.4757C7.46355 22.3945 7.43859 22.2987 7.4157 22.2092C7.34914 21.9428 7.28881 21.6742 7.24097 21.4015C7.22433 21.3099 7.20769 21.2204 7.19313 21.1267C7.17857 21.0331 7.16608 20.9456 7.1536 20.852C6.21012 20.5285 5.31718 20.073 4.5014 19.4988C4.55156 22.3694 5.4453 25.1616 7.07109 27.5271C8.69688 29.8926 10.9827 31.7266 13.6434 32.8003C16.3041 33.874 19.2219 34.1398 22.0326 33.5646C24.8433 32.9893 27.4225 31.5986 29.4484 29.5658C31.4743 27.533 32.8572 24.9481 33.4245 22.1338C33.9918 19.3195 33.7184 16.4004 32.6384 13.7406C31.5584 11.0807 29.7197 8.79808 27.3517 7.1774C24.9836 5.55671 22.1911 4.66975 19.3225 4.6272ZM7.0808 18.0979C7.0912 18.0084 7.09952 17.9188 7.10992 17.8293C7.12032 17.7398 7.1328 17.6503 7.1432 17.5629C7.1536 17.4754 7.16817 17.3859 7.18481 17.2985C7.20145 17.2111 7.21393 17.1236 7.22849 17.0362C7.29505 16.6865 7.37202 16.343 7.46771 15.9954C7.49059 15.9121 7.51555 15.8267 7.54051 15.7435L7.60292 15.5478C7.6093 15.5195 7.61764 15.4917 7.62788 15.4645L7.70277 15.2563C7.72357 15.1939 7.74645 15.1294 7.77141 15.0669L7.81509 14.9483C7.86918 14.8095 7.92534 14.6707 7.98359 14.5319C8.05223 14.3695 8.12296 14.2093 8.1916 14.051C8.22696 13.974 8.26441 13.9012 8.30185 13.8262C8.3232 13.7776 8.34752 13.7303 8.37466 13.6847C8.401 13.6292 8.43013 13.5729 8.46202 13.5161L8.49531 13.4578C8.53483 13.3828 8.57643 13.31 8.62011 13.235L8.73452 13.0268L8.84061 12.8562L8.94046 12.7C9.07983 12.4919 9.22544 12.2837 9.37729 12.0755C9.4293 12.0047 9.4813 11.9381 9.5333 11.8673C9.58531 11.7966 9.61235 11.7633 9.65395 11.7133C9.7746 11.5613 9.89941 11.4115 10.0305 11.2657C10.0825 11.2033 10.1386 11.145 10.1906 11.0846C10.305 10.9576 10.4236 10.8348 10.5443 10.7141L10.694 10.5684C10.771 10.4934 10.848 10.4185 10.927 10.3477L11.1038 10.1895C11.2078 10.0937 11.3118 10.0021 11.4262 9.91263C11.4803 9.86683 11.5365 9.82104 11.5947 9.77732C11.8381 9.58372 12.0877 9.39845 12.3457 9.22567C12.4185 9.17363 12.4934 9.12575 12.5703 9.07787L12.7471 8.96338L12.8886 8.88219C12.9552 8.84056 13.0217 8.801 13.0966 8.76353C13.1715 8.72606 13.2672 8.66777 13.3525 8.62198C13.4378 8.57618 13.5251 8.52622 13.6104 8.48459L13.8725 8.35344H13.8871C14.041 8.2785 14.1991 8.20772 14.3593 8.14527C14.4778 8.09531 14.5964 8.04535 14.7171 7.99955C14.7961 7.96832 14.8751 7.9371 14.9563 7.91004L15.1643 7.83301L15.2745 7.79554L15.5138 7.71852L15.8008 7.61444L16.0879 7.53533L16.3437 7.47288L16.5372 7.43125L16.6246 7.41043L16.7702 7.38129L17.0302 7.33341L17.2153 7.30426C17.2819 7.29177 17.3464 7.28345 17.4233 7.27512C17.5918 7.25014 17.7624 7.22932 17.933 7.21267C17.5092 6.3498 16.9351 5.56945 16.2376 4.90823C13.4059 5.47794 10.8062 6.8741 8.76641 8.9206C6.72661 10.9671 5.33809 13.5723 4.77598 16.4075C5.43908 17.1021 6.21928 17.6743 7.0808 18.0979Z" fill="#D8195E"/>
<path d="M21.1062 8.8343C20.4467 8.70704 19.7767 8.64291 19.1051 8.64278C18.897 8.64278 18.689 8.64278 18.481 8.6636C18.6714 9.35809 18.7672 10.0751 18.766 10.7953C18.7675 12.0433 18.4815 13.2749 17.9301 14.3944C17.3788 15.5139 16.5769 16.491 15.5869 17.25C14.5969 18.009 13.4453 18.5293 12.2217 18.7706C10.9981 19.0119 9.73535 18.9676 8.53162 18.6412C8.53162 18.8493 8.51498 19.0409 8.51498 19.2428C8.51432 19.9248 8.57981 20.6052 8.71052 21.2745C10.2461 21.5564 11.8248 21.4971 13.3349 21.1008C14.845 20.7044 16.2497 19.9808 17.4493 18.981C18.649 17.9812 19.6145 16.7297 20.2773 15.3152C20.9401 13.9007 21.2842 12.3576 21.2851 10.7953C21.2849 10.1375 21.2251 9.48118 21.1062 8.8343ZM10.6388 0.139044C8.54304 0.140507 6.49431 0.760965 4.74939 1.92266C3.00446 3.08435 1.64097 4.7356 0.829797 6.66947C0.0186205 8.60333 -0.204156 10.7338 0.189388 12.7938C0.582932 14.8538 1.57529 16.7518 3.04209 18.2498C3.11072 17.1024 3.30179 15.9655 3.61205 14.8587C2.71472 13.3118 2.35297 11.5117 2.583 9.7379C2.81303 7.96412 3.62196 6.31601 4.88413 5.04958C6.14631 3.78315 7.79107 2.96929 9.56292 2.73443C11.3348 2.49957 13.1345 2.85686 14.6827 3.75079C15.7893 3.43508 16.9268 3.24035 18.0754 3.17C16.0891 1.22364 13.4188 0.135277 10.6388 0.139044Z" fill="#D8195E"/>
<path d="M49.1669 11.318C50.9429 11.318 52.3769 11.846 53.4689 12.902C54.5729 13.958 55.1249 15.38 55.1249 17.168C55.1249 18.944 54.5729 20.36 53.4689 21.416C52.3769 22.472 50.9429 23 49.1669 23H45.3689V11.318H49.1669ZM47.5109 21.074H49.1669C50.2709 21.074 51.1649 20.702 51.8489 19.958C52.4969 19.238 52.8209 18.308 52.8209 17.168C52.8209 16.004 52.4969 15.062 51.8489 14.342C51.1769 13.61 50.2829 13.244 49.1669 13.244H47.5109V21.074ZM57.7087 11.318H65.2327V13.154H59.8327V16.232H64.8907V18.068H59.8327V21.146H65.2327V23H57.7087V11.318ZM76.9496 14.9C76.9496 15.728 76.7156 16.436 76.2476 17.024C75.7796 17.612 75.1076 18.02 74.2316 18.248L77.3636 23H74.5916L72.0176 18.446H70.3976V23H68.2736V11.318H72.5936C73.9736 11.318 75.0476 11.648 75.8156 12.308C76.5716 12.944 76.9496 13.808 76.9496 14.9ZM72.3956 17.024C73.1756 17.024 73.7636 16.85 74.1596 16.502C74.5556 16.142 74.7536 15.674 74.7536 15.098C74.7536 14.51 74.5736 14.042 74.2136 13.694C73.8536 13.334 73.3136 13.154 72.5936 13.154H70.3976V17.024H72.3956ZM84.3396 11.084C85.1196 11.084 85.8336 11.216 86.4816 11.48C87.1296 11.732 87.6876 12.11 88.1556 12.614C89.1396 13.67 89.6316 15.182 89.6316 17.15C89.6316 19.13 89.1396 20.66 88.1556 21.74C87.2196 22.748 85.9416 23.252 84.3216 23.252C82.7136 23.252 81.4416 22.736 80.5056 21.704C79.5216 20.636 79.0296 19.118 79.0296 17.15C79.0296 15.158 79.5216 13.634 80.5056 12.578C81.4296 11.582 82.7076 11.084 84.3396 11.084ZM87.4356 17.186C87.4356 15.842 87.1536 14.81 86.5896 14.09C86.0376 13.358 85.2876 12.992 84.3396 12.992C83.3916 12.992 82.6356 13.358 82.0716 14.09C81.5076 14.81 81.2256 15.842 81.2256 17.186C81.2256 18.518 81.5076 19.544 82.0716 20.264C82.6356 20.972 83.3916 21.326 84.3396 21.326C85.2876 21.326 86.0376 20.972 86.5896 20.264C87.1536 19.544 87.4356 18.518 87.4356 17.186ZM102.835 14.54C102.643 13.52 101.923 13.01 100.675 13.01C100.063 13.01 99.5834 13.136 99.2354 13.388C98.8994 13.628 98.7314 13.922 98.7314 14.27C98.7314 14.618 98.8394 14.894 99.0554 15.098C99.2834 15.29 99.6314 15.47 100.099 15.638L102.637 16.628C103.501 16.964 104.167 17.39 104.635 17.906C105.103 18.41 105.337 19.046 105.337 19.814C105.337 20.87 104.941 21.71 104.149 22.334C103.357 22.946 102.229 23.252 100.765 23.252C99.4694 23.252 98.4194 22.934 97.6154 22.298C96.7154 21.602 96.2414 20.618 96.1934 19.346H98.2994C98.2994 20.306 98.7974 20.912 99.7934 21.164C100.093 21.248 100.489 21.29 100.981 21.29C101.473 21.29 101.929 21.17 102.349 20.93C102.769 20.678 102.979 20.348 102.979 19.94C102.979 19.52 102.865 19.202 102.637 18.986C102.409 18.758 102.037 18.548 101.521 18.356L99.1994 17.438C98.2994 17.09 97.6094 16.682 97.1294 16.214C96.6494 15.746 96.4094 15.098 96.4094 14.27C96.4094 13.298 96.7874 12.53 97.5434 11.966C98.3114 11.378 99.3494 11.084 100.657 11.084C101.977 11.084 102.991 11.39 103.699 12.002C104.419 12.602 104.833 13.448 104.941 14.54H102.835ZM106.61 11.318H115.97V13.154H112.352V23H110.228V13.154H106.61V11.318ZM119.7 11.318V18.59C119.7 19.55 119.94 20.24 120.42 20.66C120.912 21.08 121.542 21.29 122.31 21.29C123.078 21.29 123.702 21.08 124.182 20.66C124.674 20.24 124.92 19.55 124.92 18.59V11.318H127.044V18.59C127.044 20.078 126.63 21.23 125.802 22.046C124.974 22.85 123.81 23.252 122.31 23.252C120.81 23.252 119.646 22.85 118.818 22.046C117.99 21.23 117.576 20.078 117.576 18.59V11.318H119.7ZM133.964 11.318C135.74 11.318 137.174 11.846 138.266 12.902C139.37 13.958 139.922 15.38 139.922 17.168C139.922 18.944 139.37 20.36 138.266 21.416C137.174 22.472 135.74 23 133.964 23H130.166V11.318H133.964ZM132.308 21.074H133.964C135.068 21.074 135.962 20.702 136.646 19.958C137.294 19.238 137.618 18.308 137.618 17.168C137.618 16.004 137.294 15.062 136.646 14.342C135.974 13.61 135.08 13.244 133.964 13.244H132.308V21.074ZM142.524 11.318H144.648V23H142.524V11.318ZM152.472 11.084C153.252 11.084 153.966 11.216 154.614 11.48C155.262 11.732 155.82 12.11 156.288 12.614C157.272 13.67 157.764 15.182 157.764 17.15C157.764 19.13 157.272 20.66 156.288 21.74C155.352 22.748 154.074 23.252 152.454 23.252C150.846 23.252 149.574 22.736 148.638 21.704C147.654 20.636 147.162 19.118 147.162 17.15C147.162 15.158 147.654 13.634 148.638 12.578C149.562 11.582 150.84 11.084 152.472 11.084ZM155.568 17.186C155.568 15.842 155.286 14.81 154.722 14.09C154.17 13.358 153.42 12.992 152.472 12.992C151.524 12.992 150.768 13.358 150.204 14.09C149.64 14.81 149.358 15.842 149.358 17.186C149.358 18.518 149.64 19.544 150.204 20.264C150.768 20.972 151.524 21.326 152.472 21.326C153.42 21.326 154.17 20.972 154.722 20.264C155.286 19.544 155.568 18.518 155.568 17.186ZM166.416 14.54C166.224 13.52 165.504 13.01 164.256 13.01C163.644 13.01 163.164 13.136 162.816 13.388C162.48 13.628 162.312 13.922 162.312 14.27C162.312 14.618 162.42 14.894 162.636 15.098C162.864 15.29 163.212 15.47 163.68 15.638L166.218 16.628C167.082 16.964 167.748 17.39 168.216 17.906C168.684 18.41 168.918 19.046 168.918 19.814C168.918 20.87 168.522 21.71 167.73 22.334C166.938 22.946 165.81 23.252 164.346 23.252C163.05 23.252 162 22.934 161.196 22.298C160.296 21.602 159.822 20.618 159.774 19.346H161.88C161.88 20.306 162.378 20.912 163.374 21.164C163.674 21.248 164.07 21.29 164.562 21.29C165.054 21.29 165.51 21.17 165.93 20.93C166.35 20.678 166.56 20.348 166.56 19.94C166.56 19.52 166.446 19.202 166.218 18.986C165.99 18.758 165.618 18.548 165.102 18.356L162.78 17.438C161.88 17.09 161.19 16.682 160.71 16.214C160.23 15.746 159.99 15.098 159.99 14.27C159.99 13.298 160.368 12.53 161.124 11.966C161.892 11.378 162.93 11.084 164.238 11.084C165.558 11.084 166.572 11.39 167.28 12.002C168 12.602 168.414 13.448 168.522 14.54H166.416Z" fill="#272C30"/>
</svg>
