<svg width="153" height="26" viewBox="0 0 153 26" fill="none" xmlns="http://www.w3.org/2000/svg">
<g clip-path="url(#clip0_2:1825)">
<path d="M80.745 0.538391H97.4269V4.60663H85.2512V10.3835H97.0881V14.3134H85.2512V20.188H97.4269V24.2562H80.745V0.538391ZM143.497 24.6834C148.611 24.6834 151.493 22.2424 151.493 18.8902C151.493 16.5021 149.787 14.7203 146.215 13.9473L142.44 13.1784C140.248 12.7716 139.558 12.3647 139.558 11.5511C139.558 10.4974 140.615 9.85058 142.562 9.85058C144.672 9.85058 146.236 10.4161 146.644 12.3607H151.068C150.828 8.69927 148.187 6.28274 142.832 6.28274C138.203 6.28274 134.954 8.18667 134.954 11.8766C134.954 14.4273 136.742 16.0872 140.599 16.8968L144.819 17.8691C146.485 18.1945 146.93 18.642 146.93 19.3296C146.93 20.4239 145.672 21.1115 143.64 21.1115C141.085 21.1115 139.623 20.546 139.056 18.6014H134.607C135.256 22.2546 137.974 24.6834 143.497 24.6834ZM133.321 24.2399H128.533C125.529 24.2399 123.864 22.3767 123.864 20.0252V10.709H120.497V6.73838H123.88V1.75479H128.329V6.73838H133.321V10.709H128.329V18.8902C128.329 19.8218 128.978 20.2693 129.995 20.2693H133.321V24.2399ZM114.137 6.74652V8.32499C112.571 7.0052 110.584 6.28414 108.533 6.29087C107.305 6.26513 106.084 6.48397 104.942 6.93456C103.8 7.38514 102.76 8.05842 101.882 8.91492C101.005 9.77142 100.308 10.7939 99.8315 11.9225C99.3555 13.051 99.1104 14.2629 99.1104 15.4871C99.1104 16.7113 99.3555 17.9232 99.8315 19.0518C100.308 20.1803 101.005 21.2028 101.882 22.0593C102.76 22.9158 103.8 23.5891 104.942 24.0397C106.084 24.4903 107.305 24.7091 108.533 24.6834C110.585 24.6922 112.572 23.9709 114.137 22.6492V24.2318H118.574V6.73838L114.137 6.74652ZM108.9 20.8429C107.836 20.855 106.792 20.5515 105.902 19.9709C105.011 19.3903 104.313 18.5588 103.898 17.5822C103.482 16.6055 103.367 15.5278 103.568 14.486C103.768 13.4441 104.275 12.4852 105.024 11.7311C105.772 10.9769 106.729 10.4616 107.772 10.2507C108.815 10.0397 109.897 10.1426 110.882 10.5463C111.866 10.95 112.708 11.6362 113.3 12.5178C113.892 13.3994 114.207 14.4365 114.207 15.4973C114.213 16.1966 114.08 16.8902 113.816 17.5381C113.552 18.1859 113.161 18.7751 112.667 19.2715C112.173 19.7679 111.585 20.1616 110.937 20.43C110.289 20.6983 109.594 20.8359 108.892 20.8348L108.9 20.8429Z" fill="#05C167"/>
<path d="M69.3357 10.4831C67.103 10.4831 65.5193 12.2243 65.5193 14.8971V24.7015H62.1111V7.44408H65.4785V9.55143C65.8939 8.85298 66.4891 8.27795 67.2025 7.88596C67.9158 7.49396 68.7214 7.29926 69.5357 7.32204H70.7602V10.4831H69.3357ZM59.756 16.0728C59.756 10.9265 56.0825 7.07794 51.111 7.07794C49.9363 7.08589 48.7748 7.32525 47.6934 7.78226C46.6119 8.23927 45.6317 8.90491 44.8093 9.74087C43.9869 10.5768 43.3384 11.5666 42.9013 12.6533C42.4641 13.74 42.2468 14.9021 42.2618 16.0728C42.2618 21.2151 46.2415 25.1043 51.4334 25.1043C52.8837 25.1316 54.3193 24.811 55.6193 24.1695C56.9192 23.5281 58.0454 22.5845 58.9029 21.4185L56.4294 19.6122C55.8619 20.4016 55.1111 21.0422 54.241 21.4794C53.371 21.9165 52.4076 22.1371 51.4334 22.1223C50.0459 22.1157 48.7066 21.614 47.6583 20.708C46.61 19.8019 45.922 18.5515 45.719 17.1834H59.7641L59.756 16.0728ZM45.7925 14.4903C46.4007 11.8581 48.5109 10.0762 51.0701 10.0762C53.6294 10.0762 55.7355 11.8581 56.307 14.4903H45.7925ZM31.4658 7.07794C30.3268 7.07889 29.1993 7.30481 28.1484 7.74263C27.0975 8.18045 26.1441 8.82149 25.3432 9.62872V1H21.935V24.7015H25.3024V22.5128C26.9337 24.1577 29.1535 25.0898 31.4739 25.1043C32.6776 25.1298 33.8743 24.9155 34.9939 24.474C36.1134 24.0325 37.1332 23.3727 37.9936 22.5332C38.8539 21.6937 39.5374 20.6915 40.0041 19.5853C40.4707 18.4791 40.7111 17.2911 40.7111 16.0911C40.7111 14.8911 40.4707 13.7032 40.0041 12.597C39.5374 11.4907 38.8539 10.4885 37.9936 9.64905C37.1332 8.80958 36.1134 8.14975 34.9939 7.70824C33.8743 7.26674 32.6776 7.05245 31.4739 7.07794H31.4658ZM31.2209 22.0694C30.0329 22.075 28.87 21.7288 27.8798 21.0747C26.8896 20.4205 26.1166 19.4879 25.659 18.3952C25.2014 17.3025 25.0798 16.099 25.3096 14.9373C25.5393 13.7756 26.1102 12.7081 26.9496 11.8703C27.7891 11.0324 28.8593 10.462 30.0245 10.2314C31.1898 10.0008 32.3975 10.1204 33.4944 10.575C34.5913 11.0296 35.5281 11.7987 36.1857 12.7848C36.8434 13.7709 37.1923 14.9294 37.1883 16.1135C37.1894 16.8945 37.0357 17.668 36.7361 18.3896C36.4365 19.1113 35.9968 19.7668 35.4424 20.3187C34.8879 20.8706 34.2296 21.3079 33.5052 21.6055C32.7807 21.9031 32.0044 22.0553 31.2209 22.0531V22.0694ZM9.38381 21.9067C12.6737 21.9067 15.2288 19.3925 15.2288 15.6253V1H18.7595V24.7015H15.2696V22.4599C14.4543 23.2998 13.4765 23.9661 12.3953 24.4185C11.3142 24.871 10.1522 25.1001 8.97972 25.0921C3.90618 25.0921 0 21.4063 0 15.8165V1H3.59597V15.6456C3.59597 19.4332 6.04499 21.9067 9.38381 21.9067Z" fill="black"/>
</g>
<defs>
<clipPath id="clip0_2:1825">
<rect width="153" height="24.8873" fill="white" transform="translate(0 0.538391)"/>
</clipPath>
</defs>
</svg>
