<svg width="100" height="68" viewBox="0 0 100 68" fill="none" xmlns="http://www.w3.org/2000/svg">
<g clip-path="url(#clip0_2:1906)">
<path d="M99.5137 54.7772H95.1424C95.0046 54.052 94.7966 53.5432 94.5071 53.2564C94.0404 52.7898 93.2449 52.5508 92.1457 52.5508C91.0466 52.5508 90.3101 52.7307 89.8968 53.0906C89.7367 53.2294 89.61 53.4027 89.5263 53.5974C89.4425 53.7921 89.4039 54.0033 89.4133 54.215C89.4133 54.8784 90.3326 55.4041 92.1513 55.8117C93.6659 56.116 95.1627 56.5026 96.6351 56.9699C96.8768 57.0599 97.0877 57.1358 97.2395 57.2089C99.0892 58.0831 100.006 59.4072 100.006 61.1838C100.006 63.3484 99.1033 64.931 97.3126 65.9233C97.0877 66.0442 96.8768 66.1482 96.6351 66.2551C95.3559 66.775 93.9846 67.0304 92.6039 67.0056C90.3326 67.0056 88.4969 66.598 87.0969 65.8025C86.2793 65.3474 85.5995 64.6802 85.1292 63.8712C84.6762 63.0381 84.4494 62.1009 84.4714 61.1529H89.0451C89.0283 61.502 89.0963 61.85 89.2431 62.1672C89.39 62.4844 89.6114 62.7614 89.8884 62.9745C90.4506 63.4102 91.3923 63.6379 92.7304 63.6379C93.7396 63.6379 94.493 63.4243 94.9793 63.0054C95.1539 62.8745 95.2956 62.7047 95.3932 62.5095C95.4908 62.3144 95.5416 62.0992 95.5416 61.881C95.5416 61.1754 94.6392 60.6188 92.8485 60.228C90.1695 59.6658 88.4856 59.1879 87.7885 58.8562C85.9556 58.0128 85.0505 56.6776 85.0505 54.8391C85.0123 53.4506 85.5269 52.1038 86.4813 51.0947C87.6845 49.8128 89.4892 49.1803 91.8843 49.1803C93.8521 49.1803 95.4347 49.4614 96.621 50.0236C96.7192 50.0655 96.8133 50.1163 96.9021 50.1754C97.7113 50.5956 98.3833 51.2383 98.839 52.028C99.2996 52.8699 99.5322 53.8177 99.5137 54.7772Z" fill="black"/>
<path d="M97.172 44.1231C97.1777 44.0437 97.157 43.9646 97.1129 43.8982C97.0696 43.8245 96.9989 43.7709 96.9162 43.7492C96.8237 43.7269 96.7298 43.7109 96.6351 43.7014H95.9436V44.5447H96.6351C96.7807 44.5518 96.9244 44.5092 97.0427 44.4239C97.0853 44.3866 97.119 44.3402 97.1414 44.2881C97.1638 44.2361 97.1742 44.1797 97.172 44.1231ZM97.5346 43.6705C97.6231 43.7878 97.6706 43.9311 97.6695 44.0781C97.671 44.1789 97.6516 44.279 97.6124 44.3719C97.5732 44.4648 97.5151 44.5485 97.4418 44.6178C97.2869 44.7752 97.0778 44.8677 96.8571 44.8765C96.9461 44.9094 97.0274 44.9601 97.0961 45.0255L97.5177 45.5877L97.8494 46.1499H97.3069L97.0511 45.7001C96.9411 45.4799 96.799 45.2771 96.6294 45.0985C96.6132 45.0795 96.593 45.0642 96.5704 45.0536L96.2106 44.9467H95.9295V46.1499H95.4769V43.3107H96.4552C96.517 43.3107 96.576 43.3247 96.621 43.3247C96.8049 43.3187 96.9884 43.3444 97.1635 43.4006C97.3195 43.4412 97.4554 43.5371 97.5458 43.6705H97.5346Z" fill="black"/>
<path d="M98.8137 44.6966C98.8182 44.3119 98.7212 43.9328 98.5326 43.5975C98.3422 43.2567 98.061 42.9755 97.7202 42.7851C97.3909 42.6068 97.0235 42.5104 96.6491 42.504H96.6351C96.2625 42.5107 95.8971 42.6071 95.5697 42.7851C95.2275 42.9746 94.9451 43.256 94.7544 43.5975C94.5576 43.9273 94.4536 44.3042 94.4536 44.6882C94.4536 45.0723 94.5576 45.4492 94.7544 45.7789C94.941 46.1135 95.2176 46.3891 95.5528 46.5745C95.8825 46.7618 96.2559 46.8588 96.6351 46.8556H96.6491C97.0293 46.8596 97.4038 46.7626 97.7342 46.5745C98.0701 46.39 98.3469 46.1142 98.5326 45.7789C98.7188 45.4487 98.8156 45.0757 98.8137 44.6966ZM99.2494 44.6966C99.2499 45.151 99.1296 45.5972 98.9009 45.9898C98.6873 46.4017 98.3514 46.7376 97.9395 46.9512C97.5467 47.1819 97.099 47.3023 96.6435 47.2997H96.6295C96.1749 47.3018 95.7282 47.1814 95.3363 46.9512C94.9248 46.736 94.5885 46.4006 94.3721 45.9898C94.1455 45.5965 94.0263 45.1505 94.0264 44.6966C94.0222 44.2316 94.1415 43.7737 94.3721 43.3698C94.6003 42.963 94.9396 42.6295 95.3504 42.4084C95.7435 42.1938 96.1818 42.0753 96.6295 42.0626H96.6435C97.0921 42.0687 97.532 42.1876 97.9226 42.4084C98.3387 42.6222 98.6799 42.9575 98.9009 43.3698C99.1336 43.773 99.254 44.2312 99.2494 44.6966Z" fill="black"/>
<path d="M73.6542 23.4333L86.0091 44.0191H73.6542H66.1597L54.3643 24.3525L45.4277 9.47045L54.3643 4.0984L59.9921 0.713806L73.6542 23.4333Z" fill="black"/>
<path d="M82.6217 58.3109V66.7442H78.5146V65.8194C77.083 66.7551 75.4094 67.2524 73.6992 67.2503H73.6514C71.3083 67.2087 69.0753 66.2488 67.433 64.5771C65.7907 62.9054 64.8705 60.6557 64.8705 58.3123C64.8705 55.9689 65.7907 53.7192 67.433 52.0475C69.0753 50.3758 71.3083 49.4159 73.6514 49.3743H73.6964C75.406 49.3738 77.0789 49.8699 78.5118 50.8024V49.8269H82.6189L82.6217 58.3109ZM78.5146 59.247V57.3804C78.295 56.2634 77.6952 55.257 76.8173 54.5323C75.9394 53.8076 74.8376 53.4094 73.6992 53.4055H73.6514C72.3467 53.4055 71.0954 53.9238 70.1728 54.8464C69.2502 55.7689 68.7319 57.0202 68.7319 58.3249C68.7319 59.6297 69.2502 60.8809 70.1728 61.8035C71.0954 62.7261 72.3467 63.2444 73.6514 63.2444H73.6964C74.8377 63.2374 75.9413 62.8354 76.8197 62.1066C77.6981 61.3779 78.297 60.3674 78.5146 59.247Z" fill="black"/>
<path d="M63.3318 58.3108V66.7442H59.2247V65.8193C57.7924 66.7535 56.1193 67.2507 54.4093 67.2502H54.3643C52.0212 67.2086 49.7882 66.2487 48.1459 64.577C46.5036 62.9054 45.5834 60.6556 45.5834 58.3122C45.5834 55.9688 46.5036 53.7191 48.1459 52.0475C49.7882 50.3758 52.0212 49.4158 54.3643 49.3743H54.4093C56.1186 49.3754 57.7911 49.8714 59.2247 50.8023V44.0191H63.3318V58.3108ZM59.2247 59.2469V57.3804C59.0051 56.2634 58.4053 55.2569 57.5274 54.5322C56.6495 53.8076 55.5476 53.4094 54.4093 53.4054H54.3643C53.0596 53.4054 51.8083 53.9237 50.8857 54.8463C49.9631 55.7689 49.4448 57.0202 49.4448 58.3249C49.4448 59.6296 49.9631 60.8809 50.8857 61.8035C51.8083 62.726 53.0596 63.2443 54.3643 63.2443H54.4093C55.5501 63.2367 56.6531 62.8344 57.5309 62.1057C58.4087 61.377 59.0072 60.3669 59.2247 59.2469Z" fill="black"/>
<path d="M54.3643 35.9231L59.2078 44.0191H54.3643H39.3754L28.3642 25.6934L27.8835 24.8951L28.3642 24.6084L42.462 16.1216L54.3643 35.9231Z" fill="black"/>
<path d="M43.862 49.3743H39.3923V66.7527H43.862V49.3743Z" fill="black"/>
<path d="M43.862 44.1091H39.3923V48.0362H43.862V44.1091Z" fill="black"/>
<path d="M37.3458 58.3108V66.7442H33.2387V65.8193C31.8011 66.7533 30.1235 67.2503 28.4092 67.2502H28.3642C26.0212 67.2086 23.7881 66.2487 22.1459 64.577C20.5036 62.9054 19.5834 60.6556 19.5834 58.3122C19.5834 55.9688 20.5036 53.7191 22.1459 52.0475C23.7881 50.3758 26.0212 49.4158 28.3642 49.3743H28.4092C30.1229 49.3759 31.7997 49.8717 33.2387 50.8023V44.0191H37.3458V58.3108ZM33.2387 59.2469V57.3804C33.0181 56.2612 32.4162 55.2533 31.5354 54.5284C30.6547 53.8036 29.5498 53.4067 28.4092 53.4054H28.3642C27.0595 53.4054 25.8082 53.9237 24.8856 54.8463C23.9631 55.7689 23.4448 57.0202 23.4448 58.3249C23.4448 59.6296 23.9631 60.8809 24.8856 61.8035C25.8082 62.726 27.0595 63.2443 28.3642 63.2443H28.4092C29.5525 63.2399 30.6588 62.8391 31.5395 62.1101C32.4202 61.3811 33.0207 60.3692 33.2387 59.2469Z" fill="black"/>
<path d="M28.3642 37.2471L32.4263 44.0191H28.3642H12.5798L10.3534 40.3028L24.9318 31.5433L28.3642 37.2471Z" fill="black"/>
<path d="M17.8591 58.3109V66.7442H13.752V65.8194C12.3144 66.7534 10.6368 67.2504 8.9225 67.2503H8.87753C6.53448 67.2087 4.30145 66.2488 2.65916 64.5771C1.01688 62.9054 0.0966797 60.6557 0.0966797 58.3123C0.0966797 55.9689 1.01688 53.7192 2.65916 52.0475C4.30145 50.3758 6.53448 49.4159 8.87753 49.3743H8.9225C10.6362 49.3759 12.313 49.8717 13.752 50.8024V49.8269H17.8591V58.3109ZM13.752 59.247V57.3804C13.5314 56.2613 12.9295 55.2533 12.0487 54.5285C11.168 53.8036 10.0631 53.4067 8.9225 53.4055H8.87753C7.5728 53.4055 6.32152 53.9238 5.39894 54.8464C4.47636 55.7689 3.95807 57.0202 3.95807 58.3249C3.95807 59.6297 4.47636 60.8809 5.39894 61.8035C6.32152 62.7261 7.5728 63.2444 8.87753 63.2444H8.9225C10.0658 63.24 11.1721 62.8391 12.0528 62.1102C12.9335 61.3812 13.534 60.3693 13.752 59.247Z" fill="black"/>
</g>
<defs>
<clipPath id="clip0_2:1906">
<rect width="100" height="66.5364" fill="white" transform="translate(0 0.713806)"/>
</clipPath>
</defs>
</svg>
