<svg width="107" height="72" viewBox="0 0 107 72" fill="none" xmlns="http://www.w3.org/2000/svg">
<g clip-path="url(#clip0_2:1844)">
<path d="M44.0497 21.0097L44.0955 0.0942078H61.5252V41.8334L52.7644 41.8794L44.0191 41.9098L44.0497 21.0097ZM57.9476 35.6566C58.1769 35.3661 58.238 35.0603 58.238 34.0207C58.238 32.1401 58.2226 32.1248 55.1496 32.1248H52.7339V31.0546H55.1802C58.238 31.0546 58.238 31.0546 58.238 29.2353C58.238 28.104 58.2075 27.9968 57.8404 27.7064C57.4736 27.4159 57.2288 27.3852 54.9966 27.3852C52.6268 27.3852 52.5656 27.4007 52.1987 27.7674L51.8164 28.1344V31.6203C51.8164 36.2987 51.6635 36.1153 55.3024 36.0541C57.5653 36.0235 57.6569 36.0083 57.9476 35.6566ZM50.7463 35.4884C50.7463 35.0298 50.7463 35.0298 49.829 35.0298C49.095 35.0298 48.8962 34.9688 48.7588 34.7394C48.6669 34.5559 48.6059 32.9965 48.6059 30.7488V27.0641L48.1931 27.11L47.765 27.1559L47.7189 30.6724C47.6885 32.8587 47.7344 34.4029 47.8414 34.7546C48.086 35.626 48.6212 35.9471 49.7678 35.9471H50.7463V35.4884ZM51.0216 26.7889C51.205 26.1314 51.3579 25.5504 51.3579 25.4894C51.3579 25.4433 50.6393 25.3975 49.7678 25.3975H48.1778L48.3307 24.8471C48.499 24.2201 48.4835 24.1896 48.0096 24.1436C47.6885 24.0978 47.6121 24.2048 47.3674 25.0915C47.1993 25.6421 47.0771 26.1312 47.0771 26.2077C47.0771 26.2688 47.7651 26.3147 48.606 26.3147C50.2724 26.3147 50.2418 26.2994 49.982 27.232C49.875 27.6142 49.875 27.7826 50.0279 27.8742C50.517 28.1802 50.7003 27.9968 51.0216 26.7889ZM52.4282 26.6208C52.4282 26.1775 52.5046 25.9786 52.7185 25.8563C53.0549 25.6881 57.1524 25.6424 57.4276 25.8257C57.5195 25.8869 57.6265 26.208 57.6569 26.5443C57.7029 27.0794 57.7488 27.1559 58.131 27.2017C58.5285 27.2478 58.5438 27.2323 58.5438 26.4833C58.5438 25.9022 58.4519 25.627 58.1769 25.2906C57.8405 24.9084 57.7029 24.8625 56.5715 24.8167L55.3331 24.7555V24.2968C55.3331 23.8993 55.2871 23.8536 54.9203 23.8993C54.5839 23.9299 54.4769 24.0369 54.4462 24.3733C54.4003 24.7709 54.3697 24.7861 53.483 24.7861C52.7185 24.7861 52.5197 24.8472 52.1224 25.2142C51.8166 25.4741 51.6177 25.8257 51.5567 26.1927C51.4496 26.9418 51.572 27.2323 52.0459 27.2323C52.3976 27.2323 52.4282 27.1712 52.4282 26.6208ZM53.3455 15.4597V12.7077H58.5438V11.7904H53.3608L53.3149 11.1482C53.2691 10.5521 53.223 10.4908 52.8563 10.4449C52.4434 10.399 52.4282 10.4143 52.4282 11.0871V11.7904H47.2298V12.7077H52.4282V18.2118H53.3455V15.4597ZM49.7678 10.5214C49.7984 10.4143 49.8137 8.74783 49.7984 6.8214L49.7525 3.3202L48.3918 4.97142L47.0311 6.62264L47.3523 6.94372L47.6734 7.26494L47.9639 6.88271C48.132 6.68395 48.4071 6.34759 48.5754 6.13355L48.8965 5.75132L48.9116 8.13626C48.9116 9.45112 48.9575 10.5671 49.0185 10.6129C49.1869 10.7966 49.6761 10.7354 49.7678 10.5214ZM58.5438 9.80277V9.3441H56.6631C55.4095 9.3441 54.7215 9.2831 54.5991 9.16063C54.4922 9.05361 54.4158 8.5032 54.4158 7.76933V6.57678L54.8897 6.40844C55.7306 6.11811 58.3909 4.77267 58.3909 4.63506C58.3909 4.57391 58.2991 4.39044 58.192 4.23755C58.024 3.99292 57.8711 4.03879 56.2505 4.81853L54.4922 5.64414L54.4462 4.5129L54.4003 3.38151H53.4984V5.96537L52.1682 6.36288C51.4191 6.59222 50.7311 6.79098 50.6087 6.837C50.5017 6.86742 50.4559 7.00518 50.5017 7.14278C50.5476 7.28023 50.5936 7.44856 50.5936 7.52501C50.5936 7.7389 51.0523 7.69319 52.3058 7.29567L53.4678 6.94372L53.5288 8.15155C53.5748 9.29823 53.6053 9.38997 54.0794 9.81806C54.5686 10.2614 54.5839 10.2614 56.5562 10.2614H58.5438V9.80277Z" fill="#BA2334"/>
<path d="M52.8407 35.0756C52.7797 35.0297 52.7339 34.5405 52.7339 34.0053V33.0268L55.0731 33.0727L57.397 33.1186L57.4429 33.9289C57.5193 35.152 57.4734 35.1826 55.0272 35.1826C53.8805 35.1826 52.8867 35.1367 52.8407 35.0756ZM52.7643 29.2657L52.8103 28.379H57.397V30.0608L55.0576 30.1066L52.7184 30.1526L52.7643 29.2657Z" fill="#BA2334"/>
<path d="M87.7459 71.6012C87.6234 71.4483 87.5775 71.433 87.6694 71.5553C87.7763 71.7541 87.7611 71.7694 87.6083 71.6165C87.4554 71.494 87.4095 70.852 87.3942 69.2467L87.3789 67.0602L87.2872 69.1244L87.1953 71.1884L87.1647 69.0939C87.1494 67.7025 87.073 66.9687 86.9508 66.8923C86.8438 66.8311 86.8285 66.8464 86.8897 66.9535C86.9355 67.0452 86.8438 67.1981 86.6603 67.2897C86.431 67.4121 86.37 67.4121 86.431 67.3051C86.5074 67.1981 86.4464 67.1675 86.3087 67.2287C86.1711 67.2745 86.1099 67.3816 86.1405 67.458C86.2628 67.6262 85.5135 67.8096 85.2842 67.6568C85.1771 67.5956 85.1313 67.6109 85.1924 67.7026C85.2534 67.8096 84.8712 67.8555 84.0763 67.871C83.4036 67.871 82.8836 67.8098 82.9296 67.7485C82.9601 67.6875 82.8226 67.672 82.5933 67.7181C82.3181 67.7639 82.2263 67.7333 82.3028 67.6262C82.3792 67.5039 82.3334 67.4733 82.1805 67.5344C82.0429 67.5803 81.9359 67.5497 81.9359 67.4426C81.9359 67.3508 81.8594 67.3202 81.7675 67.3816C81.6605 67.4426 81.4617 67.3204 81.2936 67.1216C81.1252 66.9229 81.0336 66.8617 81.0948 66.984C81.1558 67.1216 81.0948 67.1065 80.9723 66.9382C80.8349 66.7853 80.682 66.663 80.6056 66.6478C80.5444 66.6478 80.4985 66.5867 80.5291 66.4949C80.5444 66.4185 80.4985 66.3879 80.4372 66.4338C80.2998 66.5102 79.9633 66.2044 79.7188 65.7763C79.6269 65.6235 79.6576 65.5929 79.8105 65.6693C79.9328 65.7305 79.8717 65.654 79.7035 65.5011C79.2603 65.1342 79.0002 64.2933 79.1225 63.651C79.199 63.2688 79.1684 63.1465 79.0461 63.2229C78.9543 63.2839 78.8779 63.2382 78.8779 63.0853C78.8779 62.9479 78.9238 62.8714 79.0002 62.9019C79.0612 62.9479 79.1072 62.6572 79.1072 62.275C79.1072 61.5564 79.6423 60.1957 80.1775 59.5688C80.3149 59.4007 80.3762 59.3549 80.3149 59.4771C80.2385 59.6146 80.269 59.6606 80.3913 59.5841C80.4832 59.523 80.529 59.4007 80.4832 59.3242C80.3608 59.1255 81.7981 57.627 82.0274 57.7189C82.1345 57.7647 82.3026 57.673 82.4249 57.5354C82.6084 57.3061 82.5933 57.2908 82.364 57.4895C82.2111 57.5965 82.0888 57.6577 82.0888 57.6118C82.0888 57.566 82.3026 57.3672 82.5778 57.1837C82.8378 56.985 83.0061 56.939 82.9296 57.0614C82.8685 57.1683 82.9755 57.0919 83.2048 56.8625C83.4648 56.5722 83.6941 56.465 83.8623 56.5415C84.0305 56.6026 84.0916 56.5873 84.0152 56.465C83.9081 56.2968 84.4585 56.0369 84.8255 56.1134C84.9325 56.1286 84.9784 56.0828 84.9325 56.0063C84.8255 55.8229 85.7275 55.4865 85.9569 55.6241C86.0333 55.67 86.0639 55.6547 86.0179 55.5629C85.8956 55.3642 87.0271 55.0278 87.3786 55.1654C87.5774 55.2419 87.6079 55.2113 87.5162 55.0584C87.4243 54.9055 87.4856 54.8902 87.8065 54.9667C88.1123 55.0431 88.2042 55.0125 88.1278 54.8902C88.0359 54.7679 88.1582 54.7526 88.51 54.8291C88.8158 54.8902 88.9687 54.8749 88.9075 54.7832C88.8158 54.6303 89.6261 54.4468 90.4364 54.4468C91.0633 54.4468 91.4608 54.8902 91.3232 55.4406C91.2467 55.7464 91.2622 55.8383 91.3996 55.7619C91.6137 55.6243 91.629 56.7251 91.3996 57.046C91.2773 57.2295 91.2622 57.1836 91.3232 56.8931L91.4151 56.5109L91.2162 56.8931C91.0787 57.1836 90.9104 57.2753 90.5742 57.26C90.0695 57.26 89.6873 57.0917 89.7943 56.9237C89.8249 56.8625 89.7026 56.6791 89.5344 56.5109C89.3662 56.3427 89.2897 56.297 89.3511 56.4191C89.4428 56.5873 89.3663 56.6179 88.9841 56.5566C88.7242 56.5262 88.5102 56.5566 88.5102 56.633C88.5102 56.7095 88.2808 56.7249 88.0209 56.6636C87.6845 56.6026 87.5928 56.6177 87.7151 56.7095C87.8833 56.8165 87.8222 56.8778 87.5164 56.9543C87.3023 57.0153 87.0423 57.0153 86.9507 56.9543C86.8588 56.8931 86.8284 56.9084 86.8742 57.0001C86.9965 57.1989 86.278 57.4129 86.0333 57.26C85.9263 57.1836 85.911 57.2295 85.9875 57.3518C86.0792 57.5047 86.0485 57.5352 85.8499 57.4588C85.7123 57.3976 85.6205 57.4129 85.6664 57.4894C85.7734 57.6575 85.33 57.841 85.116 57.7033C85.0241 57.6574 84.9937 57.688 85.0395 57.7644C85.1005 57.8562 85.0395 57.9785 84.9019 58.0243C84.749 58.0853 84.7032 58.0549 84.7645 57.9173C84.8255 57.8256 84.7339 57.902 84.5656 58.1008C84.4127 58.2995 84.1988 58.4219 84.1069 58.3607C84.0152 58.3147 83.893 58.3453 83.8317 58.4371C83.7553 58.5595 83.7858 58.5746 83.9387 58.4981C84.1833 58.3607 84.0763 58.4676 83.3883 59.0333C83.052 59.3238 82.9907 59.339 83.159 59.1097C83.3729 58.8345 83.3729 58.8194 83.1284 59.018C82.9755 59.125 82.8836 59.2779 82.9296 59.339C83.0061 59.4614 82.4098 60.0425 82.2569 59.9965C82.2111 59.966 82.1652 60.0119 82.1652 60.1035C82.1652 60.1799 82.0276 60.3328 81.8747 60.4551C81.7065 60.5776 81.5536 60.8069 81.5383 60.9598C81.523 61.128 81.3855 61.556 81.248 61.9382C81.0032 62.5803 81.0032 62.7945 81.202 64.1551C81.2326 64.3234 81.4009 64.5833 81.5996 64.7362C81.7831 64.8891 81.936 65.1185 81.936 65.2408C81.936 65.3631 81.997 65.4395 82.0583 65.3937C82.1348 65.3478 82.3335 65.4395 82.4864 65.5924C82.6546 65.73 82.8839 65.8218 82.991 65.7912C83.1133 65.7453 83.1593 65.7759 83.1133 65.8523C83.0674 65.9288 83.5415 65.9898 84.1682 65.9898C84.7949 65.9898 85.2996 65.9288 85.2996 65.8523C85.2996 65.7912 85.4065 65.7759 85.5442 65.8218C85.6665 65.8676 85.743 65.8523 85.6971 65.7759C85.6513 65.6994 85.7124 65.5924 85.85 65.5466C86.0029 65.4854 86.0488 65.516 85.9876 65.6536C85.9265 65.7453 86.0335 65.6536 86.2169 65.4088C86.4003 65.1795 86.6145 65.0266 86.6909 65.0724C86.7673 65.1336 86.7826 65.0724 86.7368 64.9501C86.6909 64.8278 86.7368 64.6749 86.8438 64.5985C86.9661 64.522 86.9967 64.5526 86.905 64.6902C86.8285 64.8127 86.8438 64.8585 86.9508 64.7821C87.0426 64.7209 87.0883 64.5986 87.0578 64.4916C87.0273 64.3846 87.1189 64.0635 87.2566 63.773C87.5012 63.2838 87.5777 63.2379 88.2045 63.2379C88.8314 63.2379 88.8925 63.2838 88.862 63.5896C88.8314 63.7885 88.8773 63.9108 88.969 63.8495C89.0759 63.7885 89.1219 65.0573 89.1219 67.5188C89.1219 69.6899 89.0607 71.2494 88.9843 71.2037C88.9078 71.1579 88.8008 71.219 88.7549 71.3566C88.6938 71.5094 88.7244 71.5553 88.8467 71.4789C88.9537 71.4024 88.9691 71.433 88.9078 71.5553C88.8314 71.6623 88.6938 71.7082 88.5715 71.6623C88.4492 71.6165 88.3574 71.647 88.3574 71.7235C88.3574 71.9681 87.9905 71.8917 87.7459 71.6012ZM88.923 68.7881C88.8925 68.5892 88.862 68.7421 88.862 69.1244C88.862 69.5066 88.8925 69.6595 88.923 69.4762C88.9537 69.2772 88.9537 68.9715 88.923 68.7881ZM88.923 66.3419C88.8925 66.143 88.862 66.2959 88.862 66.6781C88.862 67.0603 88.8925 67.2132 88.923 67.0299C88.9537 66.831 88.9537 66.5252 88.923 66.3419ZM14.3124 71.1425C14.0831 70.8826 14.0525 70.0723 14.0525 62.5959C14.0525 55.0278 14.0678 54.3245 14.3124 54.233C14.4499 54.1718 16.5598 54.1259 18.9909 54.1259C22.3239 54.1259 23.4706 54.1718 23.5929 54.3247C23.7154 54.4623 23.6999 54.4776 23.5319 54.3706C23.379 54.2788 23.3943 54.3247 23.5625 54.4776C23.7154 54.6152 23.8377 54.8445 23.8377 55.0127C23.8222 55.6701 23.7612 55.6854 19.7706 55.6854H15.9637V58.6972L18.4558 58.6362C20.902 58.5598 21.5442 58.6515 21.2995 59.049C21.2537 59.1255 21.2995 59.1865 21.376 59.1865C21.6665 59.1865 21.5595 59.8899 21.2078 60.1957C21.0243 60.3486 20.9173 60.425 20.9632 60.3331C21.0242 60.2414 20.5962 60.2108 19.7401 60.2567L18.4099 60.3178L19.633 60.4096L20.8562 60.5015L19.6025 60.5319C18.8227 60.5473 18.3335 60.5015 18.3335 60.4096C18.3335 60.3178 17.8748 60.2567 17.1562 60.2721L15.9637 60.2874L16.0095 65.5316L16.0554 70.7759L15.6426 71.0969C15.138 71.4942 14.6335 71.5094 14.3124 71.1425ZM15.8413 70.0877C15.7953 69.9348 15.7649 70.0571 15.7649 70.3475C15.7649 70.638 15.7953 70.7603 15.8413 70.6228C15.8719 70.4699 15.8719 70.2252 15.8413 70.0877ZM15.8413 63.2839C15.8259 62.0762 15.7953 63.0546 15.7953 65.455C15.7953 67.8554 15.8259 68.834 15.8413 67.6415C15.8719 66.4335 15.8719 64.4765 15.8413 63.2839ZM15.8413 56.6332C15.8108 56.3886 15.7802 56.5567 15.7802 56.9695C15.7802 57.3976 15.8108 57.5811 15.8413 57.3976C15.8719 57.1989 15.8719 56.8625 15.8413 56.6332ZM97.3168 67.733C97.3933 67.5954 97.2251 67.5802 96.69 67.6566C96.1701 67.7483 96.002 67.7178 96.0784 67.5954C96.1548 67.4731 96.0172 67.458 95.6197 67.5344C95.2221 67.5954 95.0692 67.5803 95.1456 67.4733C95.2068 67.3815 95.115 67.351 94.901 67.4123C94.7022 67.4581 94.6105 67.4276 94.6717 67.3358C94.7481 67.2288 94.6562 67.1982 94.4423 67.2594C94.1975 67.3204 94.1518 67.2898 94.2436 67.1369C94.3353 66.984 94.3046 66.9536 94.1211 67.0301C93.9682 67.0759 93.8613 67.0605 93.8613 66.984C93.8613 66.9076 93.7543 66.8923 93.6014 66.9382C93.418 67.0146 93.3874 66.984 93.4791 66.8311C93.5708 66.6937 93.5401 66.663 93.4027 66.7547C93.2802 66.8311 93.0969 66.7394 92.9134 66.5101C92.7451 66.3113 92.6686 66.2502 92.7299 66.3725C92.8217 66.5408 92.7452 66.5254 92.4089 66.3115C91.2775 65.5929 90.9868 65.0272 91.5374 64.5838C91.6748 64.4613 91.7056 64.4155 91.5833 64.4768C91.4457 64.5532 91.3998 64.5226 91.4762 64.4003C91.5527 64.2933 91.721 64.2627 91.9043 64.3239C92.1184 64.3849 92.1797 64.3543 92.1184 64.2474C92.0572 64.1556 92.1184 64.0791 92.256 64.0791C92.5312 64.0791 93.4027 64.4919 93.4027 64.6297C93.4027 64.6755 93.3262 64.6603 93.2192 64.5991C93.1122 64.5379 93.0969 64.5532 93.158 64.6755C93.2192 64.7673 93.3415 64.8131 93.4179 64.7673C93.4944 64.7063 93.6932 64.7673 93.8766 64.8897C94.0448 65.0121 94.1365 65.1495 94.0601 65.1801C93.9989 65.2259 94.0142 65.2259 94.1211 65.2107C94.3813 65.1492 95.2375 65.455 95.2375 65.6079C95.2375 65.669 95.3904 65.6998 95.5737 65.6384C95.7878 65.5926 95.8642 65.6232 95.7878 65.7303C95.7113 65.8526 95.8336 65.8832 96.1853 65.8221C96.4758 65.7762 96.6135 65.7915 96.5065 65.8679C96.4146 65.9291 97.0262 65.9902 97.9131 65.9902C98.815 65.9902 99.4573 65.9292 99.396 65.8528C99.3501 65.7763 99.4724 65.7458 99.6408 65.7916C99.8546 65.8528 99.9465 65.8222 99.8701 65.7152C99.8089 65.6235 99.9007 65.5929 100.115 65.6542C100.313 65.7001 100.42 65.7001 100.375 65.6387C100.237 65.5013 101.2 65.1342 101.399 65.2565C101.475 65.3024 101.506 65.2871 101.46 65.1955C101.414 65.1191 101.613 64.8133 101.919 64.5228C102.24 64.2323 102.393 64.1406 102.27 64.3088C102.056 64.5841 102.056 64.5992 102.301 64.4158C102.454 64.2935 102.515 64.11 102.469 63.9724C102.408 63.8042 102.439 63.7585 102.546 63.8349C102.668 63.9114 102.699 63.8502 102.622 63.6821C102.546 63.4833 102.576 63.4527 102.729 63.5445C102.836 63.6209 102.897 63.6056 102.836 63.5292C102.79 63.4527 102.744 63.0399 102.714 62.6271C102.683 62.199 102.591 61.8168 102.515 61.7556C102.423 61.6946 102.347 61.5569 102.347 61.4498C102.347 61.343 102.24 61.2511 102.117 61.2511C101.995 61.2358 101.903 61.1746 101.919 61.0829C101.934 61.0065 101.827 60.93 101.689 60.9146C101.323 60.8835 100.283 60.5013 100.283 60.4096C100.283 60.3637 100.038 60.3486 99.7323 60.379C99.4113 60.425 99.1362 60.379 99.0749 60.2721C98.9832 60.1497 98.8303 60.1497 98.4633 60.2721C98.1881 60.3639 97.6989 60.4096 97.3625 60.3639C96.965 60.318 96.7968 60.3333 96.858 60.4403C96.9344 60.5473 96.7815 60.5626 96.384 60.5015C95.9558 60.4096 95.8489 60.4403 95.9406 60.5779C96.0171 60.7154 95.9406 60.7308 95.6349 60.6544C95.3597 60.5932 95.2526 60.6083 95.3138 60.7154C95.482 60.9906 94.5339 60.8837 94.274 60.5931C93.7236 59.9815 93.9682 59.5381 96.1393 57.1377C98.4482 54.615 98.9833 54.2481 99.5643 54.8291C99.9465 55.196 99.7325 56.5873 99.3503 56.3427C99.2738 56.2968 99.228 56.3427 99.2432 56.465C99.2738 56.572 99.2279 56.6485 99.1364 56.6332C99.0599 56.6332 98.8459 56.8015 98.693 57.0154L98.3872 57.4282L98.7694 57.1224C98.9682 56.9543 98.8612 57.1071 98.5401 57.4588C98.2037 57.8104 97.8827 58.0704 97.8062 58.0245C97.7451 57.9786 97.7298 58.0551 97.7756 58.1774C97.8521 58.3761 98.1273 58.422 99.0446 58.422C99.8397 58.422 100.13 58.4679 99.9774 58.5749C99.8245 58.6668 99.9314 58.6972 100.329 58.6208C100.681 58.5749 100.895 58.5903 100.895 58.6972C100.895 58.7737 101.032 58.8197 101.201 58.7737C101.384 58.7278 101.506 58.7737 101.506 58.8655C101.506 58.9726 101.583 59.003 101.659 58.9573C101.751 58.9114 101.812 58.9267 101.812 59.0184C101.812 59.1102 101.919 59.1255 102.072 59.0794C102.255 59.003 102.286 59.0336 102.194 59.1865C102.118 59.3241 102.133 59.3548 102.24 59.2783C102.485 59.1255 103.066 59.4617 102.943 59.6759C102.882 59.7829 102.913 59.7982 103.02 59.737C103.249 59.5994 104.472 60.7918 104.335 61.0211C104.289 61.0976 104.32 61.174 104.411 61.174C104.518 61.174 104.549 61.2811 104.503 61.4188C104.442 61.5563 104.473 61.6176 104.58 61.5411C104.702 61.48 104.717 61.5564 104.641 61.7858C104.564 62.0151 104.58 62.0915 104.702 62.0305C104.824 61.9541 104.87 62.1987 104.87 62.8103C104.87 63.4677 104.824 63.6359 104.702 63.4677C104.579 63.2842 104.564 63.3148 104.641 63.59C104.763 64.0183 104.595 64.5685 104.381 64.4464C104.274 64.3699 104.259 64.4158 104.335 64.5381C104.411 64.6451 104.304 64.8439 104.075 65.0579C103.876 65.2261 103.815 65.3178 103.953 65.2414C104.075 65.1495 103.876 65.4249 103.494 65.8224C102.775 66.5868 102.133 67.0455 102.347 66.648C102.408 66.541 102.317 66.602 102.164 66.7854C101.828 67.1982 100.666 67.6263 100.222 67.504C99.9623 67.4429 99.947 67.4582 100.13 67.5958C100.314 67.7334 100.237 67.7486 99.7787 67.6722C99.3656 67.6107 99.2127 67.626 99.2891 67.733C99.3501 67.8401 99.0292 67.9012 98.2953 67.9012C97.5156 67.9012 97.2404 67.8554 97.3168 67.733ZM33.6225 67.5954C33.7754 67.5037 33.6684 67.4886 33.2556 67.5496C32.7969 67.626 32.6899 67.5954 32.7816 67.4426C32.8581 67.3051 32.8122 67.2897 32.5829 67.3508C32.2617 67.4578 31.4821 67.1826 31.4821 66.9533C31.4821 66.8921 31.4362 66.8463 31.375 66.8463C31.0234 66.9073 30.7941 66.7698 30.0908 66.1124C29.6781 65.7302 29.3569 65.3174 29.4028 65.2103C29.4488 65.088 29.4028 64.9657 29.311 64.9046C29.204 64.8281 29.1887 64.874 29.2499 65.0116C29.311 65.1339 29.2653 65.1033 29.1276 64.9504C29.0052 64.7823 28.9441 64.5529 28.9901 64.4153C29.0511 64.2777 29.0205 64.2166 28.9289 64.2777C28.7149 64.4153 28.562 64.0025 28.6843 63.6662C28.7608 63.4828 28.7302 63.4523 28.5773 63.5438C28.4244 63.6357 28.409 63.5744 28.4854 63.2535C28.5619 62.963 28.5314 62.8558 28.4244 62.9323C28.2868 63.0087 28.2715 62.7948 28.3325 62.1525C28.3937 61.541 28.3785 61.3726 28.2867 61.6327L28.1492 62.0149L28.1338 61.6021C28.1185 61.3575 28.1949 61.174 28.2867 61.174C28.3785 61.174 28.4243 61.067 28.3631 60.9447C28.2408 60.6083 28.4395 59.7827 28.623 59.905C28.7147 59.9509 28.73 59.9203 28.6689 59.8133C28.516 59.5685 28.7147 59.0028 28.9137 59.1253C29.0205 59.2017 29.036 59.1557 28.9747 59.0489C28.8982 58.9418 28.9747 58.7584 29.1276 58.636C29.2959 58.4984 29.3263 58.4526 29.2194 58.4984C29.0511 58.5903 29.036 58.5443 29.1734 58.2846C29.2804 58.1162 29.418 57.9633 29.4945 57.9633C29.5862 57.9633 29.6319 57.9023 29.6168 57.8259C29.5862 57.7647 29.7085 57.566 29.8767 57.4131C30.0602 57.2447 30.0906 57.1837 29.9532 57.2755C29.8003 57.3674 29.8156 57.3061 30.0142 57.092C30.1671 56.8932 30.366 56.7862 30.4575 56.8474C30.5493 56.8932 30.5646 56.8627 30.5034 56.7709C30.4424 56.6792 30.5493 56.4804 30.7327 56.3276C30.9162 56.1747 31.1761 55.93 31.2984 55.7924C31.436 55.655 31.6042 55.5785 31.6807 55.6243C31.7724 55.6701 31.7877 55.6395 31.7265 55.5478C31.6195 55.3643 32.2311 54.8751 32.4145 54.9974C32.4757 55.0278 32.5829 54.982 32.6439 54.8904C32.7203 54.7681 32.6745 54.7375 32.5369 54.8139C32.2311 54.9821 32.8732 54.4623 33.2249 54.2634C33.4389 54.1411 33.4848 54.1565 33.3932 54.3245C33.3168 54.4316 33.4391 54.3398 33.6684 54.1105C34.0812 53.6673 34.3258 53.5449 34.1577 53.8811C34.0965 53.973 34.1882 53.8966 34.3564 53.6978C34.5399 53.4685 34.7234 53.3766 34.8457 53.4531C34.968 53.5295 35.0138 53.5142 34.9527 53.4225C34.8302 53.2237 35.2585 53.025 35.4878 53.1779C35.5795 53.2237 35.6101 53.2084 35.5642 53.1167C35.4572 52.9334 36.1758 52.5663 36.3897 52.6886C36.4662 52.7498 36.5273 52.704 36.5273 52.6122C36.5273 52.5051 36.6343 52.4747 36.7719 52.5204C36.9248 52.5814 36.9707 52.551 36.8942 52.4285C36.8178 52.3217 36.8942 52.2911 37.1083 52.3368C37.2918 52.398 37.4446 52.3674 37.4446 52.2756C37.4446 52.1992 37.5975 52.1839 37.7657 52.2298C37.9951 52.3062 38.0562 52.2909 37.9798 52.1688C37.9033 52.0463 37.9951 52.0159 38.3008 52.0923C38.5608 52.1533 38.6831 52.1382 38.6221 52.0463C38.4845 51.8324 39.3101 51.6795 39.9216 51.8017C40.2578 51.8628 40.3649 51.8476 40.2884 51.7252C40.212 51.5876 40.4719 51.5418 41.2516 51.5418C42.5512 51.5418 42.796 51.7865 42.7805 52.9942C42.7805 53.5905 42.7501 53.6977 42.6276 53.4529C42.5208 53.2083 42.5053 53.2541 42.5666 53.6364C42.6584 54.2785 42.5361 54.5996 42.2303 54.4926C42.0621 54.4316 42.0162 54.4621 42.0927 54.569C42.1691 54.6915 42.0623 54.7525 41.7716 54.7525C41.2824 54.7525 40.839 54.3397 40.9001 53.9422C40.9307 53.6517 40.5333 53.3765 40.0898 53.3765C39.8758 53.3765 39.8605 53.407 40.0287 53.5141C40.1663 53.6058 39.9982 53.6822 39.5241 53.7434C39.1419 53.8044 38.7444 53.8044 38.6374 53.7434C38.5456 53.6822 38.515 53.6975 38.5609 53.7893C38.6985 54.0033 38.0258 54.1715 37.6589 54.0339C37.4907 53.9729 37.4295 54.0035 37.4907 54.095C37.613 54.2785 36.4051 54.7831 36.1758 54.6455C36.0839 54.5845 36.0688 54.6302 36.1452 54.7525C36.237 54.9054 36.2062 54.9359 36.0076 54.8595C35.8395 54.7831 35.7783 54.8136 35.8547 54.9359C35.9312 55.0583 35.8853 55.0735 35.7019 55.0124C35.5644 54.9512 35.4725 54.9665 35.5184 55.043C35.6254 55.1959 35.1822 55.3946 34.9987 55.2876C34.9223 55.2417 34.7847 55.3487 34.6929 55.5169C34.601 55.6853 34.4636 55.8227 34.3717 55.8227C34.28 55.8227 34.2648 55.7617 34.3107 55.6698C34.4636 55.4252 34.2953 55.5016 34.0659 55.7768C33.8826 56.0062 33.8826 56.0215 34.0814 55.8992C34.3871 55.731 34.1884 55.9297 33.2405 56.6942C32.8277 57.0305 32.4149 57.321 32.3231 57.3363C32.2467 57.3363 32.1702 57.4281 32.1702 57.5198C32.1702 57.6115 31.9715 57.856 31.7116 58.0702C31.4668 58.2843 31.3446 58.4066 31.4516 58.3454C31.574 58.2844 31.3905 58.6053 31.0694 59.0489C30.7483 59.5075 30.4426 59.8898 30.3967 59.9202C30.3357 59.9508 30.3202 60.1191 30.3663 60.3024C30.4121 60.5013 30.3816 60.5623 30.3051 60.4553C30.244 60.3636 30.1828 60.8375 30.1828 61.5716C30.1828 62.2748 30.2438 62.8557 30.3051 62.8557C30.3816 62.8557 30.3816 63.0086 30.3357 63.1769C30.2592 63.3757 30.2898 63.4672 30.3816 63.4062C30.5497 63.2992 30.7638 63.7273 30.6262 63.9414C30.5803 64.0178 30.6568 64.1247 30.7791 64.1707C30.9167 64.2166 30.978 64.3389 30.9167 64.4306C30.8708 64.5071 30.9014 64.5375 30.9778 64.4916C31.1766 64.3693 31.6811 64.9044 31.5282 65.0573C31.4671 65.1185 31.5282 65.1185 31.6811 65.0573C31.8493 64.9961 31.9716 65.0573 32.0328 65.2102C32.0786 65.3478 32.1857 65.409 32.2621 65.3631C32.3386 65.3172 32.3997 65.3631 32.3997 65.4395C32.3997 65.5313 32.4456 65.5924 32.522 65.5924C32.8737 65.5313 33.3629 65.623 33.21 65.73C33.1183 65.791 33.577 65.8369 34.2497 65.8369C34.9071 65.8369 35.4575 65.7759 35.4575 65.6994C35.4575 65.6383 35.641 65.623 35.855 65.6689C36.1455 65.7453 36.222 65.7147 36.1302 65.5924C36.0538 65.4548 36.115 65.4395 36.3596 65.5007C36.5585 65.5466 36.6654 65.5466 36.6195 65.4852C36.4821 65.3478 37.4451 64.9807 37.6439 65.103C37.7356 65.1489 37.7509 65.1185 37.6897 65.0266C37.6287 64.9196 37.6744 64.8278 37.7816 64.8278C37.8885 64.8125 38.0568 64.7972 38.1484 64.7819C38.2554 64.7819 38.5153 64.5679 38.7294 64.3386C38.9434 64.1092 39.1881 63.941 39.2645 64.0022C39.341 64.0481 39.4634 64.0022 39.5244 63.9105C39.6009 63.7882 39.555 63.7576 39.4174 63.834C39.2951 63.895 39.3715 63.8034 39.5857 63.6353C39.9985 63.2989 40.5031 63.207 40.5031 63.4824C40.5031 63.5588 40.5641 63.6047 40.6405 63.5434C40.9769 63.3446 41.2217 64.3537 40.9769 64.8277C40.8851 64.9806 40.4572 65.3781 40.0137 65.6991C39.5703 66.0049 39.2798 66.1731 39.3562 66.0508C39.448 65.9285 39.3562 65.9896 39.1879 66.1884C38.9737 66.4183 38.775 66.5252 38.6679 66.4488C38.5303 66.357 38.4996 66.3878 38.5915 66.5252C38.6832 66.6781 38.6525 66.7087 38.4539 66.6322C38.3164 66.5712 38.24 66.5864 38.2857 66.6628C38.3927 66.8463 37.8116 67.0297 37.5823 66.8921C37.4599 66.8157 37.4448 66.8463 37.5212 66.9839C37.613 67.1368 37.5823 67.1674 37.3836 67.0909C37.2462 67.0299 37.1543 67.045 37.2002 67.1215C37.3226 67.305 36.6192 67.4731 36.2828 67.3355C36.0995 67.2591 36.0535 67.2895 36.1454 67.4273C36.2371 67.5802 36.0842 67.6107 35.4419 67.5343C34.8764 67.4884 34.7386 67.5037 34.9987 67.5802C35.289 67.6872 35.1516 67.7178 34.3871 67.733C33.699 67.733 33.4696 67.7025 33.6225 67.5954ZM44.4778 67.565C44.4778 67.4731 44.4319 67.4426 44.3708 67.4886C44.2026 67.6568 43.8815 67.2745 43.9732 67.0299C44.0342 66.8616 44.0037 66.8159 43.8968 66.8923C43.7898 66.9535 43.7133 66.7853 43.6827 66.4183L43.6369 65.8372L42.9642 65.8832C42.4596 65.9291 42.322 65.8985 42.4137 65.7456C42.5055 65.608 42.4596 65.5774 42.2914 65.6539C41.8328 65.8372 41.7103 64.7365 42.1538 64.3389C42.322 64.186 42.7042 64.079 43.0712 64.079H43.7133V59.4922C43.7133 56.0981 43.7592 54.9055 43.8968 54.9055C43.9885 54.9055 44.0342 54.8597 43.9732 54.8138C43.9272 54.7526 43.9732 54.615 44.0955 54.508C44.3859 54.2022 45.1658 54.2481 45.4104 54.569C45.5939 54.7983 45.5939 54.8138 45.3951 54.676C45.2575 54.5996 45.2728 54.6302 45.4257 54.7831C45.6855 55.0124 45.7009 55.3946 45.7009 59.5532V64.0635L48.7281 64.1094L51.7401 64.1552L51.7859 57.8103C51.8012 53.6977 51.8777 51.4808 51.9694 51.4959C52.0612 51.5265 52.1223 51.4653 52.1223 51.3889C52.1223 51.2971 52.2905 51.236 52.5045 51.236C52.7184 51.236 52.8868 51.2971 52.8868 51.3889C52.8868 51.4653 52.9326 51.5265 53.0091 51.5265C53.2994 51.4806 53.3913 51.5571 53.1925 51.6947C52.9936 51.817 53.0091 51.8476 53.2384 51.8476C53.483 51.8476 53.4983 52.3217 53.4983 59.4921C53.4983 66.9379 53.4829 67.1521 53.1925 67.4424C52.8868 67.7482 52.1682 67.8858 52.3362 67.6107C52.3821 67.5343 52.3209 67.4273 52.1833 67.3814C52.0304 67.3202 51.9846 67.3508 52.061 67.4884C52.1527 67.6259 52.1374 67.6259 51.954 67.4884C51.8011 67.366 51.7246 67.0756 51.7401 66.724C51.7705 65.8219 51.6025 65.7606 48.8352 65.7912C46.985 65.8066 46.6487 65.837 47.4591 65.9135L48.5294 66.0054L47.3367 66.036C46.5722 66.0512 46.1747 66.0054 46.236 65.9135C46.297 65.8218 46.1441 65.7606 45.8997 65.776C45.6703 65.776 45.548 65.8219 45.6397 65.8525C45.8385 65.9442 45.7315 66.6779 45.5174 66.6779C45.441 66.6779 45.4104 66.8004 45.4716 66.9684C45.5633 67.2742 45.1964 67.6717 44.9364 67.5188C44.86 67.473 44.7836 67.5036 44.7836 67.58C44.7836 67.6717 44.7224 67.7482 44.6307 67.7482C44.5542 67.7483 44.4778 67.6719 44.4778 67.565ZM43.9732 57.2447C43.9578 56.0063 43.9272 56.985 43.9272 59.4158C43.9272 61.862 43.9578 62.8713 43.9732 61.6786C44.0038 60.486 44.0038 58.4984 43.9732 57.2447ZM55.0884 67.5343C54.8591 67.366 54.7673 67.1215 54.752 66.6779C54.7367 66.2957 54.7826 66.0818 54.8745 66.1428C54.9662 66.1888 54.9814 66.1275 54.9355 66.0054C54.8896 65.8678 54.9202 65.7606 55.0119 65.7606C55.1038 65.7606 55.1343 65.6537 55.0731 65.5008C54.9967 65.3174 55.0272 65.2868 55.1801 65.3784C55.3024 65.4548 55.3483 65.4395 55.287 65.3325C55.1495 65.1186 55.333 64.6751 55.501 64.7821C55.5775 64.828 55.5928 64.7667 55.5469 64.6445C55.501 64.5223 55.5624 64.3234 55.6845 64.2164C55.9138 63.9871 55.9444 63.8952 55.9444 63.5284C55.9444 63.3908 56.0209 63.3449 56.1277 63.4061C56.2196 63.4671 56.2502 63.452 56.1889 63.3449C56.0819 63.1615 56.6934 61.7854 56.9075 61.7854C56.9685 61.7854 56.9992 61.7244 56.9381 61.648C56.8156 61.434 57.1827 60.7152 57.3662 60.8224C57.4579 60.8835 57.4885 60.8224 57.4272 60.6695C57.3813 60.5166 57.3967 60.4096 57.4883 60.4096C57.5799 60.4096 57.5953 60.3486 57.5495 60.2567C57.5035 60.1802 57.534 60.1038 57.6259 60.1038C57.7177 60.1038 57.7634 60.0428 57.7177 59.9664C57.5953 59.7674 57.7788 59.3242 57.947 59.4312C58.0234 59.4771 58.0387 59.3852 57.9776 59.2478C57.9011 59.049 57.9317 59.0184 58.0846 59.1102C58.2069 59.1866 58.2528 59.1713 58.1915 59.0796C58.0386 58.835 58.3904 57.9483 58.5891 58.0705C58.6656 58.1164 58.6962 58.0858 58.6501 57.9941C58.5127 57.78 58.6962 57.3366 58.8642 57.4437C58.9406 57.4895 58.9559 57.4131 58.91 57.2908C58.8648 57.153 58.8954 57.046 59.0024 57.046C59.0941 57.046 59.1247 56.985 59.0788 56.8931C59.0328 56.8167 59.0634 56.7402 59.1553 56.7402C59.247 56.7402 59.2927 56.6792 59.247 56.6028C59.1094 56.3887 59.3235 55.9606 59.5069 56.0829C59.5834 56.1288 59.614 56.0982 59.5679 56.0065C59.4305 55.7924 59.614 55.3491 59.782 55.4561C59.8584 55.5019 59.889 55.4406 59.8431 55.3336C59.7361 55.0433 59.9806 54.7375 60.3477 54.7068C60.5159 54.7068 60.638 54.6303 60.5923 54.5692C60.5464 54.5082 60.4088 54.4927 60.2559 54.5387C60.0421 54.6152 60.0266 54.5997 60.2255 54.4623C60.5466 54.233 61.0358 54.2482 60.8981 54.4776C60.8216 54.5999 60.8675 54.6152 61.051 54.554C61.2039 54.4929 61.2803 54.5082 61.2193 54.5999C61.1733 54.6918 61.2346 54.7528 61.3568 54.7528C61.632 54.7528 61.9683 55.3033 61.8309 55.5172C61.7849 55.6091 61.8003 55.6701 61.8767 55.6701C61.9532 55.6701 61.9991 55.8385 61.9838 56.0371C61.9532 56.3274 61.9991 56.3887 62.1825 56.3274C62.366 56.251 62.3964 56.297 62.32 56.4957C62.2435 56.6639 62.2741 56.7251 62.3811 56.6486C62.4882 56.5875 62.534 56.6332 62.4882 56.7557C62.4423 56.878 62.5187 57.0614 62.6256 57.1837C62.7481 57.2908 62.8091 57.4895 62.7632 57.6118C62.7173 57.7341 62.7326 57.7953 62.8091 57.7494C62.9774 57.6424 63.1607 58.0856 63.0384 58.2846C62.9925 58.361 63.0384 58.422 63.1303 58.422C63.222 58.422 63.2526 58.4984 63.2067 58.5749C63.1607 58.6668 63.1762 58.7278 63.2526 58.7278C63.4055 58.7278 63.7877 59.5534 63.7877 59.8899C63.7877 60.0122 63.8642 60.1038 63.9406 60.1038C64.0323 60.1038 64.0629 60.1497 64.0016 60.1957C63.9557 60.2567 64.0171 60.3944 64.1392 60.5168C64.2615 60.6544 64.338 60.8531 64.2921 60.9601C64.2462 61.0825 64.2615 61.174 64.338 61.174C64.4909 61.174 65.0107 62.3054 65.0107 62.6265C65.0107 62.7488 65.0717 62.8558 65.1481 62.8558C65.2246 62.8558 65.24 62.9323 65.1942 63.0087C65.1481 63.1006 65.1787 63.1616 65.2706 63.1616C65.3775 63.1616 65.4081 63.2686 65.3623 63.4064C65.3012 63.5593 65.3318 63.6052 65.4541 63.5287C65.5765 63.4523 65.5917 63.4981 65.5305 63.6662C65.4847 63.819 65.4847 63.9261 65.5611 63.9261C65.6376 63.9261 65.6834 64.0484 65.6681 64.2013C65.6528 64.4153 65.7904 64.4612 66.4173 64.4612C66.8454 64.4612 67.2735 64.5223 67.3805 64.5836C67.6251 64.7518 67.6404 65.6692 67.3805 65.5163C67.2735 65.4398 67.2429 65.4857 67.3041 65.6539C67.3651 65.8221 67.2582 65.9291 66.9371 66.0514C66.6925 66.1278 66.4939 66.2502 66.4939 66.296C66.4939 66.342 66.5703 66.342 66.6468 66.296C66.7536 66.235 66.7691 66.342 66.7078 66.6172C66.6313 66.923 66.6468 66.9995 66.7997 66.9076C67.0443 66.7547 66.6926 67.4581 66.4327 67.6262C66.1881 67.7945 65.546 67.7791 65.6377 67.6109C65.6836 67.5344 65.6224 67.4274 65.4848 67.3816C65.3319 67.3204 65.286 67.351 65.3625 67.4886C65.4237 67.5803 65.3319 67.5344 65.1332 67.3816C64.9497 67.2132 64.8427 66.9839 64.8885 66.877C64.9344 66.7394 64.8885 66.7087 64.7815 66.77C64.6745 66.8464 64.6439 66.8006 64.7051 66.6324C64.7509 66.4949 64.6896 66.3572 64.5522 66.3113C64.4146 66.2502 62.5952 66.2194 60.5159 66.2194C57.1064 66.2349 56.7395 66.2654 56.8159 66.4793C56.8771 66.6322 56.8465 66.6934 56.7549 66.6322C56.663 66.5712 56.5409 66.6322 56.495 66.7698C56.4338 66.9073 56.4644 66.9686 56.5714 66.8921C56.6937 66.831 56.6785 66.8921 56.5714 67.1215C56.388 67.4578 56.1586 67.5802 56.3268 67.2591C56.3878 67.1521 56.3421 67.1672 56.2198 67.305C56.1128 67.4424 55.9293 67.5188 55.8376 67.4884C55.7305 67.4424 55.6388 67.4884 55.6388 67.5802C55.6388 67.8095 55.4553 67.7944 55.0884 67.5343ZM63.3598 63.6814C63.2373 63.3757 63.1763 63.0544 63.2373 62.9629C63.2985 62.8711 63.2528 62.8558 63.1304 62.9323C62.9776 63.0242 62.947 62.9934 63.0234 62.7948C63.0999 62.6265 63.0693 62.5655 62.947 62.6419C62.8247 62.7184 62.8094 62.6724 62.8705 62.4891C62.9315 62.3514 62.9164 62.2597 62.84 62.3056C62.6718 62.4126 62.4883 61.9692 62.6106 61.7705C62.6565 61.694 62.6106 61.6329 62.5189 61.6329C62.4119 61.6329 62.3813 61.5258 62.427 61.3882C62.4729 61.2659 62.4576 61.1895 62.3811 61.2353C62.2282 61.3424 61.8766 60.5932 61.9836 60.3944C62.0446 60.318 61.9989 60.2568 61.9072 60.2568C61.8153 60.2568 61.7847 60.1958 61.8307 60.104C61.8766 60.0275 61.846 59.9511 61.7543 59.9511C61.6473 59.9511 61.6167 59.844 61.6624 59.7064C61.7235 59.5535 61.693 59.5077 61.5707 59.5841C61.4483 59.6606 61.4331 59.6146 61.4942 59.4312C61.5707 59.2629 61.5401 59.2019 61.4178 59.2783C61.2954 59.3548 61.2802 59.3088 61.3413 59.1255C61.4023 58.9879 61.3872 58.8961 61.3107 58.942C61.1426 59.049 60.9591 58.6056 61.0814 58.4069C61.1273 58.3304 61.0967 58.2693 61.005 58.2693C60.9132 58.2693 60.8826 58.1775 60.9285 58.0705C60.9744 57.9482 60.8826 57.8718 60.6839 57.8718C60.485 57.8718 60.3934 57.9482 60.4391 58.0705C60.5461 58.3304 60.2252 59.049 60.0569 58.942C59.9804 58.8961 59.9651 58.9726 60.011 59.0949C60.0569 59.2323 60.0263 59.3395 59.9193 59.3395C59.8274 59.3395 59.7817 59.4007 59.8428 59.4771C59.9497 59.6606 59.6135 60.4097 59.43 60.4097C59.3536 60.4097 59.3381 60.4862 59.3842 60.5626C59.43 60.6545 59.3995 60.7155 59.3077 60.7155C59.2158 60.7155 59.1701 60.7767 59.2313 60.8531C59.3536 61.0519 58.9865 61.801 58.8185 61.694C58.742 61.6482 58.6962 61.694 58.7114 61.801C58.8032 62.1986 58.5433 62.8713 58.3598 62.7643C58.2528 62.6878 58.2222 62.7337 58.2833 62.9017C58.3292 63.0393 58.2833 63.2381 58.1763 63.3451C58.0693 63.4521 58.0081 63.6356 58.054 63.7579C58.0999 63.8802 58.054 63.9261 57.947 63.8649C57.84 63.7885 57.8094 63.8495 57.8705 63.9872C57.947 64.2011 58.3751 64.2318 60.7755 64.2318H63.5891L63.3598 63.6814ZM68.451 67.4886C68.3746 67.3815 68.3592 67.2132 68.4205 67.1216C68.4816 66.9993 68.4663 66.984 68.3593 67.0452C68.2219 67.1216 68.176 65.6233 68.176 61.0519V54.9515L68.5276 54.6305C69.0016 54.1871 69.3227 54.2024 69.8272 54.6916C70.0565 54.921 70.133 55.0433 70.0107 54.9974C69.8578 54.921 69.8731 54.9668 70.0411 55.1043C70.194 55.2267 70.2552 55.3796 70.194 55.4406C70.133 55.5171 70.1636 55.5171 70.2704 55.4561C70.4845 55.3336 70.821 55.8687 70.6527 56.0522C70.5915 56.1286 70.6221 56.1439 70.6985 56.0981C70.7903 56.0522 70.9889 56.19 71.1418 56.4038C71.3101 56.6332 71.3405 56.7402 71.2182 56.6638C71.1112 56.5873 71.2641 56.7861 71.5852 57.0919C72.1048 57.627 72.2273 57.841 72.1661 58.1621C72.1508 58.2385 72.1967 58.254 72.2579 58.2232C72.3343 58.1774 72.5791 58.422 72.8236 58.7737C73.0835 59.11 73.1752 59.3393 73.0529 59.2629C72.9306 59.1865 73.0683 59.3548 73.3434 59.6145C73.6645 59.9203 73.8174 60.1651 73.7409 60.2873C73.6799 60.3943 73.695 60.4402 73.7563 60.3637C73.9245 60.2261 74.9183 61.6327 74.796 61.8315C74.7501 61.9234 74.7806 61.9385 74.857 61.8926C75.0405 61.7703 75.5756 62.4889 75.4533 62.6877C75.3615 62.8405 75.6062 63.0699 76.019 63.2073C76.2025 63.2838 76.2789 63.2228 76.2789 62.9934C76.2789 62.8251 76.2177 62.7335 76.126 62.7794C76.019 62.8405 75.9731 60.9753 75.9731 57.2908C75.9731 51.8936 75.9884 51.6797 76.2789 51.389C76.4471 51.2209 76.768 51.0833 76.9973 51.0833C77.502 51.0833 77.9758 51.4809 77.8537 51.8171C77.7925 51.97 77.8231 52.016 77.9301 51.9396C78.0676 51.8631 78.1136 53.6673 78.1136 59.4465C78.1136 68.0238 78.1594 67.7181 77.0586 67.6873C76.7223 67.6719 76.4012 67.6109 76.3248 67.5344C76.2483 67.458 76.2942 67.4426 76.4318 67.5039C76.5541 67.5803 76.4777 67.4733 76.2635 67.2745C76.0496 67.0758 75.7742 66.77 75.6519 66.6171C75.4684 66.3572 75.4684 66.3266 75.6673 66.4336C75.7896 66.4948 75.7283 66.4031 75.5144 66.2196C75.3004 66.0363 75.2391 65.9292 75.3615 65.9902C75.4839 66.0514 75.4226 65.9444 75.2087 65.7609C74.9946 65.5776 74.9333 65.4706 75.0558 65.5316C75.1781 65.5927 75.1016 65.4857 74.8874 65.2869C74.6735 65.0882 74.3982 64.7824 74.2759 64.6295C74.0924 64.3696 74.0924 64.339 74.2913 64.446C74.4136 64.5072 74.3523 64.4155 74.1384 64.232C73.9244 64.0485 73.8631 63.9417 73.9855 64.0027C74.1078 64.0638 74.0465 63.9721 73.8479 63.8039C73.6339 63.6357 73.5269 63.437 73.588 63.3299C73.6645 63.2229 73.6186 63.1771 73.4963 63.1923C73.3893 63.2229 73.3128 63.1465 73.3434 63.0547C73.3587 62.9479 73.3128 62.856 73.2364 62.856C73.0376 62.856 71.8145 61.0367 71.9215 60.8838C71.9674 60.8074 71.9215 60.6849 71.8296 60.6239C71.7073 60.5628 71.6922 60.5781 71.7532 60.6849C71.8143 60.792 71.8296 60.8684 71.799 60.8684C71.7073 60.8684 70.6984 59.2936 70.7135 59.1866C70.7288 59.1407 70.6065 58.9879 70.4536 58.8502C70.1784 58.575 70.1633 58.6974 70.1633 62.8254C70.1633 67.611 70.1478 67.672 69.1695 67.672C68.8638 67.6719 68.5428 67.5954 68.451 67.4886ZM77.9148 63.8955C77.8844 63.6967 77.8538 63.8496 77.8538 64.2318C77.8538 64.6141 77.8844 64.767 77.9148 64.5836C77.9456 64.3847 77.9456 64.079 77.9148 63.8955ZM76.233 55.0125C76.2177 53.6518 76.1872 54.8138 76.1872 57.5811C76.1872 60.3637 76.2177 61.4645 76.233 60.0579C76.2638 58.6361 76.2638 56.3733 76.233 55.0125ZM77.9148 59.3088C77.8844 58.942 77.8538 59.2323 77.8538 59.9509C77.8538 60.6695 77.8844 60.9601 77.9148 60.6083C77.9456 60.2414 77.9456 59.6604 77.9148 59.3088ZM77.9148 54.722C77.8844 54.1869 77.869 54.6152 77.869 55.67C77.869 56.7249 77.8844 57.153 77.9148 56.6332C77.9456 56.0981 77.9456 55.2419 77.9148 54.722ZM0.338224 67.4273C0.24649 67.3355 0.200622 67.1521 0.24649 67.0145C0.307493 66.8616 0.276915 66.8157 0.154602 66.8921C0.0171535 66.9839 -0.0134246 65.6232 0.0324426 60.9906C0.0630207 57.6881 0.124177 54.8291 0.154755 54.6303C0.185333 54.4468 0.322935 54.2175 0.445248 54.1411C0.812032 53.9117 1.45433 53.9729 1.68366 54.2634C1.88242 54.5082 1.88242 54.5082 1.60722 54.294C1.37788 54.1258 1.33201 54.1258 1.42375 54.2787C1.50019 54.3857 1.77555 54.569 2.06589 54.6915C2.69289 54.9512 2.78448 54.9512 2.64687 54.7373C2.57043 54.5997 2.66232 54.5844 2.95266 54.6609C3.25844 54.7373 3.35032 54.7219 3.25844 54.5844C3.18199 54.4468 3.27388 54.4316 3.64066 54.4926C3.97702 54.569 4.09934 54.5386 4.02289 54.4161C3.94644 54.2938 4.08405 54.2787 4.497 54.3551C4.90996 54.4316 5.03212 54.4161 4.95568 54.294C4.86379 54.1565 4.97097 54.1411 5.32246 54.2175C5.62824 54.2787 5.79658 54.2634 5.79658 54.1565C5.79658 54.0495 6.28583 53.9882 7.17259 53.9882C7.99805 53.9882 8.54861 54.0493 8.54861 54.1411C8.54861 54.233 8.71679 54.2634 8.94613 54.2022C9.25191 54.1258 9.32835 54.1411 9.23662 54.294C9.16017 54.4316 9.20604 54.4468 9.45051 54.3704C9.63398 54.3092 9.77158 54.3398 9.77158 54.4316C9.77158 54.5233 9.8786 54.5386 10.0315 54.4926C10.1997 54.4316 10.2454 54.4467 10.1689 54.569C10.0925 54.6915 10.1384 54.7219 10.3065 54.6609C10.4594 54.5997 10.8262 54.8444 11.3921 55.4253C12.0648 56.0979 12.2177 56.3427 12.1412 56.6026C12.0648 56.8319 12.0801 56.8929 12.2022 56.8319C12.3096 56.7555 12.3707 56.9695 12.3707 57.5047C12.3707 57.9328 12.3096 58.2538 12.2331 58.2081C12.1567 58.1621 12.0497 58.2234 12.0038 58.361C11.9579 58.4833 11.9732 58.5443 12.0649 58.4984C12.3707 58.2997 12.2024 58.6972 11.8815 58.9418C11.6827 59.0793 11.6368 59.1557 11.7592 59.0947C11.8815 59.0336 11.5908 59.3699 11.117 59.8592C10.5819 60.3789 10.1538 60.6846 10.0468 60.6236C9.95505 60.5625 9.92447 60.5778 9.97034 60.6695C10.0927 60.8683 9.66456 61.067 9.43522 60.9141C9.34349 60.8683 9.31291 60.8988 9.37407 60.9906C9.46595 61.1435 8.91539 61.4188 8.67077 61.3575C8.59432 61.3422 8.54846 61.4034 8.54846 61.4951C8.54846 61.5868 8.44143 61.6174 8.30368 61.5716C8.18152 61.5257 8.12036 61.541 8.16623 61.6327C8.25796 61.7703 8.19681 61.8162 7.75342 61.8468C7.6464 61.862 7.5088 61.9232 7.46293 61.9842C7.40193 62.0607 7.18773 62.1371 6.97383 62.1371C6.75979 62.1525 6.62203 62.2135 6.66805 62.29C6.72906 62.397 6.27038 62.4735 5.75071 62.4276C5.59782 62.4123 5.50593 62.4582 5.5518 62.5346C5.65882 62.7028 4.69561 62.9014 4.35925 62.7639C4.22165 62.7029 4.11462 62.7488 4.11462 62.8558C4.11462 62.9934 3.93116 63.0242 3.48762 62.9477C3.10539 62.8866 2.90664 62.9017 2.9525 62.9936C3.01366 63.07 2.79961 63.1618 2.49383 63.1923L1.94342 63.2382V65.1492C1.94342 66.6628 1.89756 67.1215 1.6988 67.3357C1.43904 67.626 0.598138 67.6872 0.338224 67.4273ZM3.10555 61.1587C3.0291 61.0364 3.1667 61.0059 3.54893 61.0517C3.87 61.0823 4.05347 61.0517 4.0076 60.96C3.94644 60.8835 4.11462 60.853 4.40512 60.914C4.75692 60.9904 4.86379 60.96 4.78734 60.8375C4.7109 60.7152 4.80279 60.7001 5.09313 60.7765C5.39891 60.853 5.49079 60.8375 5.39891 60.7001C5.32246 60.5625 5.41435 60.5472 5.73527 60.6236C6.01047 60.6846 6.1022 60.6695 5.98004 60.5931C5.81171 60.486 5.87302 60.4249 6.1788 60.3484C6.3927 60.2873 6.65276 60.2873 6.7445 60.3484C6.85137 60.4249 6.86666 60.379 6.79021 60.2567C6.69833 60.1038 6.74435 60.0732 6.98897 60.1344C7.17244 60.1955 7.29475 60.1802 7.24889 60.1038C7.14186 59.9356 7.61567 59.7674 7.81458 59.905C7.92145 59.9662 7.93689 59.9203 7.86045 59.798C7.76856 59.6451 7.79929 59.6145 7.9979 59.691C8.16623 59.7674 8.22723 59.737 8.15079 59.6145C8.07434 59.4922 8.12036 59.4771 8.30368 59.5381C8.45657 59.5993 8.53301 59.5841 8.47201 59.4922C8.38012 59.3548 8.57903 59.2783 8.79308 59.3852C8.83895 59.4007 8.94597 59.2935 9.03786 59.1406C9.1143 58.9877 9.35893 58.8042 9.57298 58.7125C9.78687 58.636 9.92462 58.529 9.86332 58.4677C9.81745 58.4219 9.86332 58.269 9.98563 58.1315C10.2914 57.7646 10.3833 57.0766 10.1232 56.9848C10.0009 56.9388 9.95505 56.8165 10.0162 56.7249C10.0774 56.6026 10.0621 56.5873 9.9552 56.6485C9.74116 56.7859 9.1143 56.3733 9.28248 56.2204C9.34364 56.1592 9.20604 56.1439 8.96141 56.2049C8.73208 56.2661 8.54861 56.2508 8.54861 56.1744C8.54861 56.0979 8.27341 56.0675 7.93705 56.0979C7.60069 56.1285 7.32548 56.0979 7.32548 56.0062C7.32548 55.9297 7.05028 55.8686 6.71392 55.8686C6.37756 55.8686 6.10236 55.9297 6.10236 56.0215C6.10236 56.1134 5.766 56.1439 5.23088 56.0826C4.60403 56.0215 4.42056 56.0368 4.57345 56.1438C4.74163 56.2661 4.68047 56.2812 4.31354 56.2507C4.02304 56.2048 3.85486 56.2507 3.91602 56.3271C3.97702 56.419 3.83957 56.4496 3.61024 56.4035C3.36546 56.3577 3.2433 56.3883 3.30446 56.48C3.36546 56.572 3.24315 56.5873 2.98323 56.5262C2.67745 56.4497 2.58572 56.4801 2.66216 56.6026C2.73861 56.7249 2.67745 56.7402 2.43283 56.6638C2.20349 56.5873 2.12705 56.6028 2.18805 56.7249C2.24921 56.8167 2.21863 56.8931 2.14218 56.8931C2.03516 56.8931 1.974 57.627 1.974 59.0183V61.1587L2.47854 61.2198C2.73846 61.2503 3.02895 61.2962 3.0901 61.2962C3.1667 61.3116 3.1667 61.2505 3.10555 61.1587ZM1.7754 58.1621C1.74482 57.7494 1.72938 58.0856 1.72938 58.8807C1.72938 59.6757 1.74482 60.0121 1.7754 59.6145C1.80598 59.2017 1.80598 58.5596 1.7754 58.1621ZM10.536 67.2744C10.536 67.1979 10.6125 67.1674 10.7195 67.2285C10.8265 67.2897 10.8418 67.2744 10.7807 67.1674C10.7197 67.0756 10.5819 67.0299 10.4749 67.0756C10.3526 67.1215 10.215 67.0756 10.1385 66.9686C10.0621 66.8463 10.0927 66.8157 10.2455 66.8921C10.3679 66.9533 10.3374 66.9074 10.1997 66.7851C9.89389 66.5405 9.83274 66.2194 10.0927 66.2194C10.1691 66.2194 10.1997 66.1584 10.1538 66.0665C10.1079 65.9901 10.1384 65.9136 10.2303 65.9136C10.322 65.9136 10.3677 65.8526 10.322 65.7762C10.215 65.6079 10.5819 65.455 11.0559 65.455C11.4841 65.455 11.9887 65.9748 11.8203 66.2349C11.7593 66.3572 11.7745 66.3878 11.8815 66.3113C12.172 66.143 12.0955 66.5406 11.805 66.7853C11.6368 66.9229 11.6216 66.9536 11.7592 66.8923C11.9121 66.8159 11.8966 66.8923 11.698 67.1063C11.3922 67.4578 10.536 67.5802 10.536 67.2744ZM22.2169 67.305C22.2629 67.2285 22.1865 67.1826 22.0336 67.1979C21.8652 67.2132 21.7888 67.1215 21.8195 66.9227C21.8501 66.7544 21.8042 66.6934 21.7125 66.7544C21.4222 66.9227 21.529 65.9595 21.8195 65.7453C22.0489 65.5618 22.0642 65.5618 21.9265 65.7606C21.8501 65.8982 21.8807 65.8831 22.0336 65.7302C22.3088 65.4244 23.0119 65.3325 22.8284 65.6383C22.7674 65.7453 22.7826 65.7606 22.9049 65.6994C23.1954 65.516 23.5165 65.8829 23.5012 66.3875C23.4859 66.6321 23.4247 66.8307 23.3483 66.8307C23.2871 66.8307 23.2413 66.9226 23.2718 67.0296C23.2871 67.1213 23.1801 67.1978 23.0425 67.1978C22.8896 67.1825 22.8132 67.2284 22.859 67.3048C22.9049 67.3812 22.752 67.4426 22.538 67.4426C22.3239 67.4426 22.171 67.3814 22.2169 67.305ZM104.946 67.0603C104.182 66.3113 104.686 64.9963 105.741 64.9963C106.98 64.9963 107.469 66.6628 106.399 67.2132C105.772 67.5343 105.374 67.5037 104.946 67.0603ZM106.475 66.9074C106.689 66.7087 106.857 66.4029 106.857 66.2194C106.857 65.8219 106.2 65.1492 105.817 65.1492C105.359 65.1492 104.717 65.7303 104.717 66.1584C104.717 66.6171 105.344 67.2897 105.787 67.2897C105.97 67.2897 106.276 67.1215 106.475 66.9074Z" fill="#605251"/>
<path d="M105.343 66.189C105.328 65.5928 105.374 65.455 105.603 65.455C105.741 65.455 105.94 65.5162 106.031 65.5775C106.23 65.7149 106.276 66.8616 106.077 66.7394C106.001 66.6936 105.94 66.556 105.94 66.4337C105.94 66.0973 105.634 66.1737 105.481 66.5713C105.374 66.8463 105.343 66.7699 105.343 66.189ZM106.016 65.9137C106.062 65.8372 105.97 65.7608 105.802 65.7608C105.619 65.7608 105.481 65.8372 105.481 65.9137C105.481 66.0056 105.573 66.0666 105.695 66.0666C105.817 66.0666 105.97 66.0054 106.016 65.9137ZM92.7912 54.6303C92.7912 54.5233 92.8677 54.4774 92.9745 54.5386C93.0815 54.5996 93.097 54.5845 93.0357 54.4774C92.9898 54.3857 92.9287 54.0646 92.9134 53.7741C92.8979 53.4836 92.8369 53.2694 92.7605 53.3155C92.6993 53.3613 92.6382 53.2236 92.6382 53.0097C92.6382 52.7956 92.7605 52.551 92.9134 52.4746C93.0508 52.3827 93.1121 52.3062 93.0204 52.3062C92.944 52.3062 92.9744 52.2298 93.0968 52.1533C93.372 51.9699 94.2129 51.9546 94.1059 52.1228C94.0753 52.1839 94.1824 52.3368 94.3658 52.4591C94.6869 52.6426 94.6869 52.6426 94.4728 52.3674C94.2588 52.0922 94.2588 52.0922 94.5187 52.2909C94.6869 52.4284 94.748 52.612 94.6869 52.8106C94.6259 53.0095 94.6563 53.0705 94.7633 53.0095C94.8552 52.9484 94.9317 53.0095 94.9317 53.147C94.9317 53.2846 94.8552 53.3457 94.7633 53.2846C94.641 53.2234 94.6259 53.2846 94.7023 53.5139C94.7633 53.7278 94.7176 53.8656 94.5647 53.9267C94.4271 53.9726 94.3507 54.0796 94.3965 54.1561C94.4424 54.2171 94.3354 54.3548 94.1672 54.4464C93.9989 54.5383 93.8614 54.5534 93.8614 54.4923C93.8614 54.4313 93.785 54.477 93.7085 54.5993C93.5251 54.8902 92.7912 54.9208 92.7912 54.6303Z" fill="#605251"/>
<path d="M87.5469 71.4789C87.3175 71.1731 87.2871 70.852 87.333 69.0938L87.3788 67.0602L87.4094 69.1089C87.44 70.7754 87.4859 71.2188 87.6998 71.4481C87.8374 71.601 87.9138 71.7539 87.8832 71.7845C87.8527 71.8151 87.6998 71.6776 87.5469 71.4789ZM15.7649 70.3475C15.7649 70.0571 15.7953 69.9348 15.8413 70.0877C15.8718 70.2252 15.8718 70.4699 15.8413 70.6228C15.7955 70.7603 15.7649 70.638 15.7649 70.3475ZM15.7955 65.455C15.7955 63.0546 15.826 62.0761 15.8415 63.2839C15.8719 64.4766 15.8719 66.4336 15.8415 67.6415C15.826 68.8339 15.7955 67.8554 15.7955 65.455ZM88.8619 69.1244C88.8619 68.7421 88.8925 68.5892 88.9229 68.7881C88.9535 68.9715 88.9535 69.2772 88.9229 69.4762C88.8925 69.6595 88.8619 69.5066 88.8619 69.1244ZM96.8428 67.7483C96.5674 67.626 96.5829 67.6109 96.9651 67.6109C97.2097 67.5955 97.3626 67.6568 97.3014 67.7483C97.2554 67.8402 97.1944 67.9012 97.179 67.8859C97.1638 67.8859 97.011 67.8248 96.8428 67.7483ZM88.8619 66.6781C88.8619 66.2959 88.8925 66.143 88.9229 66.3419C88.9535 66.5252 88.9535 66.831 88.9229 67.0299C88.8925 67.2132 88.8619 67.0603 88.8619 66.6781ZM47.6579 65.8068C48.3459 65.7762 49.4771 65.7762 50.1806 65.8068C50.8686 65.8221 50.3029 65.8526 48.9116 65.8526C47.5203 65.8525 46.9544 65.8219 47.6579 65.8068ZM77.8538 64.2318C77.8538 63.8496 77.8843 63.6967 77.9148 63.8955C77.9454 64.079 77.9454 64.3847 77.9148 64.5837C77.8843 64.767 77.8538 64.6141 77.8538 64.2318ZM65.6835 64.4308C65.6225 64.3847 65.5766 64.2624 65.5766 64.1707C65.5766 64.0637 65.6225 64.0637 65.699 64.186C65.76 64.2777 66.0506 64.3847 66.3411 64.4308L66.8762 64.4918L66.3257 64.5072C66.02 64.5223 65.7295 64.4918 65.6835 64.4308ZM43.9273 59.4158C43.9273 56.985 43.9579 56.0063 43.9734 57.2447C44.0038 58.4984 44.0038 60.486 43.9734 61.6786C43.9579 62.8711 43.9273 61.862 43.9273 59.4158ZM76.1873 57.5811C76.1873 54.8138 76.2178 53.6518 76.2331 55.0125C76.2637 56.3733 76.2637 58.636 76.2331 60.0579C76.2178 61.4645 76.1873 60.3637 76.1873 57.5811ZM28.3019 61.7856C28.3019 61.4953 28.3323 61.3728 28.3784 61.5257C28.4088 61.6633 28.4088 61.9079 28.3784 62.0608C28.3325 62.1984 28.3019 62.0761 28.3019 61.7856ZM77.8538 59.9509C77.8538 59.2323 77.8843 58.9418 77.9148 59.3088C77.9454 59.6606 77.9454 60.2415 77.9148 60.6083C77.8843 60.96 77.8538 60.6695 77.8538 59.9509ZM16.9269 60.3026C17.1868 60.2721 17.6454 60.2721 17.9206 60.3026C18.1806 60.3331 17.9665 60.3637 17.4161 60.3637C16.8657 60.3637 16.6517 60.3331 16.9269 60.3026ZM18.7921 60.3178C19.6789 60.1955 21.0549 60.1955 20.9785 60.3024C20.9479 60.3636 20.3516 60.3943 19.6636 60.3943C18.9756 60.379 18.5781 60.3484 18.7921 60.3178ZM1.72953 58.8807C1.72953 58.0856 1.74497 57.7494 1.77555 58.1621C1.80598 58.5597 1.80598 59.2019 1.77555 59.6145C1.74482 60.0121 1.72953 59.6757 1.72953 58.8807ZM51.7248 55.67C51.7248 53.8658 51.7553 53.1167 51.7706 54.034C51.8012 54.9361 51.8012 56.4038 51.7706 57.3212C51.7553 58.2232 51.7248 57.4741 51.7248 55.67ZM17.3855 58.6208C17.569 58.5903 17.8748 58.5903 18.0735 58.6208C18.257 58.6513 18.1041 58.6819 17.7219 58.6819C17.3397 58.6819 17.1868 58.6513 17.3855 58.6208ZM15.7802 56.9695C15.7802 56.5567 15.8108 56.3885 15.8413 56.6332C15.8718 56.8625 15.8718 57.1989 15.8413 57.3976C15.8108 57.5811 15.7802 57.3976 15.7802 56.9695ZM77.8691 55.67C77.8691 54.6152 77.8845 54.1869 77.9149 54.722C77.9455 55.2419 77.9455 56.0981 77.9149 56.6332C77.8843 57.153 77.8691 56.7249 77.8691 55.67ZM90.3296 57.3365C90.1768 57.2446 90.2226 57.1989 90.5437 57.1989C90.9869 57.1989 91.0788 57.2753 90.7576 57.3976C90.6354 57.4435 90.4518 57.4129 90.3296 57.3365ZM18.3793 55.7158C19.2814 55.6854 20.7491 55.6854 21.6665 55.7158C22.5685 55.7313 21.8194 55.7619 20.0152 55.7619C18.2111 55.7619 17.462 55.7311 18.3793 55.7158ZM23.3788 54.3704C23.226 54.1869 22.4768 54.1411 18.8839 54.0952L14.5876 54.0646L18.8839 54.0187C23.0119 53.9882 23.1954 54.0035 23.4553 54.2939C23.6082 54.4623 23.6999 54.5997 23.654 54.5997C23.6082 54.5997 23.4859 54.4927 23.3788 54.3704Z" fill="#4B403E"/>
</g>
<defs>
<clipPath id="clip0_2:1844">
<rect width="107" height="71.7756" fill="white" transform="translate(0 0.0942078)"/>
</clipPath>
</defs>
</svg>
