<svg width="182" height="34" viewBox="0 0 182 34" fill="none" xmlns="http://www.w3.org/2000/svg">
<path d="M19.3225 4.6272C19.8967 5.43635 20.3546 6.32206 20.6829 7.25846C21.0936 7.31192 21.5012 7.38696 21.904 7.48329L22.112 7.53117L22.1599 7.54574C22.2451 7.56656 22.3304 7.58945 22.4136 7.61443L22.657 7.68521L22.865 7.75391C22.9358 7.77681 23.0065 7.79971 23.073 7.82677C23.1396 7.85383 23.2041 7.87256 23.2811 7.89754C23.358 7.92253 23.4121 7.94751 23.4891 7.97249C23.8724 8.12064 24.2474 8.2895 24.6124 8.47834C24.6997 8.52205 24.7871 8.56785 24.8724 8.61573C25.018 8.69275 25.1594 8.77602 25.3009 8.85929L25.4819 8.96962L25.5672 9.02166L25.7544 9.14656C25.8168 9.18403 25.875 9.22567 25.9353 9.2673C26.6316 9.74452 27.2758 10.2936 27.8574 10.9056C27.9261 10.9743 27.9926 11.0451 28.0654 11.1138C28.1382 11.1825 28.1715 11.2324 28.2235 11.2907C28.3088 11.3886 28.392 11.4864 28.4731 11.5863C28.5231 11.6446 28.5709 11.705 28.6167 11.7653C28.6624 11.8257 28.7456 11.9298 28.806 12.011C28.8663 12.0922 28.9224 12.1671 28.9765 12.2462C29.0306 12.3253 29.0889 12.4044 29.1429 12.4856C29.2511 12.6459 29.351 12.8083 29.457 12.9748C29.509 13.0581 29.559 13.1413 29.6047 13.2267C29.6505 13.312 29.7025 13.3953 29.7483 13.4807C29.8481 13.6659 29.9438 13.8533 30.0332 14.0427C30.0707 14.1156 30.1061 14.1926 30.1393 14.2675C30.1726 14.3425 30.2059 14.4195 30.2392 14.4944C30.2725 14.5694 30.2974 14.6277 30.3245 14.7026L30.3994 14.89C30.4597 15.0482 30.5179 15.2085 30.572 15.3708C30.6053 15.4645 30.6365 15.5582 30.6656 15.654C30.6647 15.6581 30.6647 15.6623 30.6656 15.6664C30.6927 15.758 30.7197 15.8475 30.7447 15.9391C30.8195 16.1994 30.8861 16.4637 30.9423 16.7302C30.9568 16.7968 30.9693 16.8655 30.9839 16.9384C30.9984 17.0112 30.9984 17.0154 31.0047 17.0549C31.0109 17.0945 31.0255 17.159 31.0317 17.2111C31.038 17.2631 31.0567 17.3589 31.0671 17.4338C31.0775 17.5087 31.0921 17.5837 31.1004 17.6607C31.1004 17.694 31.1004 17.7273 31.1149 17.7606C31.1295 17.7939 31.1274 17.873 31.1337 17.9292C31.1399 17.9855 31.1461 18.0375 31.1482 18.0895C31.1503 18.1416 31.1649 18.254 31.1711 18.3352C31.1773 18.4164 31.1836 18.5288 31.1877 18.6287C31.1919 18.7286 31.1877 18.8369 31.2002 18.9368C31.2127 19.0367 31.2002 19.145 31.2002 19.249C31.1964 22.4539 29.9225 25.5264 27.658 27.7926C25.3935 30.0588 22.3232 31.3336 19.1207 31.3375H18.8108C18.7068 31.3375 18.6028 31.3375 18.5009 31.325C18.3989 31.3125 18.2928 31.325 18.1972 31.3062H18.1847L17.881 31.2688L17.6376 31.2438L17.4878 31.223C17.4171 31.223 17.3443 31.2042 17.2798 31.1917H17.2569L17.0489 31.1564L16.87 31.1251L16.6079 31.0731C16.1389 30.974 15.6763 30.8468 15.2225 30.6921L14.9584 30.5985C14.8731 30.5672 14.7878 30.536 14.7004 30.5006L14.3572 30.357C14.2844 30.3278 14.2116 30.2966 14.1492 30.2633L13.9162 30.1551C13.8163 30.1072 13.7082 30.0593 13.6208 30.0073L13.3795 29.8824L13.0966 29.7262C13.0134 29.6784 12.9302 29.6305 12.847 29.5784C12.6931 29.4868 12.5433 29.389 12.3956 29.2891C12.3837 29.2826 12.3726 29.275 12.3623 29.2662L12.1231 29.1017C12.0441 29.0455 11.965 28.9893 11.888 28.9289C11.8111 28.8686 11.7341 28.8144 11.6571 28.752C11.5802 28.6895 11.5344 28.6562 11.4741 28.6042C11.3763 28.5251 11.2786 28.4439 11.1829 28.3606L10.9957 28.192C10.9249 28.1275 10.8521 28.063 10.7876 27.9943L10.5796 27.7861C10.4465 27.6529 10.3154 27.5155 10.1886 27.3697C10.122 27.2948 10.0533 27.2199 9.98054 27.1428C9.85365 26.9971 9.73092 26.8514 9.61443 26.6994C9.54162 26.6078 9.4709 26.5163 9.40641 26.4205C9.36273 26.3643 9.32321 26.3102 9.28576 26.254L9.24416 26.1978C9.19632 26.1311 9.14639 26.0604 9.10063 25.9896C9.05487 25.9188 9.0091 25.8522 8.96334 25.7814C8.91758 25.7106 8.83645 25.5857 8.77613 25.4837C8.67836 25.3234 8.58475 25.159 8.49531 24.9924C8.32057 24.6739 8.1604 24.343 8.01479 24.0057L7.91702 23.7705C7.91612 23.7664 7.91612 23.7621 7.91702 23.758C7.89206 23.6976 7.86918 23.6393 7.8463 23.5811L7.78389 23.4166C7.76309 23.3604 7.74229 23.3021 7.72357 23.2438C7.70484 23.1855 7.66532 23.0814 7.63828 22.9961C7.61124 22.9108 7.5842 22.8296 7.55923 22.7463C7.55736 22.7381 7.55736 22.7295 7.55923 22.7213C7.53219 22.6401 7.50931 22.5569 7.48643 22.4757C7.46355 22.3945 7.43859 22.2987 7.4157 22.2092C7.34914 21.9428 7.28881 21.6742 7.24097 21.4015C7.22433 21.3099 7.20769 21.2204 7.19313 21.1267C7.17857 21.0331 7.16608 20.9456 7.1536 20.852C6.21012 20.5285 5.31718 20.073 4.5014 19.4988C4.55156 22.3694 5.4453 25.1616 7.07109 27.5271C8.69688 29.8926 10.9827 31.7266 13.6434 32.8003C16.3041 33.874 19.2219 34.1398 22.0326 33.5646C24.8433 32.9893 27.4225 31.5986 29.4484 29.5658C31.4743 27.533 32.8572 24.9481 33.4245 22.1338C33.9918 19.3195 33.7184 16.4004 32.6384 13.7405C31.5584 11.0807 29.7197 8.79808 27.3517 7.17739C24.9836 5.5567 22.1911 4.66975 19.3225 4.6272ZM7.0808 18.0979C7.0912 18.0084 7.09952 17.9188 7.10992 17.8293C7.12032 17.7398 7.1328 17.6503 7.1432 17.5629C7.1536 17.4754 7.16817 17.3859 7.18481 17.2985C7.20145 17.2111 7.21393 17.1236 7.22849 17.0362C7.29505 16.6865 7.37202 16.343 7.46771 15.9953C7.49059 15.9121 7.51555 15.8267 7.54051 15.7435L7.60292 15.5478C7.6093 15.5195 7.61764 15.4917 7.62788 15.4645L7.70277 15.2563C7.72357 15.1939 7.74645 15.1294 7.77141 15.0669L7.81509 14.9483C7.86918 14.8095 7.92534 14.6707 7.98359 14.5319C8.05223 14.3695 8.12296 14.2093 8.1916 14.051C8.22696 13.974 8.26441 13.9012 8.30185 13.8262C8.3232 13.7776 8.34752 13.7303 8.37466 13.6847C8.401 13.6292 8.43013 13.5729 8.46202 13.516L8.49531 13.4578C8.53483 13.3828 8.57643 13.31 8.62011 13.235L8.73452 13.0268L8.84061 12.8561L8.94046 12.7C9.07983 12.4919 9.22544 12.2837 9.37729 12.0755C9.4293 12.0047 9.4813 11.9381 9.5333 11.8673C9.58531 11.7966 9.61235 11.7633 9.65395 11.7133C9.7746 11.5613 9.89941 11.4115 10.0305 11.2657C10.0825 11.2033 10.1386 11.145 10.1906 11.0846C10.305 10.9576 10.4236 10.8348 10.5443 10.7141L10.694 10.5684C10.771 10.4934 10.848 10.4185 10.927 10.3477L11.1038 10.1895C11.2078 10.0937 11.3118 10.0021 11.4262 9.91263C11.4803 9.86683 11.5365 9.82103 11.5947 9.77732C11.8381 9.58372 12.0877 9.39845 12.3457 9.22567C12.4185 9.17363 12.4934 9.12575 12.5703 9.07787L12.7471 8.96337L12.8886 8.88219C12.9552 8.84055 13.0217 8.801 13.0966 8.76353C13.1715 8.72606 13.2672 8.66777 13.3525 8.62198C13.4378 8.57618 13.5251 8.52622 13.6104 8.48458L13.8725 8.35344H13.8871C14.041 8.2785 14.1991 8.20772 14.3593 8.14527C14.4778 8.09531 14.5964 8.04534 14.7171 7.99955C14.7961 7.96832 14.8751 7.9371 14.9563 7.91004L15.1643 7.83301L15.2745 7.79554L15.5138 7.71852L15.8008 7.61443L16.0879 7.53533L16.3437 7.47288L16.5372 7.43124L16.6246 7.41043L16.7702 7.38128L17.0302 7.33341L17.2153 7.30426C17.2819 7.29177 17.3464 7.28344 17.4233 7.27512C17.5918 7.25014 17.7624 7.22932 17.933 7.21267C17.5092 6.3498 16.9351 5.56945 16.2376 4.90823C13.4059 5.47794 10.8062 6.8741 8.76641 8.92059C6.72661 10.9671 5.33809 13.5723 4.77598 16.4075C5.43908 17.1021 6.21928 17.6743 7.0808 18.0979Z" fill="#D8195E"/>
<path d="M21.1062 8.8343C20.4467 8.70704 19.7767 8.64292 19.1051 8.64278C18.897 8.64278 18.689 8.64278 18.481 8.6636C18.6714 9.35809 18.7672 10.0751 18.766 10.7953C18.7675 12.0433 18.4815 13.2749 17.9301 14.3944C17.3788 15.5139 16.5769 16.4911 15.5869 17.25C14.5969 18.009 13.4453 18.5293 12.2217 18.7706C10.9981 19.0119 9.73535 18.9676 8.53162 18.6412C8.53162 18.8493 8.51498 19.0409 8.51498 19.2428C8.51432 19.9248 8.57981 20.6052 8.71052 21.2745C10.2461 21.5564 11.8248 21.4971 13.3349 21.1008C14.845 20.7044 16.2497 19.9808 17.4493 18.981C18.649 17.9812 19.6145 16.7297 20.2773 15.3152C20.9401 13.9007 21.2842 12.3576 21.2851 10.7953C21.2849 10.1375 21.2251 9.48118 21.1062 8.8343ZM10.6388 0.139048C8.54304 0.140511 6.49431 0.760969 4.74939 1.92266C3.00446 3.08436 1.64097 4.73561 0.829797 6.66947C0.0186205 8.60333 -0.204156 10.7338 0.189388 12.7938C0.582932 14.8538 1.57529 16.7518 3.04209 18.2498C3.11072 17.1024 3.30179 15.9655 3.61205 14.8587C2.71472 13.3118 2.35297 11.5117 2.583 9.7379C2.81303 7.96412 3.62196 6.31601 4.88413 5.04958C6.14631 3.78315 7.79107 2.9693 9.56292 2.73444C11.3348 2.49958 13.1345 2.85686 14.6827 3.75079C15.7893 3.43509 16.9268 3.24035 18.0754 3.17C16.0891 1.22364 13.4188 0.135281 10.6388 0.139048Z" fill="#D8195E"/>
<path d="M48.0869 11.318H50.7509L54.5849 23H52.3349L51.5249 20.48H47.1869L46.3589 23H44.1089L48.0869 11.318ZM47.7269 18.878H51.0029L49.3829 13.856L47.7269 18.878ZM60.4345 11.318C62.2105 11.318 63.6445 11.846 64.7365 12.902C65.8405 13.958 66.3925 15.38 66.3925 17.168C66.3925 18.944 65.8405 20.36 64.7365 21.416C63.6445 22.472 62.2105 23 60.4345 23H56.6365V11.318H60.4345ZM58.7785 21.074H60.4345C61.5385 21.074 62.4325 20.702 63.1165 19.958C63.7645 19.238 64.0885 18.308 64.0885 17.168C64.0885 16.004 63.7645 15.062 63.1165 14.342C62.4445 13.61 61.5505 13.244 60.4345 13.244H58.7785V21.074ZM71.6943 11.318H74.3583L78.1923 23H75.9423L75.1323 20.48H70.7943L69.9663 23H67.7163L71.6943 11.318ZM71.3343 18.878H74.6103L72.9903 13.856L71.3343 18.878ZM88.9379 14.9C88.9379 15.728 88.7039 16.436 88.2359 17.024C87.7679 17.612 87.0959 18.02 86.2199 18.248L89.3519 23H86.5799L84.0059 18.446H82.3859V23H80.2619V11.318H84.5819C85.9619 11.318 87.0359 11.648 87.8039 12.308C88.5599 12.944 88.9379 13.808 88.9379 14.9ZM84.3839 17.024C85.1639 17.024 85.7519 16.85 86.1479 16.502C86.5439 16.142 86.7419 15.674 86.7419 15.098C86.7419 14.51 86.5619 14.042 86.2019 13.694C85.8419 13.334 85.3019 13.154 84.5819 13.154H82.3859V17.024H84.3839ZM94.5459 11.318H97.2099L101.044 23H98.7939L97.9839 20.48H93.6459L92.8179 23H90.5679L94.5459 11.318ZM94.1859 18.878H97.4619L95.8419 13.856L94.1859 18.878ZM113.804 14.54C113.612 13.52 112.892 13.01 111.644 13.01C111.032 13.01 110.552 13.136 110.204 13.388C109.868 13.628 109.7 13.922 109.7 14.27C109.7 14.618 109.808 14.894 110.024 15.098C110.252 15.29 110.6 15.47 111.068 15.638L113.606 16.628C114.47 16.964 115.136 17.39 115.604 17.906C116.072 18.41 116.306 19.046 116.306 19.814C116.306 20.87 115.91 21.71 115.118 22.334C114.326 22.946 113.198 23.252 111.734 23.252C110.438 23.252 109.388 22.934 108.584 22.298C107.684 21.602 107.21 20.618 107.162 19.346H109.268C109.268 20.306 109.766 20.912 110.762 21.164C111.062 21.248 111.458 21.29 111.95 21.29C112.442 21.29 112.898 21.17 113.318 20.93C113.738 20.678 113.948 20.348 113.948 19.94C113.948 19.52 113.834 19.202 113.606 18.986C113.378 18.758 113.006 18.548 112.49 18.356L110.168 17.438C109.268 17.09 108.578 16.682 108.098 16.214C107.618 15.746 107.378 15.098 107.378 14.27C107.378 13.298 107.756 12.53 108.512 11.966C109.28 11.378 110.318 11.084 111.626 11.084C112.946 11.084 113.96 11.39 114.668 12.002C115.388 12.602 115.802 13.448 115.91 14.54H113.804ZM117.579 11.318H126.939V13.154H123.321V23H121.197V13.154H117.579V11.318ZM130.669 11.318V18.59C130.669 19.55 130.909 20.24 131.389 20.66C131.881 21.08 132.511 21.29 133.279 21.29C134.047 21.29 134.671 21.08 135.151 20.66C135.643 20.24 135.889 19.55 135.889 18.59V11.318H138.013V18.59C138.013 20.078 137.599 21.23 136.771 22.046C135.943 22.85 134.779 23.252 133.279 23.252C131.779 23.252 130.615 22.85 129.787 22.046C128.959 21.23 128.545 20.078 128.545 18.59V11.318H130.669ZM144.933 11.318C146.709 11.318 148.143 11.846 149.235 12.902C150.339 13.958 150.891 15.38 150.891 17.168C150.891 18.944 150.339 20.36 149.235 21.416C148.143 22.472 146.709 23 144.933 23H141.135V11.318H144.933ZM143.277 21.074H144.933C146.037 21.074 146.931 20.702 147.615 19.958C148.263 19.238 148.587 18.308 148.587 17.168C148.587 16.004 148.263 15.062 147.615 14.342C146.943 13.61 146.049 13.244 144.933 13.244H143.277V21.074ZM153.492 11.318H155.616V23H153.492V11.318ZM163.441 11.084C164.221 11.084 164.935 11.216 165.583 11.48C166.231 11.732 166.789 12.11 167.257 12.614C168.241 13.67 168.733 15.182 168.733 17.15C168.733 19.13 168.241 20.66 167.257 21.74C166.321 22.748 165.043 23.252 163.423 23.252C161.815 23.252 160.543 22.736 159.607 21.704C158.623 20.636 158.131 19.118 158.131 17.15C158.131 15.158 158.623 13.634 159.607 12.578C160.531 11.582 161.809 11.084 163.441 11.084ZM166.537 17.186C166.537 15.842 166.255 14.81 165.691 14.09C165.139 13.358 164.389 12.992 163.441 12.992C162.493 12.992 161.737 13.358 161.173 14.09C160.609 14.81 160.327 15.842 160.327 17.186C160.327 18.518 160.609 19.544 161.173 20.264C161.737 20.972 162.493 21.326 163.441 21.326C164.389 21.326 165.139 20.972 165.691 20.264C166.255 19.544 166.537 18.518 166.537 17.186ZM177.384 14.54C177.192 13.52 176.472 13.01 175.224 13.01C174.612 13.01 174.132 13.136 173.784 13.388C173.448 13.628 173.28 13.922 173.28 14.27C173.28 14.618 173.388 14.894 173.604 15.098C173.832 15.29 174.18 15.47 174.648 15.638L177.186 16.628C178.05 16.964 178.716 17.39 179.184 17.906C179.652 18.41 179.886 19.046 179.886 19.814C179.886 20.87 179.49 21.71 178.698 22.334C177.906 22.946 176.778 23.252 175.314 23.252C174.018 23.252 172.968 22.934 172.164 22.298C171.264 21.602 170.79 20.618 170.742 19.346H172.848C172.848 20.306 173.346 20.912 174.342 21.164C174.642 21.248 175.038 21.29 175.53 21.29C176.022 21.29 176.478 21.17 176.898 20.93C177.318 20.678 177.528 20.348 177.528 19.94C177.528 19.52 177.414 19.202 177.186 18.986C176.958 18.758 176.586 18.548 176.07 18.356L173.748 17.438C172.848 17.09 172.158 16.682 171.678 16.214C171.198 15.746 170.958 15.098 170.958 14.27C170.958 13.298 171.336 12.53 172.092 11.966C172.86 11.378 173.898 11.084 175.206 11.084C176.526 11.084 177.54 11.39 178.248 12.002C178.968 12.602 179.382 13.448 179.49 14.54H177.384Z" fill="#272C30"/>
</svg>
