<?xml version="1.0" encoding="utf-8"?>
<!-- Generator: Adobe Illustrator 22.1.0, SVG Export Plug-In . SVG Version: 6.00 Build 0)  -->
<svg version="1.1" id="Capa_1" xmlns="http://www.w3.org/2000/svg" xmlns:xlink="http://www.w3.org/1999/xlink" x="0px" y="0px"
	 viewBox="0 0 222.2 147.9" style="enable-background:new 0 0 222.2 147.9;" xml:space="preserve">
<style type="text/css">
	.st0{fill:url(#SVGID_1_);}
	.st1{fill:#F3CC23;}
	.st2{fill:url(#SVGID_2_);}
	.st3{fill:#FFFFFF;}
	.st4{fill:url(#SVGID_3_);}
	.st5{fill:url(#SVGID_4_);}
	.st6{fill:url(#SVGID_5_);}
	.st7{fill:url(#SVGID_6_);}
	.st8{fill:#552B9A;}
	.st9{fill:#D7C3DC;}
	.st10{fill:#D8C3DB;}
</style>
<g>
	<linearGradient id="SVGID_1_" gradientUnits="userSpaceOnUse" x1="111.1124" y1="142.5829" x2="111.1124" y2="5.2822">
		<stop  offset="0" style="stop-color:#46317D"/>
		<stop  offset="1" style="stop-color:#512F7E"/>
	</linearGradient>
	<path class="st0" d="M215.6,107.7c-1.6-2.2-3.8-3.9-6.6-5.1c-2.4-1-5.2-1.5-8.2-1.5c-0.6,0-1.2,0-1.8,0.1c-2.5,0.2-4.9,0.7-7,1.5
		c-0.5,0.2-1.1,0.5-1.6,0.7c0.1-0.4,0.2-0.9,0.2-1.4c0-0.6-0.1-1.3-0.4-2l-3.4-8.6c-0.5-1.1-1.3-2-2.3-2.6c-0.1-1.3,1-2.8,1.9-3.9
		c1.3-0.4,2.6-1,3.8-1.8c2.8-1.7,5-3.8,6.5-6.2c1.2-1.7,1.8-3.6,1.8-5.5c0-1.6-0.3-3.2-1-4.6c-0.1-0.1-0.1-0.3-0.2-0.4
		c-0.1-0.1-0.1-0.2-0.2-0.3c-0.6-1.1-1.4-2.1-2.4-3c2.8-1.4,6.2-4,6.2-9.6c0-4.8-3.3-8.5-8.1-9.2c0.1-0.3,0.2-0.6,0.3-0.8
		c0.3-0.7,0.5-1.5,0.6-2.3c0.7-3.5,0.4-6.9-0.7-9.7c-1.4-3.4-3.3-5.7-5.8-7.1c-1.7-0.9-3.5-1.4-5.6-1.4c-0.6-2.8-3-4.8-6.1-4.8
		c-1.1,0-2.3,0.3-3.5,0.9c-0.4-0.4-0.9-0.7-1.4-1c0.3-0.6,0.6-1.4,0.6-2.1l0-0.1c0-0.1,0-0.2,0-0.3c0-0.1,0-0.3,0-0.4
		c0-3.4-3.6-5.3-6-5.3c-1.3,0-3,0.4-5.2,3.3c-1.9-3.9-6.2-6.7-11.7-7.5c-1.5-0.2-3.1-0.3-4.7-0.3c-15.7,0-33.6,11-56.3,34.5
		c-0.5-0.3-1-0.5-1.5-0.8c-2-1.1-4.1-2-6.3-2.6c-1.8-0.5-3.7-0.8-5.6-0.8c-6.8,0-13.1,3.2-16.4,8.4c-0.4,0.7-0.8,1.4-1.2,2.2
		c-1.5,3.3-2,6.7-1.5,9.9c0.6,3.7,2,6.4,4.2,8.4c0.9,0.8,1.9,1.4,2.9,1.9c-0.1,0.1-0.1,0.1-0.2,0.2c-0.8,0.8-1.6,1.5-2.4,2.3
		l-0.7,0.6c-0.1,0.1-0.2,0.2-0.3,0.3c-9.9,9-18.7,13.6-26.2,13.6c-0.9,0-1.7-0.1-2.6-0.2c-4.7-0.7-8-3.1-8.9-6.4
		c-0.1-0.6-0.2-1.3-0.2-1.9c0-0.1,0-0.3,0-0.5c0-0.1,0-0.2,0-0.3c0-0.1,0-0.3,0-0.4c0.1-0.7,0.3-1.5,0.7-2.1
		c0.4-0.9,1.1-1.6,1.8-2.1c0.6-0.4,1.2-0.6,1.4-0.6c0.1,0,0.1,0,0.1,0c0.1,0,0.2,0.1,0.2,0.1c1.2,1,3.5,1.7,5.7,1.7
		c1.6,0,3-0.3,4.3-0.9c0,0,0.2-0.1,0.2-0.1c0.1-0.1,0.3-0.1,0.4-0.2l0.1,0c3.8-1.9,6.1-5.6,6.1-9.8c0-4.6-2.9-8.7-7.3-10.3
		c-0.1,0-0.2-0.1-0.2-0.1c-2.2-0.8-4.6-1.2-6.9-1.2l-0.3,0c-2.2,0-4.4,0.3-6.5,1c-4,1.3-7.5,3.6-10.3,6.9C7.7,58.9,5.9,62.4,5,66.1
		c-0.3,1.3-0.5,2.7-0.6,4.1c-0.1,2-0.3,12.5,8,19.9c0.6,0.6,1.3,1.1,2,1.6l0.2,0.1c0,0,0.5,0.4,0.5,0.4c0.2,0.2,0.5,0.3,0.8,0.5
		c1.5,0.9,3.1,1.8,4.8,2.4c6.1,2.5,12.1,2.7,14.4,2.7l0.6,0c12,0,24.3-5,37.3-15.3c0.1-0.1,0.2-0.2,0.3-0.3c0.9-0.7,5.3-4.4,8-6.9
		c1.9-1.8,4-3.9,6.1-6c0.2-0.2,0.3-0.4,0.5-0.6c1.4-1.5,5.1-5.2,8.9-9.3c0.7,0.2,1.4,0.5,2.1,0.7c-3.8,10-7.3,23.8-6.9,32.4
		c0,1.2,0,2.4,0.1,3.5c0.1,3.5,0.9,7.2,2.4,11.3c1.4,4.3,3.6,8.5,6.4,12.3c2.5,3.5,5.6,6.6,9,9.4c2.4,2,5.1,3.7,7.8,5.2
		c3,1.7,6.1,3,9.1,3.9c11.1,3.7,21,4.1,27.4,4.1c1.4,0,3,0,4.7-0.1c7-0.3,12.6-1,16.3-1.5c0.7-0.1,1.4-0.2,2.1-0.3
		c11.3-1.5,20.2-4.1,28.6-8.5c2.5-1.2,4.9-3.2,6.9-5.7c1-1.2,1.9-2.6,2.6-4C218.5,117,218.5,111.5,215.6,107.7z"/>
	<g>
		<path class="st1" d="M115.7,100.8c-0.7,0-1.3-0.6-1.3-1.3v-8.1c0-0.8,0.6-1.4,1.4-1.4h2.3c3,0,5.5,2.4,5.5,5.5
			c0,3-2.5,5.5-5.5,5.5H115.7z M118.1,98.2c1.7,0,2.9-1.2,2.9-2.9c0-1.7-1.1-2.9-2.8-2.9h-1.2v5.8H118.1z"/>
		<path class="st1" d="M114.7,91.3c0-0.6,0.5-1.1,1.1-1.1h2.3c2.9,0,5.2,2.3,5.2,5.2c0,2.8-2.3,5.2-5.2,5.2h-2.3c-0.6,0-1-0.5-1-1
			V91.3z M118.1,98.5c1.9,0,3.2-1.3,3.2-3.2c0-1.9-1.3-3.2-3.1-3.2h-1.4c-0.1,0-0.1,0-0.1,0.1v6.2c0,0.1,0,0.1,0.1,0.1H118.1z"/>
		<path class="st1" d="M129.1,100.8c-1.8,0-3.7-1.3-3.7-3.3v-6.5c0-0.7,0.6-1.3,1.3-1.3c0.7,0,1.3,0.6,1.3,1.3v6.2
			c0,0.6,0.7,1,1.2,1c0.6,0,1.1-0.4,1.1-1v-6.3c0-0.7,0.6-1.3,1.3-1.3c0.7,0,1.3,0.6,1.3,1.3v6.5
			C132.8,99.3,131.1,100.8,129.1,100.8z"/>
		<path class="st1" d="M125.7,91.1c0-0.6,0.4-1,1-1c0.5,0,1,0.4,1,1v6.2c0,0.8,0.8,1.3,1.5,1.3c0.7,0,1.4-0.6,1.4-1.3v-6.3
			c0-0.6,0.4-1,1-1c0.5,0,1,0.4,1,1v6.5c0,1.8-1.6,3-3.4,3c-1.8,0-3.4-1.2-3.4-3V91.1z"/>
		<path class="st1" d="M137.6,100.8c-0.8,0-1.4-0.5-1.4-1.2V91c0-0.7,0.5-1.3,1.3-1.3c0.7,0,1.3,0.5,1.3,1.3v7.2h2.2
			c0.7,0,1.3,0.5,1.3,1.3c0,0.7-0.5,1.3-1.3,1.3H137.6z"/>
		<path class="st1" d="M141,98.5c0.6,0,1,0.4,1,1c0,0.6-0.4,1-1,1h-3.4c-0.6,0-1.1-0.4-1.1-1V91c0-0.6,0.4-1,1-1c0.6,0,1,0.4,1,1
			v7.3c0,0.1,0.1,0.2,0.2,0.2H141z"/>
		<path class="st1" d="M148.8,100.9c-3.1,0-5.6-2.5-5.6-5.6c0-3.1,2.5-5.6,5.6-5.6c2,0,3.2,0.9,3.5,1.2c0.2,0.1,0.6,0.5,0.6,1.1
			c0,0.7-0.6,1.3-1.3,1.3c-0.4,0-0.6-0.1-0.9-0.4c-0.5-0.4-1.2-0.6-1.9-0.6c-1.7,0.1-3,1.4-3,3c0,1.8,1.6,2.9,3,3
			c0.7,0,1.3-0.2,1.9-0.7c0.3-0.3,0.5-0.4,0.9-0.4c0.7,0,1.3,0.6,1.3,1.3c0,0.6-0.4,1-0.6,1.1C152,99.9,150.8,100.9,148.8,100.9z"/>
		<path class="st1" d="M145.5,95.3c0,1.8,1.6,3.2,3.3,3.3c0.8,0,1.5-0.3,2.1-0.7c0.2-0.2,0.4-0.3,0.7-0.3c0.6,0,1,0.4,1,1
			c0,0.5-0.3,0.7-0.5,0.9c-0.2,0.2-1.3,1.1-3.3,1.1c-2.9,0-5.3-2.4-5.3-5.3c0-2.9,2.4-5.3,5.3-5.3c2,0,3.1,1,3.3,1.1
			c0.2,0.2,0.5,0.4,0.5,0.9c0,0.5-0.4,1-1,1c-0.3,0-0.5-0.1-0.7-0.3c-0.6-0.5-1.3-0.7-2.1-0.7C147,92.1,145.5,93.5,145.5,95.3z"/>
		<path class="st1" d="M156.1,100.8c-0.7,0-1.3-0.6-1.3-1.3v-8.3c0-0.7,0.6-1.3,1.3-1.3h3.7c0.7,0,1.3,0.6,1.3,1.3
			c0,0.7-0.6,1.3-1.3,1.3h-2.5V94h2.5c0.7,0,1.3,0.6,1.3,1.3c0,0.7-0.6,1.3-1.3,1.3h-2.5v1.6h2.5c0.7,0,1.3,0.6,1.3,1.3
			c0,0.7-0.6,1.3-1.3,1.3H156.1z"/>
		<path class="st1" d="M157.1,98.4C157.1,98.5,157.2,98.5,157.1,98.4l2.8,0.1c0.5,0,1,0.4,1,1c0,0.6-0.4,1-1,1h-3.7
			c-0.6,0-1-0.4-1-1v-8.3c0-0.6,0.4-1,1-1h3.7c0.5,0,1,0.4,1,1c0,0.6-0.4,1-1,1h-2.7c-0.1,0-0.1,0-0.1,0.1v2c0,0.1,0,0.1,0.1,0.1
			h2.7c0.5,0,1,0.4,1,1c0,0.5-0.4,1-1,1h-2.7c-0.1,0-0.1,0-0.1,0.1V98.4z"/>
		<path class="st1" d="M168.4,100.8c-0.5,0-0.9-0.3-1.1-0.7l-1.6-3.5v2.9c0,0.7-0.6,1.3-1.3,1.3c-0.7,0-1.2-0.6-1.2-1.3v-8.3
			c0-0.7,0.5-1.3,1.2-1.3h2.2c1.9,0,3.3,1.5,3.3,3.4c0,1.4-0.5,2.3-1.6,2.9l1.3,2.8c0.1,0.2,0.1,0.4,0.1,0.6c0,0.5-0.3,0.9-0.7,1.1
			C168.7,100.8,168.5,100.8,168.4,100.8z M166.5,94.1c0.7,0,0.7-0.9,0.7-0.9c0-0.1,0-0.8-0.7-0.8h-0.9v1.7H166.5z"/>
		<path class="st1" d="M165.8,96.3c0-0.1-0.1-0.1-0.1-0.1h-0.2c-0.1,0-0.1,0-0.1,0.1v3.2c0,0.6-0.5,1-1,1c-0.6,0-0.9-0.5-0.9-1v-8.3
			c0-0.6,0.4-1,0.9-1h2.2c1.8,0,3,1.3,3,3.1c0,1.4-0.6,2.2-1.6,2.8c0,0,0,0,0,0v0l1.4,3c0.1,0.1,0.1,0.3,0.1,0.4
			c0,0.4-0.2,0.7-0.6,0.9c-0.2,0.1-0.3,0.1-0.5,0.1c-0.4,0-0.7-0.2-0.9-0.5L165.8,96.3z M165.3,94.4
			C165.3,94.4,165.4,94.4,165.3,94.4l1.2,0.1c0.8,0,1-0.8,1-1.2c0-0.4-0.2-1.1-1-1.1h-1.1c-0.1,0-0.1,0-0.1,0.1V94.4z"/>
		<path class="st1" d="M173.8,100.8c-0.7,0-1.3-0.6-1.3-1.3v-8.5c0-0.7,0.6-1.3,1.3-1.3c0.7,0,1.3,0.6,1.3,1.3v8.5
			C175.1,100.3,174.5,100.8,173.8,100.8z M172.9,89.9c-0.6,0-1-0.6-1-1.2c0-0.3,0.2-0.6,0.5-0.8l0.1-0.1l1.6-0.6
			c0.2-0.1,0.4-0.1,0.6-0.1c0.6,0,1,0.6,1,1.1c0,0.5-0.3,0.9-0.7,1l-1.5,0.6c-0.1,0-0.2,0.1-0.2,0.1
			C173.1,89.9,173.1,89.9,172.9,89.9z"/>
		<path class="st1" d="M174.2,87.4c0.2-0.1,0.4-0.1,0.5-0.1c0.4,0,0.7,0.5,0.7,0.8c0,0.4-0.2,0.6-0.5,0.8l-1.5,0.6
			c-0.4,0.1-0.3,0.1-0.5,0.1c-0.4,0-0.7-0.5-0.7-0.9c0-0.2,0.1-0.4,0.4-0.5l0.1-0.1L174.2,87.4z M172.8,99.6c0,0.5,0.4,1,1,1
			c0.6,0,1-0.4,1-1v-8.5c0-0.6-0.4-1-1-1c-0.5,0-1,0.4-1,1V99.6z"/>
		<path class="st1" d="M185.1,100.8c-0.8,0-1.1-0.7-1.2-1l-0.5-1h-3.5l-0.4,1c-0.1,0.2-0.4,1-1.2,1c-0.7,0-1.3-0.5-1.3-1.3
			c0-0.2,0.1-0.4,0.1-0.5l3.4-8.5c0.2-0.5,0.7-0.8,1.2-0.8c0.6,0,1,0.3,1.2,0.8l3.4,8.5c0,0.1,0.1,0.3,0.1,0.5
			C186.4,100.3,185.8,100.8,185.1,100.8z M182.5,96.4l-0.8-2l-0.8,2H182.5z"/>
		<path class="st1" d="M185.1,100.5c-0.5,0-0.8-0.3-1-0.8l-0.5-1.1c0,0,0-0.1-0.1-0.1h-3.7c-0.1,0-0.1,0-0.1,0.1l-0.5,1.1
			c-0.2,0.5-0.5,0.8-1,0.8c-0.6,0-1-0.4-1-1c0-0.2,0-0.3,0.1-0.4l3.4-8.4c0.2-0.4,0.5-0.6,1-0.6c0.4,0,0.8,0.2,1,0.6l3.4,8.4
			c0,0.1,0.1,0.2,0.1,0.4C186.1,100.1,185.7,100.5,185.1,100.5z M181.6,93.7l-1.2,2.9c0,0,0,0,0,0.1c0,0,0,0,0.1,0h2.3
			c0,0,0.1,0,0.1-0.1c0,0,0,0,0,0L181.6,93.7C181.7,93.7,181.7,93.7,181.6,93.7C181.7,93.7,181.6,93.7,181.6,93.7z"/>
	</g>
	<linearGradient id="SVGID_2_" gradientUnits="userSpaceOnUse" x1="161.1147" y1="49.0576" x2="161.1147" y2="79.6139">
		<stop  offset="0.6871" style="stop-color:#FFFFFF"/>
		<stop  offset="1" style="stop-color:#DDD1E4"/>
	</linearGradient>
	<path class="st2" d="M165.5,73.5c-3.4,1.2-6.7-0.7-7.6-4.4c-1.8-7.6,6.9-15,13.1-11.1c6.7,4.2,3.6,18.8-9,21.3c0,0,0,0,0.1,0
		c0,0,0,0-0.1,0c-3.4,1.1-13.6-1.3-14.3-12.2c-0.7-12,12.6-23.4,22-15.5l0.3,0.3c0.8,0.8,0.9,0.9,1.9,2.2c0.6,0.9,0.4,0.9-1.4-0.3
		c-4.3-2.8-10.9-1.7-15.1,4c-6.3,8.4-2.3,21.2,8.6,19.3c0,0,0,0,0,0c1-0.2,2.4-0.7,4-1.8c6-4.3,5.5-12.4,0.6-13.2
		c-4-0.6-7,4.2-5.1,6.6c0.8,1,2.4,0.7,2.6-0.5c0,0.2,0,0.2,0,0c0-0.8,1-1.4,1.8-1.1C169.4,68,169.5,71.8,165.5,73.5z"/>
	<path class="st3" d="M170.3,22.7c0-2.1-0.7-3.9-2.5-3.9c-3.1,0-7.2,4.5-7.2,9.7c0,1.7,0.9,3.2,2.5,3.2c3.1,0,5.5-3.3,6.5-6.2
		c0.1-0.2,0.2-0.7,0.4-1.3c0,0,0,0,0,0C170.2,23.7,170.3,23.2,170.3,22.7z M167.9,27.2c-1.1,2.3-3,3.6-4.3,3
		c-1.3-0.6-1.4-2.9-0.3-5.2c1.1-2.3,3-3.6,4.3-3C168.9,22.6,169,24.9,167.9,27.2z"/>
	<linearGradient id="SVGID_3_" gradientUnits="userSpaceOnUse" x1="129.1109" y1="23.0615" x2="129.1109" y2="80.2402">
		<stop  offset="0.6871" style="stop-color:#FFFFFF"/>
		<stop  offset="1" style="stop-color:#DDD1E4"/>
	</linearGradient>
	<path class="st4" d="M120.8,76.1c0-6,4.6-18.9,6.8-23.1c0,0,0,0,0,0s1.4-2.9,3-6.1c0.7-1.5,1.5-3.1,2.4-4.7c0.5-1,1-1.8,1.4-2.4
		c0.3-0.5,0.6-1,0.9-1.5c0.8-1.3,1.6-2.5,2.3-3.4c0.4-0.6,0.8-1.1,0.9-1.3c0.2-0.3,0.5-0.7,1-1.1c0,0,0,0,0.1-0.1
		c0.6-0.6,1.6-1.2,3.1-1.8c0,0,1.5,0.2,1.7-2.9c0,0,0-0.1,0-0.1c0-0.3,0-0.5,0-0.8c0-2.1-3.9-3.8-5.8-3.8
		c-7.2,0-24.8,39.8-24.8,53.4c0,2.1,1.3,3.3,2.9,3.7c0.2,0,0.4,0.1,0.6,0.1c1.9,0,3.5-1.6,3.5-3.5C120.9,76.5,120.8,76.3,120.8,76.1
		L120.8,76.1z"/>
	<path class="st3" d="M158.7,30.7c0-2.2,1.7-6.9,2.5-8.5c0,0,0,0,0,0s0.5-1.1,1.1-2.2c0.2-0.5,0.5-1.1,0.9-1.7
		c0.2-0.4,0.4-0.7,0.5-0.9c0.1-0.2,0.2-0.4,0.3-0.5c0.3-0.5,0.6-0.9,0.8-1.3c0.2-0.2,0.3-0.4,0.3-0.5c0.1-0.1,0.2-0.2,0.4-0.4
		c0,0,0,0,0,0c0.2-0.2,0.6-0.4,1.1-0.6c0,0,0.5,0.1,0.6-1.1c0,0,0,0,0,0c0-0.1,0-0.2,0-0.3c0-0.8-1.4-1.4-2.1-1.4
		c-2.6,0-9.1,14.6-9.1,19.6c0,0.8,0.5,1.2,1.1,1.4c0.1,0,0.2,0,0.2,0c0.7,0,1.3-0.6,1.3-1.3C158.7,30.8,158.7,30.7,158.7,30.7
		L158.7,30.7z"/>
	<linearGradient id="SVGID_4_" gradientUnits="userSpaceOnUse" x1="159.2477" y1="24.4013" x2="159.2477" y2="81.0471">
		<stop  offset="0.6871" style="stop-color:#FFFFFF"/>
		<stop  offset="1" style="stop-color:#DDD1E4"/>
	</linearGradient>
	<path class="st5" d="M189.3,30.5c-0.9-2.1-2-4-4.1-5.1c-1.2-0.7-2.5-0.9-3.8-0.9c-2,0.1-0.9,0.8,0.3,1.2c2.5,0.8,4.4,2.7,4.3,5.8
		c-0.9,6.5-8.1,9.1-13.8,9.7c0.8-0.1-1.8,0.2-0.9,0.1c-4.5,0.6-9.1-0.7-13.5-1.6c-2-0.4-4-0.7-6-0.9c1-1.9,1.3-2.9,1.3-3.7
		c0-1.6-1.9-3.2-5.3-3.2c-0.7,0-2.5,2.7-4.7,6.8c-2.4,0.4-4.6,1.4-6.6,3.2c-1.8,1.7-3.1,3.7-3.4,4.7c-0.1,0.4,0.4,0.8,0.7,0.5
		c0.8-0.6,1.5-1.3,2.3-1.8c0.8-0.6,1.6-1.1,2.5-1.6c0.8-0.5,1.6-0.8,2.5-1c-1.3,2.7-3.2,6.8-3.4,7.1c-4.7,10.4-9.3,22.5-9.3,28
		c0,1.5,0.7,3.5,3.7,3.6c4,0,9.3-3,13.2-6.3c1.7-1.5,0.7-2.7-0.9-1.5c-3.2,2.2-7.1,3.3-9,3.3c0.8-6.1,5.7-17.4,10.2-26.2
		c0,0,0,0,0,0c0.9-1.9,1.9-3.9,2.7-5.2c0,0,0,0,0,0c0.5-0.9,0.9-1.8,1.3-2.5c1.4,0.3,2.8,0.8,4.2,1.2c3.2,1.1,6.4,2.3,9.7,3.2
		c1.6,0.5,3.2,0.8,4.8,1.3c1.9,0.5,3.7,0.9,5.7,0.9c6.4,0.3,13.2-3.3,15.5-9.5c0.2-0.6,0.4-1.2,0.5-1.8
		C190.3,35.5,190.3,32.8,189.3,30.5z"/>
	<linearGradient id="SVGID_5_" gradientUnits="userSpaceOnUse" x1="185.9957" y1="45.6367" x2="185.9957" y2="79.0922">
		<stop  offset="0.6871" style="stop-color:#FFFFFF"/>
		<stop  offset="1" style="stop-color:#DDD1E4"/>
	</linearGradient>
	<path class="st6" d="M189.3,57.4c-0.4,0.2-0.8,0.5-1.2,0.8c-0.2,0.2-0.1,0.6,0.2,0.6c0.4,0,1.1-0.1,1.9-0.4l0,0c0,0,0.1,0,0.1,0
		c0.1-0.1,0.3-0.1,0.5-0.2c4.2-1.6,6.1-3.3,6.1-7c0-3.7-3-5.5-6-5.5c-3.8,0-11.4,3.8-11.4,10.4c0,6.7,9.3,6.5,9.3,11.5
		c0,2.2-4.3,6.3-7.3,7.2c-0.8,0.2-1.6,0.2-2.3,0.2c-0.3-0.1-0.6-0.1-0.8-0.3c-1.4-0.7-1.8-2-1.4-4c0.2-0.8-0.4-2.1-1-1.1
		c-0.4,0.7-0.6,2.1-0.6,3c0,1.4,0.6,2.6,1.5,3.7c0.9,1.2,2.3,2,3.8,2.5c0.3,0.1,0.7,0.2,1.1,0.3c2.3,0.4,4.6-0.3,6.5-1.6
		c2.2-1.3,4.1-3,5.3-5c0.7-1,1.2-2.1,1.2-3.4c0-1.2-0.2-2.1-0.6-3c0,0,0-0.1,0-0.1c0-0.1,0-0.1-0.1-0.2c0,0,0,0,0,0
		c-1-2.1-3.1-3.2-4.8-3.9c-0.2-0.1-0.3-0.1-0.4-0.2c-0.1-0.1-0.3-0.1-0.4-0.2c-4.6-2.1-4.8-5-4.6-6.3c0.4-2.4,3.3-4.2,5.6-4.2
		c1.3,0,3.3,0.5,3.3,2C192.3,54.4,192.3,55.2,189.3,57.4z"/>
	<path class="st3" d="M174.8,24.1c-0.1,0.1-0.3,0.2-0.4,0.3c-0.1,0.1,0,0.2,0.1,0.2c0.2,0,0.4,0,0.7-0.2l0,0c0,0,0,0,0,0
		c0.1,0,0.1,0,0.2-0.1c1.6-0.6,2.3-1.3,2.3-2.7c0-1.4-1.2-2.1-2.3-2.1c-1.5,0-4.4,1.5-4.4,4c0,2.6,3.6,2.5,3.6,4.4
		c0,0.8-1.7,2.4-2.8,2.8c-0.3,0.1-0.6,0.1-0.9,0.1c-0.1,0-0.2-0.1-0.3-0.1c-0.5-0.3-0.7-0.8-0.6-1.5c0.1-0.3-0.2-0.8-0.4-0.4
		c-0.1,0.3-0.2,0.8-0.2,1.1c0,0.5,0.2,1,0.6,1.4c0.4,0.5,0.9,0.8,1.5,1c0.1,0,0.3,0.1,0.4,0.1c0.9,0.2,1.8-0.1,2.5-0.6
		c0.8-0.5,1.6-1.2,2-1.9c0.3-0.4,0.4-0.8,0.4-1.3c0-0.4-0.1-0.8-0.2-1.1c0,0,0,0,0,0c0,0,0,0,0-0.1c0,0,0,0,0,0
		c-0.4-0.8-1.2-1.2-1.8-1.5c-0.1,0-0.1,0-0.2-0.1c-0.1,0-0.1,0-0.2-0.1c-1.8-0.8-1.8-1.9-1.8-2.4c0.2-0.9,1.3-1.6,2.1-1.6
		c0.5,0,1.3,0.2,1.3,0.8C176,23,176,23.3,174.8,24.1z"/>
	<linearGradient id="SVGID_6_" gradientUnits="userSpaceOnUse" x1="111.1042" y1="6.6482" x2="111.1042" y2="136.1405">
		<stop  offset="0.6871" style="stop-color:#FFFFFF"/>
		<stop  offset="1" style="stop-color:#DDD1E4"/>
	</linearGradient>
	<path class="st7" d="M212.4,107.5c-1.3-1.8-3-3-4.9-3.7c-2.6-1-5.5-1.3-8.2-1.1c-2.1,0.1-4.1,0.6-5.8,1.2
		c-6.1,2.6-12.3,5.7-21.8,9.6c-5.5,1.9-20.6,7.6-39.3,4.1c-9.1-1.9-18.3-7.4-23.1-18.1c0-0.1-0.1-0.2-0.1-0.3
		c-0.2-0.4-0.3-0.8-0.5-1.2c-1.6-4.7-1.9-15.7-0.8-23.5c0.2-1.4,0.4-2.7,0.6-4c0.8-5.1,2.1-10.2,3.8-15.3c0.8-0.2,1.5-0.5,2.3-0.9
		c0.8-0.4,1.5-1.1,2.1-1.7c0.7-0.7,1.4-1.5,1.9-2.4c0.2-0.3-0.2-0.9-0.6-0.7c-0.9,0.4-1.8,0.9-2.7,1.3c-0.5,0.2-1.1,0.4-1.7,0.6
		c5.6-14.7,13.5-27.5,18-33.1c4.9-2.6,9.9-3.9,14.9-3.2c-0.4,2.9,1.6,5.2,4.1,5.6c2.9,0.4,5.8-1.5,6.3-5.1c0.6-4-3.2-7.7-9.2-8.6
		c-19.1-2.9-40.4,14.8-59.6,35.2c-1.4-0.8-2.8-1.4-4.2-2.2c-1.7-1-3.6-1.7-5.5-2.3c-6.3-1.8-14,0.3-17.7,6c-0.3,0.5-0.6,1.1-0.9,1.7
		c-1.1,2.4-1.6,5.1-1.2,7.7c0.4,2.3,1.1,4.5,2.9,6.1c1.2,1.1,2.7,1.8,4.3,2c0.1,0,0.2,0,0.3,0c0,0,0.1,0,0.1,0v0c0,0,0.1,0,0.1,0
		c0.4,0,0.7,0,1-0.2c0.1,0,0.2-0.3,0-0.3c-0.3-0.1-0.7-0.2-1-0.3c-0.1,0-0.2-0.1-0.4-0.1c-3.6-1.9-4.9-3.8-3.9-7.3
		c2.4-6.3,10.3-7.2,16.1-6.5c-0.8-0.1,1.9,0.2,1,0.1c1.5,0.1,2.9,0.5,4.3,0.9c-7.2,7.9-14.6,15.2-18.9,19.3c0,0,0,0,0,0
		c-0.9,0.8-1.7,1.7-2.6,2.5c-0.6,0.6-1,0.9-1,0.9c0,0,0,0,0,0c-11.3,10.3-22.3,15.8-32,14.3c-6.9-1-11-4.9-12.1-9.3
		c-0.2-0.9-0.3-1.9-0.3-2.8c0-0.2,0-0.4,0-0.7c0,0,0,0,0,0c0-0.1,0-0.1,0-0.2c0-0.2,0-0.3,0.1-0.5l0,0c0.2-1.3,0.5-2.6,1.1-3.7
		c0.8-1.5,1.9-2.7,3.1-3.6c1.2-0.9,2.6-1.3,3.7-1.2c0.6,0,1,0.1,1.5,0.3c0.3,0.1,0.8,0.4,1.3,0.7c0.6,0.5,3.4,1.4,6.1,0.2
		c0,0,0,0,0.1,0c0.1,0,0.2-0.1,0.3-0.1c0,0,0,0,0,0c2.4-1.2,4-3.6,4-6.3c0-3.1-2-5.7-4.9-6.7l0,0c-1.8-0.6-3.7-1-5.6-1
		c-1.9,0-3.8,0.3-5.6,0.8c-3.5,1.1-6.4,3.2-8.5,5.7c-2.1,2.5-3.6,5.4-4.3,8.5c-0.3,1.1-0.4,2.3-0.5,3.5C8.3,69.3,8,78.4,15.1,84.7
		c0.6,0.5,1.1,1,1.7,1.4c0.1,0.1,0.2,0.1,0.3,0.2c0.1,0.1,0.2,0.2,0.3,0.2c0.2,0.1,0.4,0.3,0.6,0.4c0,0,0,0,0.1,0
		c1.3,0.8,2.6,1.5,4.2,2.1c6,2.4,11.9,2.4,13,2.4c12.9,0.2,24.8-6,35.5-14.4c0,0,0,0,0,0c0,0,5.1-4.3,8-6.9c2-1.9,4-3.9,6-5.9
		c0-0.1,0-0.1,0-0.1s5.6-5.7,11.1-11.6c2.2,0.9,4.4,1.6,6.7,2.3c0.6,0.2,1.2,0.3,1.8,0.4c-4.7,11-8.7,26.8-8.2,35
		c0,1.1,0,2.3,0.1,3.4c0.1,3,0.8,6.2,2.2,10.2c1.3,4.1,3.4,7.9,5.8,11.3c2.4,3.3,5.2,6.2,8.3,8.7c2.3,1.9,4.7,3.5,7.2,4.8
		c2.8,1.5,5.7,2.8,8.4,3.6c11.9,3.9,22.5,4.1,30.8,3.8c8.3-0.3,14.4-1.3,18-1.7c12-1.6,20.1-4.4,27.4-8.1c2-1,4-2.7,5.6-4.7
		c0.8-1,1.6-2.2,2.2-3.3C214.1,114.5,214.6,110.3,212.4,107.5z M99.2,48.9c1.1-1.2,2.2-2.5,3.3-3.8c0.3-0.4,0.6-0.7,0.9-1.1
		c0.6-0.8,1.1-1.4,1.6-1.8c5.1-6,10.4-12.1,15.3-16.4l0.3,0c-2.5,3.7-6.3,9.8-9.7,16.4c-1.6,2.9-3.3,6.1-4.9,9.5
		C103.5,51.2,101.3,50.1,99.2,48.9z"/>
	<g>
		<path class="st8" d="M200.5,36.8c2,0,3.6,1.6,3.6,3.5c0,2-1.6,3.6-3.6,3.6c-2,0-3.6-1.6-3.6-3.6C196.8,38.4,198.4,36.8,200.5,36.8
			L200.5,36.8z M200.4,37.5c-1.5,0-2.7,1.3-2.7,2.8c0,1.6,1.2,2.8,2.8,2.8c1.5,0,2.7-1.2,2.7-2.8C203.2,38.8,202,37.5,200.4,37.5
			L200.4,37.5z M199.9,42.2h-0.8v-3.5c0.3,0,0.8-0.1,1.4-0.1c0.7,0,1,0.1,1.2,0.3c0.2,0.2,0.4,0.4,0.4,0.8c0,0.4-0.3,0.7-0.7,0.8v0
			c0.3,0.1,0.5,0.4,0.6,0.9c0.1,0.5,0.2,0.7,0.3,0.9h-0.9c-0.1-0.1-0.2-0.4-0.3-0.9c-0.1-0.4-0.3-0.5-0.7-0.5h-0.4V42.2z
			 M199.9,40.2h0.4c0.5,0,0.8-0.2,0.8-0.5c0-0.3-0.2-0.5-0.8-0.5c-0.2,0-0.4,0-0.5,0V40.2z"/>
	</g>
	<path class="st9" d="M171.4,46.5c0,0,11.5,0.6,16.4-9.3C189.2,34.4,191.9,47.4,171.4,46.5z"/>
	<path class="st9" d="M126.1,17.9c0,0,10.2-9.5,22.5-4.3C152,15.1,144.3,0.9,126.1,17.9z"/>
	<path class="st9" d="M134.3,62.1c0,0,10.8-16.5,10.8-19.3C145.1,39.9,139.6,49.4,134.3,62.1z"/>
	<path class="st9" d="M123.9,49c0,0,10.8-16.5,10.8-19.3C134.6,26.8,129.1,36.3,123.9,49z"/>
	<path class="st10" d="M151.7,130.6c8.3,1.1,13,0.6,16.8,0.4c3.7-0.3,6.5-0.5,10.9-1.1c8.4-1.3,12.7-2.8,17.5-5.2
		c5.3-2.8,8.1-6.2,7.9-9.6c-0.6-6.4-5-6.3-8-0.1c-1.6,3.1-4.2,6.1-10.6,9.3C179.8,127.2,169.6,131.7,151.7,130.6z"/>
</g>
</svg>
